<svg width="118" height="128" viewBox="0 0 118 128" fill="none" xmlns="http://www.w3.org/2000/svg">
<g clip-path="url(#clip0_168_936)">
<path d="M105.934 87.3889C105.521 88.0145 104.082 89.4533 101.742 90.2486C101.452 90.3476 101.147 90.4365 100.83 90.513C98.6508 91.0418 95.8291 90.9712 92.4491 89.4072C89.432 88.0108 89.6177 82.4427 94.5579 81.2336C96.4409 80.7733 98.2328 80.0652 98.8928 79.181C99.0036 79.0338 99.0844 78.8802 99.1251 78.7228C99.1979 78.4606 99.1673 78.1838 99.01 77.8953L98.3377 73.6311L97.7265 69.7442C98.8162 70.5578 99.8134 71.4356 100.713 72.3519C105.975 77.7096 107.91 84.3835 105.934 87.3889Z" fill="#9CA9B9"/>
<g opacity="0.3">
<g opacity="0.3">
<g opacity="0.3">
<path opacity="0.3" d="M75.7011 128C97.7636 128 115.649 125.15 115.649 121.633C115.649 118.117 97.7636 115.267 75.7011 115.267C53.6387 115.267 35.7535 118.117 35.7535 121.633C35.7535 125.15 53.6387 128 75.7011 128Z" fill="#4B2710"/>
</g>
</g>
</g>
<path d="M62.8647 115.209C62.8647 115.209 29.881 129.468 9.76322 104.514C-4.31767 87.0559 0.352763 72.1511 9.62566 65.9879C15.8847 61.8291 24.2407 61.6551 30.3477 67.3629C35.7236 72.3931 35.9794 78.0361 34.4444 81.2218C33.9439 82.2623 33.2524 83.0384 32.4876 83.4484C28.0762 85.8158 24.837 83.7717 22.5232 78.7865C22.1266 77.9317 20.3721 74.7181 17.4818 75.9524C17.0204 76.1494 16.6046 76.3913 16.2251 76.6696C12.2296 79.6022 12.5587 86.89 15.6824 94.0713C17.1896 97.5439 19.3514 100.988 21.9917 103.904C29.198 111.861 47.7438 110.896 60.9448 107.924L62.8647 115.209Z" fill="#9CA9B9"/>
<g opacity="0.3">
<g opacity="0.3">
<g opacity="0.3">
<path opacity="0.3" d="M62.8646 115.209C62.8646 115.209 29.8809 129.468 9.76313 104.514C-3.44908 88.1328 -0.150975 73.9982 7.96636 67.2275C3.74338 74.8418 4.32517 88.1767 14.6188 100.942C29.6866 119.629 51.6595 114.392 61.8996 111.552L62.8646 115.209Z" fill="#4B2710"/>
</g>
</g>
</g>
<path d="M32.4886 83.449C28.0756 85.8147 24.8385 83.7717 22.5226 78.7876C22.1265 77.9323 20.3731 74.7176 17.4817 75.953C17.022 76.1483 16.6034 76.3897 16.2239 76.6696L16.5911 74.5838C16.7062 73.9308 16.2277 73.3223 15.5661 73.28L12.2295 73.067C11.3667 73.0118 10.8936 72.0366 11.3838 71.3248L13.2855 68.5656C13.7169 67.9394 13.4075 67.075 12.677 66.8646L9.6272 65.9868C15.8851 61.8286 24.2406 61.653 30.3487 67.3629C37.4791 74.0315 35.6004 81.7817 32.4886 83.449Z" fill="white"/>
<path d="M41.7396 120.12C31.9197 120.12 18.973 117.302 9.09632 105.053C3.13116 97.6553 -0.0144017 89.9923 4.95702e-05 82.8923C0.0123599 76.7735 2.35989 71.2284 6.61017 67.2784C9.95162 64.1729 14.1789 62.3429 18.5137 62.1256C23.1649 61.8928 27.4569 63.4873 30.9333 66.7378C34.7104 70.2693 36.5671 74.6652 36.0271 78.7972C35.7043 81.2695 34.5033 83.3414 32.8933 84.2042C30.8385 85.3062 28.9101 85.569 27.1631 84.9862C25.0404 84.2786 23.2179 82.3148 21.7465 79.1499C21.3746 78.3503 19.9926 75.8133 17.8185 76.7408C15.2659 77.8311 14.3871 80.45 14.0991 82.4556C13.2797 88.1617 16.1448 97.3025 23.0686 103.004C33.4976 111.591 51.157 109.251 60.757 107.09C61.2183 106.988 61.6765 107.277 61.7803 107.738C61.8842 108.199 61.5941 108.658 61.1327 108.761C51.2287 110.99 32.972 113.377 21.9799 104.326C14.5734 98.2269 11.5183 88.3801 12.4035 82.212C12.8986 78.7624 14.583 76.2602 17.1451 75.1656C20.0017 73.9453 22.2448 76.1606 23.2992 78.4274C24.564 81.148 26.0461 82.8083 27.7037 83.3612C29.0048 83.7953 30.4366 83.5769 32.0829 82.6943C33.1978 82.0964 34.0788 80.48 34.3277 78.5751C34.5488 76.8821 34.5466 72.4621 29.7622 67.9892C22.7587 61.4411 13.4001 63.3058 7.77483 68.5335C0.937777 74.8878 -2.46951 87.983 10.4285 103.979C18.5812 114.09 29.7991 118.933 43.7671 118.366C54.256 117.943 62.4413 114.459 62.5227 114.424C62.9568 114.237 63.4604 114.437 63.6483 114.871C63.8356 115.305 63.636 115.808 63.2019 115.996C62.8593 116.144 54.6869 119.628 43.8923 120.075C43.1954 120.104 42.4756 120.12 41.7396 120.12Z" fill="#4B2710"/>
<path d="M107.186 105.208L105.255 117.685C105.255 117.685 103.258 117.93 100.243 118.266C100.243 118.266 100.241 118.264 100.239 118.266C91.5767 116.529 75.6203 118.728 70.4329 119.529C69.9833 119.424 69.5251 119.308 69.0605 119.184C68.7073 119.974 68.3005 120.608 67.853 121.032C64.83 123.881 61.0385 121.74 61.0385 121.74C46.3367 128.996 39.0982 115.607 39.0982 115.607C33.1978 100.849 43.5042 80.8696 48.818 72.0939C49.8457 70.3983 50.6849 69.1201 51.1838 68.3793L51.6526 66.1485L76.1063 65.0844L92.8848 65.9172L97.5777 69.1758C97.5777 69.1758 97.8796 70.9677 98.3163 73.6439C98.554 75.1191 98.8344 76.8639 99.1256 78.7223C99.7336 82.6145 100.391 87.012 100.832 90.5125C100.924 91.2361 101.005 91.9212 101.076 92.555C101.172 92.5528 101.267 92.5528 101.361 92.5571C104.418 92.632 105.85 95.2847 106.578 99.3782C106.591 99.4467 106.602 99.5152 106.615 99.5858C106.897 101.256 107.068 103.155 107.186 105.208Z" fill="#9CA9B9"/>
<g opacity="0.5">
<g opacity="0.5">
<g opacity="0.5">
<path opacity="0.5" d="M106.578 99.3781C104.707 94.9271 101.528 95.2761 101.528 95.2761L101.361 92.5571C104.418 92.632 105.85 95.2846 106.578 99.3781Z" fill="white"/>
</g>
</g>
</g>
<g opacity="0.35">
<g opacity="0.35">
<g opacity="0.35">
<g opacity="0.35">
<path opacity="0.35" d="M63.6364 121.74C63.6364 121.74 64.3547 122.146 65.4144 122.369C64.3087 122.629 63.2548 122.494 62.46 122.285C62.8475 122.117 63.2387 121.936 63.6364 121.74Z" fill="white"/>
</g>
</g>
</g>
<g opacity="0.35">
<g opacity="0.35">
<g opacity="0.35">
<path opacity="0.35" d="M64.1498 122.648C63.5915 122.648 63.0151 122.569 62.4258 122.414L62.0516 122.315L62.407 122.162C62.7849 121.998 63.1788 121.816 63.5776 121.619L63.6407 121.588L63.7023 121.623C63.7093 121.626 64.4179 122.021 65.4423 122.238L66.0284 122.361L65.445 122.498C65.0265 122.598 64.5935 122.648 64.1498 122.648ZM62.8786 122.246C63.5337 122.381 64.1701 122.414 64.7776 122.344C64.1958 122.169 63.7847 121.969 63.6333 121.89C63.379 122.015 63.1264 122.134 62.8786 122.246Z" fill="#4B2710"/>
</g>
</g>
</g>
</g>
<g opacity="0.35">
<g opacity="0.35">
<g opacity="0.35">
<g opacity="0.35">
<path opacity="0.35" d="M71.6585 119.185C71.7896 119.219 71.9229 119.253 72.0519 119.286C71.8887 119.31 71.7313 119.332 71.5798 119.356C71.6061 119.3 71.6323 119.244 71.6585 119.185Z" fill="white"/>
</g>
</g>
</g>
<g opacity="0.35">
<g opacity="0.35">
<g opacity="0.35">
<path opacity="0.35" d="M71.3529 119.528L71.5831 119.026L71.6928 119.055C71.8234 119.089 71.9561 119.124 72.0846 119.156L72.7392 119.319L71.9342 119.438C71.8202 119.455 71.7088 119.471 71.6007 119.489L71.3529 119.528Z" fill="#4B2710"/>
</g>
</g>
</g>
</g>
<g opacity="0.5">
<g opacity="0.5">
<g opacity="0.5">
<path opacity="0.5" d="M76.1063 65.0839L77.3191 65.1443L54.2496 66.1474L53.7812 68.3793C53.2808 69.1201 52.441 70.3977 51.4139 72.0928C46.1001 80.8696 35.7937 100.85 41.6946 115.606C41.6946 115.606 45.749 123.107 53.9568 123.838C44.0074 124.69 39.0971 115.606 39.0971 115.606C33.1962 100.85 43.5026 80.8696 48.8164 72.0928C49.8435 70.3977 50.6833 69.1201 51.1838 68.3793L51.6521 66.1474L76.1063 65.0839Z" fill="white"/>
</g>
</g>
</g>
<g opacity="0.35">
<g opacity="0.35">
<g opacity="0.35">
<g opacity="0.35">
<path opacity="0.35" d="M101.834 118.087C101.344 118.144 100.813 118.204 100.244 118.267C100.244 118.267 100.242 118.265 100.239 118.267C98.2253 117.861 95.8157 117.672 93.2365 117.625C96.3504 117.574 99.337 117.693 101.834 118.087Z" fill="white"/>
</g>
</g>
</g>
<g opacity="0.35">
<g opacity="0.35">
<g opacity="0.35">
<path opacity="0.35" d="M100.283 118.412L100.235 118.402L100.194 118.406L100.178 118.391C98.326 118.021 95.9897 117.808 93.2338 117.758V117.491C96.6496 117.435 99.55 117.591 101.854 117.955L102.824 118.108L101.849 118.22C101.37 118.275 100.853 118.334 100.3 118.395L100.283 118.412ZM100.239 118.077L100.291 118.126C100.453 118.108 100.611 118.091 100.767 118.073C100.146 117.997 99.4869 117.935 98.7922 117.886C99.2862 117.955 99.754 118.034 100.196 118.121L100.239 118.077Z" fill="#4B2710"/>
</g>
</g>
</g>
</g>
<g opacity="0.35">
<g opacity="0.35">
<g opacity="0.35">
<g opacity="0.35">
<path opacity="0.35" d="M61.0389 121.74C61.0389 121.74 61.5977 122.057 62.4594 122.285C59.2507 123.667 56.4172 124.059 53.9573 123.839C56.0864 123.657 58.4479 123.019 61.0389 121.74Z" fill="white"/>
</g>
</g>
</g>
<g opacity="0.35">
<g opacity="0.35">
<g opacity="0.35">
<path opacity="0.35" d="M55.243 124.029C54.8067 124.029 54.3737 124.01 53.9456 123.972L53.9461 123.705C56.2 123.513 58.5662 122.811 60.9801 121.62L61.0438 121.588L61.1054 121.623C61.1107 121.626 61.662 121.935 62.4943 122.155L62.8684 122.254L62.513 122.407C60.0097 123.486 57.5701 124.029 55.243 124.029ZM61.0363 121.89C59.171 122.805 57.332 123.431 55.5491 123.758C57.6403 123.715 59.8224 123.229 62.0607 122.308C61.5416 122.142 61.1765 121.964 61.0363 121.89Z" fill="#4B2710"/>
</g>
</g>
</g>
</g>
<g opacity="0.35">
<g opacity="0.35">
<g opacity="0.35">
<g opacity="0.35">
<path opacity="0.35" d="M93.2364 117.625C85.3315 117.756 76.6131 118.977 73.0308 119.528C72.7081 119.453 72.3832 119.373 72.0519 119.286C76.7705 118.603 85.7169 117.494 93.2364 117.625Z" fill="white"/>
</g>
</g>
</g>
<g opacity="0.35">
<g opacity="0.35">
<g opacity="0.35">
<path opacity="0.35" d="M73.026 119.664L73.0008 119.658C72.6765 119.583 72.3505 119.502 72.0182 119.415L71.3812 119.247L72.0331 119.153C76.7175 118.476 85.7024 117.361 93.239 117.491L93.2385 117.759C85.324 117.89 76.4841 119.132 73.0511 119.66L73.026 119.664ZM72.7429 119.322C72.8408 119.346 72.9387 119.369 73.0362 119.392C74.7072 119.135 77.6338 118.713 81.1064 118.331C77.8741 118.638 74.932 119.014 72.7429 119.322Z" fill="#4B2710"/>
</g>
</g>
</g>
</g>
<path d="M80.302 114.767C87.7201 114.767 93.7337 106.262 93.7337 95.7701C93.7337 85.2785 87.7201 76.7734 80.302 76.7734C72.8839 76.7734 66.8704 85.2785 66.8704 95.7701C66.8704 106.262 72.8839 114.767 80.302 114.767Z" fill="white"/>
<path d="M107.185 106.063C106.734 106.063 106.357 105.712 106.331 105.256C105.905 97.8501 104.955 93.6982 101.161 92.9682C100.697 92.8788 100.393 92.4297 100.482 91.9651C100.571 91.5005 101.023 91.1981 101.485 91.2859C106.863 92.3205 107.655 98.4378 108.041 105.157C108.068 105.629 107.708 106.034 107.235 106.061C107.218 106.063 107.202 106.063 107.185 106.063Z" fill="#4B2710"/>
<path d="M114.796 109.177C114.728 109.392 114.655 109.611 114.578 109.829C114.352 110.481 114.098 111.13 113.822 111.766C113.682 112.085 113.539 112.402 113.392 112.713C113.194 113.13 112.986 113.538 112.774 113.938C112.562 114.338 112.342 114.727 112.116 115.104C111.834 115.574 111.545 116.028 111.25 116.456C111.192 116.543 111.133 116.627 111.073 116.71C110.834 117.045 110.594 117.364 110.354 117.665C109.993 118.115 109.628 118.522 109.267 118.882C108.544 119.598 107.832 120.113 107.174 120.357H107.172C107.087 120.387 107.004 120.417 106.921 120.444C106.853 120.465 106.784 120.488 106.715 120.506H106.713C106.665 120.52 106.614 120.532 106.566 120.545C106.556 120.549 106.548 120.551 106.54 120.551C106.511 120.559 106.483 120.564 106.455 120.573C106.423 120.581 106.39 120.586 106.358 120.593C106.352 120.595 106.348 120.595 106.346 120.595C106.315 120.601 106.288 120.607 106.257 120.613C106.231 120.619 106.202 120.623 106.176 120.627C106.126 120.637 106.077 120.645 106.027 120.651C105.977 120.659 105.928 120.665 105.88 120.672C105.829 120.677 105.781 120.684 105.733 120.688C105.684 120.692 105.638 120.696 105.589 120.698C105.549 120.701 105.511 120.702 105.472 120.703C105.327 120.708 105.184 120.71 105.046 120.704C104.974 120.699 104.903 120.696 104.832 120.69C104.776 120.684 104.719 120.677 104.663 120.672C104.636 120.667 104.608 120.664 104.582 120.661C104.525 120.653 104.469 120.645 104.414 120.635C104.281 120.615 104.15 120.586 104.021 120.554C103.954 120.536 103.888 120.518 103.823 120.5C103.758 120.479 103.695 120.461 103.635 120.441C103.572 120.419 103.512 120.399 103.451 120.377C103.393 120.355 103.336 120.332 103.28 120.312C103.274 120.308 103.268 120.304 103.26 120.304C103.161 120.263 103.065 120.219 102.971 120.174C102.905 120.143 102.842 120.111 102.779 120.078C102.762 120.07 102.745 120.061 102.729 120.052C102.5 119.931 102.287 119.803 102.093 119.67C102.076 119.658 102.058 119.647 102.041 119.635C102 119.607 101.962 119.581 101.923 119.552C101.885 119.526 101.847 119.498 101.81 119.469C101.77 119.439 101.732 119.409 101.693 119.381C101.661 119.354 101.628 119.328 101.598 119.304C101.554 119.268 101.512 119.231 101.469 119.197C101.427 119.161 101.386 119.126 101.348 119.092C101.346 119.09 101.346 119.092 101.346 119.092C101.318 119.066 101.29 119.04 101.262 119.013C101.179 118.937 101.104 118.866 101.037 118.799C101.007 118.769 100.979 118.741 100.951 118.713C100.817 118.573 100.723 118.464 100.67 118.402C100.65 118.377 100.636 118.359 100.63 118.349C100.626 118.345 100.624 118.343 100.624 118.343C100.622 118.343 100.622 118.343 100.62 118.343C100.497 118.315 100.37 118.289 100.243 118.265C100.243 118.265 100.241 118.262 100.238 118.265C91.5767 116.527 75.6193 118.726 70.4324 119.526C69.4031 119.686 68.7978 119.788 68.7571 119.796L101.969 108.708L102.347 108.581C102.383 108.438 102.422 108.295 102.457 108.155C102.494 108.014 102.532 107.875 102.57 107.737C102.653 107.436 102.736 107.146 102.821 106.863C102.855 106.756 102.887 106.651 102.92 106.546C102.999 106.29 103.079 106.043 103.162 105.803C103.199 105.694 103.235 105.587 103.273 105.482C103.483 104.88 103.701 104.325 103.925 103.809C103.969 103.708 104.014 103.607 104.058 103.51C104.097 103.426 104.135 103.343 104.173 103.26C104.224 103.149 104.275 103.042 104.327 102.939C104.359 102.874 104.392 102.807 104.424 102.745C104.482 102.628 104.541 102.513 104.599 102.404C104.646 102.317 104.692 102.233 104.739 102.15C104.924 101.815 105.112 101.504 105.302 101.215C105.348 101.144 105.396 101.072 105.445 101.003C105.589 100.793 105.734 100.597 105.879 100.414C105.927 100.351 105.976 100.291 106.024 100.232C106.171 100.055 106.317 99.8893 106.466 99.7341C106.515 99.6816 106.565 99.6313 106.614 99.5826C106.654 99.5425 106.694 99.5039 106.734 99.4654C106.896 99.308 107.057 99.1667 107.219 99.0394C107.259 99.0072 107.3 98.9746 107.34 98.9446C107.38 98.9125 107.421 98.882 107.461 98.8536C107.501 98.8231 107.542 98.7953 107.582 98.7669C107.697 98.6861 107.81 98.6117 107.925 98.5448C107.973 98.5164 108.02 98.4902 108.068 98.4618C108.189 98.3933 108.311 98.3307 108.432 98.2761C108.472 98.2579 108.513 98.2397 108.553 98.2215C108.754 98.1327 108.954 98.062 109.154 98.0058C109.194 97.9935 109.235 97.9839 109.273 97.9737C109.511 97.9111 109.747 97.8688 109.981 97.8463C110.722 97.7714 111.432 97.8827 112.078 98.1064C112.268 98.1728 112.453 98.2499 112.635 98.3344C112.754 98.389 112.871 98.4495 112.983 98.5121C112.983 98.5121 112.985 98.5121 112.985 98.5143C113.3 98.6877 113.592 98.8879 113.853 99.0993C113.895 99.1336 113.937 99.1678 113.98 99.2021C114.051 99.2626 114.117 99.323 114.182 99.3835C114.182 99.3835 114.182 99.3835 114.184 99.3857C114.226 99.4258 114.268 99.4665 114.307 99.5045C114.406 99.6035 114.499 99.7025 114.585 99.801C114.638 99.8636 114.69 99.9262 114.739 99.9889C114.927 100.231 115.074 100.471 115.171 100.691C116.132 102.876 115.803 106.026 114.796 109.177Z" fill="#9CA9B9"/>
<g opacity="0.3">
<g opacity="0.3">
<g opacity="0.3">
<path opacity="0.3" d="M106.591 120.537C106.582 120.541 106.574 120.543 106.566 120.545C106.556 120.549 106.548 120.551 106.54 120.551C106.483 120.565 106.427 120.577 106.371 120.59C106.363 120.594 106.352 120.596 106.346 120.596C106.29 120.608 106.234 120.617 106.177 120.628C105.977 120.664 105.779 120.688 105.59 120.698C105.541 120.703 105.495 120.704 105.446 120.704C104.187 120.749 103.12 120.319 102.312 119.812C102.217 119.755 102.128 119.695 102.042 119.636C101.882 119.526 101.735 119.414 101.599 119.306C101.511 119.233 101.428 119.162 101.349 119.094C101.347 119.092 101.347 119.092 101.347 119.092C101.23 118.987 101.127 118.888 101.038 118.801C101.008 118.769 100.98 118.74 100.951 118.714C100.766 118.52 100.655 118.383 100.63 118.351C100.626 118.345 100.624 118.345 100.624 118.345V118.343C100.622 118.343 100.622 118.345 100.62 118.345C100.497 118.316 100.37 118.29 100.243 118.266C100.243 118.266 100.241 118.264 100.238 118.266C91.5767 116.529 75.6193 118.728 70.4324 119.528C69.4031 119.687 68.7978 119.79 68.7571 119.798L69.8629 114.349C81.8082 110.484 101.422 112.121 101.422 112.121V112.123C101.174 113.144 100.946 114.173 100.811 115.215C100.376 118.547 103.402 121.316 106.591 120.537Z" fill="#4B2710"/>
</g>
</g>
</g>
<path d="M107.172 120.357C107.091 120.387 107.011 120.415 106.93 120.441C103.619 121.512 100.362 118.666 100.813 115.215C101.075 113.202 101.678 111.237 102.119 109.301C102.174 109.056 102.25 108.816 102.35 108.585C106.267 93.1057 114.038 98.1262 115.173 100.697C117.691 106.411 111.335 118.818 107.172 120.357Z" fill="white"/>
<path d="M105.246 121.564C105.173 121.564 105.096 121.563 105.02 121.56C104.919 121.555 104.84 121.55 104.761 121.543L104.461 121.51C104.394 121.5 104.327 121.49 104.262 121.478C104.123 121.455 103.973 121.423 103.826 121.389L103.51 121.3C103.46 121.285 103.411 121.27 103.364 121.254L102.879 121.073C102.522 120.921 102.179 120.741 101.856 120.537C101.759 120.479 101.653 120.41 101.552 120.339L101.52 120.317C101.489 120.295 101.459 120.274 101.429 120.252C101.381 120.219 101.333 120.183 101.287 120.148C101.256 120.125 100.806 119.757 100.806 119.757L100.741 119.698C100.452 119.407 100.282 119.233 100.179 119.128L100.072 119.106C100.032 119.098 99.9916 119.09 99.9504 119.082L99.8251 119.058C91.1875 117.429 75.273 119.649 70.5651 120.374C69.524 120.536 68.9636 120.631 68.9208 120.639L68.8432 120.654L68.7592 120.655C68.286 120.655 67.9017 120.272 67.9017 119.799C67.9017 119.367 68.2197 119.011 68.6339 118.951C68.8025 118.921 69.4047 118.821 70.3033 118.682C76.3793 117.745 91.2694 115.769 99.9547 117.341L100.24 117.056L100.665 117.478C100.706 117.487 100.745 117.495 100.785 117.505C101.082 117.561 101.257 117.763 101.332 117.858C101.379 117.908 101.67 118.203 101.925 118.46C102.019 118.538 102.281 118.752 102.333 118.792C102.361 118.814 102.385 118.832 102.41 118.849L102.534 118.936C102.605 118.986 102.681 119.034 102.758 119.081C102.98 119.22 103.206 119.343 103.439 119.449H103.516L103.662 119.541C103.678 119.547 103.695 119.553 103.712 119.56L103.923 119.635C103.941 119.641 103.974 119.651 104.007 119.661L104.232 119.725C104.339 119.749 104.446 119.773 104.556 119.791C104.604 119.8 104.644 119.806 104.683 119.811C104.713 119.815 104.744 119.818 104.773 119.823L104.923 119.838C104.967 119.842 105.029 119.846 105.092 119.849C105.187 119.852 105.303 119.852 105.419 119.848C105.47 119.848 105.495 119.847 105.52 119.845L105.553 119.842C105.589 119.841 105.623 119.838 105.66 119.834C105.696 119.832 105.729 119.827 105.762 119.823C105.822 119.816 105.856 119.811 105.892 119.806L105.926 119.801C105.955 119.797 105.983 119.793 106.012 119.787L106.426 119.697C106.444 119.693 106.46 119.688 106.475 119.683L106.579 119.654C106.605 119.645 106.631 119.637 106.657 119.629C106.731 119.606 106.798 119.583 106.867 119.557L106.953 119.523C107.456 119.317 108.045 118.887 108.663 118.273C108.992 117.95 109.335 117.566 109.686 117.128C109.919 116.84 110.149 116.534 110.373 116.216C110.435 116.131 110.487 116.055 110.54 115.976C110.827 115.56 111.109 115.121 111.381 114.665C111.603 114.294 111.816 113.915 112.017 113.536C112.229 113.141 112.43 112.742 112.618 112.346C112.778 112.008 112.914 111.708 113.035 111.427C113.306 110.804 113.553 110.173 113.77 109.548C113.844 109.335 113.915 109.125 113.98 108.917C115.032 105.627 115.177 102.83 114.388 101.042C114.34 100.931 114.245 100.753 114.063 100.519C114.021 100.464 113.976 100.41 113.93 100.356C113.868 100.286 113.788 100.2 113.703 100.115C113.673 100.085 113.643 100.055 113.612 100.027L113.58 99.9964C113.542 99.961 113.485 99.9118 113.428 99.8609L113.316 99.77C113.079 99.5789 112.829 99.4097 112.573 99.269L112.475 99.2144C112.409 99.1796 112.342 99.1464 112.275 99.1148C112.115 99.0399 111.953 98.9735 111.796 98.9189C111.222 98.7198 110.638 98.6459 110.067 98.7027C109.869 98.7236 109.678 98.7573 109.49 98.806L109.406 98.8285C109.217 98.8847 109.051 98.9435 108.893 99.0121L108.784 99.0608C108.693 99.1036 108.588 99.1576 108.484 99.2154L108.359 99.2877C108.266 99.3434 108.168 99.4087 108.068 99.4772C108.037 99.4986 108.008 99.5189 107.978 99.5409L107.953 99.5596C107.926 99.5778 107.9 99.5976 107.874 99.6185C107.825 99.6565 107.792 99.6827 107.759 99.7089C107.61 99.8283 107.467 99.9541 107.331 100.085C106.991 100.413 106.449 100.404 106.12 100.063C105.792 99.7228 105.802 99.1807 106.142 98.852C106.316 98.6845 106.498 98.5239 106.685 98.374C106.735 98.3344 106.781 98.298 106.827 98.2638C106.861 98.236 106.911 98.199 106.96 98.1632C107.002 98.1327 107.042 98.1038 107.083 98.0749C107.23 97.9742 107.358 97.8902 107.488 97.8126L107.638 97.7253C107.795 97.6392 107.932 97.5685 108.07 97.5037L108.204 97.4433C108.435 97.3437 108.67 97.2597 108.913 97.1874C108.948 97.1767 108.99 97.1655 109.031 97.1548L109.059 97.1473C109.329 97.0772 109.61 97.0269 109.896 96.9974C110.721 96.9161 111.549 97.0188 112.361 97.3004C112.574 97.3753 112.787 97.4625 112.999 97.561C113.066 97.5921 113.133 97.6247 113.198 97.6584H113.841L113.842 98.0336C114.031 98.1578 114.214 98.2922 114.393 98.4361L114.548 98.563C114.625 98.6304 114.699 98.6968 114.77 98.7626L114.77 98.7632C114.82 98.8081 114.867 98.8552 114.914 98.9023C115.027 99.0147 115.132 99.1271 115.231 99.2395C115.304 99.3257 115.362 99.3969 115.418 99.4681C115.649 99.7667 115.83 100.063 115.956 100.35C117.183 103.133 116.447 106.827 115.613 109.436C115.542 109.658 115.467 109.885 115.388 110.111C115.157 110.773 114.895 111.446 114.608 112.106C114.48 112.403 114.335 112.722 114.166 113.078C113.967 113.498 113.753 113.923 113.53 114.34C113.317 114.742 113.088 115.147 112.852 115.542C112.562 116.029 112.26 116.5 111.956 116.94C111.897 117.029 111.832 117.122 111.766 117.213C111.529 117.549 111.276 117.886 111.022 118.201C110.63 118.689 110.241 119.124 109.868 119.491C109.035 120.317 108.229 120.878 107.472 121.159L107.323 121.213C107.275 121.229 107.227 121.245 107.18 121.26C107.11 121.282 107.034 121.305 106.957 121.327L106.826 121.361C106.818 121.363 106.811 121.365 106.803 121.367C106.774 121.376 106.745 121.383 106.715 121.389L106.663 121.403L106.585 121.444L106.426 121.452C106.408 121.456 106.366 121.464 106.325 121.47C106.275 121.48 106.213 121.49 106.147 121.498C106.099 121.506 106.053 121.512 106.006 121.518L105.966 121.523C105.911 121.53 105.857 121.536 105.803 121.54C105.751 121.544 105.698 121.549 105.643 121.551C105.577 121.556 105.51 121.559 105.447 121.559C105.385 121.563 105.317 121.564 105.246 121.564ZM100.244 118.267H100.246H100.244Z" fill="#4B2710"/>
<path d="M102.348 108.585L102.348 108.583C102.334 108.157 102.351 107.733 102.395 107.314C102.433 106.889 102.484 106.481 102.57 106.068C102.707 105.232 102.993 104.437 103.239 103.626C103.301 103.425 103.384 103.223 103.46 103.033C103.537 102.843 103.632 102.617 103.711 102.437C103.879 102.045 104.086 101.665 104.301 101.288C104.409 101.101 104.518 100.914 104.632 100.727C104.75 100.538 104.882 100.365 105.013 100.189C105.257 99.8315 105.579 99.4959 105.889 99.1812C106.199 98.8654 106.707 98.8616 107.022 99.1721C107.317 99.4616 107.34 99.923 107.09 100.24L107.047 100.294C106.929 100.441 106.814 100.588 106.692 100.729C106.577 100.871 106.467 101.026 106.353 101.183C106.242 101.339 106.123 101.492 106.018 101.646L105.71 102.138C105.605 102.302 105.494 102.461 105.394 102.63L105.099 103.141C104.993 103.326 104.913 103.473 104.816 103.654C104.722 103.838 104.628 104.008 104.541 104.188L104.021 105.273C103.832 105.632 103.669 105.996 103.491 106.364C103.126 107.105 102.787 107.843 102.349 108.583L102.348 108.585Z" fill="#4B2710"/>
<g opacity="0.3">
<g opacity="0.3">
<g opacity="0.3">
<path opacity="0.3" d="M34.4444 81.2212C33.9439 82.2617 33.2524 83.0378 32.4876 83.4478C28.0762 85.8152 24.837 83.7711 22.5231 78.7859C22.1265 77.9311 20.372 74.7176 17.4818 75.9518C17.0204 76.1488 16.6045 76.3907 16.2251 76.6691C12.2296 79.6016 12.5587 86.8894 15.6823 94.0707L14.3608 94.0231C14.3608 94.0231 8.73181 78.9775 16.1662 73.0476C23.8618 66.9095 26.9126 75.2378 29.7916 79.0648C31.5231 81.362 33.3 81.4883 34.4444 81.2212Z" fill="#4B2710"/>
</g>
</g>
</g>
<path d="M109.638 113.597C110.773 111.146 110.6 108.653 109.252 108.029C107.904 107.405 105.891 108.886 104.757 111.338C103.623 113.789 103.796 116.281 105.144 116.905C106.492 117.529 108.504 116.048 109.638 113.597Z" fill="#FC7E81"/>
<path d="M107.987 105.063C107.567 105.97 106.823 106.519 106.323 106.288C105.825 106.057 105.76 105.134 106.18 104.226C106.601 103.319 107.345 102.771 107.845 103.002C108.343 103.233 108.408 104.156 107.987 105.063Z" fill="#FC7E81"/>
<path d="M111.867 104.589C112.45 103.331 112.361 102.051 111.669 101.731C110.977 101.411 109.944 102.171 109.362 103.43C108.78 104.688 108.868 105.967 109.56 106.287C110.252 106.608 111.285 105.847 111.867 104.589Z" fill="#FC7E81"/>
<path d="M112.899 108.036C113.285 107.202 113.226 106.355 112.767 106.142C112.309 105.93 111.624 106.434 111.239 107.267C110.853 108.101 110.912 108.949 111.37 109.161C111.829 109.373 112.513 108.869 112.899 108.036Z" fill="#FC7E81"/>
<path d="M101.02 102.884L93.7325 102.973L96.215 95.3484L96.2433 94.1821L96.4794 84.2085L96.8931 66.7292C96.8931 66.7292 99.3188 74.6421 100.618 84.5333C101.014 87.5344 101.304 90.7169 101.393 93.9177C101.478 96.9385 101.382 99.9739 101.02 102.884Z" fill="#9CA9B9"/>
<path d="M101.022 103.74C100.988 103.74 100.952 103.738 100.916 103.734C100.447 103.676 100.114 103.248 100.171 102.778C101.017 95.9697 100.782 89.0138 99.4928 82.6621C99.3986 82.1986 99.6983 81.7469 100.161 81.6527C100.625 81.5569 101.077 81.8582 101.171 82.3217C102.496 88.8532 102.738 96.0002 101.871 102.99C101.817 103.423 101.449 103.74 101.022 103.74Z" fill="#4B2710"/>
<path d="M67.8524 121.031C67.7893 121.091 67.7261 121.148 67.6624 121.203C65.0045 123.505 60.828 122.144 59.9165 118.748C59.1421 115.863 58.6903 112.519 58.4281 109.708L58.8081 112.082C56.3637 96.3032 65.4803 97.8848 67.5286 99.8085C72.0797 104.083 71.0815 117.987 67.8524 121.031Z" fill="white"/>
<path d="M68.4546 120.304C68.5964 120.09 68.7329 119.854 68.8651 119.597C68.7356 119.853 68.5991 120.09 68.4546 120.304Z" fill="white"/>
<path d="M68.5654 120.378L68.3428 120.229C68.4787 120.025 68.6141 119.792 68.7458 119.536L68.984 119.658C68.8518 119.921 68.711 120.163 68.5654 120.378Z" fill="#4B2710"/>
<path d="M70.489 107.685C70.5313 108.1 70.5613 108.518 70.5811 108.939C70.5586 108.518 70.5286 108.1 70.489 107.685Z" fill="white"/>
<path d="M70.4472 108.945C70.4237 108.503 70.3937 108.095 70.3557 107.698L70.6223 107.672C70.6629 108.071 70.694 108.496 70.7149 108.932L70.4472 108.945Z" fill="#4B2710"/>
<path d="M51.9229 67.8104C51.4711 68.7845 50.983 69.7378 50.4879 70.6803C50.2486 71.1572 49.9842 71.6175 49.7407 72.0907L48.9791 73.4898C47.953 75.3476 46.9473 77.2145 45.9668 79.0943C44.9825 80.9719 44.0539 82.8784 43.2082 84.8208C42.3631 86.7632 41.6164 88.7451 40.9394 90.7459C40.2569 92.746 39.6971 94.7826 39.2389 96.8363C39.134 97.3512 39.0023 97.8624 38.9189 98.3805L38.6496 99.9327C38.5147 100.972 38.3585 102.011 38.3007 103.055C37.9549 107.219 38.4018 111.446 39.8935 115.288L39.8518 115.199C39.9535 115.38 40.0948 115.608 40.2291 115.811C40.3656 116.019 40.5085 116.226 40.6573 116.429C40.9517 116.837 41.2674 117.232 41.5972 117.614C42.2576 118.378 42.977 119.09 43.7525 119.729C45.301 121.01 47.0849 121.986 48.993 122.529C49.9446 122.81 50.9321 122.96 51.9239 123.011C52.4196 123.051 52.9184 123.025 53.4167 123.015C53.6656 123.004 53.9139 122.97 54.1628 122.95L54.5359 122.914C54.66 122.9 54.7831 122.874 54.9068 122.854C56.8887 122.543 58.8258 121.875 60.6584 120.971L61.0577 120.774L61.4591 120.994C61.5201 121.027 61.6384 121.083 61.7358 121.127C61.8407 121.169 61.9445 121.216 62.0532 121.254C62.2684 121.335 62.4889 121.404 62.711 121.462C63.1558 121.581 63.6097 121.641 64.0555 121.648C64.504 121.668 64.9392 121.596 65.3604 121.494C65.5643 121.42 65.779 121.376 65.97 121.27L66.2655 121.135C66.3591 121.079 66.4496 121.017 66.5427 120.96C66.6332 120.898 66.7327 120.851 66.8168 120.778L67.0726 120.564C67.2594 120.422 67.383 120.282 67.5179 120.127C67.7855 119.805 68.0082 119.389 68.2143 118.968C68.6125 118.105 68.9058 117.151 69.13 116.178C69.5705 114.226 69.7627 112.19 69.7541 110.169C69.7386 108.15 69.5283 106.121 68.9861 104.223C68.711 103.281 68.3561 102.363 67.8557 101.576C67.7283 101.383 67.6057 101.184 67.459 101.013C67.3252 100.827 67.1684 100.67 67.0148 100.51C66.9356 100.419 66.8698 100.378 66.8023 100.315C66.7204 100.261 66.646 100.2 66.555 100.149C66.3773 100.043 66.1852 99.9423 65.9791 99.8626C65.1592 99.5302 64.2257 99.4044 63.3661 99.5297C62.5092 99.6688 61.7187 100.048 61.1251 100.684C60.516 101.303 60.1007 102.147 59.8357 103.053C59.5719 103.962 59.4402 104.931 59.3519 105.915C59.1924 107.894 59.2662 109.919 59.0896 112.037V112.039C59.0762 112.2 58.9344 112.32 58.7733 112.306C58.6593 112.297 58.5662 112.223 58.526 112.124C57.7194 110.125 57.4432 107.972 57.5299 105.789C57.5942 104.696 57.781 103.592 58.1433 102.513C58.3183 101.973 58.5539 101.441 58.8316 100.926C59.1266 100.417 59.4664 99.922 59.8978 99.4895C60.7296 98.5967 61.9156 98.0171 63.1119 97.8356C64.3172 97.6638 65.5183 97.8308 66.6284 98.2772C66.9072 98.3869 67.1802 98.5261 67.4489 98.6872C67.5838 98.7653 67.716 98.8649 67.8482 98.9586C67.9772 99.0667 68.1222 99.1817 68.2148 99.2872C68.4246 99.5013 68.6328 99.717 68.8057 99.953C68.9962 100.18 69.1498 100.424 69.3077 100.667C69.9254 101.643 70.3231 102.693 70.6324 103.746C71.2346 105.86 71.4497 108.016 71.4679 110.159C71.476 112.304 71.2769 114.445 70.801 116.559C70.5559 117.615 70.2396 118.666 69.7654 119.696C69.5138 120.208 69.2451 120.72 68.848 121.205C68.6462 121.446 68.4144 121.69 68.1859 121.865L67.8407 122.15C67.7261 122.246 67.5902 122.318 67.4655 122.401C67.3375 122.481 67.2112 122.565 67.0801 122.64L66.6674 122.834C66.3971 122.975 66.0996 123.049 65.8116 123.145C65.225 123.293 64.6196 123.383 64.0255 123.36C63.4309 123.349 62.8443 123.268 62.2823 123.118C62.0002 123.045 61.7235 122.958 61.4505 122.856C61.3135 122.807 61.1792 122.748 61.0432 122.691C60.903 122.627 60.7842 122.574 60.6166 122.483L61.4168 122.505C59.4621 123.469 57.3619 124.201 55.1664 124.546C55.0293 124.567 54.8934 124.595 54.7553 124.611L54.34 124.651C54.0627 124.675 53.7865 124.711 53.5082 124.724C52.95 124.737 52.3923 124.763 51.8335 124.719C50.7175 124.662 49.6005 124.491 48.5252 124.174C46.3671 123.561 44.3686 122.46 42.6633 121.048C41.8086 120.343 41.0212 119.564 40.2998 118.73C39.939 118.312 39.5943 117.881 39.2705 117.433C39.1073 117.21 38.9494 116.982 38.7968 116.748C38.6405 116.51 38.5008 116.29 38.3445 116.011L38.3215 115.969L38.3028 115.921C36.6885 111.771 36.2325 107.272 36.5922 102.924C36.6543 101.831 36.8154 100.752 36.9562 99.671L37.235 98.0615C37.3223 97.5236 37.4571 96.9969 37.5658 96.4643C38.0389 94.3437 38.6148 92.2488 39.3144 90.1994C40.6931 86.0925 42.4236 82.1264 44.3327 78.2561C45.2983 76.3255 46.3591 74.4441 47.5083 72.6184C48.0858 71.7075 48.6949 70.8157 49.3462 69.9529C49.9982 69.0901 50.6817 68.2525 51.4577 67.4753C51.5707 67.3624 51.7537 67.3624 51.8667 67.4753C51.955 67.5636 51.9742 67.6942 51.925 67.8013L51.9229 67.8104Z" fill="#4B2710"/>
<path d="M52.9393 94.303C54.0392 94.5931 54.9421 95.2953 55.6882 96.0998C56.437 96.9096 57.1013 97.8094 57.629 98.7883C57.7655 99.0302 57.8779 99.2845 58.0021 99.5334L58.1803 99.9112L58.3296 100.3L58.6245 101.081L58.8515 101.883L58.9639 102.284C58.9938 102.42 59.0195 102.556 59.0447 102.692L59.1956 103.51C59.277 104.057 59.3075 104.61 59.353 105.159C59.3921 105.63 59.0425 106.042 58.5726 106.081C58.1177 106.119 57.7162 105.794 57.6552 105.346L57.6434 105.257C57.5765 104.759 57.5418 104.258 57.4716 103.764L57.3448 103.026L57.2838 102.657L57.1955 102.295C56.9958 101.316 56.6511 100.382 56.2738 99.4584C55.8692 98.5475 55.3709 97.6739 54.7757 96.8636C54.1709 96.0565 53.5404 95.2782 52.8676 94.4261L52.8628 94.4197C52.8376 94.3876 52.843 94.3416 52.8751 94.3164C52.8933 94.3014 52.9173 94.2971 52.9393 94.303Z" fill="#4B2710"/>
<g opacity="0.3">
<g opacity="0.3">
<g opacity="0.3">
<g opacity="0.3">
<path opacity="0.3" d="M107.173 120.358C107.029 120.411 106.887 120.458 106.748 120.495C106.81 120.478 106.87 120.461 106.929 120.441C107.009 120.416 107.091 120.388 107.173 120.358Z" fill="#6B184E"/>
</g>
</g>
</g>
<g opacity="0.3">
<g opacity="0.3">
<g opacity="0.3">
<path opacity="0.3" d="M106.783 120.624L106.711 120.366C106.771 120.35 106.829 120.333 106.886 120.313C106.949 120.294 107.01 120.274 107.072 120.252C107.09 120.246 107.108 120.24 107.127 120.233C107.127 120.233 107.127 120.233 107.128 120.233L107.219 120.484C107.219 120.484 107.219 120.484 107.219 120.484C107.219 120.484 107.219 120.484 107.218 120.484C107.199 120.491 107.18 120.498 107.16 120.505C107.017 120.556 106.896 120.594 106.783 120.624Z" fill="#4B2710"/>
</g>
</g>
</g>
</g>
<path d="M65.0677 117.893C66.5085 117.893 67.6764 115.769 67.6764 113.15C67.6764 110.53 66.5085 108.407 65.0677 108.407C63.6269 108.407 62.459 110.53 62.459 113.15C62.459 115.769 63.6269 117.893 65.0677 117.893Z" fill="#FC7E81"/>
<g opacity="0.3">
<g opacity="0.3">
<g opacity="0.3">
<path opacity="0.3" d="M70.6057 109.66C70.6009 109.483 70.5955 109.306 70.5886 109.132C70.5859 109.068 70.5837 109.003 70.5811 108.939C70.5586 108.518 70.5286 108.1 70.489 107.685C70.163 111.256 69.2355 114.464 67.853 115.7C67.8284 115.723 67.8032 115.745 67.7786 115.762C67.7786 115.765 67.7786 115.765 67.7786 115.765C66.3634 116.984 64.7149 117.033 63.2329 116.643C60.9174 116.034 59.0024 114.34 59.0024 114.34C58.9724 114.357 58.4977 115.927 58.0026 116.593C54.4663 121.353 45.1779 119.144 41.7508 114.596C40.1365 112.452 38.9156 110.152 38.2514 107.553C37.8484 105.974 37.5449 104.342 37.433 102.985C37.1023 107.355 37.5203 111.667 39.0966 115.606C39.0966 115.606 46.3061 128.941 60.9463 121.784C60.9763 121.769 61.0084 121.756 61.0384 121.739C61.0384 121.739 64.4082 123.642 67.3252 121.471C67.3798 121.431 67.435 121.389 67.4896 121.346C67.5468 121.302 67.6041 121.254 67.6614 121.205C67.7261 121.147 67.7882 121.09 67.853 121.033C68.0644 120.834 68.2635 120.59 68.4551 120.304C68.5622 120.143 68.6639 119.971 68.7661 119.787C68.7982 119.725 68.833 119.663 68.8656 119.598C69.0846 119.171 69.2837 118.686 69.4651 118.156C69.6417 117.646 69.7985 117.094 69.935 116.51C70.1764 115.493 70.3579 114.376 70.4724 113.217C70.4949 112.988 70.5147 112.756 70.5318 112.523C70.5864 111.797 70.6137 111.058 70.6137 110.317C70.6132 110.097 70.611 109.878 70.6057 109.66Z" fill="#4B2710"/>
</g>
</g>
</g>
<path d="M61.776 108.066C62.3092 108.066 62.7415 107.28 62.7415 106.31C62.7415 105.34 62.3092 104.554 61.776 104.554C61.2427 104.554 60.8104 105.34 60.8104 106.31C60.8104 107.28 61.2427 108.066 61.776 108.066Z" fill="#FC7E81"/>
<path d="M64.6304 106.748C65.37 106.748 65.9696 105.658 65.9696 104.313C65.9696 102.968 65.37 101.878 64.6304 101.878C63.8908 101.878 63.2913 102.968 63.2913 104.313C63.2913 105.658 63.8908 106.748 64.6304 106.748Z" fill="#FC7E81"/>
<path d="M67.3932 108.54C67.883 108.54 68.2801 107.818 68.2801 106.927C68.2801 106.036 67.883 105.313 67.3932 105.313C66.9034 105.313 66.5063 106.036 66.5063 106.927C66.5063 107.818 66.9034 108.54 67.3932 108.54Z" fill="#FC7E81"/>
<path d="M85.3706 11.9535C88.7741 9.55132 104.375 -1.17003 107.528 1.35147C113.052 5.76826 108.215 22.4388 107.03 26.2122" fill="#9CA9B9"/>
<g opacity="0.5">
<g opacity="0.5">
<g opacity="0.5">
<path opacity="0.5" d="M85.3701 11.9535L87.6764 13.4714C92.714 10.0073 105.633 1.55057 108.471 3.82052C108.965 4.21552 109.377 4.70901 109.715 5.28225C109.325 3.61338 108.634 2.23621 107.528 1.35146C104.375 -1.16951 88.7737 9.55024 85.3701 11.9535Z" fill="white"/>
</g>
</g>
</g>
<path d="M107.03 27.0691C106.945 27.0691 106.859 27.0563 106.774 27.0295C106.323 26.8882 106.072 26.4076 106.214 25.9564C109.056 16.8996 110.965 5.19608 106.994 2.02051C106.732 1.81177 105.022 1.00142 96.9644 5.55148C92.1424 8.27477 87.2494 11.6757 85.8647 12.653C85.4783 12.9254 84.9436 12.8334 84.6711 12.4475C84.3982 12.061 84.4908 11.5269 84.8767 11.2539C86.2779 10.2648 91.2304 6.82267 96.1219 4.0603C104.614 -0.735428 107.004 -0.164329 108.063 0.682953C113.906 5.35397 109.375 21.6011 107.847 26.4691C107.733 26.8347 107.395 27.0691 107.03 27.0691Z" fill="#4B2710"/>
<path d="M105.888 6.349C105.888 6.349 106.669 6.04177 106.684 7.92849C106.709 11.1619 105.577 19.3103 101.94 22.358C101.94 22.358 96.154 14.2855 94.6328 13.3761C93.1117 12.4668 96.291 11.3337 97.1725 10.1262C98.0551 8.91921 105.279 6.07442 105.888 6.349Z" fill="#FF6470"/>
<g opacity="0.2">
<g opacity="0.2">
<g opacity="0.2">
<path opacity="0.2" d="M94.6344 13.3756C95.5207 13.9065 97.8533 16.8643 99.6463 19.2423C101.665 15.4946 102.346 10.0009 102.325 7.48475C102.325 7.45639 102.325 7.42855 102.324 7.40286C100.134 8.26941 97.6649 9.45015 97.173 10.1256C96.2909 11.3336 93.1111 12.4678 94.6344 13.3756Z" fill="#4B2710"/>
</g>
</g>
</g>
<path d="M105.846 6.29815C104.736 6.65301 103.628 7.08816 102.552 7.5581C101.473 8.03178 100.417 8.55096 99.3953 9.12474C98.373 9.69691 97.385 10.3231 96.452 11.0115C95.5181 11.6987 94.6446 12.4545 93.861 13.2793L93.7614 12.1355C94.2613 12.523 94.6767 12.8998 95.1065 13.3017C95.5293 13.7005 95.9382 14.1099 96.3332 14.5306C97.1254 15.3704 97.8709 16.2477 98.5796 17.1512C99.2749 18.0643 99.9535 18.9886 100.569 19.9531C100.89 20.4258 101.173 20.9235 101.475 21.4079C101.767 21.8987 102.04 22.4002 102.322 22.8953C102.412 23.0516 102.357 23.2507 102.201 23.3396C102.051 23.4252 101.862 23.3787 101.767 23.2363L101.759 23.2229C101.45 22.7535 101.152 22.2771 100.836 21.8142C100.51 21.3576 100.203 20.8882 99.8588 20.4456C99.1989 19.5399 98.4811 18.6809 97.751 17.8368C97.0087 17.0034 96.2347 16.2006 95.4249 15.4427C95.0214 15.0627 94.606 14.6955 94.1821 14.3438C93.7636 13.9975 93.314 13.6427 92.9002 13.3622L92.1686 12.8655L92.8007 12.2184C93.71 11.3674 94.6911 10.617 95.7161 9.95115C96.7405 9.28424 97.8056 8.69494 98.8943 8.16666C99.9824 7.63731 101.096 7.16845 102.225 6.74989C103.357 6.33294 104.492 5.96041 105.671 5.65854C105.849 5.61304 106.029 5.72009 106.074 5.89726C106.118 6.068 106.021 6.24141 105.856 6.2944L105.846 6.29815Z" fill="#4B2710"/>
<g opacity="0.3">
<g opacity="0.3">
<g opacity="0.3">
<path opacity="0.3" d="M100.714 72.3513C99.8134 71.435 98.8167 70.5572 97.7265 69.7436L97.7586 70.2596C97.6435 69.5697 97.5771 69.1747 97.5771 69.1747L92.8848 65.9172L76.1058 65.0839L51.6521 66.1474L51.1837 68.3793C50.6833 69.1201 49.8435 70.3972 48.8164 72.0928C49.2724 72.4075 49.7408 72.7083 50.2171 72.9931C51.0403 73.4876 51.8902 73.9378 52.7643 74.3472C56.4472 76.0787 60.53 77.0919 64.6593 77.6165C65.1356 77.6791 65.6136 77.7337 66.0921 77.7797C80.4267 79.2227 94.8544 75.1297 94.8544 75.1297C95.9318 74.7246 96.9739 74.2814 97.9802 73.8013C97.9807 73.8024 99.9488 72.8052 100.714 72.3513Z" fill="#4B2710"/>
</g>
</g>
</g>
<path d="M117.305 53.854C117.116 55.7525 112.844 53.5618 112.844 53.5618C112.844 53.5618 112.606 54.1602 113.477 55.844C114.125 57.0949 114.693 58.0112 114.441 58.6915C114.175 59.4167 112.945 59.5816 111.506 59.4382C110.5 59.337 109.65 59.4804 108.553 60.6981C108.339 60.9336 108.117 61.2114 107.881 61.5368C107.879 61.539 107.879 61.539 107.877 61.5416V61.5438C104.603 65.4489 100.111 68.3392 94.7977 70.3361C94.7977 70.3361 65.2192 78.726 48.6896 67.2505C46.1365 65.4109 43.9057 63.1688 42.1491 60.4696C41.7251 60.3566 41.3082 60.3636 40.8629 60.4203C39.4306 60.6039 38.1942 60.4744 37.9068 59.7561C37.6381 59.0822 38.0931 58.0695 38.6438 56.7673C39.0939 55.7145 39.2679 55.0551 39.3294 54.7629C39.346 54.6874 39.2823 54.6264 39.2235 54.6569C38.4907 55.0364 35.1252 56.6849 34.9111 54.9984C34.8688 54.6638 35.024 54.089 35.267 53.3541C35.7027 52.0256 36.4162 50.1743 36.725 48.302C37.5048 43.563 38.1289 40.2253 38.5266 38.2095C38.5362 38.1555 38.5453 38.0988 38.5571 38.0447C38.5667 37.9928 38.5785 37.9387 38.5876 37.8868C38.5973 37.8349 38.609 37.7856 38.6181 37.7359C38.738 37.1492 38.8724 36.5674 39.0254 35.9883C39.7202 33.3127 40.7355 30.6536 42.0334 27.6407L52.7386 15.8784L59.8776 8.03498C64.0251 5.95986 68.7405 4.65281 74.0023 4.34666C75.0648 4.28296 76.1079 4.26209 77.1281 4.28778C77.1538 4.28564 77.18 4.28778 77.2057 4.28992C81.038 4.37235 84.4415 5.40375 87.7246 6.53471C100.5 10.9579 107.436 22.7535 107.436 22.7535C109.108 25.6154 110.439 28.2108 111.44 30.8677C111.935 32.1705 112.35 33.4845 112.684 34.8531C112.684 34.8531 112.691 34.8766 112.703 34.9285C112.844 35.5007 113.812 39.4791 115.308 47.2117C115.868 50.102 117.396 52.9141 117.305 53.854Z" fill="#9CA9B9"/>
<g opacity="0.3">
<g opacity="0.3">
<g opacity="0.3">
<path opacity="0.3" d="M38.6443 56.7678C38.0914 58.0706 37.6386 59.0822 37.9068 59.7555C38.1942 60.4738 39.4295 60.6039 40.8623 60.4203C41.3082 60.3641 41.724 60.3561 42.1474 60.469C43.904 63.1704 46.1354 65.4114 48.6896 67.2505C65.2191 78.727 94.7961 70.3356 94.7961 70.3356C100.111 68.3391 104.602 65.4489 107.875 61.5438V61.5416C107.877 61.5395 107.879 61.5389 107.881 61.5368C108.115 61.213 108.337 60.9341 108.552 60.6981C109.649 59.4804 110.499 59.3381 111.506 59.4381C112.943 59.5821 114.173 59.4178 114.44 58.6915C114.691 58.0107 114.124 57.0943 113.476 55.8435C113.417 55.7327 113.365 55.624 113.317 55.5223C112.802 55.6267 112.152 55.631 111.451 55.5603C110.445 55.4603 109.594 55.6026 108.498 56.8203C108.283 57.0563 108.061 57.3352 107.827 57.659C107.825 57.6617 107.823 57.6617 107.821 57.6638V57.666C104.547 61.5705 100.057 64.4614 94.742 66.4578C94.742 66.4578 65.1651 74.8492 48.6355 63.3727C46.3222 61.7065 44.2739 59.7116 42.6034 57.3432C42.2004 56.7716 41.5158 56.4547 40.8216 56.5404C40.8174 56.5409 40.8125 56.5414 40.8083 56.542C40.0204 56.6431 39.2925 56.6485 38.7481 56.5136C38.7171 56.596 38.6818 56.6795 38.6443 56.7678Z" fill="#4B2710"/>
</g>
</g>
</g>
<path d="M71.7136 57.3336C72.0299 62.1567 77.2003 63.3813 83.4518 62.9713C89.7033 62.5613 94.6681 60.6714 94.3518 55.8484C94.0355 51.0253 88.9374 46.7386 82.6859 47.1486C76.4349 47.5586 71.3973 52.5101 71.7136 57.3336Z" fill="white"/>
<path d="M58.8595 50.9755C58.6609 50.109 58.6379 49.2478 58.7113 48.3646C58.7964 47.4874 59.0024 46.5957 59.4097 45.7521C59.8122 44.9129 60.4197 44.1143 61.222 43.5416C62.011 42.9555 62.968 42.6124 63.8827 42.4786C64.8027 42.3271 65.7929 42.3416 66.7317 42.6285C67.67 42.9111 68.5178 43.4635 69.1552 44.1593C70.4302 45.5669 70.9756 47.3905 70.9242 49.114C70.9188 49.2879 70.7738 49.4244 70.6004 49.4196C70.4569 49.4153 70.3392 49.3163 70.3049 49.1841L70.3033 49.1782C69.9024 47.6324 69.1659 46.1953 68.0741 45.2672C67.5335 44.8048 66.9174 44.4815 66.2586 44.3295C65.6002 44.1726 64.8991 44.1871 64.1969 44.3145C62.7726 44.542 61.632 45.3025 60.8773 46.5448C60.1136 47.771 59.7084 49.3495 59.4831 50.9279L59.4798 50.9504C59.4552 51.1227 59.2957 51.2426 59.1234 51.218C58.9896 51.1987 58.8884 51.0986 58.8595 50.9755Z" fill="#4B2710"/>
<path d="M92.7745 47.7609C92.5786 46.9382 92.5518 46.1209 92.6171 45.2806C92.6942 44.4461 92.8869 43.5967 93.2733 42.7917C93.6549 41.991 94.2346 41.2272 95.0005 40.6791C95.7541 40.1182 96.6688 39.7912 97.5402 39.6638C98.4174 39.5198 99.3626 39.5343 100.259 39.8094C101.155 40.0802 101.964 40.6101 102.57 41.2749C103.783 42.621 104.294 44.3578 104.234 45.9951C104.227 46.1691 104.081 46.305 103.907 46.2986C103.766 46.2933 103.649 46.1958 103.615 46.0658L103.613 46.0594C103.221 44.6003 102.519 43.2494 101.489 42.3828C100.98 41.9509 100.402 41.6506 99.7855 41.5104C99.1694 41.3653 98.5132 41.3798 97.8533 41.4997C96.5163 41.7154 95.4549 42.4208 94.7393 43.5844C94.0162 44.733 93.6255 46.2221 93.3964 47.7132L93.3927 47.7363C93.3659 47.9086 93.2048 48.0269 93.033 48.0001C92.9029 47.9798 92.8034 47.8818 92.7745 47.7609Z" fill="#4B2710"/>
<g opacity="0.3">
<g opacity="0.3">
<g opacity="0.3">
<path opacity="0.3" d="M88.8593 56.6399C86.963 57.8057 85.0404 56.9488 84.1691 55.798C84.1691 55.798 82.3236 58.5523 79.3959 57.1093C77.5643 56.2064 78.2938 53.6581 78.2938 53.6581L89.402 53.467C89.4026 53.467 90.3301 55.7354 88.8593 56.6399Z" fill="#4B2710"/>
</g>
</g>
</g>
<path d="M88.9749 52.6717C88.9749 52.6717 89.8307 54.7634 88.475 55.5968C86.7258 56.6721 84.9703 55.2596 84.1663 54.1977C84.1663 54.1977 82.3091 57.195 79.748 56.0308C78.0336 55.2515 78.7321 52.8489 78.7321 52.8489" fill="white"/>
<path d="M80.9287 56.4312C80.5391 56.4312 80.1259 56.3488 79.6929 56.1524C77.894 55.3345 78.5962 52.8366 78.6037 52.8114L78.8606 52.8863C78.8536 52.9088 78.2156 55.1868 79.8037 55.9088C82.2272 57.012 83.979 54.2453 84.0523 54.127L84.1551 53.9616L84.2729 54.1169C84.4795 54.3898 86.3496 56.7454 88.4049 55.4828C89.6471 54.7195 88.8587 52.7424 88.8507 52.7226L89.0985 52.6214C89.1349 52.7108 89.9806 54.8287 88.5451 55.7108C86.7943 56.7877 85.0291 55.4689 84.1738 54.4235C83.8185 54.9197 82.5971 56.4312 80.9287 56.4312Z" fill="#4B2710"/>
<path d="M89.0509 52.6406C89.3742 52.8997 89.5674 53.238 89.6793 53.6126C89.7911 53.9878 89.7943 54.4064 89.6884 54.8362C89.667 54.9438 89.6268 55.0508 89.5819 55.1573C89.5438 55.2655 89.4839 55.3671 89.4207 55.4678C89.3624 55.5716 89.2832 55.6599 89.2018 55.7477C89.1248 55.8408 89.0343 55.9152 88.9401 55.9848L88.7993 56.0908C88.7528 56.1218 88.7089 56.1432 88.6634 56.17C88.5729 56.2214 88.4809 56.269 88.3883 56.3167C88.1892 56.3889 87.9954 56.4751 87.7819 56.5099C87.3649 56.6003 86.9223 56.5945 86.5209 56.497C86.1168 56.4034 85.7453 56.2428 85.4081 56.0458C84.7439 55.638 84.1963 55.122 83.7382 54.5209L84.6219 54.4797C84.3783 54.8453 84.138 55.1386 83.8511 55.4314C83.5674 55.7188 83.2533 55.9821 82.9059 56.2123C82.5484 56.4291 82.1662 56.626 81.737 56.7277C81.6342 56.7636 81.5223 56.7727 81.4137 56.7898C81.3039 56.8027 81.1958 56.8294 81.0845 56.8294C80.8635 56.823 80.6371 56.8476 80.4203 56.7989L80.0911 56.7459C79.9851 56.7186 79.8829 56.6812 79.7785 56.648C79.6742 56.61 79.5725 56.5832 79.4676 56.5324C79.3616 56.4783 79.2583 56.4173 79.1555 56.3579C78.752 56.087 78.4453 55.6621 78.3152 55.2232C78.175 54.7853 78.1691 54.3475 78.236 53.9456C78.304 53.5415 78.4372 53.1652 78.6524 52.8248C78.6776 52.7852 78.73 52.7734 78.7702 52.798C78.7937 52.813 78.8076 52.8376 78.8098 52.8633L78.8103 52.8703C78.8665 53.6153 78.9719 54.3347 79.261 54.8324C79.4082 55.0781 79.5794 55.2553 79.7925 55.3955C79.8508 55.426 79.9091 55.4555 79.9643 55.4913C80.0231 55.525 80.1024 55.5459 80.1698 55.5754C80.2399 55.6027 80.3095 55.6364 80.3801 55.6615L80.5964 55.7102C81.1776 55.8505 81.7835 55.6476 82.3262 55.312C82.5949 55.1322 82.8508 54.9202 83.0863 54.682C83.318 54.4487 83.5466 54.1655 83.7104 53.914L84.13 53.2679L84.594 53.8728C84.9665 54.3582 85.4499 54.7795 85.9664 55.0626C86.4882 55.3329 87.0384 55.4587 87.533 55.3361C87.6604 55.3206 87.7792 55.2612 87.9034 55.2226C87.9622 55.1911 88.0211 55.1584 88.0821 55.13C88.111 55.1151 88.1458 55.1017 88.171 55.0861L88.2363 55.0391C88.4124 54.9165 88.536 54.7554 88.6206 54.5279C88.703 54.2994 88.7185 54.0205 88.7544 53.7186C88.7886 53.4135 88.8159 53.0833 88.8984 52.7022L88.9 52.6931C88.9112 52.6428 88.961 52.6107 89.0113 52.6214C89.0268 52.6257 89.0402 52.6321 89.0509 52.6406Z" fill="#4B2710"/>
<g opacity="0.3">
<g opacity="0.3">
<g opacity="0.3">
<path opacity="0.3" d="M79.7491 56.0303C82.3086 57.195 84.1669 54.1971 84.1669 54.1971C84.9697 55.2595 86.7264 56.672 88.4755 55.5962C89.3613 55.0508 88.9374 53.4997 88.7918 52.8162C88.6907 53.1759 88.5274 53.8701 88.3091 54.1891C87.4628 55.4255 85.3653 53.2144 84.5624 52.1536C84.5624 52.1536 82.0607 56.2358 79.7421 54.6451C79.0972 54.2025 79.0832 53.2834 78.9644 52.7236C78.8472 53.4333 78.4586 55.4442 79.7491 56.0303Z" fill="#4B2710"/>
</g>
</g>
</g>
<path d="M84.7664 50.543C84.8526 50.8455 84.9189 51.1345 84.9783 51.4358C85.0361 51.7356 85.0849 52.0385 85.1143 52.3489C85.1421 52.6599 85.1635 52.9752 85.1443 53.3059C85.125 53.6357 85.0827 53.9787 84.9559 54.3422L84.9489 54.363C84.8317 54.7002 84.4635 54.8785 84.1263 54.7613C83.7891 54.644 83.6108 54.2758 83.728 53.9381C83.742 53.8979 83.7612 53.8572 83.7821 53.8219C83.8865 53.6448 83.9689 53.4098 84.0294 53.1598C84.092 52.9093 84.1246 52.6364 84.1498 52.3618C84.1744 52.0861 84.1803 51.8035 84.1776 51.5204C84.1744 51.2389 84.1605 50.9466 84.1343 50.6731L84.1332 50.6624C84.1161 50.4842 84.2467 50.3263 84.4244 50.3091C84.5823 50.2942 84.7246 50.3953 84.7664 50.543Z" fill="#4B2710"/>
<path d="M79.4403 49.9511C79.6736 51.2689 82.277 52.0278 84.169 52.0182C85.5976 52.0107 87.8761 51.0494 87.8584 49.6182C87.8439 48.4878 86.5594 47.6892 83.1601 47.9969C80.3796 48.248 79.285 49.0712 79.4403 49.9511Z" fill="#4B2710"/>
<g opacity="0.7">
<g opacity="0.7">
<g opacity="0.7">
<g opacity="0.7">
<path opacity="0.7" d="M83.2725 48.727C83.219 48.9651 83.8431 49.2504 84.3387 49.2483C84.6202 49.2467 85.6302 49.2296 85.6885 48.9689C85.7474 48.7077 85.4627 48.469 84.5266 48.3914C83.6755 48.3207 83.326 48.4883 83.2725 48.727Z" fill="white"/>
</g>
</g>
</g>
<g opacity="0.7">
<g opacity="0.7">
<g opacity="0.7">
<path opacity="0.7" d="M84.3318 49.3816C83.9089 49.3816 83.3999 49.1916 83.2169 48.9641C83.1296 48.8554 83.1275 48.7591 83.1414 48.697C83.1976 48.4487 83.4877 48.1703 84.5373 48.2576C85.1908 48.3116 85.5869 48.4449 85.7491 48.6654C85.8213 48.7639 85.8459 48.8785 85.8192 48.9978C85.7956 49.1011 85.7341 49.3752 84.3387 49.3816C84.3366 49.3816 84.3344 49.3816 84.3318 49.3816ZM83.4031 48.7559C83.4031 48.7602 83.409 48.781 83.4411 48.8142C83.5782 48.9566 83.9764 49.1145 84.3318 49.1145C84.3339 49.1145 84.336 49.1145 84.3382 49.1145C85.2545 49.1102 85.5312 48.9834 85.5601 48.9347C85.5682 48.8961 85.5607 48.8608 85.5339 48.8244C85.4707 48.7388 85.255 48.5857 84.5159 48.5247C83.75 48.461 83.4379 48.6023 83.4031 48.7559Z" fill="#4B2710"/>
</g>
</g>
</g>
</g>
<path d="M62.9969 11.9535C59.5934 9.55132 43.993 -1.17003 40.8394 1.35147C35.3152 5.76826 41.1439 24.8805 42.3278 28.654" fill="#9CA9B9"/>
<g opacity="0.5">
<g opacity="0.5">
<g opacity="0.5">
<path opacity="0.5" d="M117.303 53.854C117.268 54.2239 117.077 54.4358 116.794 54.544C116.323 53.2696 115.669 51.6141 115.343 49.9345C113.848 42.2019 112.882 38.2235 112.738 37.6513C112.728 37.6021 112.722 37.5785 112.722 37.5785C112.387 36.2078 111.973 34.8932 111.478 33.591C110.475 30.9341 109.761 27.9828 108.089 25.1209C108.089 25.1209 100.535 13.6807 87.7626 9.25749C84.4768 8.12706 81.0759 7.09512 77.2415 7.0127C77.218 7.01056 77.1923 7.00788 77.1639 7.0127C76.1443 6.98433 75.1027 7.00574 74.0408 7.06943C68.7789 7.37559 64.3911 8.30583 60.128 10.8498L58.7241 11.7731C53.6854 8.30851 42.7335 1.55113 39.8973 3.82161C39.4027 4.21501 38.9906 4.70957 38.6539 5.28174C39.0425 3.61394 39.7351 2.23624 40.8398 1.35042C43.539 -0.806592 53.9139 5.49155 58.9826 8.85713L58.8274 8.58844C63.4818 5.89887 68.7409 4.65283 74.0007 4.34668C75.0653 4.28298 76.1063 4.26211 77.1264 4.28994C77.1548 4.28513 77.1805 4.2878 77.204 4.28994C81.0363 4.37237 84.4398 5.40377 87.7251 6.53473C100.498 10.9579 107.437 22.7535 107.437 22.7535C109.107 25.6154 110.437 28.2108 111.439 30.8677C111.936 32.1705 112.348 33.4845 112.685 34.8552C112.685 34.8552 112.689 34.8788 112.701 34.928C112.845 35.5002 113.811 39.4786 115.306 47.2112C115.867 50.102 117.397 52.9142 117.303 53.854Z" fill="white"/>
</g>
</g>
</g>
<path d="M42.4793 6.349C42.4793 6.349 41.6978 6.04177 41.6834 7.92849C41.6582 11.1619 42.7897 19.3103 46.4272 22.358C46.4272 22.358 52.213 14.2855 53.7341 13.3761C55.2553 12.4668 52.076 11.3337 51.1945 10.1262C50.3124 8.91921 43.0889 6.07442 42.4793 6.349Z" fill="#FF6470"/>
<g opacity="0.2">
<g opacity="0.2">
<g opacity="0.2">
<path opacity="0.2" d="M53.7331 13.3756C52.8467 13.9065 50.5142 16.8643 48.7212 19.2423C46.7023 15.4946 46.0214 10.0009 46.0428 7.48475C46.0428 7.45639 46.0428 7.42855 46.0434 7.40286C48.233 8.26941 50.7026 9.45015 51.1945 10.1256C52.0765 11.3336 55.2558 12.4678 53.7331 13.3756Z" fill="#4B2710"/>
</g>
</g>
</g>
<path d="M42.695 5.65854C43.8741 5.96041 45.0099 6.33294 46.1419 6.74989C47.2707 7.16844 48.3834 7.63731 49.4721 8.16666C50.5608 8.69494 51.6253 9.28424 52.6503 9.95114C53.6753 10.617 54.6569 11.3674 55.5657 12.2184L56.1978 12.8655L55.4662 13.3622C55.0524 13.6432 54.6028 13.9975 54.1843 14.3438C53.7609 14.6955 53.3456 15.0627 52.9415 15.4427C52.1311 16.2006 51.3577 17.0034 50.6154 17.8368C49.8858 18.6809 49.1676 19.5399 48.5076 20.4456C48.1635 20.8882 47.8568 21.3576 47.5308 21.8142C47.214 22.2771 46.9164 22.753 46.6075 23.2229L46.5995 23.2352C46.5005 23.3856 46.2987 23.4274 46.1483 23.3283C46.0038 23.2336 45.9599 23.0425 46.0445 22.8948C46.3271 22.3997 46.5995 21.8977 46.8918 21.4074C47.1936 20.923 47.4768 20.4252 47.7984 19.9526C48.4134 18.9876 49.0921 18.0637 49.7874 17.1506C50.496 16.2477 51.2416 15.3699 52.0337 14.5301C52.4287 14.1089 52.8377 13.6994 53.2605 13.3012C53.6903 12.8998 54.1056 12.5224 54.6055 12.1349L54.506 13.2787C53.7224 12.4539 52.8489 11.6987 51.9149 11.0109C50.982 10.3226 49.9934 9.69637 48.9717 9.1242C47.9499 8.55043 46.8934 8.03125 45.8154 7.55756C44.739 7.08709 43.6311 6.65194 42.521 6.29761L42.5114 6.2944C42.3375 6.23873 42.2411 6.05247 42.2968 5.87798C42.3508 5.71099 42.5264 5.61572 42.695 5.65854Z" fill="#4B2710"/>
<path d="M91.7704 70.7076C93.9767 69.9347 96.1502 69.0874 98.2323 68.0726C100.314 67.0605 102.292 65.8562 104.083 64.4223C104.524 64.0562 104.964 63.6869 105.382 63.2946C105.598 63.1051 105.796 62.899 106.001 62.6988L106.291 62.4136L106.578 62.0914C106.767 61.8751 106.957 61.6557 107.127 61.4421L107.247 61.2874C107.263 61.2649 107.285 61.236 107.295 61.2205L107.353 61.1322C107.451 60.9861 107.548 60.8582 107.651 60.7297C108.06 60.2234 108.536 59.7657 109.111 59.3991C109.684 59.0384 110.375 58.7718 111.109 58.7536L111.382 58.7627C111.468 58.767 111.579 58.7697 111.637 58.7772C111.773 58.7916 111.909 58.8018 112.043 58.8098C112.313 58.8237 112.579 58.8232 112.832 58.8018C113.083 58.7809 113.324 58.7359 113.511 58.6664C113.699 58.5946 113.795 58.5053 113.799 58.4678C113.832 58.4132 113.848 58.2344 113.801 58.0166C113.757 57.7982 113.673 57.5488 113.572 57.2956C113.368 56.7829 113.112 56.2648 112.864 55.706C112.62 55.1434 112.393 54.5804 112.225 53.9424L112.217 53.9118L112.207 53.8631C112.2 53.8305 112.196 53.7978 112.194 53.7625C112.185 53.625 112.213 53.4762 112.286 53.3397C112.359 53.2048 112.483 53.0721 112.668 52.9944C112.852 52.912 113.1 52.9243 113.263 53.0025L113.473 53.1015L113.858 53.2722C114.116 53.383 114.377 53.4847 114.638 53.5773C115.154 53.7588 115.696 53.9092 116.152 53.9317C116.373 53.9472 116.569 53.8985 116.585 53.8733C116.596 53.8626 116.585 53.8765 116.596 53.8589C116.608 53.8439 116.61 53.7679 116.608 53.7234C116.596 53.5591 116.521 53.284 116.444 53.0319C116.357 52.7686 116.263 52.501 116.163 52.2285C115.758 51.1393 115.32 50.018 114.983 48.8501C114.897 48.5589 114.821 48.2619 114.747 47.9643C114.68 47.6667 114.612 47.3546 114.559 47.0731L114.216 45.3443L113.511 41.892C113.027 39.5974 112.53 37.2916 111.976 35.0324L113.396 34.6856L113.414 34.7589L111.988 35.0832C111.514 33.1286 110.822 31.1691 109.998 29.2957C109.171 27.4154 108.203 25.5892 107.168 23.7929C106.174 22.0325 104.91 20.3899 103.591 18.819C102.257 17.2561 100.834 15.7649 99.2953 14.4065C98.9212 14.0543 98.5128 13.7433 98.1231 13.4099L97.5322 12.9174C97.332 12.7574 97.1228 12.6091 96.9188 12.4545C96.5073 12.1494 96.0999 11.8384 95.6851 11.5381L94.4033 10.6941C94.1876 10.5565 93.9804 10.405 93.7583 10.2793L93.0925 9.89977C92.6466 9.65035 92.2088 9.38594 91.7571 9.1483L90.3772 8.48621C90.1465 8.37702 89.9191 8.26141 89.6862 8.15811L88.9739 7.88139L87.5507 7.32635C87.0658 7.1524 86.5701 6.99129 86.0799 6.83018C85.0966 6.51172 84.1118 6.21626 83.1211 5.96363C82.1298 5.71368 81.1332 5.50761 80.1307 5.36042C79.6298 5.28495 79.1272 5.23089 78.6241 5.18593L77.8683 5.13455L77.4765 5.12063L77.2806 5.11368L77.1827 5.11046C77.1773 5.11046 77.1597 5.10939 77.1645 5.10993L77.1805 5.11046C77.1912 5.10993 77.202 5.10832 77.2121 5.10511L77.1061 5.10939C75.5577 5.07246 73.9927 5.14097 72.463 5.3176C70.9274 5.49583 69.4009 5.79557 67.8996 6.19432C64.8991 6.98915 61.9741 8.1458 59.3172 9.70334L58.8397 9.98327L58.388 9.66534C56.7951 8.54455 55.168 7.46497 53.5126 6.44214C51.8566 5.42144 50.1695 4.45212 48.4407 3.60323C47.5763 3.1804 46.7012 2.78807 45.817 2.45836C44.9355 2.13454 44.0331 1.85354 43.1708 1.75078C42.7399 1.69243 42.3278 1.70207 41.9794 1.76737C41.8028 1.79895 41.6588 1.85889 41.5287 1.92259C41.4714 1.96862 41.419 1.98574 41.3494 2.04355L41.13 2.24908C40.5471 2.80198 40.1237 3.56577 39.8358 4.40716C39.5468 5.25016 39.383 6.16542 39.2888 7.09459C39.1924 8.02483 39.1748 8.97595 39.2058 9.93028C39.2326 10.8841 39.3054 11.8427 39.4156 12.8002C39.52 13.7578 39.6608 14.7148 39.8261 15.6691C40.1537 17.5783 40.5776 19.4768 41.0695 21.3581C41.5624 23.2347 42.1164 25.1161 42.771 26.9134L42.8946 27.2527L42.7421 27.5798C42.3498 28.4211 41.9965 29.2898 41.6689 30.173C41.3494 31.0599 41.0518 31.9585 40.7762 32.8658C40.5037 33.7746 40.249 34.6904 40.0124 35.6115C39.8941 36.0718 39.7801 36.5337 39.672 36.9962L39.5141 37.6904L39.3717 38.3552L39.3589 38.4156C39.2765 38.7796 39.1908 39.2164 39.1127 39.6226L38.8798 40.8681L38.4372 43.3719L37.5974 48.3962C37.3089 50.1759 36.71 51.848 36.1748 53.4344C36.0463 53.8262 35.9173 54.2239 35.8429 54.5638C35.8247 54.6473 35.8076 54.7313 35.8044 54.7864C35.79 54.8689 35.8039 54.8662 35.7953 54.8876C35.8007 54.8945 35.7991 54.9095 35.8007 54.9111C35.8044 54.9047 35.798 54.916 35.7969 54.8999C35.7873 54.886 35.7659 54.8501 35.7434 54.8389C35.699 54.811 35.7493 54.8448 35.8627 54.8485C35.9746 54.8549 36.1309 54.8426 36.2947 54.8137C36.6265 54.7559 36.9953 54.6451 37.3593 54.5097C37.7248 54.3748 38.0931 54.2148 38.4538 54.0414L38.722 53.9086L38.7878 53.8749C38.8167 53.8658 38.7412 53.8851 38.9692 53.7984C39.1416 53.7422 39.3578 53.7406 39.5355 53.7978C39.8995 53.9161 40.0938 54.1811 40.1762 54.4332C40.2174 54.5616 40.2308 54.6938 40.2211 54.818C40.2185 54.8485 40.2147 54.8785 40.2099 54.9085L40.2008 54.9561L40.1955 54.9791C40.1403 55.2248 40.0766 55.448 40.007 55.6685C39.8684 56.1079 39.7095 56.527 39.5393 56.9386C39.3691 57.347 39.201 57.727 39.0527 58.1028C38.9066 58.4715 38.7749 58.8446 38.7337 59.1251C38.7118 59.2637 38.7182 59.3675 38.7278 59.4066C38.7337 59.4109 38.7332 59.4253 38.7348 59.4237C38.7396 59.4194 38.7268 59.4189 38.7332 59.4184C38.7332 59.4184 38.7375 59.4291 38.7658 59.4483C38.8146 59.4885 38.9291 59.55 39.0715 59.6004C39.216 59.6523 39.3889 59.6935 39.5676 59.7336C39.9321 59.8091 40.3309 59.8621 40.7414 59.906C40.9062 59.9226 41.2627 59.9616 41.5078 60.0382C41.7728 60.1094 42.011 60.2068 42.2411 60.3095C42.695 60.5204 43.0943 60.7715 43.4711 61.0359C44.2209 61.5679 44.8857 62.155 45.5194 62.7593C46.1521 63.3642 46.7515 63.9893 47.3371 64.6145L48.2063 65.5442C48.3497 65.6962 48.4926 65.8466 48.6334 65.9879C48.7704 66.1265 48.9224 66.2721 49.0123 66.3444L48.8207 66.2394C48.9064 66.271 49.0107 66.339 49.0616 66.384L49.0707 66.392L49.0894 66.408L49.1269 66.4402L49.2018 66.5039L49.3517 66.6312L49.6562 66.8817C49.8607 67.0466 50.0673 67.2098 50.2776 67.3677C50.6967 67.6857 51.1286 67.9875 51.5649 68.2841C52.0021 68.579 52.4496 68.8605 52.9056 69.1287C53.3664 69.4 53.8096 69.65 54.2887 69.8844C55.2376 70.3533 56.2139 70.7793 57.2153 71.1497C58.2151 71.5265 59.2396 71.8487 60.2763 72.1522L60.2784 72.1528C60.447 72.202 60.5434 72.3786 60.4941 72.5472C60.4497 72.6992 60.302 72.7924 60.15 72.7736C57.9668 72.5028 55.8012 71.9472 53.7395 71.0924C53.2262 70.8837 52.699 70.6418 52.2125 70.3811C51.7179 70.1231 51.2309 69.8496 50.7513 69.5606C50.2707 69.2737 49.8055 68.9606 49.3485 68.6368C49.1194 68.4751 48.894 68.3081 48.6709 68.1385L48.3379 67.881L48.1731 67.7494L48.0907 67.6835L48.0494 67.6503L48.0286 67.6337L48.0184 67.6257C48.0628 67.6653 48.1613 67.7279 48.24 67.7542L48.0484 67.6493C47.8 67.463 47.647 67.3105 47.4821 67.1504C47.3205 66.9925 47.1685 66.8368 47.0181 66.6815L46.1328 65.7593C45.5478 65.1508 44.9612 64.5561 44.3569 63.9936C43.7537 63.4321 43.1307 62.9006 42.4868 62.4569C42.1656 62.2369 41.8375 62.0405 41.5169 61.8981C41.358 61.8307 41.2001 61.7686 41.0534 61.7327C40.8902 61.6894 40.8206 61.6856 40.5632 61.66C40.128 61.6187 39.6816 61.5679 39.2122 61.4774C38.9751 61.4293 38.7337 61.3704 38.4774 61.2805C38.2204 61.1863 37.9443 61.0674 37.6579 60.8442C37.5171 60.7356 37.3737 60.5895 37.2549 60.4134C37.1923 60.331 37.1468 60.2261 37.0991 60.1297C37.0552 60.0318 37.0312 59.9418 37.0017 59.846C36.9102 59.4703 36.9311 59.1417 36.9717 58.8607C37.0617 58.2987 37.2335 57.8694 37.3946 57.4476C37.5584 57.0323 37.7339 56.6341 37.8902 56.2573C38.0444 55.8831 38.1862 55.5058 38.3029 55.1343C38.3612 54.9497 38.4131 54.7634 38.4506 54.5937L38.4543 54.5777C38.4565 54.5691 38.4549 54.5734 38.449 54.6055C38.4447 54.6291 38.442 54.6521 38.4404 54.6762C38.4324 54.7736 38.4426 54.879 38.4763 54.9823C38.5432 55.1836 38.6984 55.4041 39.0115 55.5063C39.1641 55.5561 39.3525 55.5534 39.4991 55.5058C39.702 55.4276 39.6035 55.4603 39.6088 55.4635L39.5328 55.5026L39.2299 55.653C38.8247 55.8478 38.4121 56.0282 37.9801 56.1882C37.5471 56.3472 37.1007 56.4912 36.5939 56.5779C36.3391 56.6196 36.0699 56.6501 35.7568 56.6325C35.4495 56.6094 35.0652 56.5516 34.6756 56.2685C34.4872 56.1256 34.3175 55.9302 34.2158 55.7236C34.1548 55.6182 34.1297 55.5218 34.0922 55.4175C34.0628 55.3179 34.0483 55.2264 34.0306 55.1295C34.013 54.9395 34.0124 54.7233 34.0349 54.5953C34.0499 54.4385 34.0772 54.3144 34.104 54.1902C34.2148 53.6999 34.355 53.2894 34.492 52.8735C35.0503 51.2442 35.6032 49.6958 35.8654 48.1115L36.7266 43.0744L37.1816 40.5561L37.4219 39.295C37.5064 38.8668 37.5841 38.4692 37.6911 38.004L37.6783 38.0645L37.8394 37.3179L38.0042 36.6055C38.1155 36.1312 38.2322 35.6586 38.3532 35.1871C38.5951 34.244 38.8563 33.3057 39.1362 32.3712C39.4204 31.4377 39.7277 30.5086 40.0606 29.5853C40.402 28.6641 40.7735 27.7489 41.1947 26.8459L41.1658 27.5118C40.4754 25.6138 39.9193 23.718 39.4124 21.7922C38.9098 19.8691 38.4757 17.9267 38.138 15.9603C37.9678 14.977 37.8222 13.9879 37.7136 12.9913C37.599 11.9958 37.5225 10.9922 37.4941 9.98059C37.4615 8.97006 37.4791 7.95097 37.5846 6.92546C37.689 5.90101 37.8688 4.86693 38.2172 3.84837C38.5646 2.83731 39.1009 1.81875 39.946 1.01215L40.2677 0.716696C40.3865 0.617677 40.5535 0.518122 40.6986 0.425526C41.0037 0.263884 41.3232 0.149343 41.6309 0.0915377C42.2465 -0.0267498 42.8304 -0.018186 43.3737 0.0508596C44.4666 0.185204 45.453 0.503671 46.4143 0.854252C47.3724 1.21126 48.293 1.62499 49.1943 2.06603C50.9954 2.95131 52.722 3.94418 54.4128 4.98575C56.102 6.03054 57.7537 7.12456 59.3755 8.26783L58.4469 8.22983C61.2841 6.58183 64.3312 5.39414 67.4752 4.57201C69.0477 4.16095 70.6491 3.85158 72.2719 3.66907C73.9006 3.48762 75.5192 3.42393 77.1484 3.46782L77.0425 3.4721C77.0853 3.46996 77.1286 3.46835 77.172 3.46889L77.2678 3.47157L77.3657 3.47531L77.5616 3.48281L77.9534 3.49779L78.7622 3.5556C79.3001 3.60537 79.8369 3.66532 80.3695 3.74775C81.4351 3.90778 82.4874 4.12991 83.5225 4.39485C84.5571 4.66247 85.5746 4.97184 86.5792 5.30154C87.0818 5.468 87.5801 5.63232 88.0784 5.81323L89.5749 6.40199L90.3232 6.69691C90.5672 6.80663 90.806 6.92813 91.0473 7.04321L92.4919 7.74383C92.9645 7.99433 93.4216 8.27158 93.8867 8.53492L94.5815 8.93474C94.8132 9.06748 95.0289 9.22591 95.2537 9.36989L96.5875 10.2557C97.0184 10.5694 97.4412 10.8948 97.8683 11.2138C98.0803 11.3754 98.2971 11.5312 98.5042 11.6982L99.116 12.2115C99.519 12.5588 99.9418 12.8848 100.329 13.2504C101.92 14.6661 103.386 16.2124 104.76 17.8341C106.12 19.4672 107.416 21.1585 108.475 23.0447C110.569 26.7009 112.42 30.5674 113.416 34.7723L111.989 35.0966L111.972 35.0233L113.393 34.6765C113.952 36.9908 114.438 39.2886 114.917 41.6014L115.613 45.0686L115.95 46.8039C116.006 47.1004 116.063 47.3638 116.124 47.6399C116.191 47.9134 116.259 48.1869 116.34 48.4599C116.651 49.5555 117.065 50.6314 117.477 51.749C117.579 52.0289 117.679 52.3163 117.775 52.6123C117.864 52.9227 117.963 53.215 117.998 53.6378C118.006 53.8862 117.993 54.1104 117.89 54.3689C117.792 54.6248 117.591 54.8785 117.357 55.0294C117.123 55.1836 116.882 55.2553 116.675 55.2874C116.466 55.3201 116.269 55.3276 116.089 55.3168C115.367 55.2724 114.767 55.083 114.176 54.8785C113.883 54.7736 113.596 54.6601 113.314 54.5375C113.173 54.4771 113.033 54.4139 112.893 54.3486L112.705 54.2587C112.834 54.3224 113.043 54.332 113.193 54.2646C113.344 54.2014 113.439 54.0954 113.495 53.9932C113.551 53.8894 113.572 53.778 113.565 53.6769C113.563 53.6512 113.56 53.6271 113.556 53.6041C113.549 53.5698 113.55 53.5763 113.551 53.5821L113.557 53.6052C113.687 54.1056 113.894 54.6414 114.117 55.1573C114.344 55.6755 114.608 56.2139 114.838 56.7957C114.952 57.0896 115.062 57.3984 115.133 57.7575C115.198 58.1097 115.246 58.5534 115.028 59.0378C114.975 59.1636 114.896 59.269 114.816 59.3745C114.732 59.4655 114.643 59.5602 114.549 59.6255C114.362 59.7722 114.172 59.8583 113.988 59.9306C113.622 60.0644 113.278 60.1169 112.944 60.1452C112.61 60.172 112.287 60.1698 111.969 60.1527C111.811 60.1431 111.653 60.1302 111.496 60.1136C111.407 60.1029 111.372 60.1078 111.31 60.1035L111.142 60.0949C110.695 60.1045 110.245 60.2678 109.824 60.5279C109.405 60.7913 109.016 61.1558 108.686 61.5625C108.604 61.6632 108.524 61.7702 108.457 61.8682L108.394 61.9634C108.363 62.0095 108.34 62.0389 108.313 62.0758L108.163 62.2696C107.965 62.5147 107.77 62.7395 107.571 62.9654L107.269 63.301L106.93 63.6355C106.714 63.8459 106.503 64.0621 106.275 64.2607C105.834 64.6723 105.371 65.0592 104.905 65.4425C103.019 66.9497 100.937 68.1872 98.7734 69.2025C97.6923 69.7137 96.5849 70.159 95.4721 70.5792C94.3567 70.9929 93.2252 71.3536 92.0932 71.7021C91.817 71.7872 91.5242 71.632 91.4391 71.3558C91.3562 71.0866 91.5018 70.8013 91.7651 70.7087L91.7704 70.7076Z" fill="#4B2710"/>
<g opacity="0.3">
<g opacity="0.3">
<g opacity="0.3">
<path opacity="0.3" d="M90.6731 110.474C87.6983 113.732 84.0577 108.271 83.1194 106.716C82.9984 106.515 82.7603 106.498 82.619 106.68C81.5656 108.03 77.6622 112.649 75.2103 110.359C71.8886 107.259 75.7792 102.727 78.9558 100.527C79.3375 100.262 79.4424 99.7801 79.1919 99.4065C78.5078 98.3875 77.7708 97.348 77.0467 96.2358C77.0467 96.2358 77.0467 96.2337 77.0445 96.2337C76.9032 96.0158 76.7619 95.7958 76.6227 95.5716C76.5542 95.5775 76.4873 95.5839 76.4188 95.5876C75.684 95.6379 74.9576 95.6502 74.2452 95.6278C66.2976 95.3773 61.5554 92.108 61.5554 92.108L65.977 79.5712C68.3866 80.8081 70.6876 81.7223 72.7985 82.4267C73.4461 82.6408 74.074 82.8361 74.6815 83.0138C80.3223 80.503 96.0437 75.2117 95.8558 83.6475C95.6802 91.5867 90.9172 95.928 87.8016 100.035C87.5372 100.382 87.5998 100.85 87.937 101.139C90.6185 103.433 93.178 107.736 90.6731 110.474Z" fill="#4B2710"/>
</g>
</g>
</g>
<path d="M90.0213 99.0276C89.7569 99.3749 89.8196 99.8427 90.1568 100.132C92.8388 102.424 95.3977 106.727 92.8934 109.466C89.9186 112.723 86.2779 107.262 85.3397 105.708C85.2187 105.506 84.9805 105.49 84.8392 105.671C83.7859 107.022 79.8824 111.641 77.4305 109.351C74.1089 106.251 77.9995 101.718 81.1761 99.5184C81.5577 99.254 81.6626 98.7717 81.4121 98.3981C80.7281 97.379 79.9911 96.3396 79.2669 95.2274C79.2669 95.2274 79.2669 95.2252 79.2648 95.2252C77.2223 92.0893 75.281 88.3977 74.9176 83.0839C74.8753 82.4807 74.8529 81.855 74.855 81.2068C74.8769 70.9185 82.8326 62.7609 86.7318 63.0515C90.746 63.3523 98.3035 72.3513 98.0755 82.6396C97.9005 90.5794 93.1375 94.9207 90.0213 99.0276Z" fill="#F4B75D"/>
<path d="M90.8434 110.618C90.7573 110.618 90.6706 110.613 90.5828 110.605C88.239 110.374 86.0553 107.151 85.2251 105.777C85.1892 105.717 85.14 105.682 85.0859 105.679C85.0362 105.672 84.9843 105.702 84.9446 105.753C83.9705 107.002 81.4603 109.925 79.1957 110.103C78.4871 110.158 77.8635 109.938 77.339 109.448C76.3884 108.561 75.9506 107.501 76.0384 106.298C76.2295 103.666 78.8847 100.942 81.1006 99.407C81.4228 99.1838 81.509 98.7813 81.3013 98.4714C81.0391 98.0812 80.7693 97.6879 80.4958 97.2891C80.0692 96.6672 79.6282 96.0249 79.193 95.3585H79.1925L79.1529 95.2975C77.2004 92.2991 75.1542 88.5048 74.7843 83.0924C74.7404 82.47 74.7196 81.8352 74.7217 81.2057C74.7367 74.2755 78.2489 68.5581 81.5309 65.5179C83.4289 63.7602 85.3279 62.8144 86.742 62.9172C88.8347 63.074 91.794 65.5286 94.1062 69.0253C95.698 71.4328 98.3479 76.403 98.2098 82.6418C98.0616 89.3403 94.7051 93.4525 91.7442 97.0809C91.1721 97.7815 90.632 98.4436 90.1284 99.1073C89.9089 99.3958 89.9576 99.7828 90.244 100.028C91.8984 101.443 93.8857 103.985 94.0398 106.497C94.1132 107.686 93.7605 108.714 92.9919 109.555C92.3474 110.261 91.6259 110.618 90.8434 110.618ZM85.0774 105.411C85.0854 105.411 85.094 105.411 85.102 105.412C85.2444 105.42 85.3728 105.503 85.4542 105.639C86.0852 106.684 88.323 110.113 90.609 110.338C91.4006 110.415 92.1387 110.093 92.7944 109.375C93.5121 108.591 93.8413 107.628 93.7728 106.514C93.6234 104.087 91.6848 101.613 90.07 100.233C89.6788 99.8973 89.6124 99.3444 89.9153 98.9462C90.4217 98.2782 90.9633 97.6151 91.5366 96.9123C94.4707 93.3176 97.7961 89.2429 97.9422 82.637C98.1676 72.4685 90.6529 63.4797 86.7221 63.1853C85.3825 63.0869 83.5563 64.008 81.7129 65.7154C78.4721 68.717 75.0043 74.3632 74.9893 81.2073C74.9872 81.8304 75.0081 82.4582 75.0514 83.0748C75.4138 88.3774 77.3208 91.986 79.3376 95.0914H79.3986L79.3996 95.1867C79.8385 95.8595 80.2844 96.5093 80.7158 97.1382C80.9903 97.538 81.2606 97.9319 81.5229 98.3232C81.8141 98.7578 81.6979 99.3187 81.2521 99.6281C79.0849 101.128 76.4896 103.781 76.3049 106.318C76.2236 107.436 76.6325 108.424 77.521 109.253C77.9882 109.689 78.5449 109.886 79.1738 109.836C81.3928 109.662 83.9898 106.541 84.7327 105.589C84.8221 105.475 84.9462 105.411 85.0774 105.411Z" fill="#4B2710"/>
<g opacity="0.3">
<g opacity="0.3">
<g opacity="0.3">
<path opacity="0.3" d="M92.8933 109.465C89.9184 112.723 86.2778 107.262 85.3395 105.707C85.2186 105.506 84.9804 105.489 84.8391 105.671C83.7858 107.021 79.8823 111.64 77.4304 109.35C75.9751 107.992 75.9045 106.357 76.5526 104.767C76.7566 105.158 77.045 105.538 77.4304 105.897C79.8823 108.188 83.7858 103.569 84.8391 102.218C84.9804 102.037 85.2186 102.053 85.3395 102.254C86.2778 103.808 89.9184 109.27 92.8933 106.012C93.1962 105.682 93.4242 105.328 93.5875 104.957C94.1286 106.557 94.066 108.182 92.8933 109.465Z" fill="#4B2710"/>
</g>
</g>
</g>
<g opacity="0.5">
<g opacity="0.5">
<g opacity="0.5">
<path opacity="0.5" d="M98.076 82.6402C98.0679 83.0175 98.0497 83.3868 98.0192 83.7481C97.3127 74.3397 90.4794 66.4808 86.7317 66.2004C83.0124 65.922 75.6037 73.3303 74.9074 82.9431C74.871 82.3843 74.8528 81.8047 74.8549 81.2074C74.8769 70.919 82.8325 62.7615 86.7317 63.0521C90.7459 63.3524 98.304 72.3513 98.076 82.6402Z" fill="white"/>
</g>
</g>
</g>
<path d="M77.6044 77.9681C77.5091 78.5794 77.5279 79.2366 77.7008 79.804C77.8811 80.3697 78.2429 80.8333 78.7664 81.0409C79.2813 81.2588 79.9107 81.3251 80.3978 81.163L80.492 81.1362L80.5787 81.0912C80.6365 81.0607 80.6959 81.0356 80.7526 81.004C80.8565 80.921 80.971 80.8595 81.0626 80.7551C81.2617 80.5747 81.4212 80.3339 81.563 80.0818C81.8461 79.568 82.0281 78.9803 82.1715 78.3578L82.2005 78.2368L82.2154 78.1747L82.2229 78.1437L82.2267 78.1282C82.224 78.1383 82.2294 78.1132 82.247 78.0655C82.2615 78.0275 82.2797 77.9928 82.3016 77.9601C82.3921 77.8268 82.5082 77.768 82.5955 77.7396C82.6859 77.7118 82.7635 77.7069 82.8459 77.7171C82.9278 77.7289 83.0204 77.753 83.1275 77.8359C83.1794 77.8771 83.2335 77.9365 83.272 78.0115C83.2913 78.0479 83.3052 78.087 83.3159 78.1271L83.3244 78.164L83.3491 78.2828C83.3822 78.4402 83.417 78.5901 83.4556 78.7389C83.531 79.0359 83.6252 79.3207 83.7392 79.5915C83.8597 79.8581 84.0004 80.108 84.168 80.3285C84.3446 80.5373 84.5287 80.7396 84.7578 80.8718C84.8616 80.9548 84.9901 80.9949 85.1057 81.0591C85.2283 81.11 85.3589 81.1442 85.4868 81.1854C85.6238 81.2031 85.756 81.2374 85.8962 81.2475C86.037 81.2481 86.1831 81.2625 86.3191 81.2561C86.85 81.225 87.3344 81.0158 87.7133 80.6133C87.9076 80.4206 88.0693 80.1803 88.2213 79.9325C88.361 79.6739 88.4942 79.4058 88.5933 79.1167C88.6955 78.8304 88.7843 78.5355 88.8491 78.2336C88.8818 78.0832 88.9101 77.9323 88.9331 77.7819C88.9299 77.8059 88.9358 77.7369 88.9636 77.6636C88.9883 77.601 89.022 77.5512 89.0568 77.5121C89.1269 77.4356 89.1943 77.3976 89.2671 77.3697C89.3421 77.3462 89.4202 77.3242 89.5588 77.3531C89.6289 77.3703 89.7135 77.4061 89.79 77.4805C89.866 77.5522 89.9126 77.6523 89.9281 77.7267L89.9442 77.8134L89.9619 77.9151L90.0111 78.1276C90.1631 78.7041 90.412 79.2768 90.7583 79.751C91.0992 80.2316 91.5494 80.609 92.0803 80.7712C92.1467 80.7904 92.2125 80.8156 92.2799 80.8316L92.4892 80.8584C92.6273 80.8884 92.7718 80.8755 92.9163 80.8702C93.0609 80.8761 93.2059 80.8397 93.352 80.8124C93.4248 80.7985 93.4992 80.7872 93.5709 80.7712L93.7738 80.7011C94.3235 80.5244 94.7153 80.1011 94.8357 79.5251C94.9652 78.9572 94.8732 78.2962 94.6853 77.7123L94.681 77.7C94.651 77.6063 94.7024 77.5057 94.7961 77.4757C94.8833 77.4479 94.9765 77.4902 95.0134 77.5721C95.1595 77.8948 95.2591 78.2165 95.3281 78.559C95.3966 78.8989 95.4169 79.2575 95.365 79.6204C95.3104 79.9779 95.19 80.3585 94.9358 80.6561C94.6938 80.9553 94.3722 81.1935 94.0302 81.3294L93.7732 81.4359C93.6865 81.4627 93.5998 81.4825 93.5121 81.5055C93.3376 81.5494 93.1642 81.5992 92.9774 81.6056C92.7938 81.6227 92.6102 81.6447 92.4223 81.6195L92.1413 81.5965C92.0487 81.5799 91.9572 81.5532 91.8651 81.5312C91.4926 81.4488 91.1544 81.2614 90.8418 81.0554C90.5463 80.8284 90.2739 80.5721 90.0566 80.283C89.6075 79.7098 89.3003 79.0675 89.09 78.3824C89.0659 78.2941 89.0418 78.2079 89.0204 78.1169L88.9925 77.9762L88.9856 77.9408L88.9824 77.9232L88.9808 77.9141C88.9829 77.9269 88.9727 77.8723 88.9856 77.9414C89 78.0109 89.0445 78.1057 89.1162 78.1742C89.1895 78.2448 89.2687 78.2786 89.334 78.2941C89.4625 78.3209 89.5305 78.3005 89.5958 78.2802C89.6589 78.2561 89.7178 78.224 89.7804 78.1549C89.812 78.1196 89.8425 78.0741 89.8655 78.0163C89.8917 77.9478 89.8966 77.8836 89.8928 77.913C89.8698 78.088 89.8414 78.2609 89.8082 78.4322C89.7429 78.7753 89.6509 79.113 89.5396 79.4475C89.3132 80.1128 88.9931 80.7792 88.4632 81.3375C87.9499 81.9043 87.153 82.2763 86.3721 82.3127C86.1804 82.3228 85.9979 82.3089 85.8101 82.3057C85.6233 82.2928 85.4333 82.2516 85.2454 82.2233C85.0597 82.1703 84.8713 82.1184 84.6909 82.045C84.5148 81.9578 84.3301 81.885 84.1728 81.7656C83.8351 81.5585 83.5669 81.2684 83.3277 80.973C83.0991 80.6679 82.9209 80.3403 82.7748 80.0063C82.6361 79.6707 82.528 79.3292 82.4456 78.9878C82.4065 78.8175 82.3723 78.6463 82.3423 78.4809L82.3203 78.3583C82.3225 78.3674 82.3134 78.3262 82.3252 78.3803C82.3337 78.4156 82.3476 78.4493 82.3637 78.4814C82.3974 78.5473 82.4445 78.5981 82.4884 78.6334C82.5789 78.703 82.6517 78.7201 82.7132 78.7292C82.7753 78.7362 82.8315 78.7335 82.9027 78.7121C82.9707 78.6902 83.0686 78.6425 83.1473 78.5264C83.166 78.498 83.1821 78.4675 83.1949 78.4349C83.2104 78.392 83.2136 78.3717 83.2104 78.3867L83.2067 78.4011L83.1992 78.43L83.1837 78.4873L83.1521 78.6051C82.9808 79.2554 82.7624 79.9346 82.3862 80.5614C82.1924 80.8707 81.9698 81.1763 81.6706 81.4274C81.5341 81.5628 81.3575 81.6613 81.1948 81.7688C81.107 81.8138 81.0138 81.8518 80.9234 81.892L80.7864 81.9503L80.6424 81.9872L80.3539 82.0552C80.2576 82.0664 80.1601 82.0681 80.0638 82.0739C79.8684 82.0953 79.6838 82.0606 79.497 82.0402C79.1288 81.9808 78.7792 81.8764 78.4404 81.7014C78.3532 81.6672 78.2761 81.6088 78.198 81.5542L77.9657 81.3872L77.765 81.1812L77.6665 81.0773C77.6371 81.0404 77.6119 80.9992 77.5846 80.9606L77.4278 80.7241L77.31 80.4704C77.2672 80.3869 77.241 80.2991 77.2153 80.2118C77.1917 80.1241 77.157 80.0379 77.1436 79.949C77.005 79.2377 77.0654 78.5462 77.2586 77.8787C77.2859 77.784 77.385 77.7294 77.4792 77.7567C77.5664 77.7819 77.6194 77.868 77.606 77.9553L77.6044 77.9681Z" fill="#4B2710"/>
<path d="M78.7755 85.4325C78.5497 85.9512 78.3848 86.5442 78.4308 87.0629C78.471 87.5938 78.7932 87.9224 79.2979 88.0423C79.5441 88.1066 79.815 88.1339 80.0938 88.1301C80.2308 88.1285 80.3625 88.1108 80.4963 88.1039C80.6269 88.0819 80.7554 88.0568 80.8828 88.03C81.3816 87.8898 81.8264 87.6163 82.1614 87.2138C82.505 86.8225 82.7587 86.3296 82.9252 85.8104C82.9439 85.7451 82.9659 85.6803 82.9819 85.615L82.9948 85.5663L83.0012 85.5417L83.0044 85.5294L83.0242 85.4657C83.0804 85.3116 83.2062 85.2083 83.2993 85.166C83.3967 85.1205 83.4776 85.1092 83.5573 85.1092C83.6371 85.1114 83.7189 85.1248 83.819 85.1772C83.9154 85.2243 84.0438 85.3474 84.0872 85.5107L84.1 85.5663L84.1027 85.5813L84.1081 85.6113L84.1193 85.6718L84.1407 85.7885L84.1809 86.0074C84.2322 86.2905 84.2895 86.5592 84.3789 86.8059C84.5512 87.3026 84.8263 87.7089 85.2246 87.9348C85.6142 88.1729 86.127 88.2629 86.667 88.2281C87.1669 88.2216 87.594 88.0134 87.9617 87.6794C88.3198 87.3374 88.6088 86.8707 88.7865 86.3654C88.8786 86.1155 88.9455 85.8484 88.969 85.6065C88.9755 85.5471 88.9739 85.4946 88.9771 85.4411C88.9744 85.4234 88.9728 85.4058 88.9723 85.3876V85.3742C88.9696 85.356 88.9787 85.4095 88.9658 85.333C88.9541 85.2527 88.9674 85.1446 89.007 85.0621C89.0927 84.8887 89.2115 84.832 89.2918 84.8004C89.3774 84.7704 89.4529 84.7624 89.5433 84.7747C89.6306 84.7876 89.7494 84.8293 89.8474 84.939C89.8971 84.9931 89.9341 85.0739 89.9223 85.0504L89.9255 85.0573L89.9319 85.0712L90.1209 85.4989C90.3494 86.0384 90.6117 86.5389 90.9478 86.9708C91.2818 87.4022 91.7014 87.7314 92.1831 87.8957C92.3009 87.9481 92.4288 87.9615 92.5556 87.9845C92.6809 88.0188 92.8147 88.0011 92.9458 88.0075C93.0775 88.0204 93.2113 87.9835 93.3451 87.9685C93.4109 87.9572 93.4832 87.9556 93.5442 87.9369L93.7289 87.8823C93.8611 87.8577 93.9547 87.7806 94.0714 87.7324C94.1217 87.6993 94.1651 87.6586 94.2143 87.6227C94.2373 87.604 94.2641 87.5874 94.2855 87.5665L94.3428 87.4975C94.43 87.4129 94.4825 87.3005 94.5467 87.1935C94.59 87.0741 94.642 86.9558 94.6628 86.8225C94.7688 86.3001 94.6944 85.6937 94.5301 85.1526L94.5264 85.1392C94.498 85.045 94.551 84.9455 94.6452 84.9171C94.733 84.8903 94.8256 84.9358 94.8609 85.0182C95.1087 85.6065 95.265 86.2284 95.1933 86.9055C95.1617 87.5799 94.635 88.2907 93.9702 88.516L93.7262 88.6075C93.6443 88.6381 93.5635 88.6466 93.4816 88.667C93.3173 88.6969 93.1572 88.7462 92.9844 88.7446C92.8136 88.7489 92.6434 88.7745 92.4711 88.744C92.2987 88.7248 92.1248 88.7108 91.9583 88.6536C91.2791 88.4727 90.6914 88.0402 90.2697 87.5328C89.8399 87.0275 89.5177 86.4575 89.2516 85.8966L89.0632 85.5L89.0579 85.4887L89.0552 85.4828C89.0413 85.455 89.0761 85.5321 89.1227 85.5824C89.2147 85.6851 89.3239 85.7232 89.402 85.7344C89.4834 85.7456 89.5492 85.7387 89.6258 85.7119C89.697 85.6835 89.8077 85.6327 89.8891 85.4678C89.9266 85.3892 89.94 85.2864 89.9287 85.2109C89.9164 85.1387 89.926 85.197 89.9239 85.1836L89.9303 85.2265L89.9507 85.3983C89.9512 85.4957 89.9533 85.5947 89.9458 85.6857C89.9185 86.0464 89.842 86.3713 89.7355 86.6914C89.63 87.0104 89.4957 87.3203 89.3202 87.6141C89.1526 87.9112 88.9342 88.1879 88.6811 88.4363C88.5473 88.5556 88.4172 88.6782 88.2609 88.7745C88.1153 88.8837 87.9483 88.9629 87.7819 89.0422C87.616 89.1203 87.434 89.1647 87.2584 89.2177C87.0813 89.2423 86.8897 89.2852 86.7221 89.2868C86.0638 89.3301 85.3198 89.2477 84.6722 88.8505C84.3452 88.6654 84.0754 88.387 83.8592 88.0937C83.6387 87.7972 83.5011 87.4691 83.3866 87.1469C83.2747 86.8231 83.2099 86.4971 83.1575 86.1861L83.1232 85.9576L83.1072 85.8505L83.0991 85.7992L83.0954 85.7735L83.0933 85.7606L83.0922 85.7542C83.0922 85.7542 83.0879 85.7371 83.1002 85.7885C83.1382 85.9335 83.2533 86.0416 83.3325 86.0802C83.416 86.1235 83.4792 86.1326 83.5402 86.1348C83.6012 86.1348 83.6627 86.1273 83.743 86.0898C83.8196 86.0555 83.9304 85.9656 83.9801 85.8291C83.9962 85.7836 83.9967 85.7724 83.9941 85.7847L83.9919 85.7922L83.9876 85.8072L83.9791 85.8372L83.9614 85.8976C83.9384 85.9785 83.91 86.0555 83.8838 86.1348C83.6606 86.7562 83.3395 87.3567 82.8647 87.8577C82.3996 88.3635 81.7514 88.7232 81.0781 88.8682C80.9095 88.8966 80.7388 88.9217 80.5702 88.9346C80.4021 88.934 80.2319 88.941 80.0671 88.9314C79.7422 88.9116 79.4082 88.858 79.0769 88.7451C78.7477 88.6359 78.411 88.4352 78.1777 88.1232C77.9416 87.8133 77.8528 87.4284 77.8571 87.0853C77.879 86.389 78.137 85.8029 78.4662 85.258C78.517 85.174 78.6267 85.1467 78.7108 85.1975C78.7884 85.2441 78.8173 85.3405 78.782 85.4213L78.7755 85.4325Z" fill="#4B2710"/>
<path d="M81.3189 92.442C81.2809 92.8097 81.3071 93.2154 81.4366 93.5296C81.4971 93.6896 81.5844 93.8267 81.6978 93.9273C81.8033 94.0359 81.944 94.0986 82.0891 94.1532C82.2411 94.1976 82.4081 94.2276 82.5617 94.2201C82.6382 94.2169 82.7132 94.2136 82.7811 94.1896C82.8529 94.1789 82.9166 94.1451 82.9819 94.1194C83.2366 93.9969 83.4545 93.7485 83.6188 93.4429C83.7044 93.293 83.7756 93.126 83.8398 92.9574C83.8714 92.8723 83.8992 92.7851 83.926 92.6973L83.9624 92.5646L83.979 92.4982L83.9833 92.4816L83.9843 92.4773C83.9886 92.4586 84.0052 92.4088 84.0207 92.3783C84.0545 92.3093 84.1026 92.2504 84.1529 92.2086C84.2536 92.1257 84.343 92.1 84.4206 92.0866C84.4992 92.0754 84.571 92.078 84.6545 92.1005C84.7347 92.1241 84.8402 92.169 84.9365 92.2921C84.9842 92.3553 85.0173 92.4286 85.0329 92.5068L85.0355 92.5202L85.0441 92.564L85.0607 92.6518L85.0869 92.8044C85.1035 92.9012 85.1217 92.9944 85.141 93.0832C85.179 93.2609 85.2245 93.4285 85.2855 93.5778C85.4134 93.8732 85.582 94.0889 85.8255 94.1944L85.9165 94.2367L86.0193 94.2656C86.0846 94.2902 86.1606 94.3009 86.2387 94.3084C86.3131 94.3234 86.395 94.3244 86.4791 94.3212C86.5642 94.3228 86.6471 94.3223 86.7087 94.3078C87.2439 94.2575 87.7085 93.672 87.9344 93.0099C87.9884 92.8477 88.0328 92.6722 88.0452 92.5319C88.0452 92.5062 88.0516 92.4575 88.0484 92.4575L88.0494 92.45L88.0505 92.4458C88.0468 92.419 88.0596 92.5041 88.0419 92.3858C88.0334 92.3061 88.0521 92.1963 88.0949 92.1182C88.1854 91.9544 88.2983 91.9046 88.3759 91.8752C88.4589 91.8479 88.5322 91.8409 88.6221 91.8543C88.7083 91.8682 88.8266 91.9121 88.9219 92.0224C88.9732 92.0834 89.0005 92.1482 88.9898 92.1257L88.992 92.131L88.9968 92.1412L89.015 92.1819L89.1397 92.4736C89.288 92.8386 89.4523 93.1758 89.6589 93.467C89.8649 93.7549 90.1074 93.9947 90.3852 94.0927C90.6571 94.2008 90.9921 94.1623 91.3095 94.0429C91.4701 93.9899 91.5895 93.8914 91.704 93.786C91.8073 93.6715 91.886 93.5302 91.939 93.3685C92.0385 93.0447 92.0225 92.6384 91.9374 92.2814L91.9331 92.2638C91.9101 92.1685 91.9695 92.0722 92.0647 92.0491C92.1509 92.0283 92.2376 92.0748 92.2708 92.1541C92.4432 92.5694 92.5384 93.0067 92.463 93.4863C92.4217 93.7223 92.3324 93.9632 92.1798 94.1703C92.0225 94.3667 91.8266 94.5471 91.6071 94.652C91.5006 94.7184 91.3877 94.7553 91.2742 94.7971C91.2169 94.8169 91.1607 94.8383 91.1019 94.8554L90.9161 94.887C90.8535 94.8961 90.792 94.9089 90.7283 94.9127L90.534 94.9073C90.4029 94.9105 90.2765 94.8763 90.1486 94.8458C89.6321 94.7093 89.2462 94.3571 88.9599 94.0017C88.6692 93.6409 88.4519 93.2475 88.2678 92.8648L88.1404 92.5967L88.1265 92.5678L88.1228 92.5608L88.1212 92.5571C88.1088 92.5314 88.1351 92.594 88.1843 92.6524C88.2753 92.7583 88.3872 92.799 88.4669 92.8119C88.5504 92.8242 88.6173 92.8177 88.6939 92.7926C88.7656 92.7648 88.8726 92.7193 88.9604 92.5608C89.0016 92.4859 89.0198 92.3789 89.0112 92.3028C88.9947 92.1878 89.0075 92.2755 89.0038 92.2525L89.0091 92.2868L89.0182 92.3558C89.0321 92.4575 89.0236 92.5116 89.0241 92.5881C89.0096 92.8574 88.9567 93.0822 88.8908 93.3112C88.7527 93.7592 88.552 94.1933 88.2207 94.5744C88.0617 94.7671 87.8568 94.9357 87.632 95.0786C87.3975 95.2087 87.139 95.32 86.8676 95.3521C86.7279 95.3794 86.6064 95.381 86.4866 95.3815C86.3656 95.3858 86.2436 95.3847 86.1151 95.3649C85.9888 95.3532 85.8625 95.335 85.733 95.2938C85.6687 95.275 85.604 95.2606 85.5408 95.2365L85.3529 95.1503C84.8407 94.9132 84.4875 94.4219 84.3114 93.9658C84.2209 93.7341 84.1642 93.5039 84.1208 93.2802C84.1016 93.1683 84.086 93.0591 84.0727 92.9537L84.0539 92.8028L84.0448 92.7391L84.0405 92.7075C84.0405 92.7059 84.0395 92.6995 84.04 92.7021C84.0539 92.7739 84.085 92.8413 84.1289 92.8991C84.2172 93.012 84.3108 93.0506 84.3788 93.0709C84.4495 93.0902 84.5083 93.0923 84.5747 93.0827C84.6395 93.0714 84.7165 93.05 84.8075 92.9756C84.8525 92.9376 84.8969 92.8841 84.928 92.8204C84.9424 92.7931 84.9579 92.746 84.9611 92.7305L84.9595 92.7359L84.9536 92.7562L84.9296 92.8381L84.8771 92.9997C84.8396 93.1062 84.7995 93.2128 84.7551 93.3177C84.6636 93.5264 84.5672 93.7351 84.4355 93.9332C84.1829 94.3234 83.8195 94.7146 83.3142 94.9105C83.1868 94.9533 83.06 94.9983 82.9262 95.0074C82.7935 95.0315 82.6639 95.0267 82.5355 95.0176C82.2796 94.9988 82.0441 94.9303 81.8129 94.8324C81.3457 94.6343 80.9737 94.1607 80.887 93.6929C80.7837 93.2197 80.8393 92.7787 80.9747 92.3505C81.0047 92.2568 81.1048 92.2049 81.1985 92.2343C81.2803 92.26 81.3307 92.3403 81.3221 92.4227L81.3189 92.442Z" fill="#4B2710"/>
<path d="M82.9032 72.1736C83.7891 72.1736 84.5073 71.5192 84.5073 70.7119C84.5073 69.9046 83.7891 69.2501 82.9032 69.2501C82.0173 69.2501 81.2991 69.9046 81.2991 70.7119C81.2991 71.5192 82.0173 72.1736 82.9032 72.1736Z" fill="#4B2710"/>
<path d="M90.8359 111.34C90.7224 111.34 90.6143 111.334 90.5126 111.324C88.1892 111.095 86.1066 108.455 85.0211 106.807C83.7751 108.293 81.4683 110.649 79.2535 110.824C78.3452 110.895 77.515 110.602 76.8455 109.976C75.7429 108.947 75.2151 107.657 75.3179 106.244C75.5283 103.365 78.3275 100.453 80.6692 98.8269C80.4203 98.4565 80.1639 98.0829 79.9043 97.7039C77.1281 93.6549 73.9814 89.0647 73.9991 81.2047C74.0152 74.04 77.6478 68.1288 81.0417 64.9865C83.0857 63.0933 85.1897 62.0812 86.7954 62.1979C91.5306 62.5527 99.1625 72.2619 98.9329 82.6584C98.7793 89.6079 95.1873 94.007 92.3008 97.5418C91.7469 98.2199 91.2229 98.8617 90.7374 99.4991C92.4994 101.016 94.5932 103.73 94.7613 106.452C94.8459 107.825 94.4187 109.067 93.526 110.043C92.577 111.082 91.5858 111.34 90.8359 111.34ZM85.0784 104.689C85.1009 104.689 85.1234 104.689 85.1458 104.691C85.5243 104.714 85.8705 104.929 86.0734 105.267C87.2836 107.27 89.1306 109.467 90.6807 109.619C91.2427 109.675 91.7613 109.436 92.2612 108.888C92.85 108.243 93.1085 107.482 93.0518 106.557C92.9244 104.496 91.2266 102.172 89.6006 100.782C88.9133 100.194 88.8009 99.2176 89.3389 98.5089C89.8527 97.8319 90.3975 97.165 90.9745 96.4584C93.8364 92.9537 97.0799 88.9812 97.2207 82.6209C97.4332 73.0097 90.2728 64.1766 86.6675 63.9063C85.5612 63.8234 83.8517 64.7194 82.2053 66.2437C79.0758 69.1415 75.7263 74.595 75.7118 81.209C75.6952 88.5364 78.6818 92.8927 81.3168 96.7362C81.5908 97.1355 81.8606 97.5289 82.1223 97.9191C82.6335 98.6786 82.4317 99.6902 81.6631 100.222C79.467 101.741 77.1816 104.231 77.0258 106.369C76.96 107.272 77.2833 108.042 78.0144 108.724C78.3372 109.026 78.6883 109.149 79.1186 109.116C80.6504 108.995 82.7293 106.984 84.1642 105.144C84.389 104.856 84.7268 104.689 85.0784 104.689ZM84.6058 106.151C84.6063 106.151 84.6069 106.152 84.6069 106.153C84.6069 106.152 84.6063 106.151 84.6058 106.151ZM80.7002 98.8745C80.7007 98.875 80.7007 98.875 80.7002 98.8745C80.7007 98.875 80.7007 98.875 80.7002 98.8745Z" fill="#4B2710"/>
<g opacity="0.3">
<g opacity="0.3">
<g opacity="0.3">
<path opacity="0.3" d="M84.7481 93.5077C82.9438 94.3148 81.093 94.8822 79.2646 95.2253C77.2222 92.0893 75.2809 88.3978 74.9175 83.0839C75.1316 83.1465 75.3435 83.207 75.5533 83.2638C79.1255 84.2486 81.9124 84.6581 83.402 85.1751C88.211 86.8338 87.7834 92.1498 84.7481 93.5077Z" fill="#4B2710"/>
</g>
</g>
</g>
<path d="M84.7176 89.4067C81.388 91.2816 77.7955 92.1594 74.4556 92.4886C67.3799 93.179 61.4227 91.401 61.4227 91.401L64.7428 77.2637C68.3995 78.7308 71.764 79.5444 74.6173 80.055C78.266 80.7069 81.0791 80.8584 82.6088 81.2336C87.5512 82.4422 87.6159 87.7742 84.7176 89.4067Z" fill="#9CA9B9"/>
<g opacity="0.5">
<g opacity="0.5">
<g opacity="0.5">
<path opacity="0.5" d="M85.4825 88.8275C86.0659 86.6416 84.9719 83.8707 81.5796 83.0416C80.0499 82.6664 77.2367 82.5149 73.588 81.863C71.7142 81.528 70.6919 81.1506 69.1001 80.5094C67.3922 79.8216 65.8909 78.703 64.7428 77.2637C68.3995 78.7308 71.764 79.5444 74.6173 80.055C78.266 80.7069 81.0792 80.8584 82.6089 81.2336C87.0668 82.3233 87.5555 86.769 85.4825 88.8275Z" fill="white"/>
</g>
</g>
</g>
<path d="M84.7177 89.4067C81.388 91.2816 77.7955 92.1594 74.4556 92.4886C71.0489 87.1324 73.7593 81.5585 74.6173 80.0544C78.266 80.7064 81.0792 80.8578 82.6088 81.233C87.5512 82.4421 87.6159 87.7742 84.7177 89.4067Z" fill="white"/>
<g opacity="0.3">
<g opacity="0.3">
<g opacity="0.3">
<path opacity="0.3" d="M86.4068 84.3899C86.0798 84.961 85.6136 85.4432 85.0265 85.7746C81.6968 87.6495 78.1043 88.5273 74.7645 88.8565C74.1709 88.9148 73.5859 88.9555 73.0127 88.9796C70.6368 89.0861 68.817 89.0218 67.4072 88.8859C65.119 88.6654 62.8748 89.6192 61.4227 91.401C61.4227 91.401 67.3804 93.179 74.4556 92.4886C77.7955 92.1594 81.388 91.2816 84.7176 89.4067C86.3886 88.4647 87.0748 86.2927 86.4068 84.3899Z" fill="#4B2710"/>
</g>
</g>
</g>
<path d="M61.4987 91.1451C62.6489 91.0392 63.7301 91.1446 64.807 91.2832C65.8855 91.4047 66.9565 91.5674 68.0355 91.6879C69.114 91.8099 70.2005 91.8463 71.2838 91.8415C72.3672 91.8345 73.4499 91.7848 74.5241 91.6724C76.6715 91.4459 78.7958 91.0103 80.8153 90.2888C81.829 89.9387 82.809 89.5036 83.7553 89.0085L84.1091 88.8206C84.2284 88.758 84.351 88.6938 84.4308 88.6392C84.6149 88.5289 84.7803 88.3897 84.9333 88.2377C85.0886 88.0868 85.2175 87.9086 85.3401 87.726C85.4509 87.5355 85.5585 87.3401 85.6324 87.1271C85.7929 86.708 85.8604 86.2499 85.8555 85.7954C85.8395 85.341 85.7538 84.8866 85.5762 84.4681C85.3995 84.05 85.1512 83.662 84.8349 83.3291C84.5169 82.9978 84.1374 82.7189 83.7162 82.4978C83.2945 82.2763 82.8347 82.113 82.3498 81.9979C81.8611 81.8866 81.3269 81.8058 80.788 81.733L77.492 81.3112C75.2761 81.0174 73.0581 80.6181 70.8739 80.0748C69.7814 79.8035 68.7024 79.4839 67.6079 79.2045C67.0673 79.044 66.5422 78.8315 66.0321 78.5869C65.5328 78.3128 65.0527 77.9874 64.6438 77.51C64.5351 77.3836 64.5501 77.1931 64.6764 77.0844C64.7224 77.0448 64.777 77.0218 64.8332 77.0143L64.8429 77.0133C65.4696 76.9298 66.0246 77.0004 66.5615 77.1192C67.1005 77.2311 67.6218 77.3852 68.1329 77.5731C68.6489 77.7455 69.1563 77.9494 69.6814 78.096C70.208 78.2363 70.7299 78.3947 71.2619 78.5162C73.3793 79.0423 75.5298 79.4304 77.7077 79.7194L81.0063 80.1417C81.5646 80.2183 82.1276 80.3002 82.7196 80.435C83.3121 80.5753 83.9057 80.7824 84.465 81.0768C85.0243 81.3701 85.5505 81.7533 85.9995 82.2227C86.447 82.6927 86.8088 83.2509 87.0609 83.8541C87.5635 85.0638 87.5999 86.4511 87.138 87.688C87.0277 87.999 86.8714 88.2939 86.7012 88.5797C86.5176 88.8586 86.3169 89.1289 86.0761 89.3666C85.8373 89.6053 85.5745 89.8236 85.2839 90.0003C85.1324 90.0988 85.0083 90.1619 84.8825 90.2283L84.5025 90.4301C83.4861 90.9621 82.4343 91.4278 81.3532 91.8019C79.1967 92.5716 76.9477 93.0319 74.6901 93.2695C73.5602 93.3878 72.426 93.4402 71.294 93.4472C70.1615 93.4536 69.031 93.4006 67.9012 93.3412C66.7718 93.2797 65.6414 93.171 64.534 92.928C63.4261 92.6947 62.3315 92.3628 61.3478 91.6579C61.2209 91.5669 61.1915 91.3903 61.2825 91.2634C61.3317 91.1944 61.4067 91.1542 61.4853 91.1468L61.4987 91.1451Z" fill="#4B2710"/>
<g opacity="0.3">
<g opacity="0.3">
<g opacity="0.3">
<path opacity="0.3" d="M101.394 93.9176C99.9734 94.3474 98.2478 94.5332 96.2434 94.1821C95.0728 93.9781 93.8054 93.5906 92.4491 92.9633C89.432 91.5669 89.6177 85.9988 94.5579 84.7897C95.2238 84.6264 95.8821 84.4327 96.4794 84.2084C97.5691 83.8049 98.4673 83.3082 98.8933 82.7371C99.428 83.169 100.044 83.7604 100.619 84.5333C101.014 87.5339 101.305 90.7164 101.394 93.9176Z" fill="#4B2710"/>
</g>
</g>
</g>
<path d="M101.743 90.2486C99.4601 91.0295 96.3221 91.1992 92.4491 89.4072C89.432 88.0108 89.6177 82.4427 94.5579 81.2336C96.4409 80.7733 98.2328 80.0652 98.8928 79.181C100.098 80.1519 101.696 81.9176 102.35 84.7854C102.853 86.989 102.395 88.8602 101.743 90.2486Z" fill="white"/>
<g opacity="0.3">
<g opacity="0.3">
<g opacity="0.3">
<path opacity="0.3" d="M106.546 82.767C106.441 83.0314 106.316 83.2776 106.166 83.5035C105.787 84.0768 104.55 85.3297 102.548 86.1471C102.364 86.2236 102.173 86.2964 101.975 86.3628C101.827 86.4131 101.676 86.4618 101.521 86.5062C101.371 86.5485 101.218 86.5892 101.063 86.6272C100.863 86.6753 100.659 86.7198 100.449 86.7562C100.358 86.7722 100.266 86.7883 100.171 86.8027C99.9487 86.837 99.7207 86.8632 99.4889 86.8835C99.4001 86.8916 99.3091 86.8975 99.2165 86.9039C99.1073 86.9098 98.9965 86.9162 98.8836 86.9178C98.7728 86.9221 98.6593 86.9237 98.5448 86.9237C96.8433 86.9237 94.88 86.5383 92.6819 85.5208C91.9149 85.1654 91.3539 84.5403 91.0269 83.7851C89.8906 85.8677 90.504 88.5053 92.4496 89.4056C94.6472 90.4225 96.611 90.8084 98.3125 90.8084C98.4276 90.8084 98.5405 90.8063 98.6513 90.8026C98.7642 90.8004 98.8756 90.7945 98.9842 90.7886C99.0768 90.7828 99.1678 90.7763 99.2566 90.7683C99.4889 90.748 99.7169 90.7217 99.9391 90.6875C100.034 90.6736 100.127 90.657 100.217 90.6409C100.429 90.6045 100.635 90.5601 100.835 90.5098C100.989 90.4734 101.14 90.4332 101.289 90.391C101.444 90.3465 101.596 90.2984 101.743 90.2475C104.082 89.4522 105.521 88.0134 105.935 87.3877C106.669 86.2707 106.863 84.6441 106.546 82.767Z" fill="#4B2710"/>
</g>
</g>
</g>
<path d="M98.2794 91.6696C96.4815 91.6696 94.4112 91.2575 92.0905 90.1833C90.3922 89.397 89.425 87.5504 89.6263 85.4785C89.8152 83.5367 91.156 81.1833 94.355 80.4013L94.5739 80.3478C95.9045 80.0239 97.9154 79.5347 98.1884 78.6666C98.3538 78.142 97.9282 77.2659 96.99 76.2002C96.6774 75.8453 96.7117 75.3042 97.0671 74.9916C97.4214 74.679 97.963 74.7133 98.2756 75.0687C99.6843 76.6685 100.19 78.0136 99.8224 79.1815C99.2588 80.9713 96.8856 81.5483 94.9786 82.0123L94.7618 82.0653C92.7847 82.5487 91.5017 83.8867 91.331 85.6445C91.2009 86.982 91.7816 88.1537 92.8098 88.6295C100.93 92.3885 104.807 87.0468 104.842 86.9906C107.061 83.5062 104.475 75.8491 97.2142 70.4314C96.8353 70.1488 96.7572 69.6119 97.0403 69.233C97.3229 68.8541 97.8592 68.7759 98.2387 69.059C106.371 75.1265 108.965 83.7058 106.286 87.9112C105.484 89.1706 102.707 91.6696 98.2794 91.6696Z" fill="#4B2710"/>
<path d="M87.9997 62.5971L88.1281 62.7015C88.1677 62.7342 88.202 62.7641 88.2357 62.7962C88.3053 62.8599 88.3727 62.9231 88.4343 62.9889C88.5627 63.1206 88.6773 63.256 88.7897 63.3968C89.0086 63.6783 89.2061 63.9754 89.3715 64.2869C89.7113 64.9062 89.9484 65.5752 90.1015 66.2533C90.2471 66.9331 90.3376 67.6198 90.3151 68.3028C90.3199 68.6426 90.2744 68.9815 90.2369 69.3144C90.193 69.6473 90.109 69.9759 90.0319 70.2971C90.017 70.3597 89.9543 70.3982 89.8917 70.3832C89.8473 70.3725 89.8152 70.3383 89.8055 70.2971L89.8029 70.2853C89.7263 69.9631 89.6776 69.6468 89.6059 69.3368C89.5197 69.028 89.4699 68.7208 89.3656 68.4248C89.2061 67.8253 88.969 67.2591 88.7281 66.7131C88.4819 66.1666 88.1715 65.6619 87.868 65.1668C87.7144 64.919 87.549 64.683 87.389 64.4442C87.3028 64.3313 87.2257 64.2082 87.1406 64.0985C87.0989 64.0412 87.0598 63.9834 87.0186 63.9304L86.9602 63.8496C86.9426 63.825 86.919 63.7945 86.9169 63.7838L86.8216 63.309C86.7424 62.9129 86.9988 62.5281 87.3943 62.4483C87.6164 62.4039 87.837 62.4665 87.9997 62.5971Z" fill="#4B2710"/>
<path d="M81.8242 84.08C82.4708 83.9323 83.0933 83.7219 83.6847 83.4698C83.9801 83.3451 84.2665 83.206 84.5405 83.0556C84.8167 82.9094 85.0741 82.7392 85.3209 82.5701C85.6945 82.3137 86.2051 82.4085 86.4615 82.7821C86.7178 83.1556 86.6231 83.6657 86.2495 83.9221C86.1559 83.9863 86.0536 84.0286 85.9487 84.05L85.9407 84.0511C85.5832 84.1217 85.2304 84.1822 84.8799 84.2106C84.5298 84.2438 84.183 84.2593 83.8399 84.2572C83.1537 84.2556 82.4793 84.1999 81.8242 84.08Z" fill="#4B2710"/>
<path d="M82.3488 87.7067C83.0729 87.5489 83.7569 87.2812 84.3794 86.9451C84.6915 86.7786 84.9864 86.5908 85.2588 86.3842C85.5361 86.1845 85.7801 85.9517 86.0108 85.7221L86.0135 85.7194C86.3325 85.4009 86.8495 85.4015 87.168 85.7205C87.4864 86.0395 87.4859 86.5565 87.1669 86.875C87.0957 86.9462 87.0117 87.0024 86.925 87.042C86.545 87.2127 86.1671 87.3663 85.7791 87.4707C85.3942 87.5826 85.0067 87.6613 84.6213 87.711C83.8517 87.8122 83.0852 87.8159 82.3488 87.7067Z" fill="#4B2710"/>
<path d="M94.9314 84.4531C94.3074 84.6843 93.6528 84.8561 92.9778 84.9765C92.6401 85.0381 92.296 85.0825 91.9454 85.1109C91.5948 85.143 91.2373 85.1451 90.8728 85.1371H90.869C90.4162 85.1275 90.0571 84.7523 90.0667 84.2995C90.0764 83.8466 90.4516 83.4875 90.9044 83.4971C91.0178 83.4993 91.1292 83.5271 91.2271 83.571C91.4995 83.6952 91.7827 83.8177 92.0797 83.9141C92.3757 84.0147 92.6819 84.1025 92.9944 84.1742C93.6191 84.3198 94.2694 84.4199 94.9314 84.4531Z" fill="#4B2710"/>
<path d="M95.0422 88.1157C94.3764 88.3785 93.6485 88.523 92.8997 88.5653C92.5245 88.5856 92.1413 88.5819 91.757 88.5401C91.37 88.5069 90.9852 88.4267 90.5966 88.3303C90.1582 88.2217 89.8912 87.7785 89.9998 87.3401C90.1085 86.9018 90.5516 86.6347 90.99 86.7433C91.0922 86.7685 91.1875 86.8145 91.2688 86.8718C91.5231 87.0532 91.7907 87.2347 92.0824 87.3803C92.3709 87.5339 92.6792 87.6607 92.9987 87.7683C93.6383 87.9824 94.3304 88.1146 95.0422 88.1157Z" fill="#4B2710"/>
<g opacity="0.3">
<g opacity="0.3">
<g opacity="0.3">
<path opacity="0.3" d="M115.743 103.815C115.746 104.318 115.711 104.835 115.648 105.367C115.628 105.546 115.603 105.725 115.576 105.906C115.476 106.578 115.332 107.267 115.148 107.961C115.109 108.118 115.064 108.277 115.019 108.433C114.723 109.475 114.347 110.522 113.915 111.545C113.853 111.694 113.788 111.841 113.721 111.987C113.318 112.905 112.866 113.797 112.388 114.636C112.319 114.758 112.249 114.879 112.177 114.999C112.1 115.13 112.023 115.26 111.943 115.387C111.831 115.571 111.714 115.752 111.6 115.931C111.461 116.148 111.319 116.359 111.177 116.563C111.107 116.663 111.038 116.76 110.968 116.856C110.468 117.553 109.956 118.175 109.446 118.699C109.386 118.764 109.324 118.823 109.265 118.883C108.541 119.602 107.83 120.114 107.173 120.358C107.091 120.388 107.009 120.415 106.929 120.44C106.869 120.46 106.81 120.477 106.748 120.494C103.502 121.407 100.369 118.602 100.812 115.215C100.949 114.173 101.174 113.143 101.423 112.123C101.448 112.22 102.219 114.981 104.388 116.078C105.264 116.52 106.368 116.692 107.74 116.309C108.123 116.202 108.518 116.001 108.924 115.72C111.56 113.877 114.512 108.6 115.743 103.815Z" fill="#4B2710"/>
</g>
</g>
</g>
</g>
<defs>
<clipPath id="clip0_168_936">
<rect width="118" height="128" fill="white"/>
</clipPath>
</defs>
</svg>
