<svg width="77" height="80" viewBox="0 0 77 80" fill="none" xmlns="http://www.w3.org/2000/svg">
<path d="M7.38137 37.3438L0.80712 55.7349C0.474795 56.6647 1.1818 57.6366 2.19062 57.6366H7.38106" fill="#EF9F21"/>
<g opacity="0.3">
<path opacity="0.3" d="M7.38137 37.3438L0.80712 55.7349C0.474795 56.6647 1.1818 57.6366 2.19062 57.6366H7.38106" fill="#000072"/>
</g>
<path d="M69.2807 37.3435L7.38159 37.3435L7.38159 77.9296H69.2807V37.3435Z" fill="#EF9F21"/>
<g opacity="0.66">
<path opacity="0.66" d="M69.2807 37.3435L7.38159 37.3435V38.4669L69.2807 38.4669V37.3435Z" fill="white"/>
</g>
<g opacity="0.66">
<path opacity="0.66" d="M69.2807 77.9297L7.38159 77.9297V79.0531L69.2807 79.0531V77.9297Z" fill="white"/>
</g>
<g opacity="0.3">
<path opacity="0.3" d="M67.8792 37.3435H34.3414L34.1576 51.4671L34.3053 67.7456C34.338 71.3708 31.3364 74.3266 27.6226 74.3266H7.38159L7.38159 77.9293H67.8792V37.3435Z" fill="#000072"/>
</g>
<path d="M38.3309 36.9333L10.7949 37.3437C8.81869 36.9181 7.53081 34.9449 6.85495 33.5601C6.52792 32.8897 6.35973 32.1585 6.35973 31.4197C6.35973 31.2799 6.36596 31.14 6.37842 31.0002L6.65562 27.7593L7.05584 23.0894C5.69166 23.0438 4.37575 22.8644 3.12057 22.5133C2.63002 22.3765 2.1971 22.1119 1.86228 21.7608L1.85605 21.7547C1.75327 21.6453 1.65828 21.5267 1.57418 21.4005C1.35149 21.0691 1.20511 20.6876 1.15372 20.2787C0.831356 17.6868 1.00266 15.2105 1.8763 12.8954C2.11301 12.2706 2.67051 11.8161 3.33703 11.6762C5.57486 11.205 7.91858 11.4026 10.3277 12.0198C13.366 8.13887 17.7902 6.28278 24.1876 7.30735C25.1733 5.07427 26.4581 3.1513 28.2163 1.72086C28.7395 1.2937 29.4497 1.14472 30.099 1.34842C31.3978 1.7543 32.6063 2.34715 33.7431 3.09658C34.7133 3.73655 35.6321 4.49054 36.5042 5.3403C37.2797 6.0958 37.5071 7.23743 37.0959 8.23007C36.4185 9.8627 35.4032 11.3828 34.1573 12.827L35.9996 14.5599L37.4946 15.966C37.4946 15.966 38.6345 17.3737 39.7792 19.584C41.9843 23.8403 44.2065 31.0686 38.3309 36.9333Z" fill="#FF871D"/>
<g opacity="0.66">
<g opacity="0.66">
<path opacity="0.66" d="M37.1209 6.27366C35.2942 4.55135 33.2712 3.24707 30.9727 2.52805C30.3233 2.32435 29.6132 2.47332 29.0899 2.90048C27.3317 4.33093 26.047 6.2539 25.0612 8.48698C18.6639 7.46241 14.2396 9.31849 11.2013 13.1994C8.79222 12.5822 6.4485 12.3846 4.21067 12.8558C3.54415 12.9957 2.98664 13.4502 2.74994 14.075C1.8763 16.3902 1.705 18.8665 2.02735 21.4583C2.05227 21.6589 2.10055 21.852 2.16907 22.0375C1.61623 21.6103 1.24248 20.9855 1.15372 20.2787C0.831356 17.6868 1.00266 15.2105 1.8763 12.8954C2.11301 12.2706 2.67051 11.8161 3.33703 11.6762C5.57486 11.205 7.91858 11.4026 10.3277 12.0198C13.366 8.13887 17.7902 6.28278 24.1876 7.30735C25.1733 5.07427 26.4581 3.1513 28.2163 1.72086C28.7395 1.2937 29.4497 1.14472 30.099 1.34842C32.5066 2.10089 34.6105 3.49637 36.5042 5.3403C36.7814 5.61088 36.9885 5.93011 37.1209 6.27366Z" fill="white"/>
</g>
</g>
<path d="M13.5805 35.9515C9.76891 32.5413 10.9359 26.9186 15.1665 25.068C15.5751 24.8892 15.9766 24.6946 16.3519 24.456C16.9365 24.0844 17.4675 23.688 17.9126 23.2517C18.9367 22.2487 19.3319 20.7885 19.0161 19.4143C18.9834 19.272 18.9504 19.1291 18.9364 18.9838C18.6729 16.25 20.4547 15.2348 22.2602 17.4408C22.3303 17.5266 22.392 17.6187 22.4533 17.7105C23.2488 18.899 24.6286 19.6235 26.0887 19.5842C26.9639 19.5608 27.8951 19.3678 28.8538 19.0929C34.1579 17.581 39.2939 21.6656 38.3318 27.4485C38.3318 27.4485 37.9705 30.8308 35.6296 33.647L29.7944 37.344H14.9226L13.5805 35.9515Z" fill="white"/>
<path d="M24.774 18.0302C24.6734 17.7818 24.6236 17.5273 24.6376 17.2427C24.6516 16.9548 24.7404 16.6632 24.8908 16.4021C25.1935 15.8779 25.7423 15.4937 26.3472 15.3617C26.4222 15.3432 26.4985 15.3298 26.5755 15.3216C26.6521 15.3115 26.7287 15.3027 26.8059 15.3018C26.8832 15.2991 26.9601 15.2982 27.0367 15.3055C27.1121 15.3112 27.1943 15.3161 27.2557 15.3264C27.5189 15.3672 27.773 15.4292 28.0166 15.5122C28.5037 15.6779 28.951 15.9132 29.3462 16.2279C29.4266 16.292 29.4387 16.4076 29.373 16.486C29.3353 16.5313 29.2799 16.5544 29.2244 16.5535H29.2216C28.7239 16.5438 28.2595 16.4991 27.8129 16.476C27.5899 16.4662 27.3722 16.4562 27.1604 16.4599C27.1031 16.4574 27.066 16.4635 27.0224 16.4656C26.9797 16.4656 26.938 16.4754 26.8963 16.4802C26.8542 16.483 26.8131 16.4927 26.7723 16.5015C26.7309 16.5079 26.691 16.521 26.6512 16.5322C26.3319 16.6265 26.0416 16.7928 25.7931 17.0287C25.6669 17.146 25.552 17.2832 25.4483 17.4458C25.3402 17.6112 25.2459 17.8234 25.1303 18.0393L25.1253 18.0487C25.0758 18.1408 24.9593 18.1767 24.8646 18.1287C24.8217 18.1065 24.7905 18.0709 24.774 18.0302Z" fill="#4B2710"/>
<g opacity="0.1">
<path opacity="0.1" d="M38.3312 36.933L10.7953 37.3435C8.81907 36.9178 7.53119 34.9447 6.85533 33.5599C6.52829 32.8895 6.36011 32.1583 6.36011 31.4195C8.84398 37.9014 40.8151 26.2252 38.3312 19.7449L39.7795 19.5837C41.9846 23.8401 44.2069 31.0684 38.3312 36.933Z" fill="#4B2710"/>
</g>
<path d="M26.0477 29.6836C26.0321 29.6851 26.0166 29.6867 25.9994 29.6882C25.0448 29.787 24.1509 29.2124 23.8348 28.3277L22.8506 25.5777C23.1723 24.4756 23.6323 23.4997 25.8234 24.0987L27.4742 26.543C28.312 27.785 27.5583 29.5027 26.0477 29.6836Z" fill="#A51313"/>
<path d="M17.8699 20.4737C17.6276 20.4162 17.4018 20.3454 17.2031 20.3156C17.0093 20.2846 16.8281 20.2788 16.6546 20.2937C16.3092 20.3205 15.9896 20.4238 15.7065 20.5959C15.6713 20.6178 15.6349 20.6382 15.6028 20.6646C15.5688 20.6886 15.5346 20.7127 15.5047 20.7415C15.4735 20.7689 15.4383 20.7932 15.4103 20.8245C15.3798 20.8553 15.3508 20.8784 15.315 20.9221C15.1724 21.0754 15.0369 21.2417 14.8973 21.4119C14.6204 21.7549 14.3485 22.1252 14.0281 22.4967L14.0268 22.4982C13.9598 22.5757 13.8415 22.5858 13.7621 22.5204C13.7163 22.4827 13.6936 22.4277 13.6954 22.3736C13.7138 21.8762 13.8278 21.3928 14.0212 20.9261C14.1181 20.6926 14.2377 20.4652 14.38 20.2451C14.4124 20.1934 14.4632 20.1295 14.5083 20.0706C14.5532 20.0095 14.6046 19.9535 14.6575 19.8988C14.7089 19.8425 14.7665 19.7924 14.8248 19.7425C14.8818 19.6911 14.9425 19.6443 15.006 19.6014C15.5062 19.2448 16.1643 19.0952 16.7673 19.2187C17.0676 19.2807 17.3507 19.4078 17.5818 19.5875C17.8104 19.765 17.9733 19.9693 18.0985 20.2068C18.1471 20.2995 18.1097 20.4129 18.0147 20.4606C17.9717 20.4822 17.9244 20.4865 17.8811 20.4761L17.8699 20.4737Z" fill="#4B2710"/>
<path d="M24.7475 22.0835C24.9793 22.6015 24.6074 23.4714 23.8191 23.807C23.0308 24.143 22.1247 23.8177 21.893 23.2999C21.6613 22.7818 22.2116 22.3112 22.9999 21.9753C23.7879 21.6393 24.5158 21.5654 24.7475 22.0835Z" fill="#4B2710"/>
<path d="M19.4119 25.4606C19.653 25.5354 19.8882 25.6111 20.123 25.6722C20.3578 25.7306 20.5902 25.7789 20.8172 25.8014C21.2717 25.854 21.6912 25.8014 22.026 25.6159C22.3652 25.4369 22.6458 25.124 22.8707 24.7376C23.0993 24.3542 23.2631 23.9082 23.3942 23.4488C23.464 23.2044 23.7238 23.0612 23.9745 23.1296C23.9898 23.1339 24.0056 23.139 24.0203 23.1445C24.4834 23.3221 24.954 23.4726 25.4212 23.558C25.8853 23.6465 26.3472 23.6811 26.7505 23.6066C27.1551 23.5343 27.4905 23.3278 27.7512 22.9791C28.0113 22.6337 28.1876 22.1823 28.3218 21.7125L28.3231 21.7086C28.358 21.5864 28.4875 21.5152 28.6127 21.5493C28.7189 21.5782 28.7878 21.6742 28.7846 21.7773C28.7681 22.3018 28.6837 22.8508 28.4009 23.3698C28.2642 23.6294 28.0636 23.8724 27.8176 24.0712C27.5687 24.2688 27.2713 24.4071 26.9723 24.4901C26.3652 24.6543 25.7697 24.5938 25.2256 24.4844C24.6799 24.3643 24.1685 24.1864 23.6714 23.9909L24.2972 23.6866C24.1595 24.1928 23.9866 24.7017 23.7179 25.1964C23.583 25.443 23.4154 25.6819 23.2096 25.9023C23.0049 26.1225 22.7474 26.3167 22.4589 26.4496C22.1712 26.5855 21.8528 26.6606 21.5457 26.6709C21.2377 26.6867 20.9415 26.6414 20.6643 26.573C20.1099 26.4265 19.6262 26.1717 19.1955 25.8646C19.0902 25.7895 19.0672 25.6454 19.1441 25.5427C19.2055 25.4606 19.312 25.4299 19.406 25.4588L19.4119 25.4606Z" fill="#4B2710"/>
<path d="M7.03376 15.0073C8.13601 16.0477 9.08502 17.2604 9.80387 18.5927C10.1667 19.2567 10.4866 19.9429 10.761 20.644C10.8292 20.8194 10.8983 20.9945 10.9612 21.1714L11.0095 21.304L11.0338 21.3703C11.0416 21.3913 11.05 21.4138 11.059 21.4466C11.0964 21.5652 11.1207 21.6886 11.1285 21.8142C11.1634 22.3179 10.9335 22.8284 10.5233 23.1482C10.3196 23.3091 10.0702 23.4188 9.81134 23.4656L9.71386 23.4799C9.68115 23.4845 9.64658 23.4893 9.62603 23.4903L9.48275 23.5024L9.1959 23.5264C8.81281 23.5541 8.42878 23.5778 8.0432 23.5888C7.27265 23.6125 6.4965 23.6034 5.72097 23.5362C4.94513 23.4717 4.17396 23.3325 3.41462 23.1434C3.31963 23.1206 3.22557 23.0929 3.13088 23.068L2.98917 23.0297C2.94058 23.0163 2.88328 22.9968 2.83064 22.9804C2.61604 22.9117 2.40924 22.8202 2.21489 22.708C1.82339 22.4873 1.48265 22.1836 1.21448 21.8281C1.08087 21.6494 0.968745 21.4563 0.873127 21.2557C0.78405 21.0523 0.708366 20.8425 0.662582 20.6251C0.638911 20.5199 0.621469 20.4007 0.608388 20.3041L0.576619 20.0225C0.553571 19.8352 0.539867 19.6464 0.522426 19.4586C0.4592 18.7052 0.441758 17.9454 0.475084 17.1856C0.537376 15.6658 0.824851 14.1448 1.36866 12.7012C1.5384 12.258 1.84425 11.8676 2.23077 11.5909C2.42419 11.4526 2.63629 11.341 2.85992 11.2592C2.97142 11.2179 3.08635 11.186 3.20252 11.1595L3.49654 11.1024C4.27269 10.9534 5.06161 10.8908 5.84617 10.8829C6.63136 10.8792 7.4125 10.94 8.18304 11.0464C8.95297 11.1568 9.71261 11.3128 10.4601 11.5025L10.466 11.504L9.8945 11.6955C10.7058 10.66 11.6589 9.71449 12.7493 8.93648C13.8372 8.15665 15.0603 7.55164 16.3454 7.15337C17.6305 6.75235 18.971 6.55504 20.3034 6.51339C21.6374 6.47143 22.9651 6.57997 24.2698 6.78063L24.2758 6.78154L23.6871 7.0959C24.2994 5.71288 25.0541 4.36969 26.028 3.16483C26.5176 2.5662 27.054 1.99767 27.652 1.49238L27.8784 1.30206C27.9712 1.22909 28.0674 1.16008 28.1696 1.09958C28.373 0.977359 28.5935 0.882503 28.8243 0.818657C29.2852 0.690358 29.7889 0.695222 30.2517 0.836595C31.7548 1.30632 33.1554 2.02564 34.4252 2.90824C35.0609 3.34847 35.6658 3.82731 36.2373 4.33838C36.379 4.46729 36.5235 4.59346 36.6612 4.72632L36.8696 4.92333C36.9393 4.99173 37.0259 5.0796 37.0969 5.16229C37.2452 5.33194 37.3701 5.51952 37.4806 5.7141C37.585 5.91202 37.6737 6.11815 37.7367 6.33219C37.8619 6.75965 37.8977 7.21235 37.8348 7.65258C37.8061 7.873 37.7522 8.09038 37.6753 8.29924C37.6563 8.35032 37.6364 8.40626 37.617 8.45308L37.5601 8.58564C37.5214 8.6738 37.485 8.76288 37.4448 8.85014C37.1299 9.55275 36.7487 10.2222 36.3289 10.8622C35.9075 11.5013 35.4534 12.1169 34.9575 12.6952C34.7121 12.9864 34.457 13.2683 34.1994 13.5474L34.0038 13.7544L33.906 13.8578C33.8926 13.8727 33.8683 13.8964 33.8434 13.9198L33.7702 13.9876C33.5693 14.1627 33.3214 14.291 33.0598 14.3515C32.5366 14.4749 31.9672 14.3363 31.5695 13.9912C31.4698 13.9061 31.3823 13.8088 31.3072 13.7045C31.2857 13.6766 31.2714 13.6556 31.2599 13.637L31.221 13.5778L31.1431 13.4592C31.0381 13.3017 30.9385 13.1406 30.8379 12.9803C30.4436 12.3337 30.0894 11.6615 29.7795 10.9701C29.1535 9.59014 28.7617 8.1071 28.6271 6.61463C28.6159 6.48907 28.7109 6.3784 28.8395 6.36746C28.961 6.35712 29.0691 6.43921 29.09 6.55413L29.0903 6.55626C29.3491 7.9861 29.8247 9.36212 30.4878 10.6469C30.8195 11.2893 31.1926 11.9114 31.605 12.5103C31.7071 12.6608 31.8077 12.8116 31.9146 12.9594L31.9934 13.0706L32.0329 13.1263L32.0525 13.1543L32.0672 13.1716C32.1027 13.2163 32.1419 13.2567 32.1862 13.2911C32.3596 13.43 32.6066 13.4771 32.8166 13.4181C32.9215 13.389 33.0143 13.3345 33.0916 13.2613L33.1196 13.2324C33.1286 13.2236 33.138 13.2154 33.1551 13.195L33.2457 13.0922L33.4267 12.8864C33.6643 12.6094 33.8989 12.3306 34.1228 12.0446C34.5701 11.4727 35.0002 10.8908 35.3823 10.2824C35.7667 9.67557 36.1046 9.04563 36.4014 8.40079C36.4391 8.32022 36.4724 8.23844 36.5083 8.15726L36.5612 8.03535L36.6011 7.92985C36.6525 7.79243 36.6883 7.64954 36.707 7.50452C36.7496 7.21508 36.7247 6.91744 36.6465 6.63621C36.6067 6.49545 36.5488 6.36046 36.4827 6.23003C36.4102 6.10295 36.331 5.97891 36.2345 5.86733C36.1843 5.80896 36.1407 5.76335 36.0781 5.70072L35.8816 5.51192C35.7517 5.38454 35.6159 5.26414 35.4826 5.14101C34.9451 4.65244 34.3788 4.19731 33.7867 3.78049C32.6063 2.94289 31.2973 2.28498 29.9247 1.85296C29.6668 1.77482 29.3846 1.77057 29.1195 1.84414C28.9872 1.88093 28.8595 1.93596 28.7414 2.0068C28.6819 2.04176 28.6262 2.08219 28.572 2.12445L28.3699 2.29501C27.8258 2.75409 27.3352 3.27428 26.8833 3.8264C25.9847 4.93762 25.2724 6.19872 24.6881 7.51881C24.5888 7.74318 24.3502 7.86692 24.1138 7.8353L24.0995 7.83317L24.0939 7.83256C22.8468 7.64072 21.5888 7.53918 20.3399 7.5787C19.0922 7.61761 17.8538 7.80185 16.6771 8.16912C15.5004 8.53426 14.3898 9.08424 13.3947 9.79658C12.3983 10.5077 11.5188 11.3769 10.761 12.344C10.6246 12.5179 10.4 12.5869 10.1954 12.5371L10.1898 12.5356L10.1842 12.534C9.47123 12.3528 8.75145 12.2054 8.02825 12.1017C7.30473 12.002 6.57748 11.9457 5.85303 11.9491C5.1292 11.9567 4.40755 12.0138 3.7021 12.1497L3.4411 12.2002C3.37351 12.216 3.30655 12.234 3.24176 12.2586C3.11189 12.306 2.98917 12.3708 2.87798 12.4498C2.65591 12.6091 2.48586 12.8286 2.39055 13.0755C1.89222 14.3992 1.62281 15.8096 1.56487 17.2334C1.53373 17.9454 1.54961 18.6614 1.60972 19.3765C1.62623 19.5552 1.639 19.734 1.66112 19.9125L1.69133 20.1803C1.70347 20.2661 1.71251 20.3296 1.72901 20.4044C1.75891 20.5485 1.8103 20.6871 1.86823 20.8224C1.93271 20.9553 2.00652 21.0839 2.0956 21.2031C2.275 21.4399 2.50236 21.6439 2.76492 21.7914C2.89511 21.8668 3.03371 21.9285 3.1776 21.9741C3.21498 21.9853 3.24644 21.9975 3.28879 22.0087L3.42023 22.0428C3.50806 22.065 3.59496 22.0893 3.68341 22.1094C4.03567 22.1939 4.39229 22.2632 4.75078 22.3237C5.1102 22.38 5.47087 22.4313 5.83403 22.4727C6.56003 22.5551 7.29445 22.6043 8.03292 22.611C8.402 22.6165 8.77201 22.6092 9.14264 22.5985L9.42046 22.5873L9.55937 22.5815C9.58616 22.5809 9.59831 22.5788 9.61232 22.5773L9.6553 22.5736C9.76805 22.5587 9.87613 22.5192 9.96988 22.4526C10.158 22.3207 10.2801 22.0893 10.2754 21.8555C10.2751 21.7968 10.2664 21.7382 10.2514 21.6798C10.2499 21.6676 10.2433 21.6466 10.2359 21.6238L10.2156 21.5591L10.1748 21.4293C10.1219 21.2557 10.063 21.0845 10.0048 20.9127C9.77116 20.2265 9.49428 19.5565 9.17597 18.9061C8.53873 17.6061 7.71492 16.3912 6.70144 15.3293L6.70081 15.3287C6.61298 15.2365 6.61797 15.0921 6.71234 15.0064C6.80359 14.9216 6.945 14.924 7.03376 15.0073Z" fill="#4B2710"/>
<path d="M7.5987 23.1332L6.91318 31.1659C6.87799 31.7667 6.968 32.3738 7.17886 32.9384C7.23149 33.0804 7.29129 33.216 7.35888 33.3546C7.43083 33.4996 7.50433 33.6434 7.58219 33.7848C7.73823 34.067 7.90175 34.3451 8.08302 34.6084C8.2646 34.8711 8.45334 35.1289 8.66326 35.3633C8.76355 35.4858 8.87724 35.5929 8.98407 35.7072C9.09931 35.8108 9.208 35.9233 9.32978 36.0164C9.80102 36.414 10.3423 36.6928 10.9123 36.8239L10.9251 36.8269C11.2182 36.8944 11.3994 37.1808 11.3306 37.4669C11.2614 37.753 10.9705 37.9305 10.6778 37.863C9.90287 37.6885 9.19741 37.3103 8.62589 36.8287C8.4767 36.7132 8.34713 36.5816 8.20978 36.4563C8.08364 36.3231 7.94971 36.1945 7.83416 36.0544C7.5906 35.7817 7.37757 35.4907 7.17387 35.1961C6.97111 34.9006 6.79078 34.5944 6.61948 34.2846C6.53445 34.1296 6.45378 33.9724 6.37561 33.8143C6.29494 33.6492 6.21863 33.4756 6.15385 33.3011C5.89254 32.6006 5.78103 31.8485 5.82464 31.1057L6.51234 23.0441C6.53725 22.7514 6.80075 22.5337 7.10068 22.558C7.40061 22.5823 7.62362 22.8395 7.5987 23.1323V23.1332Z" fill="#4B2710"/>
<path d="M37.4943 16.4987C37.3582 16.4987 37.2218 16.4491 37.1162 16.3497L33.7796 13.2097C33.5628 13.0057 33.5565 12.6692 33.7655 12.4576C33.9742 12.246 34.3193 12.2396 34.5361 12.4439L37.8727 15.5839C38.0895 15.7879 38.0957 16.1244 37.8867 16.336C37.7799 16.444 37.6373 16.4987 37.4943 16.4987Z" fill="#4B2710"/>
<path d="M25.7827 30.1562C24.7163 30.1562 23.757 29.4949 23.3932 28.4789L22.4093 25.7283C22.3243 25.4906 22.4526 25.2304 22.6962 25.1474C22.94 25.0647 23.2063 25.1899 23.2914 25.4274L24.2756 28.1779C24.5216 28.8653 25.2264 29.3104 25.9506 29.2353L25.9889 29.231C26.5268 29.1666 26.9675 28.8483 27.1998 28.3579C27.4422 27.8459 27.3989 27.2616 27.0834 26.7943L25.4333 24.3496C25.2912 24.1392 25.351 23.8565 25.5662 23.7178C25.7818 23.5789 26.0714 23.6373 26.2135 23.8476L27.8636 26.2923C28.3578 27.0247 28.4267 27.9395 28.0476 28.74C27.6823 29.5117 26.9557 30.0334 26.1038 30.1358L26.0484 30.1422C25.9596 30.1519 25.8708 30.1562 25.7827 30.1562Z" fill="#4B2710"/>
<path d="M24.1936 23.3986L25.4752 26.4313C25.5083 26.5091 25.4703 26.5982 25.3905 26.6301C25.3176 26.6596 25.2351 26.631 25.1965 26.5663L23.4965 23.7364C23.3875 23.5549 23.4498 23.3214 23.6358 23.215C23.8217 23.1086 24.0609 23.1694 24.1699 23.3509C24.1783 23.3661 24.187 23.3831 24.1936 23.3986Z" fill="#4B2710"/>
<path d="M69.2808 78.4613H7.38172C7.08054 78.4613 6.83667 78.223 6.83667 77.9293L6.83667 37.3438C6.83667 37.0501 7.08054 36.8118 7.38172 36.8118L69.2808 36.8118C69.582 36.8118 69.8259 37.0501 69.8259 37.3438V77.9293C69.8259 78.2233 69.582 78.4613 69.2808 78.4613ZM7.92677 77.3972H68.7358V37.8759L7.92677 37.8759L7.92677 77.3972Z" fill="#4B2710"/>
<path d="M73.9965 57.6358H41.3962L39.3904 51.8258L34.7762 38.4669L34.3884 37.3435L69.281 37.3435L69.5785 38.2054L69.6688 38.4669L75.5566 55.5155C75.9163 56.5571 75.1227 57.6358 73.9965 57.6358Z" fill="#EF9F21"/>
<path d="M7.38172 58.1688H2.19127C1.54126 58.1688 0.928625 57.8599 0.552072 57.3427C0.175831 56.8253 0.078968 56.1588 0.292939 55.5599L6.86688 37.1687C6.96592 36.8911 7.27676 36.7449 7.56112 36.8416C7.84548 36.9383 7.99529 37.2417 7.89625 37.5192L1.32231 55.9101C1.22264 56.1886 1.26593 56.486 1.44097 56.7262C1.61601 56.9666 1.88947 57.1044 2.19127 57.1044H7.38172C7.6829 57.1044 7.92677 57.3427 7.92677 57.6364C7.92677 57.9304 7.6829 58.1688 7.38172 58.1688Z" fill="#4B2710"/>
<g opacity="0.66">
<path opacity="0.66" d="M69.6688 38.4669L34.7762 38.4669L34.3884 37.3435L69.281 37.3435L69.6688 38.4669Z" fill="white"/>
</g>
<path d="M72.6945 16.5769C72.5388 17.0922 72.3691 17.5969 72.1837 18.0925C72.1806 18.1016 72.1713 18.1259 72.1542 18.167C72.151 18.1776 72.1464 18.1867 72.1417 18.1974C71.3241 20.362 70.206 22.3443 68.7266 24.1046C68.9975 27.0582 68.5521 29.4524 67.3219 31.0607C67.1755 31.2538 67.0182 31.4347 66.8469 31.605C66.8469 31.6065 66.8454 31.6065 66.8454 31.608C66.1025 32.3483 65.1448 32.8667 63.9613 33.1312C63.0596 33.3333 62.0255 33.3866 60.8576 33.2786L60.3359 33.1585L58.0031 32.6219L57.8972 33.1069L56.969 37.3435H43.8878L38.3314 33.2786C38.9979 31.3906 39.8077 29.6151 40.985 28.1238C41.0006 28.1026 41.0162 28.0813 41.0333 28.0615C38.3298 25.6992 36.8722 23.4905 36.3786 21.4641C36.377 21.4626 36.377 21.4611 36.377 21.4581C36.1247 20.4259 36.1247 19.4424 36.3381 18.5075C36.3381 18.5044 36.3381 18.5029 36.3396 18.4999C36.3443 18.4816 36.3474 18.4634 36.3505 18.4467C36.3536 18.4284 36.3583 18.4117 36.3614 18.3965C36.3941 18.2567 36.419 18.1822 36.419 18.1822C37.017 16.0601 38.7192 14.2085 41.0722 12.6732C41.2435 12.5607 41.4164 12.4513 41.5939 12.3433C42.9145 8.18728 44.9857 4.65448 48.3463 2.19339C49.1499 1.60509 50.2727 1.74495 50.9081 2.50349C52.0122 3.82145 52.8142 5.49056 53.3359 7.48498C54.7997 7.49866 56.1701 7.67955 57.4315 8.04591C60.42 8.91542 62.8104 10.8323 64.444 14.0717C67.1085 13.9425 69.5706 14.0033 71.525 14.5414C72.4267 14.7907 72.9593 15.7013 72.6945 16.5769Z" fill="white"/>
<path d="M57.4313 8.04591C57.2912 12.959 53.373 16.8992 48.5595 16.8992C45.4122 16.8992 42.6464 15.2149 41.072 12.6732C41.2433 12.5607 41.4162 12.4513 41.5937 12.3433C42.9143 8.18728 44.9855 4.65449 48.3461 2.19339C49.1497 1.60509 50.2725 1.74495 50.9079 2.50349C52.012 3.82145 52.814 5.49056 53.3357 7.48498C54.7995 7.49866 56.1699 7.67955 57.4313 8.04591Z" fill="#FF8500"/>
<g opacity="0.66">
<path opacity="0.66" d="M72.6942 16.5769C72.6786 16.6301 72.6631 16.6818 72.6444 16.7335C72.4575 16.2698 72.0542 15.8944 71.5247 15.7484C69.5703 15.2103 67.1082 15.1495 64.4437 15.2787C62.1202 10.6712 58.2659 8.73909 53.3356 8.69196C52.8139 6.69755 52.0119 5.02844 50.9077 3.71048C50.2724 2.95193 49.1496 2.81208 48.346 3.40037C44.9854 5.86147 42.9142 9.39427 41.5936 13.5503C38.56 15.3988 36.4795 17.7368 36.2116 20.4806C35.9001 17.2108 38.1255 14.4578 41.5936 12.3433C42.9142 8.18728 44.9854 4.65449 48.346 2.19339C49.1496 1.60509 50.2724 1.74495 50.9077 2.50349C52.0119 3.82145 52.8139 5.49056 53.3356 7.48498C58.2659 7.5321 62.1202 9.46419 64.4437 14.0717C67.1082 13.9425 69.5703 14.0033 71.5247 14.5414C72.4264 14.7907 72.959 15.7013 72.6942 16.5769Z" fill="white"/>
</g>
<path d="M34.3883 78.4613C34.0871 78.4613 33.8433 78.223 33.8433 77.9293L33.8433 37.3438C33.8433 37.0501 34.0871 36.8118 34.3883 36.8118C34.6895 36.8118 34.9334 37.0501 34.9334 37.3438L34.9334 77.9293C34.9334 78.2233 34.6895 78.4613 34.3883 78.4613Z" fill="#4B2710"/>
<path d="M73.997 58.1688L43.1123 58.1688C41.8521 58.1688 40.7346 57.3856 40.3322 56.2196L33.8726 37.5138C33.8165 37.3514 33.8439 37.1726 33.9464 37.0334C34.0488 36.8942 34.2136 36.8118 34.389 36.8118L69.2816 36.8118C69.5155 36.8118 69.7232 36.9574 69.798 37.1739L76.0735 55.3462C76.3018 56.0071 76.1934 56.7109 75.777 57.2773C75.36 57.8438 74.7112 58.1688 73.997 58.1688ZM35.1477 37.8759L41.365 55.8797C41.6182 56.6124 42.3202 57.1047 43.1123 57.1047L73.997 57.1047C74.3562 57.1047 74.6819 56.9414 74.8916 56.6568C75.1012 56.3723 75.1554 56.0184 75.0407 55.6864L68.8901 37.8759L35.1477 37.8759V37.8759Z" fill="#4B2710"/>
<path d="M48.1442 4.64697C48.1442 4.64697 48.3448 6.62619 48.2031 8.21321C48.1754 8.52241 48.0038 8.8015 47.7362 8.96963L44.9387 10.7275C45.4405 8.30685 46.4378 6.23035 48.1442 4.64697Z" fill="#D28989"/>
<path d="M66.8981 19.7269L67.3675 21.383C67.4924 21.8241 68.0897 21.9178 68.3523 21.5386C69.438 19.9708 70.2076 18.4409 70.2453 16.9983C69.206 17.0895 68.2548 17.5306 67.3731 18.2478C66.9311 18.6072 66.7449 19.1858 66.8981 19.7269Z" fill="#D28989"/>
<path d="M44.9386 11.1075C44.862 11.1075 44.7851 11.0853 44.7191 11.0412C44.5898 10.9552 44.526 10.8016 44.5571 10.6521C45.1099 7.98514 46.1954 5.93083 47.876 4.37147C47.9838 4.27145 48.1404 4.24013 48.28 4.2906C48.4195 4.34107 48.517 4.46481 48.5316 4.60922C48.54 4.69161 48.7341 6.64195 48.5911 8.24569C48.5528 8.67558 48.318 9.05592 47.947 9.28881L45.1495 11.0467C45.085 11.0874 45.0118 11.1075 44.9386 11.1075ZM47.8199 5.52404C46.7666 6.69637 46.0129 8.14019 45.5354 9.90051L47.5256 8.64974C47.6922 8.54516 47.7978 8.37399 47.8153 8.18002C47.8956 7.27888 47.8617 6.23486 47.8199 5.52404Z" fill="#4B2710"/>
<path d="M67.9 22.1556C67.8483 22.1556 67.7963 22.1513 67.7437 22.1431C67.3787 22.0847 67.0906 21.8324 66.9918 21.4843L66.5225 19.8282C66.329 19.1451 66.5648 18.4103 67.1233 17.956C68.0972 17.1637 69.1356 16.7141 70.2098 16.6195C70.3207 16.6095 70.43 16.6466 70.511 16.7208C70.592 16.795 70.6368 16.8992 70.634 17.0075C70.5988 18.3643 69.9759 19.8717 68.6743 21.7512C68.4962 22.0084 68.209 22.1556 67.9 22.1556ZM67.2731 19.6258L67.7424 21.2818C67.7658 21.3648 67.8321 21.3873 67.8695 21.3931C67.9078 21.3994 67.9788 21.3985 68.0293 21.3256C69.0942 19.7881 69.6713 18.5395 69.8186 17.4428C69.0621 17.5945 68.3395 17.956 67.6219 18.5398C67.298 18.8034 67.1609 19.2296 67.2731 19.6258Z" fill="#4B2710"/>
<path d="M21.3642 36.2629C21.3642 38.1238 19.1046 38.4671 16.3174 38.4671C13.5301 38.4671 11.2705 38.1238 11.2705 36.2629C11.2705 34.402 13.5298 32.8931 16.3174 32.8931C19.1049 32.8931 21.3642 34.402 21.3642 36.2629Z" fill="#FF8500"/>
<g opacity="0.3">
<path opacity="0.3" d="M20.9691 36.2626C20.9691 38.1233 18.7095 38.4668 15.9235 38.4668C13.2855 38.4668 11.1193 38.1598 10.895 36.5484C11.8076 36.8631 13.0612 36.9467 14.4472 36.9467C17.2347 36.9467 19.4944 36.6031 19.4944 34.7425C19.4944 34.3929 19.4149 34.0569 19.267 33.7407C20.3104 34.3564 20.9691 35.2578 20.9691 36.2626Z" fill="#000072"/>
</g>
<g opacity="0.66">
<path opacity="0.66" d="M20.7388 35.2536C19.8231 34.3993 18.3265 33.8429 16.6338 33.8429C13.8462 33.8429 11.5866 35.3524 11.5866 37.213C11.5866 37.397 11.6084 37.5657 11.652 37.7223C11.1614 37.3909 10.8765 36.9227 10.8765 36.263C10.8765 34.4023 13.1361 32.8928 15.9236 32.8928C18.1833 32.8928 20.0956 33.8855 20.7388 35.2536Z" fill="white"/>
</g>
<path d="M14.4823 36.0377L14.7159 38.3362C14.7414 38.5879 14.553 38.8126 14.2951 38.8375C14.0372 38.8624 13.8071 38.6785 13.7815 38.4268C13.7784 38.397 13.7787 38.365 13.7815 38.3362L14.0151 36.0377C14.0279 35.9118 14.1428 35.8197 14.2718 35.8322C14.3851 35.8434 14.4714 35.9313 14.4823 36.0377Z" fill="#4B2710"/>
<path d="M17.8307 36.0377L18.0643 38.3362C18.0898 38.5879 17.9014 38.8126 17.6435 38.8375C17.3856 38.8624 17.1554 38.6785 17.1299 38.4268C17.1268 38.397 17.1271 38.365 17.1299 38.3362L17.3635 36.0377C17.3763 35.9118 17.4912 35.8197 17.6201 35.8322C17.7335 35.8434 17.8198 35.9313 17.8307 36.0377Z" fill="#4B2710"/>
<path d="M37.4946 36.2629C37.4946 38.1238 35.235 38.4671 32.4477 38.4671C29.6605 38.4671 27.4009 38.1238 27.4009 36.2629C27.4009 34.402 29.6605 32.8931 32.4477 32.8931C35.2353 32.8931 37.4946 34.402 37.4946 36.2629Z" fill="#FF8500"/>
<g opacity="0.3">
<path opacity="0.3" d="M37.494 36.2626C37.494 38.1233 35.2344 38.4668 32.4484 38.4668C29.8104 38.4668 27.6442 38.1598 27.4199 36.5484C28.3325 36.8631 29.5861 36.9467 30.9721 36.9467C33.7596 36.9467 36.0193 36.6031 36.0193 34.7425C36.0193 34.3929 35.9398 34.0569 35.7919 33.7407C36.8353 34.3564 37.494 35.2578 37.494 36.2626Z" fill="#000072"/>
</g>
<g opacity="0.66">
<path opacity="0.66" d="M37.2637 35.2536C36.348 34.3993 34.8514 33.8429 33.1587 33.8429C30.3711 33.8429 28.1115 35.3524 28.1115 37.213C28.1115 37.397 28.1333 37.5657 28.1769 37.7223C27.6863 37.3909 27.4014 36.9227 27.4014 36.263C27.4014 34.4023 29.661 32.8928 32.4485 32.8928C34.7082 32.8928 36.6205 33.8855 37.2637 35.2536Z" fill="white"/>
</g>
<path d="M31.0072 36.0377L31.2408 38.3362C31.2663 38.5879 31.0779 38.8126 30.82 38.8375C30.5621 38.8624 30.332 38.6785 30.3064 38.4268C30.3033 38.397 30.3036 38.365 30.3064 38.3362L30.54 36.0377C30.5528 35.9118 30.6677 35.8197 30.7967 35.8322C30.91 35.8434 30.9966 35.9313 31.0072 36.0377Z" fill="#4B2710"/>
<path d="M34.3556 36.0377L34.5892 38.3362C34.6147 38.5879 34.4263 38.8126 34.1684 38.8375C33.9105 38.8624 33.6803 38.6785 33.6548 38.4268C33.6517 38.397 33.652 38.365 33.6548 38.3362L33.8884 36.0377C33.9012 35.9118 34.0161 35.8197 34.145 35.8322C34.2584 35.8434 34.345 35.9313 34.3556 36.0377Z" fill="#4B2710"/>
<path d="M16.3168 38.9989C14.5016 38.9989 10.7249 38.9989 10.7249 36.2627C10.7249 34.1114 13.2333 32.3611 16.3168 32.3611C19.4002 32.3611 21.9087 34.1114 21.9087 36.2627C21.9087 38.9989 18.1316 38.9989 16.3168 38.9989ZM16.3168 33.4249C13.8765 33.4249 11.815 34.7243 11.815 36.2624C11.815 37.4502 13.1193 37.9345 16.3168 37.9345C19.5142 37.9345 20.8186 37.4502 20.8186 36.2624C20.8186 34.7246 18.7567 33.4249 16.3168 33.4249Z" fill="#4B2710"/>
<path d="M32.4481 38.9989C30.6329 38.9989 26.8562 38.9989 26.8562 36.2627C26.8562 34.1114 29.3647 32.3611 32.4481 32.3611C35.5315 32.3611 38.04 34.1114 38.04 36.2627C38.0397 38.9989 34.263 38.9989 32.4481 38.9989ZM32.4481 33.4249C30.0078 33.4249 27.9463 34.7243 27.9463 36.2624C27.9463 37.4502 29.2507 37.9345 32.4481 37.9345C35.6455 37.9345 36.9499 37.4502 36.9499 36.2624C36.9496 34.7246 34.8881 33.4249 32.4481 33.4249Z" fill="#4B2710"/>
<path d="M62.0048 33.8661C61.6189 33.8661 61.2196 33.8469 60.806 33.8086C60.5064 33.7809 60.2865 33.5213 60.3148 33.2285C60.3432 32.936 60.6086 32.7217 60.9088 32.7491C63.3254 32.9734 65.1751 32.4797 66.4073 31.2827C67.8674 29.8644 68.4816 27.3988 68.1832 24.1518C68.1704 24.0128 68.214 23.8745 68.3047 23.7666C70.0376 21.7056 71.3025 19.3047 72.1714 16.4268C72.2558 16.1471 72.2222 15.8512 72.0767 15.594C71.9266 15.3283 71.6781 15.1368 71.3772 15.0538C69.7218 14.5977 67.5273 14.4539 64.4706 14.6029C64.2526 14.6138 64.0505 14.4968 63.9545 14.3065C61.8435 10.1222 58.3679 8.0645 53.3295 8.01646C53.0825 8.01403 52.8679 7.84986 52.8068 7.61606C52.301 5.68245 51.5199 4.07536 50.4849 2.8401C50.0346 2.30227 49.2388 2.20529 48.6735 2.61938C45.6738 4.81567 43.5285 8.04808 42.1142 12.5015C42.0753 12.6234 41.993 12.7277 41.8822 12.7952C39.6446 14.1587 36.9359 16.431 36.7381 19.5123C36.5562 22.3489 38.4835 25.3916 42.4665 28.5562C42.7 28.7417 42.7352 29.0767 42.5449 29.3047C42.355 29.5328 42.0117 29.5671 41.7781 29.3817C37.5065 25.9878 35.445 22.6447 35.6499 19.4457C35.8262 16.6952 37.7211 14.1231 41.1328 11.998C42.6184 7.41966 44.8725 4.07171 48.0188 1.7678C49.0532 1.01046 50.507 1.18558 51.3284 2.16637C52.3923 3.4369 53.2077 5.04825 53.7549 6.96088C58.8289 7.1208 62.5312 9.32712 64.7696 13.5239C67.7665 13.398 69.9663 13.5598 71.6725 14.0298C72.2558 14.1903 72.738 14.5634 73.0301 15.0799C73.3176 15.588 73.3836 16.1735 73.216 16.7277C72.3412 19.6254 71.0197 22.1625 69.2867 24.2728C69.5723 27.7867 68.8625 30.398 67.175 32.0367C65.9248 33.2528 64.1884 33.8661 62.0048 33.8661Z" fill="#4B2710"/>
<path d="M38.3312 33.8112C38.2723 33.8112 38.2125 33.8017 38.1537 33.782C37.869 33.6862 37.7179 33.3834 37.8161 33.1055C38.6286 30.8025 39.5147 29.0957 40.6042 27.7343C40.7895 27.5026 41.1321 27.4619 41.3695 27.6425C41.6065 27.8234 41.6489 28.1578 41.4635 28.3891C40.4507 29.6551 39.6191 31.2637 38.847 33.4518C38.7688 33.6728 38.5573 33.8112 38.3312 33.8112Z" fill="#4B2710"/>
<path d="M45.7234 36.2629C45.7234 38.1238 43.4637 38.4671 40.6765 38.4671C37.8893 38.4671 35.6296 38.1238 35.6296 36.2629C35.6296 34.402 37.889 32.8931 40.6765 32.8931C43.464 32.8931 45.7234 34.402 45.7234 36.2629Z" fill="white"/>
<path d="M63.5598 36.2629C63.5598 38.1238 61.3002 38.4671 58.5129 38.4671C55.7257 38.4671 53.4661 38.1238 53.4661 36.2629C53.4661 34.402 55.7254 32.8931 58.5126 32.8931C61.3002 32.8931 63.5598 34.402 63.5598 36.2629Z" fill="white"/>
<g opacity="0.3">
<path opacity="0.3" d="M63.5592 36.2626C63.5592 38.1233 61.2996 38.4668 58.5136 38.4668C55.8755 38.4668 53.7094 38.1598 53.4851 36.5484C54.3977 36.8631 55.6513 36.9467 57.0373 36.9467C59.8248 36.9467 62.0845 36.6031 62.0845 34.7425C62.0845 34.3929 62.005 34.0569 61.8571 33.7407C62.9005 34.3564 63.5592 35.2578 63.5592 36.2626Z" fill="#000072"/>
</g>
<g opacity="0.66">
<path opacity="0.66" d="M63.3289 35.2536C62.4132 34.3993 60.9166 33.8429 59.2238 33.8429C56.4363 33.8429 54.1767 35.3524 54.1767 37.213C54.1767 37.397 54.1985 37.5657 54.2421 37.7223C53.7515 37.3909 53.4666 36.9227 53.4666 36.263C53.4666 34.4023 55.7262 32.8928 58.5137 32.8928C60.7734 32.8928 62.6857 33.8855 63.3289 35.2536Z" fill="white"/>
</g>
<g opacity="0.3">
<path opacity="0.3" d="M45.7223 36.2626C45.7223 38.1233 43.4627 38.4668 40.6767 38.4668C38.0386 38.4668 35.8724 38.1598 35.6482 36.5484C36.5608 36.8631 37.8144 36.9467 39.2004 36.9467C41.9879 36.9467 44.2475 36.6031 44.2475 34.7425C44.2475 34.3929 44.1681 34.0569 44.0202 33.7407C45.0636 34.3564 45.7223 35.2578 45.7223 36.2626Z" fill="#000072"/>
</g>
<g opacity="0.66">
<path opacity="0.66" d="M45.4924 35.2536C44.5768 34.3993 43.0802 33.8429 41.3874 33.8429C38.5999 33.8429 36.3402 35.3524 36.3402 37.213C36.3402 37.397 36.3621 37.5657 36.4057 37.7223C35.9151 37.3909 35.6301 36.9227 35.6301 36.263C35.6301 34.4023 37.8898 32.8928 40.6773 32.8928C42.9369 32.8928 44.8493 33.8855 45.4924 35.2536Z" fill="white"/>
</g>
<path d="M40.6764 38.9989C38.8612 38.9989 35.0845 38.9989 35.0845 36.2627C35.0845 34.1114 37.593 32.3611 40.6764 32.3611C43.7598 32.3611 46.2683 34.1114 46.2683 36.2627C46.2683 38.9989 42.4913 38.9989 40.6764 38.9989ZM40.6764 33.4249C38.2361 33.4249 36.1746 34.7243 36.1746 36.2624C36.1746 37.4502 37.479 37.9345 40.6764 37.9345C43.8738 37.9345 45.1782 37.4502 45.1782 36.2624C45.1782 34.7246 43.1163 33.4249 40.6764 33.4249Z" fill="#4B2710"/>
<path d="M58.5133 38.9989C56.6981 38.9989 52.9214 38.9989 52.9214 36.2627C52.9214 34.1114 55.4299 32.3611 58.5133 32.3611C61.5967 32.3611 64.1052 34.1114 64.1052 36.2627C64.1055 38.9989 60.3285 38.9989 58.5133 38.9989ZM58.5133 33.4249C56.073 33.4249 54.0115 34.7243 54.0115 36.2624C54.0115 37.4502 55.3159 37.9345 58.5133 37.9345C61.7107 37.9345 63.0151 37.4502 63.0151 36.2624C63.0154 34.7246 60.9536 33.4249 58.5133 33.4249Z" fill="#4B2710"/>
<path d="M57.0724 36.0377L57.306 38.3362C57.3315 38.5879 57.1431 38.8126 56.8852 38.8375C56.6273 38.8624 56.3971 38.6785 56.3716 38.4268C56.3685 38.397 56.3688 38.365 56.3716 38.3362L56.6052 36.0377C56.618 35.9118 56.7329 35.8197 56.8618 35.8322C56.9755 35.8434 57.0618 35.9313 57.0724 36.0377Z" fill="#4B2710"/>
<path d="M60.4203 36.0377L60.6539 38.3362C60.6794 38.5879 60.491 38.8126 60.2331 38.8375C59.9752 38.8624 59.745 38.6785 59.7195 38.4268C59.7164 38.397 59.7167 38.365 59.7195 38.3362L59.9531 36.0377C59.9659 35.9118 60.0808 35.8197 60.2097 35.8322C60.3234 35.8434 60.4097 35.9313 60.4203 36.0377Z" fill="#4B2710"/>
<path d="M39.2355 36.0377L39.4691 38.3362C39.4946 38.5879 39.3062 38.8126 39.0483 38.8375C38.7904 38.8624 38.5602 38.6785 38.5347 38.4268C38.5316 38.397 38.5319 38.365 38.5347 38.3362L38.7683 36.0377C38.7811 35.9118 38.896 35.8197 39.0249 35.8322C39.1383 35.8434 39.2246 35.9313 39.2355 36.0377Z" fill="#4B2710"/>
<path d="M42.5843 36.0377L42.8179 38.3362C42.8435 38.5879 42.655 38.8126 42.3972 38.8375C42.1393 38.8624 41.9091 38.6785 41.8836 38.4268C41.8805 38.397 41.8808 38.365 41.8836 38.3362L42.1172 36.0377C42.1299 35.9118 42.2449 35.8197 42.3738 35.8322C42.4872 35.8434 42.5734 35.9313 42.5843 36.0377Z" fill="#4B2710"/>
<g opacity="0.1">
<path opacity="0.1" d="M68.7265 24.1046C68.9974 27.0582 68.552 29.4524 67.3218 31.0607C67.1333 31.2431 66.9729 31.4255 66.8468 31.6049C66.8468 31.6064 66.8452 31.6064 66.8452 31.608C66.1024 32.3483 65.1447 32.8666 63.9611 33.1311C63.1249 33.1828 61.9709 33.1843 60.3358 33.1585C59.6194 33.1463 58.8112 33.1281 57.8971 33.1068C57.5591 33.0992 57.2072 33.0916 56.8397 33.0825C47.6766 32.8651 43.9656 30.0331 43.9656 30.0331C42.8132 29.4114 41.8274 28.7714 40.9849 28.1238C37.9186 25.7691 36.7615 23.3354 36.3784 21.4641C36.3769 21.4626 36.3769 21.4611 36.3769 21.458C36.0966 20.0838 36.2336 19.0167 36.338 18.5074C36.338 18.5044 36.338 18.5029 36.3395 18.4998C36.3442 18.4816 36.3473 18.4634 36.3504 18.4466C36.3535 18.4284 36.3582 18.4117 36.3613 18.3965C36.394 18.2566 36.4189 18.1821 36.4189 18.1821C37.068 27.6358 64.5377 35.7515 65.5016 23.4053C65.568 22.5571 66.2852 21.8976 67.1567 21.8976C71.6317 21.8982 71.8504 18.8641 72.1416 18.197C71.324 20.362 70.2059 22.3443 68.7265 24.1046Z" fill="#4B2710"/>
</g>
<g opacity="0.3">
<path opacity="0.3" d="M37.0965 8.22993C36.4191 9.86256 35.4038 11.3827 34.1579 12.8268L36.0002 14.5598C35.8912 14.7787 35.8258 14.9079 35.8258 14.9079C27.4538 20.4564 29.0531 7.68724 29.0531 7.68724C32.3608 13.631 35.7526 6.05006 33.7437 3.09644C34.7139 3.73641 35.6327 4.4904 36.5048 5.34015C37.2803 6.09566 37.5077 7.23728 37.0965 8.22993Z" fill="#4B2710"/>
</g>
<g opacity="0.3">
<path opacity="0.3" d="M6.65614 27.7591L7.05636 23.0892C5.69218 23.0436 4.37627 22.8642 3.12109 22.5131C2.63055 22.3763 2.19762 22.1118 1.86281 21.7606L1.85658 21.7545L1.57471 21.4003C7.15603 22.1543 9.01543 20.1736 7.15603 15.4612C19.4789 24.9088 6.65614 27.7591 6.65614 27.7591Z" fill="#4B2710"/>
</g>
<g opacity="0.3">
<path opacity="0.3" d="M69.0387 40.7656C67.5755 49.8378 59.8271 54.6004 39.6829 50.8654L39.3901 51.8261L40.7746 55.8366C41.1458 56.9119 42.1786 57.6361 43.3413 57.6361H74.8649L69.0387 40.7656Z" fill="#000072"/>
</g>
<path d="M46.0436 13.711C46.1632 13.6411 46.2891 13.5836 46.418 13.531C46.5476 13.4827 46.6843 13.4526 46.8213 13.4228C46.9587 13.3921 47.1023 13.3909 47.2452 13.3811C47.3885 13.3744 47.5343 13.396 47.6794 13.4106C48.2646 13.4933 48.814 13.8113 49.228 14.2038C49.6453 14.6012 49.9344 15.0779 50.134 15.5625C50.3324 16.0496 50.4514 16.5497 50.4965 17.0553C50.5056 17.1553 50.4299 17.2432 50.3274 17.252C50.2542 17.2584 50.1869 17.2222 50.1514 17.1644L50.1499 17.1617C49.8907 16.7382 49.6512 16.3235 49.3862 15.9456C49.123 15.5677 48.8374 15.2278 48.5166 14.9651C48.359 14.8295 48.1849 14.7262 48.0095 14.6295C47.9189 14.5869 47.8252 14.5507 47.7345 14.5073C47.637 14.4787 47.5445 14.4373 47.4458 14.4057C47.3443 14.3823 47.2468 14.34 47.1409 14.3166C47.0344 14.295 46.9291 14.257 46.8167 14.2348C46.7042 14.2154 46.5902 14.1798 46.4713 14.1549C46.352 14.1312 46.2296 14.1023 46.1012 14.0612L46.0829 14.0552C45.9804 14.0223 45.9246 13.9147 45.9583 13.8147C45.9739 13.7697 46.005 13.7338 46.0436 13.711Z" fill="#4B2710"/>
<path d="M62.102 22.6053C61.997 22.522 61.9064 22.4369 61.8213 22.3518C61.7357 22.2672 61.6435 22.1927 61.5659 22.111C61.4862 22.0304 61.3965 21.9644 61.3205 21.8884C61.243 21.8136 61.1542 21.7565 61.0791 21.6859C60.9985 21.6218 60.9128 21.568 60.8359 21.5032C60.7496 21.4521 60.668 21.3947 60.582 21.3433C60.4042 21.2512 60.2211 21.1639 60.0189 21.1077C59.6193 20.9858 59.1721 20.9344 58.704 20.9216C58.2349 20.9076 57.7481 20.9344 57.2429 20.9499H57.2398C57.137 20.9529 57.0514 20.8742 57.0479 20.7742C57.0458 20.7024 57.0866 20.6389 57.1476 20.6075C57.6082 20.3722 58.1038 20.2002 58.6311 20.1007C59.1568 20.0034 59.7237 19.984 60.2918 20.1129C60.8533 20.2412 61.4242 20.5215 61.8111 20.9578C61.902 21.0691 61.9992 21.1773 62.0708 21.2989C62.1396 21.4217 62.216 21.5403 62.2636 21.6698C62.3119 21.7987 62.3595 21.9273 62.3879 22.0599C62.4122 22.194 62.4306 22.3286 62.4346 22.4645C62.4377 22.5697 62.3533 22.6576 62.2455 22.6606C62.197 22.6622 62.1518 22.6461 62.1166 22.6181L62.102 22.6053Z" fill="#4B2710"/>
<path d="M53.4891 24.1072C53.1128 24.6681 52.55 24.9208 51.9467 24.9429C50.9264 24.984 49.7918 24.3717 49.2579 23.5085C48.9362 22.9899 48.8331 22.3791 49.1019 21.7646C49.6862 22.1608 50.5704 22.3912 51.3251 22.2791C51.5419 22.2477 51.7574 22.3627 51.8471 22.5579C52.1573 23.2386 52.8328 23.8396 53.4891 24.1072Z" fill="#4B2710"/>
<path d="M54.4467 20.9926C53.8154 21.6435 53.0657 21.694 52.2267 21.2747L52.226 21.2756C51.4125 20.8108 51.0515 20.1675 51.2727 19.2976C51.3786 18.8851 51.8647 18.6902 52.246 18.8939L54.2701 19.9747C54.6514 20.1784 54.7454 20.6831 54.4467 20.9926Z" fill="#4B2710"/>
<path d="M48.9568 20.2148C48.85 20.3558 48.7637 20.4999 48.7425 20.6374C48.721 20.7733 48.7385 20.8921 48.8064 21.0089C48.935 21.2457 49.2178 21.4515 49.5234 21.6017C49.832 21.7525 50.1731 21.8638 50.5191 21.9185C50.6919 21.9462 50.8667 21.9608 51.0377 21.9544C51.08 21.9514 51.123 21.9508 51.1651 21.9465L51.3121 21.9304C51.4831 21.9143 51.655 21.9508 51.8023 22.0295C51.9499 22.1073 52.0745 22.2292 52.1533 22.3779L52.2193 22.508C52.2383 22.5451 52.2608 22.5807 52.281 22.6169C52.3679 22.7607 52.4744 22.8966 52.5915 23.0237C52.8251 23.279 53.1051 23.4992 53.4016 23.6722C53.6956 23.8424 54.0261 23.9637 54.2999 23.9424C54.4372 23.9357 54.549 23.8862 54.6546 23.7953C54.7618 23.7038 54.8396 23.5551 54.9038 23.3912L54.9072 23.3827C54.9424 23.2927 55.0455 23.2477 55.1377 23.2821C55.2115 23.3098 55.2557 23.38 55.2523 23.4533C55.242 23.6646 55.1922 23.8926 55.0505 24.1023C54.91 24.3103 54.6646 24.4748 54.412 24.5286C54.1591 24.5845 53.9109 24.5718 53.6851 24.5219C53.4577 24.4739 53.2475 24.3927 53.0516 24.293C52.6594 24.0929 52.3227 23.8172 52.0381 23.4949C51.8967 23.3326 51.7699 23.1568 51.6596 22.968C51.6332 22.92 51.6051 22.8729 51.5809 22.8236L51.5182 22.6944C51.5073 22.6722 51.4883 22.6509 51.4631 22.6366C51.4376 22.6233 51.4083 22.6193 51.3834 22.6227L51.2373 22.6409C51.1816 22.6473 51.1261 22.6497 51.0704 22.654C50.848 22.6646 50.6281 22.6555 50.4116 22.6269C49.98 22.567 49.5604 22.439 49.1761 22.2247C48.9842 22.1171 48.8014 21.9881 48.6373 21.827C48.4725 21.6677 48.328 21.4704 48.2402 21.2323C48.1511 20.9952 48.1607 20.7055 48.2644 20.4777C48.3691 20.2485 48.5385 20.0843 48.7154 19.9621C48.7958 19.9065 48.9073 19.9247 48.9643 20.0035C49.0101 20.0664 49.007 20.1488 48.9624 20.2078L48.9568 20.2148Z" fill="#4B2710"/>
<path d="M52.0067 24.8348C50.9863 24.8758 49.8517 24.2635 49.3179 23.4004C50.4672 22.7735 52.0933 23.7509 52.0067 24.8348Z" fill="#A51313"/>
<path d="M52.6348 21.2684L51.9449 22.4994C51.8512 22.667 51.6356 22.7284 51.464 22.6369C51.2924 22.545 51.2295 22.335 51.3232 22.1674L52.0131 20.9364C52.1069 20.7689 52.3224 20.7075 52.494 20.799C52.6656 20.8905 52.7285 21.1009 52.6348 21.2684Z" fill="#4B2710"/>
<path d="M51.8532 25.2851C51.3081 25.2851 50.7541 25.1322 50.2828 24.8859C49.132 24.2845 48.1699 23.0085 48.7766 21.6273C48.8539 21.4519 49.0622 21.371 49.2419 21.4458C49.4216 21.5212 49.5051 21.7246 49.4279 21.9C48.9971 22.8808 49.7424 23.8194 50.6173 24.2763C51.4791 24.7266 52.6094 24.7901 53.1928 23.9176C53.2996 23.7574 53.5189 23.7127 53.683 23.8166C53.8468 23.9209 53.8932 24.1353 53.7861 24.2952C53.3121 25.0045 52.5914 25.2851 51.8532 25.2851Z" fill="#4B2710"/>
<path d="M0.594953 77.7521C1.38356 77.6074 2.17186 77.5341 2.96047 77.4739C3.74909 77.4134 4.53739 77.3943 5.326 77.3766C6.90291 77.3386 8.47982 77.3587 10.0567 77.3794L12.4222 77.3961L14.7878 77.397H19.5185H38.442H57.3656H66.8274L69.1929 77.3964C69.9815 77.3967 70.7698 77.3724 71.5584 77.3611C72.347 77.3496 73.1353 77.3675 73.9239 77.4119C74.3182 77.4371 74.7125 77.4724 75.1065 77.5284C75.5008 77.5828 75.8952 77.6475 76.2892 77.7515C76.3894 77.778 76.4489 77.8789 76.4218 77.9768C76.4038 78.0419 76.3514 78.0896 76.2892 78.106C75.8948 78.2103 75.5005 78.2747 75.1065 78.3292C74.7122 78.3851 74.3179 78.4204 73.9239 78.4456C73.1353 78.4903 72.347 78.5079 71.5584 78.4964C70.7698 78.4851 69.9815 78.4608 69.1929 78.4611L66.8274 78.4605H57.3656L38.442 78.4605H19.5182H14.7875L12.4219 78.4614L10.0564 78.4781C8.47951 78.4988 6.90259 78.5192 5.32568 78.4809C4.53707 78.4635 3.74877 78.4444 2.96016 78.3836C2.17155 78.3234 1.38325 78.2501 0.594642 78.1054C0.494352 78.0869 0.428323 77.9926 0.447011 77.8947C0.461961 77.8211 0.522383 77.7655 0.594953 77.7521Z" fill="#4B2710"/>
</svg>
