<svg width="77" height="80" viewBox="0 0 77 80" fill="none" xmlns="http://www.w3.org/2000/svg">
<path d="M7.38137 37.4282L0.80712 55.8194C0.474795 56.7491 1.1818 57.7211 2.19062 57.7211H7.38106" fill="#EF9F21"/>
<g opacity="0.3">
<path opacity="0.3" d="M7.38137 37.4282L0.80712 55.8194C0.474795 56.7491 1.1818 57.7211 2.19062 57.7211H7.38106" fill="#000072"/>
</g>
<path d="M69.2807 37.428L7.38159 37.428L7.38159 78.0141H69.2807V37.428Z" fill="#EF9F21"/>
<g opacity="0.66">
<path opacity="0.66" d="M69.2807 37.428L7.38159 37.428V38.5514L69.2807 38.5514V37.428Z" fill="white"/>
</g>
<g opacity="0.66">
<path opacity="0.66" d="M69.2807 78.014L7.38159 78.014V79.1374L69.2807 79.1374V78.014Z" fill="white"/>
</g>
<g opacity="0.3">
<path opacity="0.3" d="M67.8792 37.428H34.3414L34.1576 51.5516L34.3053 67.8301C34.338 71.4553 31.3364 74.411 27.6226 74.411H7.38159L7.38159 78.0138H67.8792V37.428Z" fill="#000072"/>
</g>
<path d="M38.3307 37.0176L10.7948 37.428C8.81857 37.0024 7.53069 35.0292 6.85483 33.6444C6.5278 32.974 6.35961 32.2428 6.35961 31.504C6.35961 31.3642 6.36584 31.2243 6.3783 31.0845L6.65549 27.8435L7.05572 23.1737C5.69153 23.1281 4.37562 22.9487 3.12045 22.5976C2.6299 22.4607 2.19698 22.1962 1.86216 21.8451L1.85593 21.839C1.75315 21.7296 1.65815 21.611 1.57406 21.4848C1.35137 21.1534 1.20498 20.7719 1.15359 20.363C0.831234 17.7711 1.00254 15.2948 1.87618 12.9797C2.11288 12.3549 2.67039 11.9004 3.33691 11.7605C5.57474 11.2893 7.91846 11.4869 10.3276 12.1041C13.3659 8.22316 17.7901 6.36707 24.1875 7.39164C25.1732 5.15856 26.458 3.23559 28.2162 1.80514C28.7394 1.37799 29.4495 1.22901 30.0989 1.43271C31.3977 1.83859 32.6062 2.43144 33.743 3.18087C34.7132 3.82084 35.632 4.57483 36.5041 5.42459C37.2796 6.18009 37.5069 7.32172 37.0958 8.31436C36.4184 9.94699 35.403 11.4671 34.1572 12.9113L35.9995 14.6442L37.4945 16.0503C37.4945 16.0503 38.6344 17.458 39.779 19.6683C41.9841 23.9246 44.2064 31.1529 38.3307 37.0176Z" fill="#FF871D"/>
<g opacity="0.66">
<g opacity="0.66">
<path opacity="0.66" d="M37.1207 6.35795C35.294 4.63564 33.2711 3.33136 30.9726 2.61234C30.3232 2.40864 29.6131 2.55761 29.0898 2.98477C27.3316 4.41522 26.0469 6.33819 25.0611 8.57127C18.6638 7.5467 14.2395 9.40278 11.2012 13.2837C8.7921 12.6665 6.44838 12.4689 4.21055 12.9401C3.54403 13.08 2.98652 13.5345 2.74981 14.1593C1.87618 16.4745 1.70487 18.9508 2.02723 21.5426C2.05215 21.7432 2.10042 21.9363 2.16895 22.1218C1.61611 21.6946 1.24236 21.0698 1.15359 20.363C0.831234 17.7711 1.00254 15.2948 1.87618 12.9797C2.11288 12.3549 2.67039 11.9004 3.33691 11.7605C5.57474 11.2893 7.91846 11.4869 10.3276 12.1041C13.3659 8.22316 17.7901 6.36707 24.1875 7.39164C25.1732 5.15856 26.458 3.23559 28.2162 1.80514C28.7394 1.37799 29.4495 1.22901 30.0989 1.43271C32.5065 2.18518 34.6104 3.58066 36.5041 5.42459C36.7812 5.69517 36.9884 6.0144 37.1207 6.35795Z" fill="white"/>
</g>
</g>
<path d="M13.5804 36.0358C9.76878 32.6256 10.9358 27.0029 15.1663 25.1523C15.575 24.9735 15.9765 24.7789 16.3518 24.5403C16.9364 24.1687 17.4674 23.7723 17.9125 23.336C18.9365 22.333 19.3318 20.8728 19.016 19.4986C18.9833 19.3563 18.9502 19.2134 18.9362 19.0681C18.6727 16.3343 20.4546 15.3191 22.2601 17.5251C22.3302 17.6109 22.3919 17.703 22.4532 17.7948C23.2487 18.9832 24.6284 19.7077 26.0885 19.6685C26.9637 19.6451 27.895 19.4521 28.8537 19.1772C34.1578 17.6653 39.2937 21.7499 38.3316 27.5328C38.3316 27.5328 37.9704 30.9151 35.6294 33.7313L29.7943 37.4283H14.9225L13.5804 36.0358Z" fill="white"/>
<path d="M24.7739 18.1146C24.6733 17.8662 24.6234 17.6117 24.6375 17.3271C24.6515 17.0392 24.7402 16.7477 24.8907 16.4865C25.1934 15.9624 25.7422 15.5781 26.347 15.4461C26.4221 15.4276 26.4984 15.4142 26.5753 15.406C26.652 15.396 26.7286 15.3871 26.8058 15.3862C26.8831 15.3835 26.96 15.3826 27.0366 15.3899C27.112 15.3957 27.1942 15.4005 27.2556 15.4109C27.5188 15.4516 27.7729 15.5136 28.0165 15.5966C28.5036 15.7623 28.9508 15.9976 29.3461 16.3123C29.4264 16.3764 29.4386 16.492 29.3729 16.5704C29.3352 16.6157 29.2797 16.6388 29.2243 16.6379H29.2215C28.7238 16.6282 28.2594 16.5835 27.8128 16.5604C27.5898 16.5507 27.3721 16.5406 27.1603 16.5443C27.103 16.5418 27.0659 16.5479 27.0223 16.55C26.9796 16.55 26.9379 16.5598 26.8961 16.5646C26.8541 16.5674 26.813 16.5771 26.7722 16.5859C26.7308 16.5923 26.6909 16.6054 26.651 16.6166C26.3318 16.7109 26.0415 16.8772 25.793 17.1131C25.6668 17.2305 25.5519 17.3676 25.4482 17.5302C25.3401 17.6956 25.2457 17.9078 25.1302 18.1237L25.1252 18.1331C25.0757 18.2252 24.9592 18.2611 24.8645 18.2131C24.8215 18.1909 24.7904 18.1553 24.7739 18.1146Z" fill="#4B2710"/>
<g opacity="0.1">
<path opacity="0.1" d="M38.331 37.0175L10.795 37.428C8.81882 37.0023 7.53094 35.0292 6.85508 33.6443C6.52805 32.974 6.35986 32.2428 6.35986 31.504C8.84374 37.9858 40.8149 26.3097 38.331 19.8293L39.7793 19.6682C41.9844 23.9246 44.2067 31.1528 38.331 37.0175Z" fill="#4B2710"/>
</g>
<path d="M26.0476 29.7681C26.032 29.7696 26.0164 29.7711 25.9993 29.7727C25.0447 29.8715 24.1508 29.2969 23.8347 28.4121L22.8505 25.6622C23.1722 24.5601 23.6322 23.5842 25.8233 24.1831L27.4741 26.6275C28.3119 27.8695 27.5581 29.5872 26.0476 29.7681Z" fill="#A51313"/>
<path d="M17.8699 20.5581C17.6276 20.5006 17.4018 20.4298 17.2031 20.4C17.0093 20.3689 16.8281 20.3632 16.6546 20.3781C16.3092 20.4048 15.9896 20.5082 15.7065 20.6803C15.6713 20.7022 15.6349 20.7225 15.6028 20.749C15.5688 20.773 15.5346 20.797 15.5047 20.8259C15.4735 20.8533 15.4383 20.8776 15.4103 20.9089C15.3798 20.9396 15.3508 20.9627 15.315 21.0065C15.1724 21.1597 15.0369 21.326 14.8973 21.4963C14.6204 21.8392 14.3485 22.2095 14.0281 22.581L14.0268 22.5826C13.9598 22.6601 13.8415 22.6701 13.7621 22.6048C13.7163 22.5671 13.6936 22.512 13.6954 22.4579C13.7138 21.9605 13.8278 21.4771 14.0212 21.0104C14.1181 20.777 14.2377 20.5495 14.38 20.3294C14.4124 20.2777 14.4632 20.2139 14.5083 20.1549C14.5532 20.0938 14.6046 20.0379 14.6575 19.9831C14.7089 19.9269 14.7665 19.8767 14.8248 19.8269C14.8818 19.7755 14.9425 19.7287 15.006 19.6858C15.5062 19.3292 16.1643 19.1796 16.7673 19.303C17.0676 19.365 17.3507 19.4921 17.5818 19.6718C17.8104 19.8494 17.9733 20.0537 18.0985 20.2911C18.1471 20.3838 18.1097 20.4972 18.0147 20.545C17.9717 20.5666 17.9244 20.5708 17.8811 20.5605L17.8699 20.5581Z" fill="#4B2710"/>
<path d="M24.7473 22.1679C24.979 22.686 24.6071 23.5558 23.8188 23.8914C23.0305 24.2274 22.1245 23.9021 21.8928 23.3843C21.661 22.8662 22.2114 22.3956 22.9997 22.0597C23.7877 21.7237 24.5156 21.6498 24.7473 22.1679Z" fill="#4B2710"/>
<path d="M19.4118 25.545C19.6529 25.6198 19.888 25.6955 20.1229 25.7566C20.3577 25.815 20.5901 25.8633 20.8171 25.8858C21.2715 25.9384 21.6911 25.8858 22.0259 25.7004C22.3651 25.5213 22.6457 25.2084 22.8706 24.822C23.0992 24.4386 23.263 23.9926 23.3941 23.5333C23.4639 23.2888 23.7236 23.1456 23.9744 23.214C23.9896 23.2183 24.0055 23.2235 24.0202 23.2289C24.4833 23.4065 24.9539 23.557 25.4211 23.6424C25.8852 23.7309 26.3471 23.7655 26.7504 23.691C27.155 23.6187 27.4904 23.4123 27.7511 23.0635C28.0112 22.7182 28.1875 22.2667 28.3217 21.797L28.3229 21.793C28.3578 21.6708 28.4874 21.5996 28.6126 21.6337C28.7188 21.6626 28.7876 21.7587 28.7845 21.8617C28.768 22.3862 28.6836 22.9352 28.4008 23.4542C28.2641 23.7138 28.0635 23.9568 27.8175 24.1556C27.5686 24.3532 27.2712 24.4915 26.9722 24.5745C26.3651 24.7387 25.7696 24.6782 25.2255 24.5688C24.6798 24.4487 24.1684 24.2708 23.6713 24.0753L24.297 23.771C24.1594 24.2772 23.9865 24.7862 23.7177 25.2808C23.5829 25.5274 23.4153 25.7663 23.2094 25.9868C23.0048 26.2069 22.7472 26.4011 22.4588 26.534C22.171 26.6699 21.8527 26.745 21.5456 26.7553C21.2376 26.7711 20.9414 26.7258 20.6642 26.6574C20.1098 26.5109 19.6261 26.2561 19.1954 25.9491C19.0901 25.874 19.067 25.7299 19.144 25.6271C19.2053 25.545 19.3118 25.5143 19.4059 25.5432L19.4118 25.545Z" fill="#4B2710"/>
<path d="M7.03352 15.0917C8.13577 16.1321 9.08478 17.3449 9.80362 18.6771C10.1665 19.3411 10.4863 20.0273 10.7607 20.7284C10.8289 20.9038 10.8981 21.0789 10.961 21.2559L11.0093 21.3884L11.0336 21.4547C11.0414 21.4757 11.0498 21.4982 11.0588 21.531C11.0962 21.6496 11.1205 21.773 11.1283 21.8986C11.1631 22.4023 10.9333 22.9128 10.5231 23.2326C10.3194 23.3935 10.0699 23.5032 9.8111 23.55L9.71361 23.5643C9.68091 23.5689 9.64634 23.5738 9.62578 23.5747L9.48251 23.5868L9.19566 23.6108C8.81256 23.6385 8.42854 23.6622 8.04295 23.6732C7.27241 23.6969 6.49625 23.6878 5.72072 23.6206C4.94488 23.5561 4.17371 23.4169 3.41438 23.2278C3.31938 23.205 3.22532 23.1773 3.13064 23.1524L2.98893 23.1141C2.94034 23.1007 2.88303 23.0812 2.8304 23.0648C2.6158 22.9961 2.40899 22.9046 2.21464 22.7924C1.82314 22.5717 1.48241 22.268 1.21424 21.9126C1.08063 21.7338 0.968501 21.5407 0.872883 21.3401C0.783806 21.1367 0.708122 20.9269 0.662338 20.7095C0.638667 20.6043 0.621225 20.4851 0.608144 20.3885L0.576375 20.1069C0.553327 19.9197 0.539623 19.7309 0.522182 19.543C0.458956 18.7896 0.441514 18.0298 0.47484 17.2701C0.537132 15.7502 0.824607 14.2292 1.36841 12.7857C1.53816 12.3424 1.84401 11.952 2.23053 11.6754C2.42394 11.537 2.63605 11.4254 2.85967 11.3437C2.97117 11.3023 3.0861 11.2704 3.20228 11.2439L3.49629 11.1868C4.27244 11.0378 5.06137 10.9752 5.84593 10.9673C6.63111 10.9636 7.41225 11.0244 8.1828 11.1308C8.95272 11.2412 9.71237 11.3972 10.4599 11.5869L10.4658 11.5884L9.89426 11.7799C10.7056 10.7444 11.6587 9.7989 12.7491 9.0209C13.837 8.24107 15.0601 7.63605 16.3452 7.23778C17.6302 6.83677 18.9708 6.63945 20.3032 6.5978C21.6372 6.55584 22.9649 6.66438 24.2696 6.86504L24.2755 6.86595L23.6869 7.18032C24.2992 5.7973 25.0538 4.45411 26.0278 3.24925C26.5174 2.65062 27.0537 2.08209 27.6517 1.57679L27.8781 1.38647C27.971 1.31351 28.0672 1.24449 28.1694 1.18399C28.3727 1.06177 28.5933 0.966915 28.824 0.903069C29.285 0.77477 29.7886 0.779634 30.2514 0.921007C31.7545 1.39073 33.1552 2.11006 34.425 2.99265C35.0607 3.43288 35.6655 3.91172 36.237 4.42279C36.3788 4.5517 36.5233 4.67787 36.6609 4.81073L36.8693 5.00774C36.9391 5.07614 37.0257 5.16401 37.0967 5.2467C37.2449 5.41635 37.3698 5.60394 37.4804 5.79851C37.5847 5.99643 37.6735 6.20256 37.7364 6.4166C37.8616 6.84406 37.8974 7.29676 37.8345 7.73699C37.8059 7.95741 37.752 8.17479 37.675 8.38365C37.656 8.43473 37.6361 8.49067 37.6168 8.53749L37.5598 8.67005C37.5212 8.75821 37.4847 8.8473 37.4446 8.93455C37.1297 9.63716 36.7485 10.3066 36.3286 10.9466C35.9072 11.5857 35.4531 12.2013 34.9573 12.7796C34.7118 13.0708 34.4568 13.3527 34.1992 13.6318L34.0036 13.8388L33.9058 13.9422C33.8924 13.9571 33.8681 13.9808 33.8432 14.0042L33.77 14.072C33.5691 14.2471 33.3212 14.3754 33.0596 14.4359C32.5363 14.5594 31.967 14.4207 31.5692 14.0756C31.4696 13.9905 31.382 13.8932 31.307 13.789C31.2855 13.761 31.2712 13.74 31.2596 13.7215L31.2207 13.6622L31.1428 13.5436C31.0379 13.3861 30.9382 13.225 30.8376 13.0648C30.4433 12.4181 30.0892 11.7459 29.7793 11.0545C29.1533 9.67455 28.7614 8.19151 28.6269 6.69904C28.6157 6.57348 28.7107 6.46281 28.8393 6.45187C28.9608 6.44153 29.0688 6.52362 29.0897 6.63854L29.09 6.64067C29.3488 8.07051 29.8244 9.44653 30.4875 10.7314C30.8192 11.3738 31.1924 11.9958 31.6047 12.5947C31.7069 12.7452 31.8075 12.896 31.9143 13.0438L31.9931 13.1551L32.0327 13.2107L32.0523 13.2387L32.0669 13.256C32.1024 13.3007 32.1417 13.3411 32.1859 13.3755C32.3594 13.5144 32.6064 13.5615 32.8163 13.5026C32.9213 13.4734 33.0141 13.419 33.0913 13.3457L33.1194 13.3168C33.1284 13.308 33.1377 13.2998 33.1549 13.2794L33.2455 13.1766L33.4265 12.9708C33.6641 12.6938 33.8986 12.4151 34.1226 12.129C34.5698 11.5571 34.9999 10.9752 35.3821 10.3668C35.7664 9.75998 36.1044 9.13004 36.4012 8.4852C36.4389 8.40463 36.4722 8.32285 36.508 8.24167L36.561 8.11976L36.6008 8.01426C36.6522 7.87684 36.688 7.73395 36.7067 7.58893C36.7494 7.29949 36.7245 7.00185 36.6463 6.72063C36.6064 6.57986 36.5485 6.44487 36.4825 6.31445C36.4099 6.18736 36.3308 6.06332 36.2342 5.95174C36.1841 5.89337 36.1405 5.84776 36.0779 5.78514L35.8814 5.59633C35.7515 5.46895 35.6157 5.34855 35.4824 5.22542C34.9448 4.73685 34.3786 4.28172 33.7865 3.8649C32.6061 3.02731 31.297 2.36939 29.9244 1.93737C29.6665 1.85923 29.3844 1.85498 29.1193 1.92855C28.9869 1.96534 28.8592 2.02037 28.7412 2.09121C28.6817 2.12617 28.626 2.16661 28.5718 2.20887L28.3696 2.37942C27.8255 2.83851 27.335 3.3587 26.883 3.91081C25.9845 5.02203 25.2722 6.28313 24.6879 7.60322C24.5885 7.82759 24.3499 7.95133 24.1136 7.91971L24.0992 7.91758L24.0936 7.91697C22.8465 7.72513 21.5886 7.62359 20.3396 7.66311C19.0919 7.70203 17.8536 7.88627 16.6769 8.25353C15.5002 8.61867 14.3895 9.16865 13.3944 9.88099C12.3981 10.5921 11.5185 11.4613 10.7607 12.4284C10.6243 12.6023 10.3998 12.6713 10.1951 12.6215L10.1895 12.62L10.1839 12.6184C9.47099 12.4372 8.75121 12.2898 8.028 12.1861C7.30449 12.0864 6.57723 12.0302 5.85278 12.0335C5.12895 12.0411 4.40731 12.0983 3.70185 12.2342L3.44085 12.2846C3.37327 12.3004 3.3063 12.3184 3.24152 12.343C3.11164 12.3904 2.98893 12.4552 2.87774 12.5342C2.65567 12.6935 2.48561 12.913 2.39031 13.1599C1.89197 14.4837 1.62256 15.894 1.56463 17.3178C1.53349 18.0298 1.54937 18.7458 1.60948 19.4609C1.62599 19.6396 1.63876 19.8184 1.66087 19.9969L1.69108 20.2647C1.70323 20.3505 1.71226 20.414 1.72877 20.4888C1.75867 20.6329 1.81006 20.7715 1.86799 20.9068C1.93246 21.0397 2.00628 21.1683 2.09535 21.2875C2.27475 21.5243 2.50212 21.7283 2.76468 21.8758C2.89487 21.9512 3.03347 22.0129 3.17736 22.0585C3.21473 22.0697 3.24619 22.0819 3.28855 22.0931L3.41998 22.1272C3.50782 22.1494 3.59471 22.1737 3.68317 22.1938C4.03543 22.2783 4.39204 22.3476 4.75053 22.4081C5.10995 22.4644 5.47062 22.5157 5.83378 22.5571C6.55979 22.6395 7.29421 22.6887 8.03267 22.6954C8.40175 22.7009 8.77176 22.6936 9.1424 22.683L9.42022 22.6717L9.55913 22.6659C9.58591 22.6653 9.59806 22.6632 9.61208 22.6617L9.65506 22.658C9.76781 22.6431 9.87588 22.6036 9.96963 22.537C10.1578 22.4051 10.2798 22.1737 10.2752 21.9399C10.2749 21.8812 10.2661 21.8226 10.2512 21.7642C10.2496 21.752 10.2431 21.7311 10.2356 21.7083L10.2154 21.6435L10.1746 21.5137C10.1216 21.3401 10.0628 21.1689 10.0045 20.9971C9.77092 20.3109 9.49403 19.6409 9.17572 18.9906C8.53848 17.6905 7.71468 16.4756 6.70119 15.4137L6.70057 15.4131C6.61274 15.3209 6.61772 15.1765 6.71209 15.0908C6.80335 15.006 6.94475 15.0084 7.03352 15.0917Z" fill="#4B2710"/>
<path d="M7.59858 23.2178L6.91306 31.2505C6.87787 31.8512 6.96788 32.4584 7.17873 33.0229C7.23137 33.1649 7.29117 33.3005 7.35876 33.4391C7.4307 33.5842 7.50421 33.728 7.58207 33.8693C7.73811 34.1515 7.90163 34.4297 8.0829 34.693C8.26448 34.9556 8.45322 35.2135 8.66314 35.4479C8.76343 35.5704 8.87711 35.6774 8.98394 35.7917C9.09918 35.8954 9.20788 36.0079 9.32966 36.1009C9.8009 36.4986 10.3422 36.7774 10.9122 36.9084L10.9249 36.9114C11.218 36.9789 11.3993 37.2653 11.3305 37.5514C11.2613 37.8375 10.9704 38.0151 10.6777 37.9476C9.90274 37.7731 9.19729 37.3948 8.62577 36.9133C8.47658 36.7977 8.34701 36.6661 8.20966 36.5408C8.08352 36.4077 7.94959 36.2791 7.83404 36.1389C7.59048 35.8662 7.37744 35.5752 7.17375 35.2806C6.97099 34.9851 6.79066 34.679 6.61936 34.3692C6.53433 34.2141 6.45366 34.0569 6.37548 33.8988C6.29482 33.7338 6.21851 33.5602 6.15373 33.3856C5.89241 32.6852 5.78091 31.933 5.82452 31.1903L6.51221 23.1287C6.53713 22.8359 6.80062 22.6182 7.10056 22.6425C7.40049 22.6669 7.6235 22.9241 7.59858 23.2168V23.2178Z" fill="#4B2710"/>
<path d="M37.4942 16.5831C37.3581 16.5831 37.2217 16.5335 37.1161 16.4341L33.7794 13.2941C33.5627 13.0901 33.5564 12.7535 33.7654 12.5419C33.9741 12.3303 34.3192 12.3239 34.536 12.5282L37.8726 15.6682C38.0894 15.8722 38.0956 16.2088 37.8866 16.4204C37.7798 16.5283 37.6371 16.5831 37.4942 16.5831Z" fill="#4B2710"/>
<path d="M25.7826 30.2405C24.7162 30.2405 23.7569 29.5792 23.3931 28.5632L22.4092 25.8126C22.3242 25.5749 22.4525 25.3146 22.696 25.2316C22.9399 25.1489 23.2062 25.2742 23.2912 25.5117L24.2754 28.2622C24.5215 28.9496 25.2263 29.3947 25.9505 29.3196L25.9888 29.3153C26.5267 29.2509 26.9674 28.9326 27.1997 28.4422C27.442 27.9302 27.3987 27.3458 27.0832 26.8786L25.4331 24.4339C25.2911 24.2235 25.3509 23.9407 25.5661 23.8021C25.7816 23.6632 26.0713 23.7215 26.2133 23.9319L27.8634 26.3766C28.3577 27.109 28.4266 28.0238 28.0475 28.8243C27.6822 29.596 26.9555 30.1177 26.1037 30.2201L26.0483 30.2265C25.9595 30.2362 25.8707 30.2405 25.7826 30.2405Z" fill="#4B2710"/>
<path d="M24.1936 23.4831L25.4752 26.5158C25.5083 26.5936 25.4703 26.6827 25.3905 26.7146C25.3176 26.7441 25.2351 26.7155 25.1965 26.6508L23.4965 23.8209C23.3875 23.6394 23.4498 23.4059 23.6358 23.2995C23.8217 23.1931 24.0609 23.2539 24.1699 23.4354C24.1783 23.4506 24.187 23.4676 24.1936 23.4831Z" fill="#4B2710"/>
<path d="M69.2806 78.5458H7.38148C7.0803 78.5458 6.83643 78.3074 6.83643 78.0137L6.83643 37.4282C6.83643 37.1345 7.0803 36.8962 7.38148 36.8962L69.2806 36.8962C69.5818 36.8962 69.8256 37.1345 69.8256 37.4282V78.0137C69.8256 78.3077 69.5818 78.5458 69.2806 78.5458ZM7.92653 77.4817H68.7355V37.9603L7.92653 37.9603L7.92653 77.4817Z" fill="#4B2710"/>
<path d="M73.9964 57.7203H41.3961L39.3903 51.9103L34.7761 38.5514L34.3883 37.428L69.2809 37.428L69.5784 38.2899L69.6687 38.5514L75.5565 55.6C75.9162 56.6416 75.1226 57.7203 73.9964 57.7203Z" fill="#EF9F21"/>
<path d="M7.3816 58.2532H2.19115C1.54114 58.2532 0.928503 57.9443 0.55195 57.4271C0.175709 56.9097 0.0788459 56.2433 0.292817 55.6443L6.86676 37.2531C6.9658 36.9755 7.27663 36.8293 7.561 36.926C7.84536 37.0227 7.99517 37.3261 7.89612 37.6037L1.32219 55.9946C1.22252 56.273 1.26581 56.5704 1.44085 56.8106C1.61589 57.0511 1.88935 57.1888 2.19115 57.1888H7.3816C7.68278 57.1888 7.92665 57.4271 7.92665 57.7208C7.92665 58.0148 7.68278 58.2532 7.3816 58.2532Z" fill="#4B2710"/>
<g opacity="0.66">
<path opacity="0.66" d="M69.6687 38.5514L34.7761 38.5514L34.3883 37.428L69.2809 37.428L69.6687 38.5514Z" fill="white"/>
</g>
<path d="M72.6944 16.6614C72.5387 17.1767 72.3689 17.6814 72.1836 18.1769C72.1805 18.1861 72.1712 18.2104 72.154 18.2514C72.1509 18.2621 72.1462 18.2712 72.1416 18.2818C71.324 20.4465 70.2059 22.4288 68.7264 24.1891C68.9974 27.1427 68.552 29.5369 67.3218 31.1452C67.1754 31.3383 67.0181 31.5192 66.8468 31.6894C66.8468 31.6909 66.8452 31.6909 66.8452 31.6925C66.1024 32.4328 65.1447 32.9511 63.9611 33.2156C63.0595 33.4178 62.0254 33.471 60.8575 33.3631L60.3358 33.243L58.0029 32.7064L57.8971 33.1913L56.9689 37.4279H43.8877L38.3313 33.3631C38.9978 31.4751 39.8076 29.6996 40.9849 28.2083C41.0005 28.187 41.016 28.1658 41.0332 28.146C38.3297 25.7837 36.8721 23.5749 36.3784 21.5486C36.3769 21.5471 36.3769 21.5456 36.3769 21.5425C36.1246 20.5104 36.1246 19.5268 36.3379 18.5919C36.3379 18.5889 36.3379 18.5874 36.3395 18.5843C36.3442 18.5661 36.3473 18.5479 36.3504 18.5311C36.3535 18.5129 36.3582 18.4962 36.3613 18.481C36.394 18.3411 36.4189 18.2666 36.4189 18.2666C37.0169 16.1445 38.719 14.293 41.0721 12.7577C41.2434 12.6452 41.4163 12.5357 41.5938 12.4278C42.9144 8.27175 44.9856 4.73896 48.3462 2.27786C49.1498 1.68957 50.2726 1.82942 50.9079 2.58797C52.0121 3.90592 52.8141 5.57503 53.3358 7.56945C54.7996 7.58313 56.17 7.76403 57.4314 8.13038C60.4199 8.9999 62.8103 10.9168 64.4439 14.1562C67.1084 14.027 69.5705 14.0878 71.5249 14.6259C72.4266 14.8752 72.9591 15.7858 72.6944 16.6614Z" fill="white"/>
<path d="M57.4312 8.13038C57.2911 13.0435 53.3729 16.9836 48.5593 16.9836C45.4121 16.9836 42.6463 15.2993 41.0719 12.7577C41.2432 12.6452 41.4161 12.5357 41.5936 12.4278C42.9142 8.27175 44.9854 4.73896 48.346 2.27786C49.1496 1.68957 50.2724 1.82942 50.9077 2.58797C52.0119 3.90592 52.8139 5.57503 53.3355 7.56945C54.7994 7.58313 56.1698 7.76403 57.4312 8.13038Z" fill="#FF8500"/>
<g opacity="0.66">
<path opacity="0.66" d="M72.6941 16.6614C72.6785 16.7146 72.6629 16.7663 72.6443 16.818C72.4574 16.3543 72.054 15.9788 71.5246 15.8329C69.5702 15.2948 67.1081 15.234 64.4436 15.3632C62.1201 10.7557 58.2658 8.82356 53.3354 8.77644C52.8137 6.78202 52.0117 5.11291 50.9076 3.79495C50.2722 3.03641 49.1494 2.89655 48.3459 3.48485C44.9852 5.94594 42.9141 9.47874 41.5935 13.6348C38.5599 15.4833 36.4793 17.8212 36.2115 20.5651C35.9 17.2953 38.1254 14.5423 41.5935 12.4278C42.9141 8.27175 44.9852 4.73896 48.3459 2.27786C49.1494 1.68957 50.2722 1.82942 50.9076 2.58797C52.0117 3.90592 52.8137 5.57503 53.3354 7.56945C58.2658 7.61657 62.1201 9.54867 64.4436 14.1562C67.1081 14.027 69.5702 14.0878 71.5246 14.6259C72.4262 14.8752 72.9588 15.7858 72.6941 16.6614Z" fill="white"/>
</g>
<path d="M34.3883 78.5458C34.0871 78.5458 33.8433 78.3074 33.8433 78.0137L33.8433 37.4282C33.8433 37.1345 34.0871 36.8962 34.3883 36.8962C34.6895 36.8962 34.9334 37.1345 34.9334 37.4282L34.9334 78.0137C34.9334 78.3077 34.6895 78.5458 34.3883 78.5458Z" fill="#4B2710"/>
<path d="M73.9968 58.2532L43.112 58.2532C41.8519 58.2532 40.7344 57.47 40.332 56.3041L33.8723 37.5982C33.8163 37.4358 33.8437 37.2571 33.9461 37.1178C34.0486 36.9786 34.2134 36.8962 34.3887 36.8962L69.2813 36.8962C69.5152 36.8962 69.723 37.0418 69.7977 37.2583L76.0733 55.4306C76.3016 56.0915 76.1932 56.7954 75.7768 57.3618C75.3597 57.9282 74.711 58.2532 73.9968 58.2532ZM35.1474 37.9603L41.3647 55.9641C41.618 56.6969 42.32 57.1891 43.112 57.1891L73.9968 57.1891C74.3559 57.1891 74.6817 57.0258 74.8913 56.7412C75.1009 56.4567 75.1551 56.1028 75.0405 55.7708L68.8898 37.9603L35.1474 37.9603Z" fill="#4B2710"/>
<path d="M48.1442 4.73138C48.1442 4.73138 48.3448 6.7106 48.2031 8.29762C48.1754 8.60682 48.0038 8.88591 47.7362 9.05404L44.9387 10.8119C45.4405 8.39126 46.4378 6.31476 48.1442 4.73138Z" fill="#D28989"/>
<path d="M66.8981 19.8115L67.3675 21.4675C67.4924 21.9086 68.0897 22.0023 68.3523 21.6232C69.438 20.0553 70.2076 18.5254 70.2453 17.0828C69.206 17.174 68.2548 17.6152 67.3731 18.3324C66.9311 18.6917 66.7449 19.2703 66.8981 19.8115Z" fill="#D28989"/>
<path d="M44.9385 11.192C44.8619 11.192 44.785 11.1698 44.7189 11.1258C44.5897 11.0397 44.5258 10.8862 44.557 10.7366C45.1098 8.06967 46.1953 6.01536 47.8759 4.45601C47.9836 4.35598 48.1403 4.32467 48.2798 4.37514C48.4194 4.4256 48.5169 4.54934 48.5315 4.69376C48.5399 4.77615 48.7339 6.72648 48.591 8.33022C48.5527 8.76012 48.3178 9.14046 47.9469 9.37334L45.1494 11.1312C45.0849 11.172 45.0117 11.192 44.9385 11.192ZM47.8198 5.60857C46.7665 6.7809 46.0127 8.22473 45.5353 9.98504L47.5255 8.73428C47.6921 8.62969 47.7977 8.45852 47.8151 8.26455C47.8955 7.36342 47.8616 6.31939 47.8198 5.60857Z" fill="#4B2710"/>
<path d="M67.8999 22.24C67.8482 22.24 67.7962 22.2357 67.7436 22.2275C67.3785 22.1691 67.0904 21.9168 66.9917 21.5687L66.5223 19.9126C66.3289 19.2295 66.5647 18.4947 67.1231 18.0404C68.0971 17.2482 69.1355 16.7985 70.2097 16.7039C70.3206 16.6939 70.4299 16.731 70.5109 16.8052C70.5918 16.8794 70.6367 16.9837 70.6339 17.0919C70.5987 18.4488 69.9758 19.9561 68.6742 21.8356C68.496 22.0928 68.2089 22.24 67.8999 22.24ZM67.2729 19.7102L67.7423 21.3662C67.7657 21.4492 67.832 21.4717 67.8694 21.4775C67.9077 21.4839 67.9787 21.4829 68.0292 21.41C69.094 19.8725 69.6712 18.6239 69.8185 17.5273C69.062 17.679 68.3394 18.0404 67.6218 18.6242C67.2979 18.8878 67.1608 19.314 67.2729 19.7102Z" fill="#4B2710"/>
<path d="M21.3641 36.3472C21.3641 38.2081 19.1045 38.5514 16.3172 38.5514C13.53 38.5514 11.2704 38.2081 11.2704 36.3472C11.2704 34.4862 13.5297 32.9774 16.3172 32.9774C19.1048 32.9774 21.3641 34.4862 21.3641 36.3472Z" fill="#FF8500"/>
<g opacity="0.3">
<path opacity="0.3" d="M20.9691 36.347C20.9691 38.2077 18.7095 38.5512 15.9235 38.5512C13.2855 38.5512 11.1193 38.2442 10.895 36.6328C11.8076 36.9475 13.0612 37.0311 14.4472 37.0311C17.2347 37.0311 19.4944 36.6875 19.4944 34.8269C19.4944 34.4773 19.4149 34.1413 19.267 33.8251C20.3104 34.4408 20.9691 35.3422 20.9691 36.347Z" fill="#000072"/>
</g>
<g opacity="0.66">
<path opacity="0.66" d="M20.7387 35.3379C19.823 34.4836 18.3264 33.9272 16.6336 33.9272C13.8461 33.9272 11.5865 35.4367 11.5865 37.2973C11.5865 37.4813 11.6083 37.65 11.6519 37.8066C11.1613 37.4752 10.8763 37.007 10.8763 36.3473C10.8763 34.4866 13.136 32.9771 15.9235 32.9771C18.1831 32.9771 20.0955 33.9698 20.7387 35.3379Z" fill="white"/>
</g>
<path d="M14.4823 36.1221L14.7159 38.4205C14.7414 38.6722 14.553 38.8969 14.2951 38.9218C14.0372 38.9468 13.8071 38.7628 13.7815 38.5111C13.7784 38.4813 13.7787 38.4494 13.7815 38.4205L14.0151 36.1221C14.0279 35.9962 14.1428 35.9041 14.2718 35.9165C14.3851 35.9278 14.4714 36.0156 14.4823 36.1221Z" fill="#4B2710"/>
<path d="M17.8307 36.1221L18.0643 38.4205C18.0898 38.6722 17.9014 38.8969 17.6435 38.9218C17.3856 38.9468 17.1554 38.7628 17.1299 38.5111C17.1268 38.4813 17.1271 38.4494 17.1299 38.4205L17.3635 36.1221C17.3763 35.9962 17.4912 35.9041 17.6201 35.9165C17.7335 35.9278 17.8198 36.0156 17.8307 36.1221Z" fill="#4B2710"/>
<path d="M37.4945 36.3472C37.4945 38.2081 35.2349 38.5514 32.4476 38.5514C29.6604 38.5514 27.4008 38.2081 27.4008 36.3472C27.4008 34.4862 29.6604 32.9774 32.4476 32.9774C35.2352 32.9774 37.4945 34.4862 37.4945 36.3472Z" fill="#FF8500"/>
<g opacity="0.3">
<path opacity="0.3" d="M37.4939 36.347C37.4939 38.2077 35.2343 38.5512 32.4483 38.5512C29.8102 38.5512 27.644 38.2442 27.4198 36.6328C28.3324 36.9475 29.586 37.0311 30.972 37.0311C33.7595 37.0311 36.0191 36.6875 36.0191 34.8269C36.0191 34.4773 35.9397 34.1413 35.7918 33.8251C36.8352 34.4408 37.4939 35.3422 37.4939 36.347Z" fill="#000072"/>
</g>
<g opacity="0.66">
<path opacity="0.66" d="M37.2636 35.3379C36.3479 34.4836 34.8513 33.9272 33.1585 33.9272C30.371 33.9272 28.1114 35.4367 28.1114 37.2973C28.1114 37.4813 28.1332 37.65 28.1768 37.8066C27.6862 37.4752 27.4012 37.007 27.4012 36.3473C27.4012 34.4866 29.6609 32.9771 32.4484 32.9771C34.708 32.9771 36.6204 33.9698 37.2636 35.3379Z" fill="white"/>
</g>
<path d="M31.0072 36.1221L31.2408 38.4205C31.2663 38.6722 31.0779 38.8969 30.82 38.9218C30.5621 38.9468 30.332 38.7628 30.3064 38.5111C30.3033 38.4813 30.3036 38.4494 30.3064 38.4205L30.54 36.1221C30.5528 35.9962 30.6677 35.9041 30.7967 35.9165C30.91 35.9278 30.9966 36.0156 31.0072 36.1221Z" fill="#4B2710"/>
<path d="M34.3555 36.1221L34.5891 38.4205C34.6146 38.6722 34.4262 38.8969 34.1683 38.9218C33.9104 38.9468 33.6802 38.7628 33.6547 38.5111C33.6516 38.4813 33.6519 38.4494 33.6547 38.4205L33.8883 36.1221C33.901 35.9962 34.016 35.9041 34.1449 35.9165C34.2583 35.9278 34.3449 36.0156 34.3555 36.1221Z" fill="#4B2710"/>
<path d="M16.3168 39.0833C14.5016 39.0833 10.7249 39.0833 10.7249 36.3471C10.7249 34.1958 13.2333 32.4455 16.3168 32.4455C19.4002 32.4455 21.9087 34.1958 21.9087 36.3471C21.9087 39.0833 18.1316 39.0833 16.3168 39.0833ZM16.3168 33.5093C13.8765 33.5093 11.815 34.8087 11.815 36.3468C11.815 37.5346 13.1193 38.0189 16.3168 38.0189C19.5142 38.0189 20.8186 37.5346 20.8186 36.3468C20.8186 34.809 18.7567 33.5093 16.3168 33.5093Z" fill="#4B2710"/>
<path d="M32.4481 39.0833C30.6329 39.0833 26.8562 39.0833 26.8562 36.3471C26.8562 34.1958 29.3647 32.4455 32.4481 32.4455C35.5315 32.4455 38.04 34.1958 38.04 36.3471C38.0397 39.0833 34.263 39.0833 32.4481 39.0833ZM32.4481 33.5093C30.0078 33.5093 27.9463 34.8087 27.9463 36.3468C27.9463 37.5346 29.2507 38.0189 32.4481 38.0189C35.6455 38.0189 36.9499 37.5346 36.9499 36.3468C36.9496 34.809 34.8881 33.5093 32.4481 33.5093Z" fill="#4B2710"/>
<path d="M62.0048 33.9505C61.6189 33.9505 61.2196 33.9314 60.806 33.8931C60.5064 33.8654 60.2865 33.6058 60.3148 33.313C60.3432 33.0205 60.6086 32.8062 60.9088 32.8335C63.3254 33.0579 65.1751 32.5642 66.4073 31.3672C67.8674 29.9489 68.4816 27.4833 68.1832 24.2363C68.1704 24.0973 68.214 23.959 68.3047 23.8511C70.0376 21.7901 71.3025 19.3892 72.1714 16.5112C72.2558 16.2315 72.2222 15.9357 72.0767 15.6785C71.9266 15.4128 71.6781 15.2212 71.3772 15.1382C69.7218 14.6822 67.5273 14.5384 64.4706 14.6874C64.2526 14.6983 64.0505 14.5813 63.9545 14.3909C61.8435 10.2066 58.3679 8.14897 53.3295 8.10093C53.0825 8.0985 52.8679 7.93433 52.8069 7.70053C52.301 5.76692 51.5199 4.15983 50.4849 2.92457C50.0346 2.38675 49.2388 2.28976 48.6735 2.70385C45.6738 4.90014 43.5285 8.13255 42.1142 12.5859C42.0753 12.7079 41.993 12.8121 41.8822 12.8796C39.6446 14.2432 36.9359 16.5155 36.7381 19.5968C36.5562 22.4334 38.4835 25.4761 42.4665 28.6407C42.7 28.8262 42.7352 29.1612 42.5449 29.3892C42.355 29.6172 42.0117 29.6516 41.7781 29.4661C37.5065 26.0723 35.445 22.7292 35.6499 19.5302C35.8262 16.7797 37.7211 14.2076 41.1328 12.0825C42.6184 7.50413 44.8725 4.15618 48.0188 1.85227C49.0532 1.09494 50.507 1.27006 51.3284 2.25085C52.3923 3.52138 53.2077 5.13272 53.7549 7.04535C58.8289 7.20527 62.5312 9.4116 64.7696 13.6084C67.7665 13.4825 69.9663 13.6443 71.6725 14.1143C72.2558 14.2748 72.738 14.6479 73.0301 15.1644C73.3176 15.6724 73.3836 16.258 73.216 16.8122C72.3412 19.7099 71.0196 22.247 69.2867 24.3573C69.5723 27.8712 68.8625 30.4825 67.175 32.1212C65.9248 33.3373 64.1884 33.9505 62.0048 33.9505Z" fill="#4B2710"/>
<path d="M38.3311 33.8956C38.2722 33.8956 38.2124 33.8862 38.1536 33.8664C37.8689 33.7706 37.7178 33.4678 37.8159 33.1899C38.6285 30.8869 39.5146 29.1801 40.6041 27.8187C40.7894 27.587 41.132 27.5463 41.3694 27.7269C41.6064 27.9078 41.6487 28.2422 41.4634 28.4736C40.4506 29.7395 39.619 31.3481 38.8469 33.5362C38.7687 33.7572 38.5572 33.8956 38.3311 33.8956Z" fill="#4B2710"/>
<path d="M45.7231 36.3472C45.7231 38.2081 43.4635 38.5514 40.6763 38.5514C37.889 38.5514 35.6294 38.2081 35.6294 36.3472C35.6294 34.4862 37.8887 32.9774 40.6763 32.9774C43.4638 32.9774 45.7231 34.4862 45.7231 36.3472Z" fill="white"/>
<path d="M63.5595 36.3472C63.5595 38.2081 61.2999 38.5514 58.5127 38.5514C55.7254 38.5514 53.4658 38.2081 53.4658 36.3472C53.4658 34.4862 55.7251 32.9774 58.5124 32.9774C61.2999 32.9774 63.5595 34.4862 63.5595 36.3472Z" fill="white"/>
<g opacity="0.3">
<path opacity="0.3" d="M63.5591 36.347C63.5591 38.2077 61.2995 38.5512 58.5135 38.5512C55.8754 38.5512 53.7092 38.2442 53.485 36.6328C54.3976 36.9475 55.6512 37.0311 57.0372 37.0311C59.8247 37.0311 62.0843 36.6875 62.0843 34.8269C62.0843 34.4773 62.0049 34.1413 61.857 33.8251C62.9004 34.4408 63.5591 35.3422 63.5591 36.347Z" fill="#000072"/>
</g>
<g opacity="0.66">
<path opacity="0.66" d="M63.3286 35.3379C62.4129 34.4836 60.9164 33.9272 59.2236 33.9272C56.4361 33.9272 54.1764 35.4367 54.1764 37.2973C54.1764 37.4813 54.1982 37.65 54.2418 37.8066C53.7513 37.4752 53.4663 37.007 53.4663 36.3473C53.4663 34.4866 55.7259 32.9771 58.5135 32.9771C60.7731 32.9771 62.6855 33.9698 63.3286 35.3379Z" fill="white"/>
</g>
<g opacity="0.3">
<path opacity="0.3" d="M45.7222 36.347C45.7222 38.2077 43.4625 38.5512 40.6766 38.5512C38.0385 38.5512 35.8723 38.2442 35.6481 36.6328C36.5606 36.9475 37.8143 37.0311 39.2002 37.0311C41.9878 37.0311 44.2474 36.6875 44.2474 34.8269C44.2474 34.4773 44.168 34.1413 44.0201 33.8251C45.0634 34.4408 45.7222 35.3422 45.7222 36.347Z" fill="#000072"/>
</g>
<g opacity="0.66">
<path opacity="0.66" d="M45.4922 35.3379C44.5765 34.4836 43.08 33.9272 41.3872 33.9272C38.5996 33.9272 36.34 35.4367 36.34 37.2973C36.34 37.4813 36.3618 37.65 36.4054 37.8066C35.9149 37.4752 35.6299 37.007 35.6299 36.3473C35.6299 34.4866 37.8895 32.9771 40.6771 32.9771C42.9367 32.9771 44.849 33.9698 45.4922 35.3379Z" fill="white"/>
</g>
<path d="M40.6763 39.0833C38.8611 39.0833 35.0844 39.0833 35.0844 36.3471C35.0844 34.1958 37.5928 32.4455 40.6763 32.4455C43.7597 32.4455 46.2682 34.1958 46.2682 36.3471C46.2682 39.0833 42.4911 39.0833 40.6763 39.0833ZM40.6763 33.5093C38.236 33.5093 36.1745 34.8087 36.1745 36.3468C36.1745 37.5346 37.4788 38.0189 40.6763 38.0189C43.8737 38.0189 45.1781 37.5346 45.1781 36.3468C45.1781 34.809 43.1162 33.5093 40.6763 33.5093Z" fill="#4B2710"/>
<path d="M58.5132 39.0833C56.698 39.0833 52.9213 39.0833 52.9213 36.3471C52.9213 34.1958 55.4297 32.4455 58.5132 32.4455C61.5966 32.4455 64.1051 34.1958 64.1051 36.3471C64.1054 39.0833 60.3284 39.0833 58.5132 39.0833ZM58.5132 33.5093C56.0729 33.5093 54.0114 34.8087 54.0114 36.3468C54.0114 37.5346 55.3158 38.0189 58.5132 38.0189C61.7106 38.0189 63.015 37.5346 63.015 36.3468C63.0153 34.809 60.9535 33.5093 58.5132 33.5093Z" fill="#4B2710"/>
<path d="M57.0723 36.1221L57.3059 38.4205C57.3314 38.6722 57.143 38.8969 56.8851 38.9218C56.6272 38.9468 56.397 38.7628 56.3715 38.5111C56.3684 38.4813 56.3687 38.4494 56.3715 38.4205L56.6051 36.1221C56.6178 35.9962 56.7328 35.9041 56.8617 35.9165C56.9754 35.9278 57.0617 36.0156 57.0723 36.1221Z" fill="#4B2710"/>
<path d="M60.4202 36.1221L60.6538 38.4205C60.6793 38.6722 60.4909 38.8969 60.233 38.9218C59.9751 38.9468 59.7449 38.7628 59.7194 38.5111C59.7163 38.4813 59.7166 38.4494 59.7194 38.4205L59.953 36.1221C59.9657 35.9962 60.0807 35.9041 60.2096 35.9165C60.3233 35.9278 60.4096 36.0156 60.4202 36.1221Z" fill="#4B2710"/>
<path d="M39.2353 36.1221L39.4689 38.4205C39.4945 38.6722 39.306 38.8969 39.0482 38.9218C38.7903 38.9468 38.5601 38.7628 38.5346 38.5111C38.5315 38.4813 38.5318 38.4494 38.5346 38.4205L38.7682 36.1221C38.7809 35.9962 38.8959 35.9041 39.0248 35.9165C39.1382 35.9278 39.2244 36.0156 39.2353 36.1221Z" fill="#4B2710"/>
<path d="M42.5842 36.1221L42.8178 38.4205C42.8434 38.6722 42.6549 38.8969 42.397 38.9218C42.1392 38.9468 41.909 38.7628 41.8834 38.5111C41.8803 38.4813 41.8806 38.4494 41.8834 38.4205L42.117 36.1221C42.1298 35.9962 42.2447 35.9041 42.3737 35.9165C42.4871 35.9278 42.5733 36.0156 42.5842 36.1221Z" fill="#4B2710"/>
<g opacity="0.1">
<path opacity="0.1" d="M68.7262 24.189C68.9972 27.1427 68.5518 29.5369 67.3215 31.1452C67.1331 31.3276 66.9727 31.51 66.8466 31.6894C66.8466 31.6909 66.845 31.6909 66.845 31.6924C66.1022 32.4327 65.1444 32.9511 63.9609 33.2156C63.1246 33.2673 61.9707 33.2688 60.3355 33.243C59.6192 33.2308 58.8109 33.2126 57.8968 33.1913C57.5589 33.1837 57.2069 33.1761 56.8394 33.167C47.6763 32.9496 43.9653 30.1176 43.9653 30.1176C42.8129 29.4958 41.8272 28.8559 40.9847 28.2083C37.9184 25.8536 36.7613 23.4199 36.3782 21.5486C36.3766 21.5471 36.3766 21.5455 36.3766 21.5425C36.0963 20.1683 36.2334 19.1012 36.3377 18.5919C36.3377 18.5889 36.3377 18.5874 36.3393 18.5843C36.3439 18.5661 36.3471 18.5478 36.3502 18.5311C36.3533 18.5129 36.358 18.4961 36.3611 18.4809C36.3938 18.3411 36.4187 18.2666 36.4187 18.2666C37.0678 27.7203 64.5374 35.836 65.5014 23.4898C65.5677 22.6416 66.285 21.9821 67.1565 21.9821C71.6315 21.9827 71.8501 18.9485 72.1413 18.2815C71.3238 20.4465 70.2056 22.4287 68.7262 24.189Z" fill="#4B2710"/>
</g>
<g opacity="0.3">
<path opacity="0.3" d="M37.0963 8.31434C36.4189 9.94697 35.4035 11.4671 34.1577 12.9112L36 14.6442C35.8909 14.8631 35.8255 14.9923 35.8255 14.9923C27.4536 20.5408 29.0529 7.77166 29.0529 7.77166C32.3606 13.7154 35.7523 6.13447 33.7434 3.18085C34.7136 3.82082 35.6324 4.57481 36.5045 5.42457C37.28 6.18007 37.5074 7.32169 37.0963 8.31434Z" fill="#4B2710"/>
</g>
<g opacity="0.3">
<path opacity="0.3" d="M6.65602 27.8435L7.05624 23.1737C5.69206 23.1281 4.37615 22.9487 3.12097 22.5976C2.63043 22.4607 2.1975 22.1962 1.86268 21.8451L1.85645 21.839L1.57458 21.4848C7.15591 22.2388 9.01531 20.2581 7.15591 15.5457C19.4787 24.9933 6.65602 27.8435 6.65602 27.8435Z" fill="#4B2710"/>
</g>
<g opacity="0.3">
<path opacity="0.3" d="M69.0385 40.8501C67.5753 49.9223 59.8268 54.6849 39.6827 50.9499L39.3899 51.9106L40.7743 55.921C41.1456 56.9964 42.1784 57.7206 43.341 57.7206H74.8646L69.0385 40.8501Z" fill="#000072"/>
</g>
<path d="M46.0434 13.7954C46.163 13.7254 46.2888 13.668 46.4178 13.6154C46.5473 13.567 46.684 13.5369 46.8211 13.5071C46.9584 13.4764 47.102 13.4752 47.245 13.4655C47.3883 13.4588 47.534 13.4804 47.6792 13.495C48.2644 13.5777 48.8138 13.8957 49.2277 14.2882C49.6451 14.6855 49.9341 15.1623 50.1338 15.6469C50.3322 16.1339 50.4511 16.6341 50.4963 17.1397C50.5053 17.2397 50.4296 17.3275 50.3272 17.3364C50.254 17.3427 50.1867 17.3066 50.1512 17.2488L50.1496 17.2461C49.8905 16.8226 49.651 16.4079 49.3859 16.03C49.1228 15.652 48.8372 15.3121 48.5164 15.0495C48.3588 14.9139 48.1847 14.8105 48.0093 14.7138C47.9187 14.6713 47.8249 14.6351 47.7343 14.5916C47.6368 14.563 47.5443 14.5217 47.4456 14.4901C47.344 14.4666 47.2465 14.4244 47.1406 14.401C47.0341 14.3794 46.9289 14.3414 46.8164 14.3192C46.704 14.2997 46.59 14.2642 46.471 14.2392C46.3517 14.2155 46.2293 14.1866 46.101 14.1456L46.0826 14.1395C45.9802 14.1067 45.9244 13.9991 45.958 13.899C45.9736 13.854 46.0048 13.8182 46.0434 13.7954Z" fill="#4B2710"/>
<path d="M62.1018 22.6898C61.9969 22.6065 61.9062 22.5214 61.8212 22.4362C61.7356 22.3517 61.6434 22.2772 61.5658 22.1954C61.4861 22.1149 61.3964 22.0489 61.3204 21.9729C61.2428 21.8981 61.1541 21.8409 61.079 21.7704C60.9983 21.7063 60.9127 21.6524 60.8358 21.5877C60.7495 21.5366 60.6679 21.4791 60.5819 21.4278C60.4041 21.3356 60.2209 21.2484 60.0188 21.1921C59.6192 21.0702 59.172 21.0189 58.7038 21.0061C58.2348 20.9921 57.748 21.0189 57.2428 21.0344H57.2397C57.1369 21.0374 57.0512 20.9587 57.0478 20.8586C57.0456 20.7869 57.0864 20.7233 57.1475 20.692C57.6081 20.4567 58.1037 20.2846 58.631 20.1852C59.1567 20.0879 59.7235 20.0685 60.2916 20.1974C60.8532 20.3257 61.4241 20.606 61.8109 21.0423C61.9019 21.1535 61.9991 21.2618 62.0707 21.3834C62.1395 21.5062 62.2158 21.6248 62.2635 21.7543C62.3118 21.8832 62.3594 22.0118 62.3878 22.1444C62.4121 22.2784 62.4304 22.4131 62.4345 22.549C62.4376 22.6542 62.3532 22.7421 62.2454 22.7451C62.1968 22.7466 62.1517 22.7305 62.1165 22.7026L62.1018 22.6898Z" fill="#4B2710"/>
<path d="M53.489 24.1916C53.1127 24.7525 52.5499 25.0052 51.9466 25.0274C50.9263 25.0684 49.7916 24.4561 49.2578 23.593C48.9361 23.0743 48.833 22.4635 49.1018 21.8491C49.6861 22.2452 50.5703 22.4757 51.325 22.3635C51.5417 22.3322 51.7573 22.4471 51.847 22.6423C52.1572 23.323 52.8327 23.924 53.489 24.1916Z" fill="#4B2710"/>
<path d="M54.4466 21.0769C53.8153 21.7278 53.0656 21.7783 52.2265 21.359L52.2259 21.3599C51.4124 20.8951 51.0514 20.2518 51.2725 19.3819C51.3784 18.9694 51.8646 18.7745 52.2458 18.9782L54.27 20.059C54.6512 20.2627 54.7453 20.7674 54.4466 21.0769Z" fill="#4B2710"/>
<path d="M48.9567 20.2992C48.8499 20.4403 48.7636 20.5844 48.7424 20.7218C48.7209 20.8577 48.7384 20.9766 48.8063 21.0933C48.9349 21.3302 49.2177 21.536 49.5232 21.6862C49.8319 21.837 50.1729 21.9483 50.519 22.003C50.6918 22.0307 50.8666 22.0453 51.0375 22.0389C51.0799 22.0358 51.1229 22.0352 51.1649 22.031L51.3119 22.0149C51.4829 21.9987 51.6549 22.0352 51.8022 22.114C51.9498 22.1918 52.0744 22.3137 52.1532 22.4624L52.2192 22.5925C52.2382 22.6296 52.2606 22.6652 52.2809 22.7013C52.3678 22.8452 52.4743 22.9811 52.5914 23.1081C52.825 23.3635 53.105 23.5836 53.4015 23.7566C53.6955 23.9269 54.026 24.0482 54.2998 24.0269C54.4371 24.0202 54.5489 23.9707 54.6545 23.8798C54.7616 23.7882 54.8395 23.6396 54.9037 23.4757L54.9071 23.4672C54.9423 23.3772 55.0454 23.3322 55.1376 23.3666C55.2114 23.3942 55.2556 23.4645 55.2522 23.5377C55.2419 23.749 55.1921 23.977 55.0504 24.1868C54.9099 24.3948 54.6645 24.5593 54.4119 24.6131C54.159 24.669 53.9107 24.6562 53.6849 24.6064C53.4576 24.5583 53.2473 24.4772 53.0514 24.3774C52.6593 24.1774 52.3226 23.9016 52.0379 23.5794C51.8965 23.417 51.7698 23.2413 51.6595 23.0525C51.6331 23.0045 51.605 22.9573 51.5807 22.9081L51.5181 22.7789C51.5072 22.7567 51.4882 22.7354 51.463 22.7211C51.4375 22.7077 51.4082 22.7038 51.3833 22.7071L51.2372 22.7254C51.1814 22.7317 51.126 22.7342 51.0702 22.7384C50.8479 22.7491 50.628 22.74 50.4115 22.7114C49.9798 22.6515 49.5603 22.5235 49.176 22.3092C48.9841 22.2015 48.8013 22.0726 48.6371 21.9115C48.4724 21.7522 48.3279 21.5549 48.24 21.3168C48.151 21.0797 48.1606 20.7899 48.2643 20.5622C48.369 20.333 48.5384 20.1688 48.7153 20.0466C48.7957 19.9909 48.9072 20.0092 48.9642 20.0879C49.01 20.1509 49.0068 20.2333 48.9623 20.2922L48.9567 20.2992Z" fill="#4B2710"/>
<path d="M52.0066 24.9191C50.9862 24.9601 49.8516 24.3478 49.3177 23.4847C50.467 22.8578 52.0931 23.8352 52.0066 24.9191Z" fill="#A51313"/>
<path d="M52.6345 21.3529L51.9447 22.5839C51.8509 22.7514 51.6354 22.8128 51.4638 22.7213C51.2922 22.6295 51.2292 22.4194 51.323 22.2519L52.0129 21.0209C52.1066 20.8534 52.3222 20.792 52.4938 20.8835C52.6654 20.975 52.7283 21.1854 52.6345 21.3529Z" fill="#4B2710"/>
<path d="M51.8531 25.3696C51.308 25.3696 50.7539 25.2167 50.2827 24.9704C49.1319 24.3691 48.1698 23.0931 48.7765 21.7119C48.8537 21.5364 49.0621 21.4556 49.2418 21.5304C49.4215 21.6058 49.505 21.8092 49.4278 21.9846C48.997 22.9654 49.7423 23.9039 50.6172 24.3609C51.479 24.8111 52.6093 24.8747 53.1927 24.0021C53.2995 23.8419 53.5188 23.7972 53.6829 23.9012C53.8467 24.0055 53.8931 24.2198 53.786 24.3797C53.3119 25.089 52.5912 25.3696 51.8531 25.3696Z" fill="#4B2710"/>
<path d="M0.594831 77.8365C1.38344 77.6918 2.17174 77.6185 2.96035 77.5584C3.74896 77.4978 4.53726 77.4787 5.32587 77.4611C6.90278 77.4231 8.47969 77.4431 10.0566 77.4638L12.4221 77.4805L14.7876 77.4814H19.5184H38.4419L57.3655 77.4814H66.8273L69.1928 77.4808C69.9814 77.4811 70.7697 77.4568 71.5583 77.4455C72.3469 77.434 73.1352 77.4519 73.9238 77.4963C74.3181 77.5216 74.7124 77.5568 75.1064 77.6128C75.5007 77.6672 75.895 77.7319 76.289 77.8359C76.3893 77.8624 76.4488 77.9633 76.4217 78.0612C76.4036 78.1263 76.3513 78.174 76.289 78.1904C75.8947 78.2947 75.5004 78.3592 75.1064 78.4136C74.7121 78.4695 74.3178 78.5048 73.9238 78.53C73.1352 78.5747 72.3469 78.5923 71.5583 78.5808C70.7697 78.5695 69.9814 78.5452 69.1928 78.5455L66.8273 78.5449H57.3655L38.4419 78.5449H19.5181H14.7873L12.4218 78.5458L10.0563 78.5625C8.47938 78.5832 6.90247 78.6036 5.32556 78.5653C4.53695 78.548 3.74865 78.5288 2.96004 78.468C2.17143 78.4078 1.38313 78.3345 0.594519 78.1898C0.49423 78.1713 0.428201 78.077 0.446889 77.9791C0.461839 77.9055 0.522261 77.8499 0.594831 77.8365Z" fill="#4B2710"/>
</svg>
