<svg width="67" height="75" viewBox="0 0 67 75" fill="none" xmlns="http://www.w3.org/2000/svg">
<g clip-path="url(#clip0_168_4848)">
<g opacity="0.2">
<g opacity="0.2">
<path opacity="0.2" d="M37.9334 74.6247C53.6093 74.6247 66.3172 72.2626 66.3172 69.3488C66.3172 66.4351 53.6093 64.073 37.9334 64.073C22.2574 64.073 9.54956 66.4351 9.54956 69.3488C9.54956 72.2626 22.2574 74.6247 37.9334 74.6247Z" fill="#4B2710"/>
</g>
</g>
<path d="M58.3357 67.6829L57.8475 67.8704C57.8475 67.8704 57.8475 67.8716 57.8463 67.8716L57.4381 68.0279L57.333 68.0679L56.8393 68.258H56.838L56.087 68.2205L52.1876 68.0267L50.8569 65.8691L51.3714 64.3594L51.41 64.2456L53.4849 64.4782C53.4849 64.4782 53.5015 64.4845 53.5332 64.4944C53.8764 64.6195 55.9302 65.3574 56.0174 65.405C56.1115 65.4563 58.0148 66.0878 58.2221 66.2518C58.4298 66.4157 58.3357 67.6829 58.3357 67.6829Z" fill="white"/>
<path d="M50.7667 65.4051L44.3998 66.0519L45.1398 63.6154L47.4609 55.9805C48.6047 56.1544 49.5482 56.5158 50.2798 57.04C52.4723 58.6068 52.7531 61.6263 50.7667 65.4051Z" fill="white"/>
<path d="M22.2245 66.6971L16.657 65.4052C16.0788 64.666 15.5988 63.9531 15.2227 63.27C13.1936 59.5802 14.1978 56.7284 19.1123 54.9546L20.6143 57.2748L21.1109 60.1791L22.2245 66.6971Z" fill="white"/>
<g opacity="0.3">
<g opacity="0.3">
<path opacity="0.3" d="M50.7667 65.4052L44.3998 66.0519L45.1398 63.6154C45.7264 63.3352 46.3225 63.0639 46.9034 62.8049C51.316 60.8348 50.3131 57.1575 50.2798 57.04C52.4723 58.6069 52.7531 61.6263 50.7667 65.4052Z" fill="#4B2710"/>
</g>
</g>
<g opacity="0.55">
<g opacity="0.55">
<path opacity="0.55" d="M15.8686 63.7917C16.1673 64.3346 16.5324 64.8961 16.9613 65.4753L16.657 65.4052C16.0788 64.666 15.5988 63.9531 15.2227 63.27C13.1936 59.5802 14.1978 56.7284 19.1123 54.9546L19.5092 55.5687C14.8105 57.3474 13.8741 60.1655 15.8686 63.7917Z" fill="white"/>
</g>
</g>
<path d="M43.1314 66.9534C43.0222 67.0223 42.9102 67.0898 42.7979 67.156L33.3106 68.1154L31.5746 68.2904L22.8825 66.0514C17.6345 62.504 17.5709 54.6753 22.5186 45.8459C22.885 45.188 23.2822 44.525 23.7054 43.8584L44.8891 47.3933C45.2599 48.2976 45.5903 49.162 45.8808 49.9861C46.0483 50.4601 46.2017 50.9205 46.3441 51.3682C49.295 60.6544 46.956 64.5606 43.1314 66.9534Z" fill="white"/>
<g opacity="0.3">
<g opacity="0.3">
<path opacity="0.3" d="M22.2246 66.697L16.6571 65.4051C16.0789 64.6658 15.5989 63.9529 15.2228 63.2698C18.9615 63.6727 19.2604 61.565 19.1538 60.4104C19.588 62.4029 20.5341 64.0903 21.9976 65.3699L22.2246 66.697Z" fill="#4B2710"/>
</g>
</g>
<g opacity="0.55">
<g opacity="0.55">
<path opacity="0.55" d="M23.6739 46.2251C18.7857 54.9493 18.7886 62.6957 23.8524 66.3018L22.8827 66.0516C17.6348 62.5042 17.5711 54.6756 22.5189 45.8461C22.8853 45.1882 23.2824 44.5253 23.7056 43.8586L44.8894 47.3935C44.917 47.461 44.9433 47.5274 44.9709 47.5935L24.8606 44.2376C24.4374 44.9043 24.0406 45.5672 23.6739 46.2251Z" fill="white"/>
</g>
</g>
<g opacity="0.3">
<g opacity="0.3">
<path opacity="0.3" d="M44.9643 55.3956C44.951 55.5866 44.9265 55.7816 44.8897 55.9802C44.3621 58.8165 43.3181 64.9408 43.0723 66.3862C46.3828 63.9425 48.1784 59.9563 45.4497 51.3684C45.3073 50.9205 45.1536 50.4604 44.9863 49.9864C44.6959 49.162 44.3652 48.2979 43.9947 47.3935L23.6215 43.9939C23.6499 43.9488 23.6775 43.9037 23.7062 43.8586C23.283 44.5253 22.8858 45.1882 22.5194 45.8461C27.3401 49.2059 34.368 51.448 41.1277 51.648C43.3393 51.7135 45.1042 53.3982 44.9643 55.3956Z" fill="#4B2710"/>
</g>
</g>
<path d="M61.3745 12.9312C56.6771 11.9032 52.0007 12.3684 47.3366 14.0257H47.3353C43.3114 11.992 38.5867 11.1725 33.9819 11.7293C30.0772 9.00001 26.0574 6.74617 21.7364 5.74793C20.3865 5.43645 19.0392 6.25202 18.8262 7.49652C18.179 11.2689 18.425 15.688 19.0323 20.3673C18.5413 21.039 18.0793 21.7531 17.6492 22.5073C17.6492 22.5073 17.6492 22.5073 17.6479 22.5085C16.1747 25.0939 15.0806 28.1633 14.5024 31.7431C13.0361 43.0054 37.4442 52.1888 50.8723 45.5207C53.7646 44.0848 55.8573 41.6119 56.7357 38.7352C57.9265 34.8389 58.1922 31.3003 57.7399 28.1583C61.0761 24.4109 63.0832 20.1832 63.3555 15.3301C63.4189 14.2046 62.5861 13.1965 61.3745 12.9312ZM21.1677 9.59798C21.3352 8.98267 22.0586 8.62726 22.7143 8.84994C25.0614 9.64423 27.0657 11.1077 28.8751 12.9525C26.2193 13.9281 23.7212 15.4265 21.5579 17.4865C20.9713 14.6523 20.5466 11.8907 21.1677 9.59798ZM60.9485 16.9489C60.3205 19.7945 58.7852 22.0222 56.5651 23.787C55.518 21.2129 53.9288 19.009 51.9687 17.2102C54.8099 16.2871 57.5003 15.5666 59.6636 15.5592C60.4795 15.5567 61.1088 16.2247 60.9485 16.9489Z" fill="white"/>
<path d="M61.3746 12.9313C56.6772 11.9032 52.0007 12.3684 47.3366 14.0257H47.3351C46.8423 13.7767 46.3388 13.5461 45.8264 13.3336C43.5605 15.3289 42.1526 18.1169 42.1526 21.2027C42.1526 27.269 47.5905 32.1864 54.2988 32.1864C55.5666 32.1864 56.7889 32.0104 57.9378 31.6846C57.9695 30.4598 57.9012 29.2832 57.7394 28.1583C61.0756 24.4109 63.0827 20.1832 63.355 15.3301C63.419 14.2047 62.5861 13.1965 61.3746 12.9313ZM60.9485 16.949C60.3205 19.7945 58.7852 22.0222 56.5652 23.787C55.518 21.2129 53.9288 19.009 51.9688 17.2103C54.81 16.2872 57.5003 15.5666 59.6636 15.5592C60.4796 15.5567 61.1089 16.2247 60.9485 16.949Z" fill="#FFA910"/>
<g opacity="0.55">
<g opacity="0.55">
<path opacity="0.55" d="M28.2109 13.2089C25.8027 14.1834 23.5399 15.5992 21.5579 17.4868C21.338 16.4224 21.1401 15.368 21.013 14.3448C21.114 15.6744 21.3656 17.0715 21.6589 18.4873C23.5517 16.6849 25.7006 15.3125 27.9872 14.3438C28.4715 14.1387 28.593 13.5618 28.2189 13.2161L28.2109 13.2089ZM61.3745 12.9312C56.6771 11.9032 52.0007 12.3684 47.3365 14.0257H47.3352C43.3114 11.992 38.5866 11.1725 33.9818 11.7293C30.0771 9.00001 26.0574 6.74617 21.7364 5.74793C20.3865 5.43645 19.0391 6.25202 18.8261 7.49652C18.2743 10.7137 18.3725 14.4021 18.7901 18.3197C18.461 14.7749 18.4221 11.4391 18.9271 8.49708C19.1401 7.25257 20.4875 6.43701 21.8374 6.74848C26.1584 7.74672 30.1781 10.0006 34.0828 12.7298C38.6874 12.1732 43.4124 12.9925 47.4362 15.0262H47.4375C52.1017 13.369 56.7783 12.9037 61.4755 13.9318C62.3843 14.1306 63.0785 14.746 63.3427 15.5164C63.3483 15.4552 63.3508 15.3925 63.3552 15.3301C63.4189 14.2046 62.586 13.1965 61.3745 12.9312Z" fill="white"/>
</g>
</g>
<path d="M35.7148 54.0835C34.4347 53.4067 33.1546 53.4067 31.8746 54.0835L31.2908 65.494C31.2908 65.494 33.1649 68.0177 33.2654 67.8235C33.3659 67.6293 35.0827 65.494 35.0827 65.494L35.7148 54.0835Z" fill="#FFA910"/>
<path d="M38.9569 33.9523C38.3719 36.5366 37.64 38.5666 36.8532 40.0874C33.9859 45.6385 30.3896 44.4164 30.4712 38.6001C30.496 36.824 30.8627 34.6201 31.6994 32.0472C31.9346 31.3218 32.6192 30.7876 33.4492 30.6889L34.4132 30.5763C35.5862 30.4376 36.5448 29.6595 36.8213 28.6189L36.7287 28.9692C36.5032 29.8273 36.7786 30.7291 37.4562 31.362L38.4051 32.2463C38.8892 32.6976 39.0953 33.3356 38.9569 33.9523Z" fill="#4B2710"/>
<path d="M21.5395 69.3441H17.1889C16.5539 69.3441 15.965 69.0268 15.6789 68.5139C14.6678 66.7015 17.0922 64.5922 19.7265 65.0262C21.6594 65.2856 22.982 66.1944 23.2229 67.5918C23.3822 68.5151 22.5726 69.3441 21.5395 69.3441Z" fill="white"/>
<g opacity="0.3">
<g opacity="0.3">
<path opacity="0.3" d="M21.5398 69.3437H17.1884C16.5534 69.3437 15.9656 69.026 15.6792 68.5145C15.5866 68.3469 15.5214 68.1769 15.4856 68.0067C15.5201 68.0093 15.5546 68.0104 15.5894 68.0104H19.9408C20.9726 68.0104 21.7832 67.1812 21.6242 66.2581C21.573 65.9668 21.4761 65.6965 21.3352 65.4502C22.3767 65.8967 23.0572 66.6272 23.2234 67.5917C23.3822 68.5145 22.5731 69.3437 21.5398 69.3437Z" fill="#4B2710"/>
</g>
</g>
<path d="M45.4115 69.8516H50.1882C50.8853 69.8516 51.5319 69.5144 51.846 68.9694C52.956 67.0432 50.2943 64.8014 47.402 65.2627C45.2798 65.5384 43.8279 66.5045 43.5633 67.9894C43.3886 68.9706 44.2772 69.8516 45.4115 69.8516Z" fill="white"/>
<g opacity="0.3">
<g opacity="0.3">
<path opacity="0.3" d="M51.8457 68.9699C51.5317 69.514 50.8858 69.8516 50.1887 69.8516H45.4113C44.425 69.8516 43.6242 69.1849 43.5482 68.3657C43.6147 68.3719 43.6825 68.3756 43.7515 68.3756H48.5289C49.226 68.3756 49.8719 68.0392 50.1859 67.4937C50.5414 66.8758 50.5097 66.2265 50.2054 65.6438C51.6962 66.3345 52.5676 67.7191 51.8457 68.9699Z" fill="#4B2710"/>
</g>
</g>
<path d="M60.9485 16.9491C60.3205 19.7946 58.7852 22.0223 56.5651 23.7871C55.518 21.213 53.9288 19.0091 51.9688 17.2103C54.8099 16.2873 57.5003 15.5667 59.6636 15.5593C60.4795 15.5568 61.1088 16.2248 60.9485 16.9491Z" fill="#F962BB"/>
<g opacity="0.3">
<g opacity="0.3">
<path opacity="0.3" d="M60.9485 16.9491C60.8531 17.3805 60.7368 17.7984 60.6 18.2023C60.3732 18.0322 60.0799 17.9272 59.7561 17.9283C58.0217 17.9346 55.9468 18.3987 53.728 19.0591C53.1831 18.4024 52.5953 17.7857 51.9685 17.2103C54.8097 16.2873 57.5 15.5667 59.6633 15.5593C60.4796 15.5568 61.1089 16.2248 60.9485 16.9491Z" fill="#4B2710"/>
</g>
</g>
<path d="M36.8698 39.9912C36.8657 40.0225 36.8601 40.0537 36.8532 40.0863C36.8532 40.0863 36.8532 40.0863 36.8532 40.0874C34.0537 45.506 30.5596 44.4703 30.4712 39.0066V39.0055C30.4699 38.873 30.4699 38.7377 30.4712 38.6001C31.6303 37.1616 33.1006 36.1636 34.1202 38.1323C35.3565 36.9117 37.2472 37.7635 36.8698 39.9912Z" fill="#F42552"/>
<g opacity="0.55">
<g opacity="0.55">
<path opacity="0.55" d="M36.9112 39.6358C36.7895 37.9911 35.2044 37.4694 34.1199 38.5389C33.1004 36.5701 31.6316 37.5681 30.4709 39.0055C30.4697 38.873 30.4697 38.7377 30.4709 38.6001C31.6301 37.1616 33.1004 36.1636 34.1199 38.1323C35.2888 36.9792 37.0411 37.6759 36.9112 39.6358Z" fill="white"/>
</g>
</g>
<path d="M28.8748 12.9526C26.219 13.9281 23.721 15.4265 21.5577 17.4866C20.9711 14.6524 20.5466 11.8905 21.1677 9.59781C21.3352 8.9825 22.0586 8.62709 22.7143 8.84977C25.0614 9.64429 27.0657 11.1075 28.8748 12.9526Z" fill="#F962BB"/>
<g opacity="0.3">
<g opacity="0.3">
<path opacity="0.3" d="M28.8748 12.9526C28.1002 13.2377 27.338 13.5656 26.5954 13.9406C25.1238 12.6598 23.5136 11.6466 21.7003 11.0326C21.4362 10.9427 21.1608 10.9475 20.9148 11.0252C20.9618 10.5325 21.0447 10.0559 21.1679 9.59805C21.3354 8.98274 22.0588 8.62733 22.7145 8.85001C25.0614 9.6443 27.0656 11.1076 28.8748 12.9526Z" fill="#4B2710"/>
</g>
</g>
<path d="M40.1531 48.1542C38.851 48.1542 37.5091 48.0767 36.1341 47.9204C30.8511 47.3201 25.6843 45.6141 21.585 43.1165C19.0547 41.5751 17.1118 39.8418 15.8098 37.9648C14.3931 35.923 13.8147 33.8151 14.0901 31.6995C14.8038 27.279 16.3212 23.4401 18.6026 20.2756C17.9053 14.8423 17.8462 10.7606 18.4162 7.43911C18.5362 6.738 18.9801 6.11159 19.6339 5.72126C20.2829 5.33372 21.0866 5.2107 21.8392 5.38459C25.6162 6.25704 29.5156 8.14992 34.0992 11.3373C38.6536 10.8207 43.35 11.6261 47.3667 13.6128C52.2004 11.9278 56.9453 11.5759 61.4727 12.5667C62.8778 12.8743 63.8439 14.0448 63.7702 15.3496C63.5091 19.9986 61.6266 24.3444 58.1737 28.2692C58.6212 31.5638 58.2722 35.1179 57.1358 38.8354C56.2201 41.8348 54.01 44.3915 51.0722 45.8499C48.0011 47.3747 44.2792 48.1542 40.1531 48.1542ZM21.1503 6.05632C20.7777 6.05632 20.4131 6.15506 20.0911 6.34745C19.6321 6.62169 19.3204 7.0615 19.236 7.55403C18.6732 10.8343 18.7392 14.8918 19.4442 20.3237C19.4554 20.4116 19.4322 20.5004 19.3782 20.5742C17.1182 23.6676 15.6157 27.4437 14.9125 31.7976C14.4195 35.5871 16.9531 39.3897 22.0486 42.494C29.4621 47.011 42.0134 49.4914 50.672 45.1921C53.4145 43.8303 55.4786 41.4405 56.3349 38.6357C57.4601 34.9551 57.794 31.4463 57.3276 28.207C57.313 28.1055 57.3447 28.003 57.4158 27.9233C60.8748 24.0378 62.6819 19.9124 62.9404 15.3113C62.9939 14.3662 62.294 13.5187 61.2765 13.296C56.8617 12.3297 52.2224 12.6928 47.4879 14.375C47.3736 14.4157 47.2396 14.4076 47.1322 14.3533C43.1835 12.3575 38.5324 11.5576 34.0363 12.101C33.9261 12.1147 33.8151 12.0872 33.7274 12.0261C29.1778 8.84594 25.3347 6.96669 21.6336 6.11159C21.4727 6.07459 21.3106 6.05632 21.1503 6.05632ZM56.5651 24.1625C56.5311 24.1625 56.4968 24.1585 56.463 24.1509C56.3303 24.1206 56.2229 24.033 56.1756 23.9167C55.1804 21.4697 53.6656 19.3021 51.6731 17.474C51.5739 17.3827 51.5327 17.2522 51.5642 17.1271C51.5956 17.0023 51.6951 16.9008 51.8283 16.8573C54.3603 16.0346 57.2711 15.1924 59.6617 15.1841C59.6638 15.1841 59.6658 15.1841 59.6676 15.1841C60.1867 15.1841 60.6725 15.3915 61.0019 15.7536C61.3261 16.1102 61.4548 16.5726 61.355 17.0229C60.7411 19.8039 59.2216 22.1748 56.8389 24.069C56.7625 24.1298 56.6648 24.1625 56.5651 24.1625ZM52.7113 17.3702C54.4307 19.0496 55.7811 20.9858 56.7341 23.1388C58.7476 21.4057 59.9949 19.3516 60.5414 16.8756V16.8753C60.592 16.6471 60.526 16.4122 60.3608 16.2302C60.19 16.0422 59.9374 15.9344 59.6679 15.9344C59.6668 15.9344 59.6658 15.9344 59.6648 15.9344C57.58 15.9418 54.926 16.6688 52.7113 17.3702ZM21.5576 17.8622C21.5185 17.8622 21.4789 17.8571 21.4403 17.8467C21.2907 17.8067 21.1787 17.6944 21.15 17.5558C20.6125 14.9586 20.0952 11.9803 20.7649 9.50866C20.8741 9.10723 21.1687 8.76662 21.573 8.57377C21.9716 8.3837 22.4408 8.35618 22.8602 8.49885C25.0775 9.24921 27.1467 10.6246 29.1854 12.7039C29.2749 12.795 29.3097 12.9196 29.279 13.0382C29.2484 13.1568 29.156 13.2547 29.0313 13.3004C26.3253 14.2945 23.9122 15.7901 21.8588 17.7455C21.7791 17.8211 21.6696 17.8622 21.5576 17.8622ZM22.3084 9.15834C22.1892 9.15834 22.0706 9.18493 21.9599 9.23765C21.765 9.33061 21.6233 9.49455 21.5707 9.68763C20.9989 11.7983 21.3607 14.3683 21.8223 16.7091C23.6882 15.055 25.8198 13.7476 28.1744 12.813C26.3555 11.0445 24.5172 9.8606 22.5687 9.20135C22.4835 9.17267 22.3958 9.15834 22.3084 9.15834Z" fill="#4B2710"/>
<path d="M56.5636 24.1636C56.4575 24.1636 56.3511 24.127 56.2703 24.0537C56.1082 23.9071 56.1082 23.6697 56.2703 23.5231C56.4324 23.3765 56.6958 23.376 56.8579 23.5224C57.02 23.669 57.0205 23.906 56.8587 24.0524L56.8574 24.0535C56.7761 24.127 56.67 24.1636 56.5636 24.1636Z" fill="#4B2710"/>
<path d="M51.9688 17.5855H51.9675C51.7384 17.5855 51.5525 17.4174 51.5525 17.2103C51.5525 17.0031 51.7384 16.835 51.9675 16.835C52.1966 16.835 52.383 17.0031 52.383 17.2103C52.383 17.4174 52.1979 17.5855 51.9688 17.5855Z" fill="#4B2710"/>
<path d="M33.9844 12.1057C33.9199 12.1057 33.8552 12.0921 33.7964 12.0653C33.6601 12.0038 33.5665 11.8766 33.5665 11.7293C33.5665 11.5221 33.7524 11.354 33.9815 11.354C34.0915 11.354 34.1999 11.3947 34.2777 11.465C34.4398 11.6116 34.4398 11.8491 34.2777 11.9957C34.1969 12.0692 34.0905 12.1057 33.9844 12.1057Z" fill="#4B2710"/>
<path d="M26.7655 69.6842C26.1168 69.4366 25.5317 69.1401 25.0198 68.7875H25.0185C23.8041 67.9558 22.9935 66.8188 22.6767 65.309C22.6033 64.955 22.5688 64.5948 22.5578 64.2345L22.5522 64.0544L22.2244 54.0491L31.9759 54.2366C31.9759 54.2366 31.9702 54.3892 31.958 54.6581C31.9053 55.9815 31.7324 60.1354 31.5749 63.0073C31.4892 64.582 31.4074 65.7729 31.3537 65.9005C34.8365 68.1995 32.149 70.8723 26.7655 69.6842Z" fill="white"/>
<path d="M44.8894 54.9033L44.8188 55.4063V55.4125L43.5035 64.8349L43.4787 65.0124C43.4288 65.3702 43.3582 65.7267 43.2506 66.0731C42.5962 68.172 41.0804 69.4364 38.9296 70.0857C36.3236 70.4534 34.459 69.9118 33.6955 69.0276C32.9334 68.1496 33.2584 66.9338 35.0165 65.9381C34.9791 65.8067 35.0318 64.6159 35.1187 63.0412C35.3138 59.584 35.6872 54.2781 35.6872 54.2781L44.8894 54.9033Z" fill="white"/>
<path d="M43.5035 64.8346L43.4787 65.0122C43.4288 65.3699 43.3583 65.7265 43.2506 66.0729C42.5962 68.1718 41.0804 69.4362 38.9296 70.0855C33.7328 70.8196 31.4895 67.9355 35.0165 65.9378C34.9792 65.8065 35.0318 64.6156 35.1188 63.0409L35.1201 63.0398C37.3304 60.9159 42.1881 62.2466 43.5035 64.8346Z" fill="white"/>
<path d="M22.4319 54.0434L22.5741 56.1983L22.7048 58.3536L22.8247 60.5092C22.8643 61.2276 22.9088 61.946 22.9298 62.6652L22.9597 63.7437L22.9745 64.2806C22.9815 64.4531 22.9937 64.6242 23.0132 64.7928C23.0336 64.9618 23.0582 65.1274 23.0978 65.2922C23.139 65.4578 23.1745 65.625 23.2308 65.7859C23.3292 66.1122 23.4668 66.4258 23.6325 66.7247C23.9626 67.3239 24.4306 67.8548 24.999 68.289C25.5644 68.7277 26.2285 69.0662 26.9273 69.3382L26.8644 69.3194C27.2625 69.4013 27.662 69.4794 28.0647 69.5236C28.2657 69.5525 28.4672 69.5631 28.6684 69.5814C28.8694 69.5888 29.0712 69.6031 29.2712 69.5983C30.0687 69.5999 30.8747 69.4859 31.5398 69.183C31.8704 69.0325 32.1456 68.8209 32.322 68.5767C32.4021 68.4514 32.4599 68.32 32.487 68.1822C32.5043 68.0432 32.5069 67.9001 32.4673 67.7544C32.3995 67.4624 32.2059 67.1733 31.9663 66.913C31.7237 66.6517 31.4273 66.4172 31.1092 66.2035L31.1089 66.2033L30.9662 65.7656C30.9629 65.766 30.9606 65.7672 30.9596 65.7686C30.9591 65.7693 30.9588 65.77 30.9591 65.7709L30.9609 65.7538L30.9696 65.6761L30.9849 65.5043L31.0107 65.147L31.0563 64.4235L31.146 62.9695L31.2396 61.5134L31.3414 60.0571C31.4066 59.0859 31.472 58.1145 31.5452 57.1433C31.6137 56.1719 31.6886 55.2007 31.7684 54.2297C31.7768 54.1264 31.8763 54.0487 31.9906 54.0563C32.0996 54.0635 32.1824 54.1463 32.1829 54.2434C32.1842 55.2178 32.1773 56.1915 32.1614 57.1653C32.1499 58.1392 32.1287 59.1127 32.1024 60.0865L32.0632 61.5472L32.0052 63.0079C31.9868 63.4951 31.9548 63.9818 31.9231 64.4695C31.9078 64.7137 31.8896 64.9574 31.8653 65.2028L31.8277 65.5732C31.8198 65.6372 31.8132 65.6981 31.8027 65.7647L31.7855 65.868L31.7804 65.896L31.7689 65.9427C31.7607 65.9737 31.751 66.0047 31.7405 66.0347L31.5979 65.597L31.5981 65.5972C31.9571 65.8384 32.3021 66.108 32.6028 66.4315C32.6401 66.4722 32.6787 66.5113 32.7145 66.5536L32.8178 66.685C32.8892 66.7701 32.9488 66.8663 33.0086 66.9615L33.0536 67.033L33.092 67.1095L33.1671 67.2633C33.1912 67.3151 33.2073 67.3715 33.2272 67.4256C33.2454 67.4806 33.2676 67.5338 33.2771 67.5923C33.3369 67.8187 33.3413 68.0629 33.3057 68.3018C33.2607 68.5411 33.1608 68.7684 33.0268 68.9721C32.7432 69.3701 32.3404 69.6566 31.9198 69.8499C31.4968 70.0448 31.0524 70.1648 30.608 70.2418C30.1628 70.32 29.7156 70.348 29.2724 70.3486C29.0502 70.3535 28.8303 70.3385 28.6099 70.3299C28.3913 70.3105 28.1708 70.298 27.9545 70.2673C27.5188 70.2192 27.0917 70.1359 26.667 70.0483C26.6468 70.0441 26.6271 70.0383 26.6087 70.0314L26.6041 70.0295C25.8436 69.734 25.1049 69.3597 24.4607 68.8607C23.8146 68.3674 23.2694 67.7507 22.8907 67.0619C22.7004 66.7183 22.5439 66.3596 22.4324 65.9922C22.3693 65.8097 22.3286 65.6236 22.2834 65.4381C22.2389 65.2513 22.21 65.0598 22.1875 64.8716C22.1655 64.6827 22.1522 64.4945 22.1448 64.3076L22.1238 63.7661L22.0831 62.6878C22.0571 61.9689 22.0545 61.2493 22.0471 60.53L22.0259 58.3719L22.0154 56.2133L22.0164 54.0545C22.0164 53.9509 22.1095 53.8667 22.224 53.8669C22.335 53.8669 22.425 53.9453 22.4319 54.0434Z" fill="#4B2710"/>
<path d="M31.2356 66.2848C30.8571 66.0795 30.4493 65.9188 30.0227 65.8191C29.597 65.7192 29.1528 65.6811 28.714 65.7169C28.2757 65.7523 27.8433 65.8621 27.45 66.0478C27.0565 66.2326 26.7034 66.4932 26.419 66.8107C26.3469 66.8914 26.2162 66.9041 26.127 66.8389C26.0419 66.7769 26.026 66.6654 26.0869 66.5854C26.3761 66.2099 26.754 65.8843 27.1918 65.6408C27.629 65.3964 28.1236 65.2339 28.6335 65.1587C29.1436 65.0829 29.6686 65.0935 30.1767 65.1775C30.6855 65.2614 31.178 65.4179 31.6383 65.6291C31.8429 65.7227 31.9247 65.9489 31.8212 66.1338C31.7176 66.3188 31.4675 66.3928 31.2629 66.2992C31.2542 66.2952 31.2458 66.2911 31.2376 66.2867L31.2356 66.2848Z" fill="#4B2710"/>
<path d="M28.1721 67.636C28.3186 67.9889 28.4444 68.3565 28.4777 68.7614C28.493 68.9635 28.4823 69.1769 28.4209 69.3948C28.3623 69.6128 28.2386 69.8306 28.0703 70.0179L28.0501 70.0404C27.9023 70.2045 27.6354 70.2295 27.4538 70.0961C27.272 69.9624 27.2446 69.721 27.3922 69.5569C27.4239 69.5215 27.463 69.4919 27.5039 69.4694C27.6328 69.3998 27.7527 69.3073 27.8461 69.179C27.9412 69.0525 28.0141 68.8971 28.0644 68.7288C28.1655 68.3905 28.1844 68.012 28.1721 67.636Z" fill="#4B2710"/>
<path d="M30.6732 67.636C30.8198 67.9889 30.9456 68.3565 30.9788 68.7614C30.9942 68.9635 30.9834 69.1769 30.922 69.3948C30.8635 69.6128 30.7397 69.8306 30.5715 70.0179L30.5513 70.0404C30.4035 70.2045 30.1365 70.2295 29.9549 70.0961C29.7734 69.9624 29.7458 69.721 29.8933 69.5569C29.9253 69.5215 29.9642 69.4919 30.0051 69.4694C30.1339 69.3998 30.2539 69.3073 30.3472 69.179C30.4423 69.0525 30.5152 68.8971 30.5656 68.7288C30.6663 68.3905 30.6853 68.012 30.6732 67.636Z" fill="#4B2710"/>
<path d="M45.0955 54.9273L44.8708 57.0591L44.6345 59.1897L44.3875 61.3189C44.3049 62.0285 44.2274 62.7389 44.1238 63.4462L43.9699 64.5074L43.8934 65.0381C43.8684 65.2198 43.838 65.405 43.7999 65.5889C43.7618 65.7731 43.716 65.9574 43.66 66.141C43.6027 66.3223 43.5424 66.5015 43.4702 66.6787C43.3296 67.0334 43.1532 67.3793 42.9432 67.709C42.5236 68.3692 41.9498 68.9556 41.276 69.4128C40.603 69.8725 39.8417 70.2057 39.0605 70.4415L39.0595 70.4418C39.0383 70.4483 39.0145 70.4531 38.993 70.4563C38.1602 70.5717 37.3066 70.6177 36.4495 70.5361C36.0214 70.4947 35.5928 70.421 35.1722 70.3012C34.7523 70.1805 34.3383 70.0124 33.9609 69.7668C33.5868 69.5233 33.2408 69.1926 33.0483 68.766C32.9529 68.5549 32.8969 68.3234 32.8943 68.0929C32.8882 67.8619 32.9345 67.6348 33.0112 67.4242C33.1703 67.0024 33.4495 66.6521 33.7622 66.36C34.0773 66.0675 34.4306 65.8289 34.7961 65.6198H34.7963L34.6145 66.0312C34.6089 66.0097 34.6043 65.9877 34.6007 65.9658L34.5974 65.942L34.5956 65.9251C34.593 65.9017 34.5912 65.88 34.5902 65.8636L34.5851 65.7602C34.5825 65.6945 34.582 65.6314 34.5823 65.5687L34.5864 65.1971C34.59 64.9511 34.5989 64.7069 34.6107 64.4627C34.6332 63.9746 34.6554 63.4876 34.691 63.0013L34.7945 61.5429L34.9165 60.0862C34.9976 59.1152 35.0835 58.1447 35.1794 57.1747C35.2709 56.2044 35.3709 55.2349 35.4793 54.2658C35.4908 54.1626 35.5926 54.0875 35.7069 54.0979C35.8156 54.1078 35.8959 54.1925 35.8936 54.2896C35.8662 55.2628 35.834 56.2359 35.7951 57.2085C35.7609 58.1813 35.7192 59.1536 35.677 60.1257L35.6177 61.5839L35.5499 63.0409C35.531 63.5265 35.5005 64.0114 35.4778 64.4958L35.4422 65.2203L35.4279 65.5785L35.4238 65.7519L35.4236 65.831L35.4243 65.8606V65.8663C35.4243 65.8693 35.4243 65.8705 35.4238 65.8652C35.4228 65.8582 35.4208 65.8513 35.4179 65.8448L35.2361 66.2562H35.2359C34.9137 66.4405 34.6107 66.647 34.357 66.8831C34.1038 67.1182 33.9016 67.3851 33.7975 67.6628C33.6937 67.9407 33.6978 68.2235 33.8157 68.4821C33.9312 68.7417 34.1611 68.9737 34.4452 69.1582C34.7298 69.3439 35.0671 69.4845 35.4228 69.5862C35.7793 69.688 36.1549 69.7534 36.5364 69.7902C37.3012 69.8635 38.0881 69.823 38.8641 69.7152L38.7969 69.73C39.5106 69.5143 40.1877 69.2155 40.7753 68.8139C41.3637 68.4141 41.8567 67.9104 42.2242 67.3333C42.4078 67.0449 42.5635 66.7402 42.6891 66.4234C42.7535 66.2659 42.808 66.1034 42.8591 65.9417C42.9079 65.7812 42.9489 65.6173 42.9831 65.451C43.0176 65.2843 43.0455 65.1164 43.0693 64.9442L43.1411 64.413L43.2836 63.3505C43.3777 62.642 43.4976 61.9365 43.6127 61.2305L43.9584 59.1124L44.3151 56.9957L44.6831 54.8802C44.701 54.7777 44.8071 54.7079 44.9204 54.7238C45.0301 54.7396 45.1058 54.8295 45.0955 54.9273Z" fill="#4B2710"/>
<path d="M34.7623 65.6556C35.219 65.4836 35.7038 65.3666 36.1989 65.3247C36.6934 65.2824 37.198 65.3166 37.6769 65.4378C38.1558 65.558 38.6072 65.7659 38.9895 66.0469C39.373 66.3271 39.6845 66.6795 39.9087 67.0659C39.9606 67.1552 39.9225 67.2657 39.8238 67.3124C39.7297 67.357 39.6139 67.3272 39.5584 67.247C39.3296 66.9151 39.0322 66.6277 38.6844 66.4101C38.3374 66.1918 37.9428 66.0431 37.5334 65.9694C37.1238 65.8949 36.7001 65.8947 36.2884 65.9581C35.8762 66.021 35.4765 66.1467 35.1014 66.3179L35.0996 66.3188C34.9004 66.4097 34.6575 66.3373 34.557 66.1574C34.4565 65.9773 34.5363 65.7576 34.7355 65.6667C34.7439 65.663 34.7536 65.6591 34.7623 65.6556Z" fill="#4B2710"/>
<path d="M37.8254 67.9302C37.7758 68.3015 37.7551 68.6773 37.8146 69.0239C37.8443 69.1962 37.8965 69.359 37.9737 69.4968C38.0491 69.636 38.154 69.7433 38.2711 69.8268C38.4501 69.9539 38.4813 70.1882 38.3406 70.35C38.2 70.5119 37.941 70.5401 37.762 70.4129C37.7241 70.3861 37.6927 70.3542 37.6684 70.3195L37.6505 70.2939C37.5091 70.0904 37.4193 69.8631 37.3902 69.6441C37.3582 69.4246 37.373 69.2149 37.4106 69.0177C37.4886 68.6223 37.6474 68.2687 37.8254 67.9302Z" fill="#4B2710"/>
<path d="M35.4704 67.7217C35.4208 68.093 35.4001 68.4688 35.4597 68.8154C35.4893 68.9877 35.5415 69.1505 35.6187 69.2883C35.6941 69.4275 35.799 69.5348 35.9161 69.6183C36.0951 69.7454 36.1263 69.9797 35.9856 70.1416C35.845 70.3034 35.586 70.3316 35.407 70.2044C35.3691 70.1776 35.3377 70.1457 35.3134 70.111L35.2957 70.0854C35.1543 69.8819 35.0646 69.6546 35.0354 69.4356C35.0035 69.2162 35.0183 69.0064 35.0559 68.8092C35.1336 68.414 35.2924 68.0602 35.4704 67.7217Z" fill="#4B2710"/>
<path d="M22.8822 66.4265C22.7958 66.4265 22.7086 66.4022 22.6342 66.3518C16.8145 62.4178 17.0937 53.5153 23.3456 43.6719C23.4599 43.4922 23.7133 43.43 23.912 43.5334C24.1107 43.6365 24.1792 43.8659 24.0652 44.0456C21.0959 48.7207 19.4488 53.2517 19.3015 57.1489C19.1568 60.9849 20.4809 63.9592 23.131 65.7506C23.3146 65.8748 23.3522 66.11 23.2149 66.2757C23.1336 66.3745 23.0086 66.4265 22.8822 66.4265Z" fill="#4B2710"/>
<path d="M42.7987 67.5319C42.6632 67.5319 42.5305 67.472 42.451 67.362C42.3257 67.1885 42.3794 66.9559 42.5711 66.8426C45.1691 65.307 46.553 63.4731 47.0583 60.896C47.6943 57.6527 46.8576 53.2786 44.5005 47.5244C44.4209 47.3301 44.5306 47.1141 44.7454 47.0422C44.9602 46.9703 45.1991 47.0695 45.2786 47.2637C47.6884 53.1464 48.5379 57.6485 47.8756 61.0271C47.3342 63.7875 45.7931 65.8349 43.0253 67.4709C42.9555 67.5123 42.8767 67.5319 42.7987 67.5319Z" fill="#4B2710"/>
<path d="M16.6575 65.7799C16.5273 65.7799 16.3992 65.7246 16.3184 65.6213C14.1794 62.8878 13.41 60.5383 14.0318 58.6373C14.5865 56.9419 16.2442 55.5857 18.9591 54.6062C19.1719 54.5294 19.4135 54.623 19.4984 54.8157C19.5833 55.0083 19.4797 55.2266 19.2667 55.3033C16.8002 56.1934 15.3066 57.3868 14.8279 58.8502C14.2819 60.5195 15.0112 62.6515 16.996 65.1877C17.1285 65.3567 17.084 65.5912 16.8971 65.7107C16.8239 65.7575 16.7403 65.7799 16.6575 65.7799Z" fill="#4B2710"/>
<path d="M21.5396 69.7193H17.1889C16.3855 69.7193 15.6649 69.3223 15.3084 68.6829C14.841 67.8447 14.9622 66.8932 15.6411 66.0718C16.5537 64.9682 18.222 64.3996 19.7941 64.6562C21.9689 64.9499 23.3679 65.9985 23.6328 67.5342C23.7261 68.0757 23.5518 68.627 23.1544 69.0467C22.7498 69.4742 22.1612 69.7193 21.5396 69.7193ZM19.0147 65.3432C17.8218 65.3432 16.8233 65.8954 16.3057 66.5214C16.0216 66.865 15.6107 67.5587 16.0495 68.3451C16.2607 68.7241 16.7079 68.969 17.1889 68.969H21.5396C21.9185 68.969 22.2773 68.8194 22.5241 68.5588C22.7637 68.3058 22.8688 67.9747 22.8128 67.65C22.6074 66.4596 21.4603 65.6385 19.6655 65.3978C19.6609 65.3973 19.6565 65.3966 19.6519 65.3959C19.4351 65.3596 19.2218 65.3432 19.0147 65.3432Z" fill="#4B2710"/>
<path d="M17.7442 67.436L18.1592 69.0272C18.2132 69.2343 18.0713 69.442 17.8422 69.4908C17.613 69.5396 17.3834 69.4112 17.3295 69.2041C17.3139 69.1444 17.3151 69.0829 17.3295 69.0272L17.7442 67.436Z" fill="#4B2710"/>
<path d="M20.6152 67.436L21.0302 69.0272C21.0842 69.2343 20.9422 69.442 20.7131 69.4908C20.484 69.5396 20.2544 69.4112 20.2004 69.2041C20.1848 69.1444 20.1861 69.0829 20.2004 69.0272L20.6152 67.436Z" fill="#4B2710"/>
<path d="M50.7669 65.7799C50.7073 65.7799 50.6467 65.7684 50.5892 65.7436C50.3821 65.6546 50.2941 65.4308 50.3926 65.2435C51.8077 62.5505 52.0718 60.173 51.1362 58.5488C50.4634 57.3808 49.169 56.6205 47.3926 56.35C47.1665 56.3157 47.0141 56.122 47.0522 55.9175C47.0903 55.7131 47.3051 55.5753 47.5304 55.6098C49.5733 55.9208 51.0748 56.817 51.8724 58.2019C52.931 60.0398 52.6717 62.655 51.142 65.5656C51.071 65.7008 50.9221 65.7799 50.7669 65.7799Z" fill="#4B2710"/>
<path d="M50.1883 70.2269H45.4116C44.7271 70.2269 44.0837 69.9607 43.6462 69.4962C43.234 69.0585 43.0545 68.4875 43.1537 67.9298C43.4424 66.3086 44.9669 65.2017 47.3364 64.8923C49.0895 64.6141 50.9258 65.2401 51.9064 66.4501C52.5968 67.302 52.7091 68.2834 52.2138 69.1429C51.8287 69.8116 51.0526 70.2269 50.1883 70.2269ZM48.1728 65.577C47.9455 65.577 47.712 65.5946 47.4742 65.6325C47.4698 65.6332 47.4655 65.6339 47.4611 65.6343C45.472 65.8926 44.2006 66.7727 43.9733 68.0491C43.9119 68.3944 44.0201 68.7354 44.2781 69.0092C44.5576 69.3059 44.9708 69.4763 45.4116 69.4763H50.1883C50.7337 69.4763 51.24 69.2092 51.4781 68.796C51.9486 67.9797 51.5292 67.2539 51.2375 66.8936C50.6854 66.2131 49.5393 65.577 48.1728 65.577Z" fill="#4B2710"/>
<path d="M49.6591 67.824L50.0741 69.515C50.125 69.7222 49.9806 69.9275 49.7512 69.9735C49.5221 70.0195 49.295 69.8889 49.2441 69.6815C49.2303 69.6253 49.2313 69.5677 49.2441 69.515L49.6591 67.824Z" fill="#4B2710"/>
<path d="M60.3895 73.4753C59.2015 74.2296 57.7738 74.6111 56.3229 74.6236C56.2966 74.6247 56.2718 74.6247 56.2455 74.6247H52.6975C51.3103 74.6247 50.0141 73.9394 49.3958 72.816C49.0334 72.1582 48.8979 71.4189 49.0598 70.7021C49.1441 70.3256 49.3101 69.9554 49.5689 69.6062C50.0074 69.0122 50.6533 68.5856 51.3865 68.3592C51.7723 68.2417 52.1833 68.1791 52.5995 68.1779C53.3035 68.1754 54.2842 68.1879 55.3783 68.2468C55.5512 68.2556 55.7269 68.2655 55.9054 68.2769C56.0519 68.2868 56.1874 68.2905 56.3163 68.2905H56.3204C56.5111 68.2894 56.6843 68.278 56.8377 68.2579H56.839C57.175 68.2154 57.4256 68.1328 57.6135 68.0304C57.7061 67.9816 57.7823 67.9277 57.846 67.8715C57.8472 67.8715 57.8472 67.8704 57.8472 67.8704C58.2137 67.5476 58.1641 67.1561 58.1641 67.1561L53.4127 65.8441L51.8247 65.4049L51.3711 64.3593L51.3187 64.2379C52.1902 64.3091 52.9412 64.2467 53.6633 64.1491C54.0354 64.0992 54.3992 64.039 54.7685 63.984C56.6385 63.7051 58.5653 64.0328 60.156 64.9346V64.9358C60.369 65.0558 60.5764 65.186 60.7756 65.3273C64.1878 67.7365 63.4907 71.5065 60.3895 73.4753Z" fill="white"/>
<path d="M56.3229 74.6236C56.2966 74.6248 56.2718 74.6248 56.2455 74.6248H52.6975C51.3102 74.6248 50.0141 73.9394 49.3958 72.8161C48.8439 71.8116 48.8176 70.6196 49.5686 69.6065C50.2396 68.6996 51.3916 68.1805 52.5993 68.1782C53.4153 68.1757 54.6007 68.1932 55.9051 68.2769C56.0516 68.2869 56.1871 68.2906 56.316 68.2906H56.3201C59.1309 69.5152 58.8777 73.6367 56.3229 74.6236Z" fill="#FFA910"/>
<path d="M46.6083 67.824L47.0233 69.515C47.0742 69.7222 46.9297 69.9275 46.7003 69.9735C46.4712 70.0195 46.2441 69.8889 46.1932 69.6815C46.1794 69.6253 46.1807 69.5677 46.1932 69.515L46.6083 67.824Z" fill="#4B2710"/>
<path d="M58.3707 67.1352C58.3771 67.1824 58.3789 67.2104 58.3789 67.2457C58.3802 67.2797 58.3781 67.3126 58.375 67.3454C58.3735 67.3787 58.3679 67.4111 58.3615 67.4437C58.3553 67.4763 58.3502 67.5093 58.3385 67.5408C58.3039 67.6705 58.2334 67.7903 58.1523 67.9029C57.9828 68.1265 57.7327 68.2833 57.4795 68.3797L57.3836 68.4181C57.3517 68.4297 57.3192 68.4371 57.287 68.4465L57.0921 68.5C56.9628 68.5249 56.8321 68.5478 56.7022 68.5654C56.5736 68.5756 56.4439 68.5876 56.315 68.5952L55.9325 68.5973C54.9751 68.5663 54.0292 68.5589 53.0772 68.561C52.8428 68.5626 52.5909 68.5622 52.3894 68.5746C52.1777 68.5915 51.9669 68.62 51.7614 68.6678C51.5553 68.7139 51.3555 68.7818 51.1648 68.8642C50.9738 68.946 50.7889 69.041 50.6206 69.1564C49.9394 69.6055 49.4812 70.3279 49.4185 71.0852C49.385 71.4639 49.4375 71.8522 49.5738 72.2191C49.64 72.4018 49.7246 72.5854 49.829 72.751C49.876 72.8368 49.9384 72.9142 49.9939 72.9954C50.0586 73.0708 50.1161 73.1515 50.1887 73.2213C50.737 73.8052 51.5581 74.1772 52.4101 74.2373C52.518 74.2473 52.6193 74.2466 52.7341 74.2498H53.0936H53.8127H55.251H55.9703C56.2153 74.2489 56.4393 74.2519 56.6654 74.2378C57.1185 74.2163 57.5678 74.1511 58.0063 74.0517C58.4446 73.9511 58.8706 73.8098 59.2764 73.6331C59.6809 73.4528 60.0648 73.2403 60.4207 72.9878C61.1316 72.4864 61.7241 71.8503 62.1161 71.1275C62.5127 70.4072 62.6878 69.596 62.6047 68.8059C62.5232 68.0144 62.1662 67.2564 61.6228 66.6196C61.0784 65.9823 60.3581 65.4527 59.5674 65.058C58.7714 64.6672 57.8915 64.4173 56.9904 64.316C56.5398 64.2661 56.0836 64.2496 55.63 64.2758C55.4034 64.2903 55.1769 64.3086 54.9521 64.3405C54.7273 64.3683 54.4862 64.4096 54.2499 64.4446C53.7738 64.5167 53.2859 64.5856 52.7873 64.6191C52.2891 64.6543 51.7828 64.6529 51.2814 64.612L51.2791 64.6117C51.0507 64.5932 50.8825 64.4108 50.9029 64.2043C50.9234 63.9978 51.1251 63.8457 51.3535 63.8642L51.3568 63.8644C52.2661 63.9451 53.1749 63.8519 54.1121 63.7042C54.3489 63.6692 54.5793 63.6292 54.8294 63.598C55.0784 63.5629 55.3298 63.5421 55.5814 63.5263C56.0849 63.4974 56.5912 63.5155 57.0919 63.571C58.0932 63.6836 59.0741 63.9617 59.9643 64.3988C60.8501 64.8416 61.6509 65.4264 62.2807 66.1619C62.9077 66.895 63.3345 67.7938 63.4307 68.733C63.5301 69.6709 63.3189 70.6255 62.8612 71.4572C61.9486 73.1311 60.1773 74.3349 58.2109 74.7784C57.7197 74.8899 57.2177 74.9623 56.7129 74.9865C56.4603 75.002 56.2046 74.999 55.9701 74.9997H55.2508H53.8124H53.0933H52.7338C52.609 74.9967 52.4699 74.9965 52.3395 74.9845C51.2793 74.9084 50.2539 74.4482 49.5579 73.7085C49.4671 73.6195 49.3919 73.5182 49.3111 73.4218C49.2393 73.3193 49.1621 73.2201 49.1012 73.1117C48.969 72.8999 48.8683 72.6811 48.7849 72.4525C48.6166 71.9976 48.5476 71.5079 48.5911 71.0225C48.6757 70.0465 49.2498 69.1266 50.1079 68.5409C50.5342 68.2454 51.0262 68.031 51.5435 67.9105C51.8023 67.8513 52.0664 67.8083 52.3331 67.7958C52.6108 67.7857 52.8387 67.7933 53.0834 67.7965C54.0492 67.8109 55.0204 67.8722 55.9762 67.9596L56.3125 67.9838L56.6436 67.9841C56.7515 67.9774 56.8584 67.967 56.9648 67.9556C57.0638 67.9325 57.1742 67.9237 57.2647 67.8879C57.457 67.8324 57.6314 67.7498 57.7508 67.624C57.8076 67.5602 57.8644 67.4925 57.8956 67.4127C57.9137 67.3741 57.9288 67.3329 57.9388 67.2915C57.9508 67.2527 57.9549 67.2013 57.9582 67.1775L57.9641 67.1343C57.9782 67.0328 58.0805 66.9609 58.1927 66.9736C58.2881 66.9844 58.3597 67.0529 58.3707 67.1352Z" fill="#4B2710"/>
<path d="M55.5377 36.119C56.1943 36.4339 56.8001 36.8314 57.3346 37.2895C57.87 37.7473 58.3346 38.2639 58.7335 38.8121C59.5324 39.9117 60.075 41.1266 60.4829 42.3593C60.5156 42.4585 60.4534 42.5632 60.3435 42.5928C60.2371 42.6217 60.1251 42.5695 60.0886 42.4761L60.088 42.4747C59.6237 41.2854 59.0307 40.1346 58.2221 39.1331C57.8184 38.6336 57.3606 38.1744 56.8485 37.7776C56.337 37.3806 55.7711 37.0471 55.1664 36.7905C54.9588 36.7024 54.8695 36.4788 54.9669 36.2912C55.0644 36.1035 55.3116 36.0228 55.519 36.1109C55.5246 36.1129 55.5323 36.1164 55.5377 36.119Z" fill="#4B2710"/>
<path d="M55.2963 32.7054C56.1375 32.6206 56.9888 32.5942 57.8362 32.6465C58.6834 32.6985 59.5265 32.8303 60.3399 33.0525C61.1533 33.2738 61.9353 33.5853 62.6615 33.9761C63.3885 34.3664 64.0592 34.8346 64.667 35.3568C64.7501 35.4282 64.7534 35.5468 64.6744 35.622C64.5977 35.6951 64.4706 35.6997 64.3873 35.634C63.7766 35.1519 63.1131 34.7285 62.4052 34.3837C61.6977 34.0387 60.9464 33.7733 60.1719 33.5943C59.3973 33.4146 58.6005 33.321 57.8014 33.3023C57.0021 33.2833 56.2004 33.3386 55.4075 33.4489L55.4052 33.4491C55.1786 33.4805 54.9666 33.3402 54.9319 33.1353C54.8971 32.9304 55.0523 32.7387 55.2789 32.7073C55.2842 32.7068 55.2911 32.7061 55.2963 32.7054Z" fill="#4B2710"/>
<path d="M19.4525 26.3946C17.9543 25.552 16.3512 24.8486 14.6482 24.4588C13.7982 24.2645 12.9255 24.1514 12.0486 24.1408C11.1723 24.1297 10.2929 24.2222 9.43913 24.419C9.32815 24.4446 9.21513 24.3841 9.18674 24.2837C9.15913 24.1857 9.2228 24.086 9.32892 24.0573C10.208 23.8217 11.1248 23.692 12.0453 23.6719C12.9661 23.6506 13.889 23.7375 14.7888 23.9105C16.5926 24.2573 18.2931 24.9337 19.879 25.7509C20.0782 25.8536 20.1477 26.0827 20.0342 26.2628C19.9207 26.443 19.6673 26.5059 19.4681 26.4032C19.464 26.4011 19.4599 26.3988 19.4558 26.3967L19.4525 26.3946Z" fill="#4B2710"/>
<path d="M16.6316 29.359C15.3347 29.088 13.9822 29.0228 12.6755 29.2582C12.023 29.3743 11.3847 29.5634 10.7777 29.8198C10.1698 30.0754 9.5927 30.3956 9.05213 30.764C8.96084 30.8266 8.83069 30.8105 8.76139 30.7279C8.69439 30.6479 8.70999 30.5344 8.79361 30.4705C9.33316 30.0629 9.91873 29.6994 10.547 29.3997C11.1743 29.0993 11.845 28.8655 12.5387 28.709C13.2325 28.5518 13.9482 28.4713 14.6639 28.4616C15.3799 28.4514 16.0954 28.5108 16.7981 28.6234C17.0239 28.6595 17.1745 28.8544 17.1344 29.0586C17.0942 29.2628 16.8789 29.399 16.6531 29.3627C16.6462 29.3618 16.638 29.3604 16.6316 29.359Z" fill="#4B2710"/>
<path d="M40.0046 27.5311C39.7924 28.296 38.1538 28.5243 37.0959 28.343C36.0419 28.1624 34.7436 27.15 34.9559 26.3851C35.1681 25.6202 36.34 25.7263 37.7342 26.0427C39.1283 26.3592 40.2169 26.7664 40.0046 27.5311Z" fill="#4B2710"/>
<g opacity="0.4">
<g opacity="0.4">
<path opacity="0.4" d="M38.3967 26.8987C38.3476 27.0643 37.9144 27.1031 37.4291 26.9856C36.9437 26.8679 36.5903 26.6383 36.6394 26.4728C36.6885 26.3072 37.09 26.375 37.5753 26.4927C38.0604 26.6104 38.4458 26.7331 38.3967 26.8987Z" fill="white"/>
</g>
</g>
<path d="M33.0156 44.0416C32.4604 44.0416 31.9378 43.8393 31.5005 43.4471C29.6474 41.7838 29.5691 37.2676 31.3008 31.9416C31.5836 31.0714 32.406 30.4339 33.3956 30.3176L34.3593 30.2041C35.3543 30.0871 36.1792 29.4176 36.4155 28.5364L36.5001 28.2138C36.5531 28.0122 36.7766 27.8876 36.9995 27.9352C37.2225 27.9831 37.3603 28.1852 37.3077 28.3868L37.3046 28.3991L37.2261 28.6983C37.2251 28.7027 37.2238 28.7068 37.2228 28.7112L37.1322 29.0562C36.9392 29.7929 37.1719 30.5572 37.7546 31.1008L38.7028 31.9853C39.2833 32.5264 39.53 33.2899 39.3628 34.0273C38.0968 39.6128 35.9654 43.3229 33.662 43.9526C33.4439 44.012 33.2273 44.0416 33.0156 44.0416ZM36.2999 30.1527C35.8064 30.5784 35.1681 30.8656 34.4667 30.9482L33.503 31.0617C32.8394 31.1396 32.2876 31.5681 32.0973 32.1531C30.2242 37.9132 30.7418 41.7082 32.0853 42.9143C32.4737 43.2628 32.9235 43.3706 33.4222 43.2341C34.9007 42.8299 37.131 40.137 38.5499 33.8768C38.6619 33.3826 38.4962 32.8709 38.107 32.5079L37.1588 31.6234C36.7142 31.2086 36.4216 30.698 36.2999 30.1527ZM33.4493 30.6897H33.4505H33.4493Z" fill="#4B2710"/>
<path d="M22.525 23.6305C23.1459 23.0311 23.9 22.5356 24.7845 22.2024C25.2266 22.0385 25.7033 21.9175 26.2039 21.8687C26.7031 21.8172 27.2281 21.8447 27.7313 21.9582C27.9844 22.0102 28.2297 22.0905 28.4652 22.1851C28.5838 22.2311 28.6961 22.287 28.8106 22.3395C28.9193 22.3996 29.0295 22.4584 29.1344 22.5222C29.5537 22.7793 29.913 23.0922 30.2147 23.431C30.518 23.7692 30.7625 24.1358 30.9601 24.5148C31.156 24.8947 31.3094 25.2859 31.3997 25.6943C31.423 25.8002 31.347 25.9028 31.2302 25.9241C31.1563 25.9373 31.0839 25.9151 31.0346 25.8702L31.0315 25.8675C30.7182 25.5782 30.4331 25.2885 30.1414 25.0163C29.8511 24.7437 29.5586 24.4875 29.2607 24.2565C28.9615 24.0264 28.6547 23.8243 28.3396 23.658C28.0233 23.4925 27.6973 23.3699 27.3582 23.2855C26.6816 23.1149 25.9354 23.1382 25.1586 23.2802C24.7709 23.3519 24.3748 23.4471 23.9762 23.5655C23.5765 23.6818 23.1748 23.8167 22.7544 23.9438L22.749 23.9455C22.6373 23.9792 22.5166 23.9246 22.4793 23.8236C22.4529 23.754 22.4734 23.6805 22.525 23.6305Z" fill="#4B2710"/>
<path d="M43.9955 28.2743C44.6163 27.6749 45.3704 27.1796 46.2549 26.8462C46.697 26.6825 47.1737 26.5613 47.6743 26.5125C48.1735 26.461 48.6985 26.4885 49.2017 26.602C49.4549 26.654 49.7001 26.7343 49.9356 26.8289C50.0542 26.8749 50.1665 26.9308 50.2811 26.9833C50.3897 27.0434 50.4999 27.1022 50.6048 27.166C51.0241 27.4231 51.3834 27.736 51.6852 28.0747C51.9884 28.413 52.2329 28.7796 52.4306 29.1585C52.6264 29.5385 52.7799 29.9297 52.8701 30.3381C52.8934 30.444 52.8174 30.5466 52.7006 30.5679C52.6267 30.5813 52.5543 30.5589 52.505 30.514L52.5019 30.5113C52.1887 30.222 51.9035 29.9323 51.6118 29.6601C51.3215 29.3875 51.029 29.1313 50.7311 28.9003C50.4319 28.6702 50.1251 28.4681 49.81 28.3018C49.494 28.1363 49.1677 28.0137 48.8286 27.9293C48.152 27.7587 47.4059 27.782 46.629 27.924C46.2414 27.9957 45.8453 28.0909 45.4466 28.2093C45.0469 28.3256 44.6452 28.4605 44.2248 28.5876L44.2195 28.5892C44.1077 28.623 43.987 28.5684 43.9497 28.4674C43.9233 28.398 43.9441 28.3245 43.9955 28.2743Z" fill="#4B2710"/>
<g opacity="0.3">
<g opacity="0.3">
<path opacity="0.3" d="M50.6161 44.596C53.5084 43.16 55.6012 40.6872 56.4795 37.8104C57.6704 33.9141 57.9361 30.3755 57.4837 27.2335L56.9851 25.0608C56.9915 25.0433 56.9979 25.0259 57.0042 25.0084C52.2414 38.2752 44.6092 43.3379 35.272 42.4263C33.4352 44.3951 31.6189 43.9485 30.8513 41.592C28.41 40.9242 25.8744 39.9084 23.2615 38.5802C17.4963 35.6484 16.217 29.3993 17.6484 22.5073C17.6484 22.5073 17.6484 22.5073 17.6472 22.5085C16.174 25.0939 15.0798 28.1633 14.5017 31.7433C14.3881 32.6151 14.4301 33.4743 14.6096 34.3149C17.8349 43.85 38.6123 50.5568 50.6161 44.596Z" fill="#4B2710"/>
</g>
</g>
<g opacity="0.3">
<g opacity="0.3">
<path opacity="0.3" d="M36.8698 39.9914C36.8657 40.0226 36.8601 40.0539 36.8532 40.0865C36.8532 40.0865 36.8532 40.0865 36.8532 40.0876C34.0537 45.5061 30.5597 44.4704 30.4712 39.0068C32.0604 41.5585 34.1946 41.8788 36.8698 39.9914Z" fill="#4B2710"/>
</g>
</g>
<g opacity="0.3">
<g opacity="0.3">
<path opacity="0.3" d="M26.7655 69.6842C26.1168 69.4365 25.5317 69.1401 25.0198 68.7874C31.9385 68.9738 28.4044 65.4752 28.4044 65.4752C28.4044 65.4752 28.3795 63.6804 28.2826 59.24C28.1844 54.7996 31.9232 54.6121 31.9232 54.6121L31.9577 54.6583C31.905 55.9817 31.7322 60.1356 31.5746 63.0075C31.489 64.5822 31.4072 65.7731 31.3535 65.9007C34.8365 68.1994 32.149 70.8722 26.7655 69.6842Z" fill="#4B2710"/>
</g>
</g>
<g opacity="0.3">
<g opacity="0.3">
<path opacity="0.3" d="M44.8191 55.406V55.4122L43.5037 64.8346L43.4789 65.0122C43.429 65.3699 43.3584 65.7265 43.2508 66.0729C42.5964 68.1718 41.0806 69.4362 38.9298 70.0855C36.3239 70.4531 34.4592 69.9116 33.6957 69.0273C38.9779 69.5104 41.3711 65.6081 41.7475 58.6458C41.8329 57.0609 43.102 55.7323 44.8191 55.406Z" fill="#4B2710"/>
</g>
</g>
<g opacity="0.3">
<g opacity="0.3">
<path opacity="0.3" d="M31.5749 63.0073C32.7176 63.7202 33.8376 63.7521 34.9318 63.0073L35.0167 65.9378L33.1027 67.7217L31.2153 65.6089" fill="#4B2710"/>
</g>
</g>
<path d="M55.3784 68.2467C54.4156 68.2805 52.8126 68.333 51.3865 68.3593C51.7723 68.2419 52.1833 68.1792 52.5996 68.178C53.3035 68.1755 54.2842 68.188 55.3784 68.2467Z" fill="#4B2710"/>
<g opacity="0.3">
<g opacity="0.3">
<path opacity="0.3" d="M57.6136 68.0307L57.3328 68.0681L56.2512 68.2145C56.2512 68.2145 56.1931 68.2171 56.0865 68.2208L52.1872 68.027L50.8564 65.8693L51.3709 64.3596L51.3185 64.2382C52.19 64.3094 52.941 64.247 53.6631 64.1494C53.6631 64.1494 53.5994 64.2808 53.533 64.4946C53.432 64.8135 53.3256 65.3165 53.4125 65.8444C53.5798 66.8525 54.454 67.9507 57.4377 68.0284C57.496 68.0293 57.554 68.0293 57.6136 68.0307Z" fill="#4B2710"/>
</g>
</g>
<g opacity="0.3">
<g opacity="0.3">
<path opacity="0.3" d="M60.3895 73.4753C59.2015 74.2296 57.7738 74.6111 56.3229 74.6236C56.2966 74.6247 56.2718 74.6247 56.2455 74.6247H52.6975C51.3103 74.6247 50.0141 73.9394 49.3958 72.816C49.0334 72.1582 48.8979 71.4189 49.0598 70.7021C49.2285 70.7458 49.3349 70.7784 49.3349 70.7784C51.8094 73.0473 63.2693 71.2473 60.1555 64.9358C60.3685 65.0558 60.5759 65.186 60.7751 65.3273C64.1878 67.7365 63.4907 71.5066 60.3895 73.4753Z" fill="#4B2710"/>
</g>
</g>
</g>
<defs>
<clipPath id="clip0_168_4848">
<rect width="66" height="75" fill="white" transform="translate(0.317139)"/>
</clipPath>
</defs>
</svg>
