<svg width="843" height="876" viewBox="0 0 843 876" fill="none" xmlns="http://www.w3.org/2000/svg">
<g clip-path="url(#clip0_365_6)">
<path d="M842.899 421.45C842.899 493.62 824.763 561.544 792.786 620.931C731.506 734.785 619.393 817.212 486.82 837.853C486.82 837.853 486.82 837.853 486.805 837.853C465.501 841.177 443.676 842.899 421.45 842.899C406.252 842.899 391.239 842.1 376.475 840.515C250.285 827.132 140.725 758.071 72.8456 658.355C26.871 590.828 0 509.276 0 421.45C0 188.683 188.683 0 421.45 0C654.216 0 842.899 188.683 842.899 421.45Z" fill="#F8BE64"/>
<path d="M808.413 587.193C792.063 623.525 764.053 666.959 746.458 688.25C706.22 736.946 655.263 776.462 597.167 803.148C596.275 803.578 595.384 803.979 594.489 804.38C594.212 804.504 593.951 804.625 593.674 804.733C566.956 816.732 538.78 826.021 509.445 832.235C507.478 832.664 505.475 833.066 503.492 833.467C501.216 833.912 498.956 834.342 496.664 834.759C493.417 835.345 490.141 835.883 486.865 836.405C486.865 836.405 486.865 836.405 486.849 836.405C485.48 836.329 420.431 832.607 393.022 794.553C387.008 786.187 382.208 772.664 379.61 755.776C371.61 703.864 384.255 620.205 445.118 557.126C455.499 546.36 467.297 536.208 480.632 526.903L686.728 491.465C686.728 491.465 705.233 492.296 728.166 505.278C755.887 520.943 780.189 531.067 808.413 587.193Z" fill="#FF9331"/>
<g opacity="0.6">
<path opacity="0.6" d="M808.401 586.569C807.232 589.183 805.984 591.828 804.695 594.505C780.148 552.605 758.119 543.039 733.355 529.026C710.422 516.06 691.917 515.229 691.917 515.229L485.821 550.667C472.486 559.972 460.688 570.124 450.307 580.89C391.134 642.215 377.538 723.012 384.197 775.156C369 727.367 375.631 628.51 445.124 556.495C455.506 545.729 467.303 535.577 480.642 526.272L686.738 490.835C686.738 490.835 705.243 491.666 728.16 504.632C755.891 520.323 780.193 530.443 808.401 586.569Z" fill="white"/>
</g>
<path d="M746.458 688.247C685.764 761.723 600.627 814.28 503.495 833.463C495.744 813.605 491.437 791.564 491.437 768.353C491.437 680.848 552.733 609.926 628.332 609.926C678.671 609.926 722.678 641.381 746.458 688.247Z" fill="#F2D4D4"/>
<path d="M486.865 842.555C486.75 842.555 486.62 842.552 486.505 842.546C483.675 842.387 416.875 838.191 388.033 798.147C373.632 778.149 367.803 736.131 373.53 693.588C380.702 640.289 404.555 590.306 440.696 552.851C451.615 541.527 463.871 531.098 477.118 521.854C477.859 521.338 478.706 520.988 479.597 520.835L685.693 485.398C686.547 485.251 687.425 485.286 688.266 485.503C688.915 485.668 704.441 489.692 729.112 499.032C752.577 507.917 786.336 529.94 813.901 584.417C814.672 585.939 814.777 587.715 814.188 589.316C802.031 622.414 770.038 669.388 751.201 692.172C688.409 768.188 600.862 820.51 504.689 839.502C499.283 840.575 493.763 841.549 487.823 842.482C487.505 842.53 487.187 842.555 486.865 842.555ZM483.042 532.728C470.875 541.32 459.612 550.96 449.549 561.395C415.216 596.979 392.548 644.51 385.722 695.231C379.594 740.76 387.801 776.767 398.017 790.956C422.405 824.814 479.562 829.742 486.572 830.22C492.099 829.344 497.249 828.431 502.295 827.431C595.696 808.986 680.721 758.167 741.712 684.331C759.001 663.416 789.453 618.871 801.687 587.569C776.153 538.376 745.841 518.524 724.751 510.54C704.647 502.929 690.558 498.886 686.438 497.752L483.042 532.728Z" fill="#4B2710"/>
<path d="M726.931 512.02C700.347 551.587 635.02 589.144 566.803 589.163C519.259 589.176 476.879 581.746 445.125 557.129C455.506 546.36 467.3 536.205 480.632 526.896L686.735 491.468C686.735 491.465 705.271 497.042 726.931 512.02Z" fill="#A51313"/>
<path d="M553.895 595.759C512.412 595.759 468.573 582.832 441.384 562.012C439.993 560.946 439.121 559.338 438.99 557.591C438.859 555.843 439.48 554.121 440.696 552.86C451.612 541.534 463.865 531.102 477.111 521.854C477.853 521.335 478.7 520.988 479.591 520.835L685.693 485.407C685.939 485.366 686.184 485.337 686.432 485.324C687.387 485.277 710.091 484.347 733.206 500.328C735.87 502.171 736.65 505.762 734.988 508.544C705.275 558.3 644.131 589.924 567.236 595.307C562.834 595.607 558.374 595.759 553.895 595.759ZM454.611 556.314C479.091 572.441 521.201 586.187 566.374 583.023C636.504 578.114 692.519 550.622 721.233 507.29C704.733 497.727 689.689 497.564 687.352 497.599L483.039 532.722C472.871 539.907 463.34 547.821 454.611 556.314Z" fill="#4B2710"/>
<path d="M614.059 624.89C624.871 614.078 624.871 596.548 614.059 585.736C603.247 574.924 585.717 574.924 574.905 585.736C564.093 596.548 564.093 614.078 574.905 624.89C585.717 635.702 603.247 635.702 614.059 624.89Z" fill="#FFB012"/>
<g opacity="0.6">
<path opacity="0.6" d="M622.169 604.326C617.585 595.327 608.248 589.16 597.466 589.16C582.176 589.16 569.78 601.556 569.78 616.846C569.78 617.168 569.78 617.492 569.796 617.814C567.889 614.061 566.813 609.814 566.813 605.31C566.813 590.02 579.209 577.624 594.499 577.624C609.464 577.627 621.647 589.501 622.169 604.326Z" fill="white"/>
</g>
<g opacity="0.2">
<path opacity="0.2" d="M622.175 605.313C622.175 620.603 609.779 632.999 594.489 632.999C579.183 632.999 566.803 620.603 566.803 605.313C566.803 603.82 566.927 602.359 567.157 600.929C571.909 609.327 580.922 614.987 591.258 614.987C605.055 614.987 616.499 604.896 618.591 591.685C620.886 595.699 622.175 600.359 622.175 605.313Z" fill="#000072"/>
</g>
<path d="M594.489 639.149C575.831 639.149 560.65 623.971 560.65 605.31C560.65 586.649 575.831 571.47 594.489 571.47C613.147 571.47 628.329 586.652 628.329 605.31C628.329 623.967 613.15 639.149 594.489 639.149ZM594.489 583.777C582.615 583.777 572.957 593.439 572.957 605.313C572.957 617.187 582.615 626.845 594.489 626.845C606.363 626.845 616.022 617.184 616.022 605.313C616.025 593.439 606.363 583.777 594.489 583.777Z" fill="#4B2710"/>
<path d="M585.569 855.473C563.021 877.547 516.2 874.593 496.663 834.756C493.311 827.912 490.758 819.991 489.297 810.9C489.281 810.884 489.281 810.868 489.281 810.868C488.896 808.56 488.59 806.191 488.358 803.731L431.448 771.429C431.448 771.429 434.11 770.582 438.77 769.337C467.026 761.786 568.726 739.436 593.369 801.33C593.77 802.314 594.139 803.329 594.492 804.361V804.377C602.164 826.772 596.966 844.322 585.569 855.473Z" fill="#FF9331"/>
<g opacity="0.2">
<path opacity="0.2" d="M496.664 834.756C493.416 835.342 490.141 835.88 486.865 836.402C486.865 836.402 486.865 836.402 486.849 836.402C485.48 836.325 420.431 832.604 393.022 794.55C387.008 786.184 382.208 772.661 379.61 755.773C379.795 754.773 380.024 753.834 380.317 752.975C380.317 752.975 406.911 819.313 489.278 810.871C489.278 810.871 489.278 810.887 489.294 810.903C489.724 811.517 497.138 822.223 509.445 832.238C521.828 842.313 539.146 851.663 559.265 849.326C592.996 845.42 594.241 815.041 593.674 804.736C593.566 802.613 593.365 801.337 593.365 801.337L597.163 803.151C596.272 803.581 595.381 803.982 594.486 804.383C617.346 871.085 526.075 894.744 496.664 834.756Z" fill="#000072"/>
</g>
<g opacity="0.6">
<path opacity="0.6" d="M585.569 855.473C596.845 820.157 583.284 796.415 556.476 782.306C512.313 759.064 438.771 769.337 438.771 769.337C467.026 761.786 568.726 739.436 593.369 801.33C593.77 802.314 594.139 803.329 594.493 804.361V804.377C602.165 826.772 596.966 844.322 585.569 855.473Z" fill="white"/>
</g>
<path d="M431.162 770.531C438.328 766.927 445.787 764.167 453.369 761.729C457.167 760.541 460.991 759.405 464.862 758.46C468.726 757.469 472.619 756.578 476.545 755.824C484.395 754.302 492.366 753.261 500.414 752.777C508.461 752.325 516.582 752.535 524.69 753.299C532.795 754.127 540.916 755.388 548.929 757.565C556.928 759.726 564.855 762.783 572.145 767.268C579.425 771.718 586.066 777.576 591.156 784.621C596.231 791.656 599.879 799.669 601.91 807.872C604.059 816.079 604.994 824.929 603.498 833.744C602.098 842.539 598.122 851.109 592.134 857.88C586.174 864.709 578.318 869.531 570.031 872.501C561.707 875.478 552.809 876.5 544.08 875.78C535.361 874.994 526.766 872.463 519.11 868.178C511.444 863.929 504.711 858.058 499.516 851.16C494.298 844.29 490.31 836.586 488.183 828.459C487.731 826.409 487.298 824.365 486.929 822.322C486.636 820.265 486.553 818.177 486.432 816.12L486.327 813.036C486.4 811.998 486.464 810.97 486.569 809.938C486.776 807.879 487.018 805.838 487.419 803.82C487.524 803.288 488.043 802.941 488.575 803.046C488.89 803.11 489.141 803.317 489.272 803.587L489.297 803.641C492.789 811.075 495.132 818.205 498.443 824.811C501.665 831.382 505.001 837.723 509.547 843.119C514.074 848.489 519.495 853 525.613 856.212C531.726 859.415 538.446 861.468 545.325 862.057C552.188 862.722 559.182 861.952 565.66 859.832C572.11 857.683 578.12 854.171 582.59 849.256C587.072 844.367 590.061 838.258 591.242 831.623C592.414 824.98 591.809 817.903 590.01 811.005C588.288 804.001 585.28 797.529 581.208 791.856C577.111 786.193 571.792 781.479 565.731 777.764C553.532 770.346 538.646 766.899 523.694 766.058C516.184 765.644 508.617 765.714 501.022 766.004C493.423 766.24 485.789 766.701 478.127 767.319C462.786 768.487 447.381 770.432 431.732 772.326L431.706 772.33C431.184 772.393 430.707 772.021 430.643 771.496C430.595 771.088 430.815 770.709 431.162 770.531Z" fill="#4B2710"/>
<path d="M769.897 657.361C767.268 661.793 759.561 673.851 745.796 689.062C745.796 689.062 771.375 783.733 708.312 796.04C699.191 797.822 691.347 796.578 684.748 793.057C660.844 780.352 653.433 737.745 661.385 700.859C662.184 697.167 663.139 693.521 664.247 689.969C664.247 689.953 664.247 689.937 664.247 689.937L664.263 689.905C670.108 671.171 680.228 655.05 694.473 646.837C730.357 626.132 763.413 649.575 769.843 654.62C770.582 655.19 770.967 655.528 770.967 655.528C770.967 655.528 770.623 656.161 769.897 657.361Z" fill="#FF9331"/>
<g opacity="0.6">
<path opacity="0.6" d="M770.961 655.531C770.961 655.531 770.623 656.161 769.901 657.361C754.534 653.669 724.327 641.565 701.346 657.103C678.817 672.333 649.419 742.466 684.751 793.057C660.847 780.352 653.436 737.745 661.388 700.859C662.187 697.167 663.142 693.521 664.25 689.969C664.25 689.953 664.25 689.937 664.25 689.937L664.266 689.905C670.111 671.171 680.231 655.05 694.477 646.837C730.36 626.132 763.416 649.575 769.847 654.62C770.576 655.193 770.961 655.531 770.961 655.531Z" fill="white"/>
</g>
<g opacity="0.2">
<path opacity="0.2" d="M745.796 689.065C745.796 689.065 771.374 783.736 708.311 796.043C666.106 804.272 651.246 747.913 661.382 700.862L664.244 690.004C663.521 693.171 643.157 784.446 698.866 774.94C755.547 765.266 736.443 671.238 736.443 671.238C744.733 671.623 759.083 662.487 769.837 654.627C770.575 655.197 770.961 655.534 770.961 655.534C770.961 655.534 763.27 669.761 745.796 689.065Z" fill="#000072"/>
</g>
<path d="M700.315 802.995C681.718 802.995 666.819 791.112 658.66 769.308C643.482 728.736 654.697 662.681 691.392 641.511C734.683 616.534 774.603 650.546 775.001 650.893C777.172 652.784 777.745 655.929 776.373 658.46C776.058 659.042 768.777 672.368 752.539 690.742C755.445 703.33 764.021 748.448 745.739 777.795C737.643 790.793 725.445 798.962 709.486 802.075C706.348 802.693 703.282 802.995 700.315 802.995ZM725.251 644.555C716.617 644.555 707.197 646.598 697.542 652.169C667.265 669.636 657.024 729.815 670.184 764.998C675.309 778.693 685.875 794.149 707.131 790.001C719.778 787.533 728.988 781.412 735.294 771.292C753.455 742.135 739.986 691.175 739.85 690.666C739.302 688.645 739.824 686.483 741.228 684.93C752.262 672.743 759.306 662.598 762.837 657.081C756.225 652.51 742.272 644.555 725.251 644.555Z" fill="#4B2710"/>
<path d="M739.445 692.013C739.146 689.724 738.735 687.292 738.318 684.926C737.892 682.548 737.433 680.167 736.914 677.802C735.87 673.065 734.696 668.36 732.919 663.763C736.424 667.252 739.541 671.225 742.514 675.255C744.004 677.277 745.436 679.336 746.853 681.418C748.27 683.519 749.635 685.573 751.007 687.811L751.065 687.906C752.885 690.873 751.956 694.753 748.989 696.574C746.022 698.395 742.141 697.466 740.321 694.499C739.849 693.722 739.56 692.856 739.445 692.013Z" fill="#4B2710"/>
<path d="M812.953 346.213C812.953 347.445 812.937 348.706 812.905 349.982C811.368 409.97 759.071 442.272 722.156 449.96L597.568 190.014V185.398C605.889 174.8 620.854 167.663 636.867 164.941C653.401 162.111 671.059 163.973 683.704 171.556C714.468 190.014 716.006 223.853 742.154 240.773C760.424 252.586 812.568 282.243 812.953 346.213Z" fill="#AE531E"/>
<g opacity="0.6">
<path opacity="0.6" d="M812.953 347.467C812.953 348.699 812.937 349.96 812.905 351.237C811.874 391.507 787.973 419.301 761.194 435.542C782.959 418.775 800.493 393.506 801.372 359.144C801.403 357.868 801.419 356.607 801.419 355.375C801.034 291.405 748.893 261.748 730.617 249.935C704.469 233.015 702.931 199.175 672.167 180.718C659.523 173.135 641.864 171.273 625.33 174.103C617.101 175.504 609.149 178.073 602.244 181.67C610.887 173.81 623.515 168.472 636.866 166.195C653.401 163.365 671.059 165.228 683.704 172.811C714.468 191.268 716.006 225.107 742.154 242.027C760.424 253.841 812.568 283.494 812.953 347.467Z" fill="white"/>
</g>
<g opacity="0.2">
<path opacity="0.2" d="M812.953 346.213C812.953 347.445 812.937 348.706 812.905 349.982C811.368 409.97 759.071 442.272 722.156 449.96L597.568 190.014V185.398C605.889 174.8 620.854 167.663 636.867 164.941C647.665 170.926 657.692 178.076 666.491 185.445C692.086 206.873 708.713 236.867 730.032 262.554C739.216 273.597 749.368 283.994 756.518 296.438C764.884 311.005 769.359 328.631 782.481 339.121C790.924 345.873 802.368 348.152 812.953 346.213Z" fill="#000072"/>
</g>
<path d="M456.69 211.794L432.464 499.042C417.483 501.41 398.749 500.948 380.244 495.935C352.742 488.476 325.715 470.97 312.135 437.777C286.91 376.143 326.393 328.447 339.528 310.559C357.969 285.471 347.388 253.28 369.598 225.117C384.166 206.628 415.882 197.23 439.859 201.891C445.443 202.967 450.609 204.813 455.041 207.49L456.69 211.794Z" fill="#AE531E"/>
<g opacity="0.2">
<path opacity="0.2" d="M456.69 211.794L432.464 499.042C417.483 501.41 398.749 500.948 380.244 495.935C370.662 487.998 362.554 478.2 356.48 467.341C343.514 444.163 339.407 416.614 342.345 390.205C344.497 370.808 350.253 352.013 355.974 333.356C358.819 324.095 361.665 314.838 364.511 305.577C368.004 294.181 371.509 282.768 375.017 271.368C377.754 262.449 380.524 253.449 385 245.252C393.136 230.363 406.548 218.903 421.36 210.613C427.329 207.29 433.527 204.431 439.866 201.891C445.449 202.967 450.616 204.813 455.047 207.49L456.69 211.794Z" fill="#000072"/>
</g>
<g opacity="0.6">
<path opacity="0.6" d="M456.683 210.359L456.422 213.542C432.028 205.421 395.435 214.758 379.454 235.03C357.244 263.193 367.809 295.387 349.368 320.472C336.233 338.36 296.762 386.06 321.988 447.69C325.187 455.505 329.141 462.458 333.661 468.608C324.926 460.058 317.48 449.412 312.129 436.322C286.919 374.705 326.387 326.992 339.522 309.117C357.963 284.016 347.397 251.838 369.608 223.659C387.575 200.863 431.579 191.911 455.05 206.032L456.683 210.359Z" fill="white"/>
</g>
<path d="M722.153 456.114C719.823 456.114 717.645 454.786 716.608 452.621L592.019 192.675C591.242 191.051 591.239 189.256 591.863 187.709C591.064 185.732 591.319 183.395 592.729 181.6C611.721 157.428 659.23 149.699 686.868 166.281C704.399 176.799 713.287 192.118 721.128 205.635C727.915 217.334 734.33 228.383 745.494 235.609C746.439 236.221 747.477 236.883 748.594 237.593C770.19 251.335 820.762 283.519 819.056 350.138C818.327 378.579 806.542 404.154 784.974 424.098C768.067 439.732 745.627 451.354 723.41 455.983C722.99 456.069 722.57 456.114 722.153 456.114ZM603.412 187.979L725.562 442.836C755.448 434.989 805.281 407.331 806.755 349.823C808.283 290.163 761.828 260.599 741.989 247.974C740.843 247.245 739.78 246.567 738.809 245.939C725.165 237.112 717.703 224.251 710.486 211.81C702.699 198.392 695.346 185.719 680.537 176.834C658.851 163.824 619.237 169.742 603.412 187.979Z" fill="#4B2710"/>
<path d="M414.109 506.599C397.246 506.599 379.928 503.358 364.549 497.154C337.309 486.162 317.212 466.434 306.437 440.104C281.195 378.429 317.056 330.392 332.368 309.878C333.161 308.818 333.897 307.831 334.565 306.924C342.441 296.208 344.513 283.602 346.707 270.254C349.24 254.834 352.115 237.357 364.772 221.303C384.726 195.992 431.888 186.359 458.221 202.216C460.179 203.393 461.242 205.491 461.2 207.621C462.334 208.847 462.967 210.524 462.818 212.316L438.592 499.557C438.353 502.378 436.22 504.673 433.425 505.116C427.148 506.109 420.66 506.599 414.109 506.599ZM427.071 206.831C407.423 206.831 385.289 215.153 374.437 228.918C363.744 242.482 361.366 256.938 358.851 272.247C356.518 286.439 354.105 301.111 344.485 314.207C343.8 315.137 343.046 316.149 342.234 317.238C328.166 336.08 295.225 380.209 317.83 435.444C339.617 488.686 396.02 496.858 426.747 493.588L450.501 211.973C443.972 208.461 435.762 206.831 427.071 206.831Z" fill="#4B2710"/>
<path d="M764.454 407.662C759.838 532.251 593.722 559.937 593.722 559.937C593.722 559.937 410.683 590.701 363.4 464.495C329.007 372.731 379.521 322.373 384.535 290.762C389.533 259.154 421.927 178.97 522.968 163.095C549.04 159.004 571.973 160.233 591.968 164.865C654.525 179.368 688.148 227.205 698.316 249.231C709.836 274.163 752.965 300.729 762.671 369.761C764.269 381.173 764.963 393.741 764.454 407.662Z" fill="#FF9331"/>
<path d="M762.671 369.761C740.107 387.25 711.775 397.663 681.011 397.663C607.318 397.663 547.579 337.92 547.579 264.231C547.579 224.764 564.715 189.294 591.968 164.868C654.525 179.372 688.148 227.208 698.316 249.234C709.833 274.167 752.965 300.729 762.671 369.761Z" fill="#AE531E"/>
<g opacity="0.6">
<path opacity="0.6" d="M764.454 404.479C764.438 405.001 764.406 405.526 764.377 406.032C764.085 399.481 763.502 393.267 762.671 387.343C752.965 318.311 709.836 291.749 698.316 266.813C689.272 247.216 661.678 207.21 611.673 188.4C611.673 188.447 611.657 188.492 611.641 188.536C610.61 192.181 603.489 193.366 595.705 191.182C587.998 189.014 582.571 184.354 583.478 180.721C565.543 177.567 545.424 177.153 522.968 180.677C421.927 196.549 389.536 276.732 384.535 308.344C381.027 330.478 355.187 361.825 351.851 410.152C347.713 349.795 380.537 312.743 384.535 287.578C389.533 255.97 421.927 175.787 522.968 159.911C549.04 155.821 571.973 157.05 591.968 161.681C654.525 176.185 688.148 224.022 698.316 246.048C709.836 270.98 752.965 297.545 762.671 366.577C764.269 377.99 764.963 390.558 764.454 404.479Z" fill="white"/>
</g>
<g opacity="0.2">
<path opacity="0.2" d="M765.667 410.152C761.051 534.74 594.935 562.426 594.935 562.426C594.935 562.426 411.896 593.19 364.613 466.985C352.246 433.976 350.861 406.322 354.401 382.972C355.585 398.001 359.061 414.459 365.829 432.531C413.112 558.737 596.151 527.972 596.151 527.972C596.151 527.972 749.196 502.47 765.562 390.246C765.867 396.552 765.928 403.183 765.667 410.152Z" fill="#000072"/>
</g>
<path d="M546.121 569.42C531.076 569.42 513.615 568.481 495.339 565.622C425.413 554.681 377.796 520.459 357.638 466.654C331.331 396.46 353.414 348.763 368.026 317.2C372.992 306.475 377.28 297.211 378.458 289.797C384.64 250.702 422.602 172.635 522.013 157.018C547.063 153.086 571.066 153.71 593.356 158.87C669.573 176.545 700.614 239.528 703.902 246.653C707.083 253.532 713.344 261.054 720.596 269.764C737.977 290.637 761.78 319.224 768.764 368.904C770.48 381.157 771.101 394.273 770.604 407.885V407.888C768.63 461.143 737.392 505.424 680.259 535.947C637.751 558.657 596.472 565.718 594.734 566.007C593.499 566.211 573.934 569.42 546.121 569.42ZM553.828 166.778C544.09 166.778 534.103 167.577 523.92 169.175C431.506 183.695 396.31 255.684 390.612 291.723C389.167 300.831 384.544 310.814 379.193 322.37C364.619 353.847 344.66 396.956 369.162 462.334C387.935 512.44 431.028 543.1 497.243 553.462C547.346 561.302 592.254 553.939 592.7 553.866C593.114 553.796 633.986 546.777 674.73 524.945C728.364 496.205 756.479 456.667 758.303 407.43V407.433C758.775 394.54 758.192 382.151 756.575 370.611C750.077 324.401 728.485 298.469 711.135 277.633C703.326 268.258 696.584 260.16 692.726 251.81C681.73 227.988 647.843 184.134 590.574 170.856C578.83 168.141 566.542 166.778 553.828 166.778ZM764.454 407.662H764.47H764.454Z" fill="#4B2710"/>
<path d="M535.673 374.167L581.511 368.997C586.696 368.411 590.112 374.256 587.059 378.486L566.577 406.866C564.473 409.782 560.296 410.212 557.645 407.783L532.286 384.573C528.482 381.087 530.548 374.743 535.673 374.167Z" fill="#4B2710"/>
<path d="M562.222 393.795C565.17 400.27 565.794 407.777 564.572 415.013C563.33 422.265 560.156 429.252 555.604 435.173C551.055 441.12 545.051 445.898 538.439 449.32C531.824 452.79 524.607 454.859 517.222 455.884C509.954 456.731 502.324 456.305 495.107 454.372C487.868 452.481 481.011 449.002 475.239 444.224C473.858 442.957 472.47 441.702 471.123 440.413C469.878 439.019 468.656 437.602 467.481 436.163C466.418 434.629 465.291 433.149 464.314 431.573C463.423 429.94 462.531 428.313 461.78 426.629C458.902 419.832 457.899 412.234 459.758 405.217C459.914 404.632 460.516 404.281 461.102 404.437C461.404 404.517 461.643 404.718 461.783 404.969L461.796 404.991C465.142 411.123 468.182 416.378 471.693 421.169C472.572 422.357 473.527 423.484 474.361 424.668L477.2 427.966C478.219 428.994 479.308 429.952 480.307 430.981L483.618 433.741C488.183 437.223 493.299 439.945 498.768 441.721C504.256 443.472 510.056 444.166 515.942 443.568C521.663 442.912 527.326 441.101 532.273 438.121C537.239 435.164 541.524 431.248 545.233 426.874C548.944 422.481 552.007 417.528 554.464 412.081C556.954 406.624 558.721 400.691 560.185 394.018L560.188 394.005C560.316 393.423 560.892 393.054 561.474 393.181C561.815 393.264 562.085 393.499 562.222 393.795Z" fill="#4B2710"/>
<path d="M662.649 382.568C665.622 389.144 666.243 396.778 664.957 404.129C664.562 405.943 664.107 407.767 663.617 409.585C662.951 411.333 662.34 413.128 661.56 414.847C660.682 416.512 659.854 418.222 658.896 419.858C657.813 421.408 656.804 423.025 655.626 424.515C650.912 430.487 644.717 435.221 637.943 438.573C634.555 440.267 631.009 441.607 627.39 442.641C625.569 443.078 623.735 443.695 621.93 443.931L619.208 444.392L617.846 444.621C617.168 444.691 616.467 444.742 615.777 444.777L616.337 444.752C615.815 444.787 615.194 444.838 614.755 444.847L613.44 444.892L610.807 444.988C610.365 444.997 609.932 445.026 609.486 445.023L608.117 444.943L605.373 444.777C601.722 444.478 598.093 443.813 594.547 442.813C587.46 440.82 580.769 437.309 575.16 432.528C573.769 431.324 572.473 430.006 571.142 428.746C569.913 427.377 568.771 425.935 567.599 424.531C566.552 423.025 565.492 421.532 564.521 419.992C563.655 418.381 562.834 416.748 562.073 415.105C559.294 408.398 558.355 400.923 560.185 394.021C560.341 393.432 560.943 393.086 561.532 393.241C561.834 393.321 562.073 393.522 562.213 393.776L562.222 393.795C565.511 399.828 568.51 405.007 571.948 409.735C572.839 410.893 573.746 412.02 574.564 413.189C575.542 414.252 576.417 415.372 577.35 416.448L580.4 419.425C581.491 420.329 582.523 421.297 583.634 422.166C588.103 425.61 593.089 428.364 598.437 430.185C601.114 431.082 603.88 431.735 606.694 432.111L608.815 432.327L609.878 432.439C610.244 432.455 610.623 432.442 610.995 432.445L613.239 432.442L614.363 432.439L615.216 432.404L615.742 432.381L615.777 432.378C615.923 432.349 616.06 432.343 616.219 432.346L617.343 432.171L619.593 431.827C621.137 431.687 622.481 431.127 623.92 430.783C626.747 429.959 629.449 428.752 632.002 427.317C637.112 424.416 641.518 420.488 645.322 416.079C646.299 414.994 647.123 413.787 648.053 412.651C648.932 411.479 649.705 410.231 650.558 409.018L652.787 405.166C653.436 403.829 654.082 402.48 654.792 401.124C657.32 395.588 659.112 389.577 660.608 382.8L660.612 382.784C660.739 382.201 661.315 381.835 661.898 381.963C662.241 382.036 662.512 382.272 662.649 382.568Z" fill="#4B2710"/>
<path d="M614.761 438.64L599.102 514.564L551.421 517.639L520.52 449.116C546.207 444.224 564.158 420.307 561.204 393.913C564.218 420.905 587.938 440.486 614.761 438.64Z" fill="#4B2710"/>
<path d="M551.421 523.789C549.014 523.789 546.815 522.382 545.815 520.167L514.914 451.644C514.14 449.925 514.194 447.948 515.064 446.277C515.933 444.606 517.521 443.425 519.371 443.071C541.95 438.77 557.638 417.496 555.095 394.626C555.095 394.617 555.092 394.607 555.092 394.594C554.716 391.217 557.145 388.174 560.522 387.798C563.89 387.416 566.943 389.851 567.319 393.229C567.319 393.238 567.322 393.251 567.322 393.261C569.977 416.9 590.634 434.148 614.341 432.502C616.264 432.378 618.132 433.145 619.396 434.594C620.663 436.042 621.176 438 620.787 439.885L605.128 515.809C604.568 518.524 602.263 520.526 599.5 520.705L551.816 523.78C551.685 523.786 551.552 523.789 551.421 523.789ZM529.115 453.204L555.279 511.224L594.028 508.726L607.216 444.774C589.31 443.517 573.479 433.874 564.002 419.422C558.078 435.03 545.411 447.7 529.115 453.204Z" fill="#4B2710"/>
<path d="M579.68 547.292C566.625 548.999 554.656 539.802 552.949 526.744L548.76 494.715C547.054 481.66 556.25 469.691 569.309 467.984C582.364 466.278 594.333 475.475 596.04 488.533L600.229 520.561C601.935 533.616 592.735 545.586 579.68 547.292Z" fill="#FF48A0"/>
<path d="M576.529 553.653C569.958 553.653 563.607 551.504 558.31 547.432C551.959 542.549 547.888 535.485 546.85 527.542L542.66 495.514C540.515 479.117 552.112 464.027 568.51 461.885C584.904 459.746 599.997 471.336 602.139 487.734L606.328 519.762C608.474 536.16 596.877 551.249 580.479 553.392C579.158 553.567 577.837 553.653 576.529 553.653ZM579.68 547.295H579.696H579.68ZM572.412 473.937C571.652 473.937 570.881 473.985 570.108 474.087C560.437 475.354 553.599 484.252 554.862 493.919L559.052 525.948C559.666 530.634 562.066 534.801 565.81 537.678C569.557 540.556 574.198 541.807 578.884 541.193C588.555 539.926 595.393 531.028 594.13 521.36L589.94 489.332C588.775 480.435 581.154 473.937 572.412 473.937Z" fill="#4B2710"/>
<path d="M537.936 867.882C537.888 866.533 537.965 864.899 538.048 863.397C538.108 861.859 538.226 860.322 538.347 858.778C538.57 855.693 538.904 852.586 539.095 849.45C539.305 846.315 539.426 843.151 539.426 839.948C539.515 836.723 539.311 833.514 539.264 830.14V830.108C539.257 829.72 539.569 829.401 539.958 829.395C540.212 829.392 540.438 829.526 540.566 829.726C542.367 832.613 543.889 835.72 545.029 838.948C546.191 842.176 547.088 845.513 547.69 848.897C548.304 852.28 548.753 855.715 548.721 859.157C548.715 860.879 548.636 862.601 548.413 864.317C548.199 866.065 547.916 867.685 547.343 869.557C546.57 872.091 543.886 873.52 541.352 872.743C539.343 872.129 538.032 870.318 537.958 868.331L537.936 867.882Z" fill="#4B2710"/>
<path d="M567.981 863.699C567.847 862.451 567.819 860.904 567.822 859.491C567.787 858.039 567.825 856.584 567.854 855.123L568.163 846.27C568.226 843.294 568.277 840.282 568.207 837.242C568.223 834.18 568.035 831.12 568.022 827.918V827.896C568.019 827.504 568.338 827.186 568.726 827.186C568.974 827.186 569.194 827.316 569.321 827.507C572.855 832.919 575.211 839.034 576.719 845.328C577.477 848.48 578.066 851.688 578.228 854.935C578.321 856.556 578.33 858.189 578.216 859.819C578.101 861.487 577.92 863.021 577.464 864.842C576.818 867.414 574.208 868.974 571.639 868.328C569.636 867.825 568.248 866.131 568.035 864.193L567.981 863.699Z" fill="#4B2710"/>
<path d="M686.483 797.408C685.604 795.925 685.082 794.687 684.586 793.286C684.092 791.927 683.717 790.535 683.43 789.138C682.825 786.34 682.622 783.478 682.561 780.638C682.478 774.956 683.086 769.27 684.866 763.846C684.99 763.47 685.394 763.266 685.77 763.387C685.99 763.461 686.152 763.629 686.222 763.83L686.228 763.852C687.155 766.529 687.861 769.14 688.686 771.699C689.434 774.265 690.271 776.77 691.058 779.25C691.853 781.727 692.764 784.14 693.483 786.566C693.846 787.779 694.219 788.979 694.515 790.195C694.827 791.363 695.158 792.684 695.282 793.7L695.365 794.378C695.686 797.007 693.814 799.398 691.185 799.719C689.243 799.958 687.425 798.99 686.483 797.408Z" fill="#4B2710"/>
<path d="M719.558 793.413C718.89 792.649 718.47 792.095 718.014 791.43C717.575 790.781 717.177 790.138 716.811 789.463C716.069 788.138 715.449 786.757 714.936 785.35C713.882 782.539 713.265 779.597 712.88 776.656C712.51 773.711 712.348 770.757 712.533 767.819C712.689 764.887 713.157 761.984 713.952 759.173C714.061 758.794 714.455 758.574 714.834 758.682C715.06 758.746 715.229 758.912 715.305 759.112L715.315 759.141C716.334 761.85 717.152 764.467 718.161 766.998C719.071 769.541 720.144 771.983 721.182 774.377C722.229 776.771 723.452 779.05 724.508 781.342C725.04 782.491 725.597 783.612 726.088 784.758C726.361 785.308 726.584 785.9 726.839 786.445C727.055 786.986 727.348 787.62 727.434 788.008L727.717 789.269C728.287 791.812 726.686 794.336 724.142 794.906C722.401 795.304 720.663 794.668 719.558 793.413Z" fill="#4B2710"/>
<path d="M508.007 352.008C510.203 334.042 502.061 318.265 489.823 316.769C477.584 315.274 465.883 328.626 463.688 346.592C461.492 364.558 469.634 380.335 481.872 381.83C494.111 383.326 505.812 369.974 508.007 352.008Z" fill="#4B2710"/>
<path d="M498.471 344.763C499.113 339.515 496.735 334.907 493.161 334.47C489.587 334.033 486.17 337.933 485.529 343.181C484.888 348.429 487.265 353.037 490.839 353.473C494.413 353.91 497.83 350.01 498.471 344.763Z" fill="white"/>
<path d="M627.325 363.616C639.306 360.702 645.551 344.083 641.274 326.495C636.997 308.907 623.817 297.011 611.836 299.925C599.855 302.838 593.61 319.458 597.887 337.046C602.164 354.634 615.344 366.529 627.325 363.616Z" fill="#4B2710"/>
<path d="M615.107 336.496C618.605 335.645 620.429 330.791 619.18 325.654C617.93 320.517 614.081 317.042 610.583 317.893C607.084 318.744 605.26 323.598 606.51 328.735C607.759 333.872 611.608 337.347 615.107 336.496Z" fill="white"/>
<path d="M300.707 369.977C300.707 369.977 357.616 289.994 386.843 305.377C416.066 320.759 380.689 460.729 380.689 460.729L300.707 369.977Z" fill="#AFAFAF"/>
<path d="M191.882 351.074L85.0125 407.771C85.0125 407.771 88.5651 376.516 95.6864 342.769C103.823 304.224 116.604 262.417 134.078 260.233C150.536 258.186 165.024 281.091 175.392 304.409C185.668 327.524 191.882 351.074 191.882 351.074Z" fill="#AFAFAF"/>
<path d="M376.475 839.031C250.285 825.648 140.725 756.588 72.8457 656.871C75.8922 652.624 79.0151 648.18 82.1348 643.568C89.9342 632.079 97.8099 619.559 105.1 606.484C112.775 592.687 119.804 578.276 125.356 563.785L314.548 580.705L324.286 623.897L339.159 689.915C339.159 689.915 367.077 717.833 376.92 766.943C381.043 787.441 382.011 811.638 376.475 839.031Z" fill="#AFAFAF"/>
<g opacity="0.2">
<path opacity="0.2" d="M376.475 839.031C250.285 825.648 140.725 756.588 72.8457 656.871C75.8922 652.624 79.0151 648.18 82.1348 643.568C82.8256 644.936 83.5801 646.289 84.4587 647.582C95.8553 664.425 112.851 677.592 132.296 683.774C150.492 689.558 170.964 689.835 186.639 700.738C202.591 711.829 210.496 731.993 226.677 742.775C247.366 756.54 274.59 751.189 299.354 749.298C302.629 749.037 306.138 748.912 308.999 750.542C311.753 752.112 313.399 755.034 315.213 757.648C328.472 776.627 358.466 780.982 376.57 766.539C376.694 766.676 376.815 766.8 376.924 766.94C381.043 787.441 382.011 811.638 376.475 839.031Z" fill="#000072"/>
</g>
<path d="M376.481 842.307C376.264 842.307 376.045 842.294 375.825 842.272C250.985 829.032 138.7 761.668 67.7585 657.454C66.3037 655.318 66.3387 652.5 67.8476 650.402C80.0591 633.397 90.784 616.646 99.7261 600.605C107.888 585.932 114.58 571.833 119.613 558.702C120.596 556.133 123.159 554.531 125.906 554.776L315.099 571.696C317.76 571.935 319.966 573.864 320.552 576.471L344.787 684.019C353.471 693.404 400.363 748.998 382.504 837.373C381.921 840.27 379.375 842.307 376.481 842.307ZM80.3584 654.054C148.292 751.708 253.917 815.302 371.48 829.398C386.174 743.94 335.335 691.908 334.81 691.382C333.986 690.558 333.416 689.52 333.158 688.383L309.534 583.551L129.399 567.44C124.391 579.855 118.037 593.003 110.48 606.589C101.926 621.933 91.8058 637.879 80.3584 654.054Z" fill="#4B2710"/>
<path d="M324.286 623.891C299.507 648.578 252.3 661.054 201.019 653.194C160.182 646.933 125.665 629.137 105.1 606.481C112.775 592.684 119.804 578.273 125.356 563.782L314.548 580.702L324.286 623.891Z" fill="#FF0068"/>
<path d="M231.706 661.719C221.395 661.719 210.804 660.92 200.089 659.278C159.211 653.01 122.927 635.275 100.547 610.62C98.7743 608.665 98.4432 605.8 99.7262 603.492C107.892 588.816 114.583 574.714 119.616 561.583C120.6 559.014 123.162 557.412 125.91 557.657L315.102 574.577C317.763 574.816 319.969 576.745 320.555 579.352L330.29 622.541C330.755 624.604 330.127 626.759 328.631 628.252C307.013 649.788 271.493 661.719 231.706 661.719ZM112.654 605.51C133.365 626.47 165.616 641.543 201.951 647.114C247.948 654.162 292.793 644.262 317.515 621.841L309.531 586.432L129.395 570.321C124.878 581.523 119.263 593.327 112.654 605.51Z" fill="#4B2710"/>
<path d="M206.879 692.987C221.32 692.987 233.028 681.28 233.028 666.838C233.028 652.397 221.32 640.69 206.879 640.69C192.438 640.69 180.731 652.397 180.731 666.838C180.731 681.28 192.438 692.987 206.879 692.987Z" fill="#FFB012"/>
<g opacity="0.6">
<path opacity="0.6" d="M233.028 666.838C233.028 670.174 232.397 673.374 231.245 676.312C230.045 662.993 218.849 652.564 205.221 652.564C194.13 652.564 184.64 659.485 180.855 669.239C180.763 668.455 180.731 667.653 180.731 666.838C180.731 652.395 192.436 640.69 206.879 640.69C221.306 640.69 233.028 652.395 233.028 666.838Z" fill="white"/>
</g>
<g opacity="0.2">
<path opacity="0.2" d="M233.028 666.838C233.028 681.281 221.322 692.987 206.879 692.987C192.436 692.987 180.731 681.281 180.731 666.838C180.731 663.145 181.501 659.625 182.883 656.425C185.821 667.653 196.033 675.93 208.184 675.93C218.935 675.93 228.163 669.455 232.181 660.179C232.735 662.299 233.028 664.546 233.028 666.838Z" fill="#000072"/>
</g>
<path d="M206.879 699.137C189.068 699.137 174.577 684.646 174.577 666.835C174.577 649.024 189.068 634.536 206.879 634.536C224.69 634.536 239.181 649.027 239.181 666.835C239.181 684.649 224.69 699.137 206.879 699.137ZM206.879 646.84C195.852 646.84 186.884 655.811 186.884 666.835C186.884 677.862 195.855 686.83 206.879 686.83C217.903 686.83 226.874 677.859 226.874 666.835C226.874 655.811 217.907 646.84 206.879 646.84Z" fill="#4B2710"/>
<path d="M208.188 778.983C206.281 792.627 200.621 804.963 189.96 812.959C153.045 840.645 132.372 771.476 142.708 736.083L124.436 718.947C124.436 718.947 124.773 718.518 125.435 717.779C129.59 713.163 146.506 696.692 173.04 700.675C194.929 703.953 212.909 745.389 208.188 778.983Z" fill="#AFAFAF"/>
<g opacity="0.2">
<path opacity="0.2" d="M208.188 778.983C206.281 792.627 200.621 804.963 189.96 812.959C153.045 840.645 132.372 771.476 142.708 736.083L124.436 718.947C124.436 718.947 124.773 718.517 125.435 717.779C134.973 718.241 147.261 721.516 158.243 732.76C158.243 732.76 148.353 788.164 172.823 796.068C187.19 800.716 200.035 789.243 208.188 778.983Z" fill="#000072"/>
</g>
<g opacity="0.6">
<path opacity="0.6" d="M196.129 807.239C209.681 772.46 189.699 718.533 164.597 714.767C148.878 712.415 136.542 717.228 128.221 722.519L124.436 718.966C124.436 718.966 142.279 696.062 173.04 700.678C201.897 704.998 223.987 775.659 196.129 807.239Z" fill="white"/>
</g>
<path d="M173.463 822.013C168.322 822.013 163.359 820.431 158.765 817.25C138.834 803.45 130.331 761.777 136.485 735.004L120.622 720.144C118.518 718.174 118.266 714.927 120.036 712.654C120.848 711.613 140.264 687.257 173.864 692.29C189.947 694.703 204.645 713.322 211.314 739.732C217.604 764.648 216.175 797.386 193.299 814.541C186.671 819.511 179.929 822.013 173.463 822.013ZM132.321 715.834L146.519 729.134C148.05 730.57 148.645 732.744 148.06 734.762C140.938 759.154 149.865 797.533 165.113 808.092C171.486 812.507 178.522 811.702 186.62 805.625C205.141 791.732 205.682 762.913 200.516 742.457C195.123 721.096 183.484 704.998 172.218 703.307C152.224 700.305 138.417 710.164 132.321 715.834Z" fill="#4B2710"/>
<path d="M339.468 833.432L296.985 822.726C296.985 822.726 280.712 852.949 254.563 839.108C244.472 833.769 237.952 820.112 235.753 804.3C231.137 771.476 245.042 729.347 283.79 732.977C313.937 735.807 328.042 772.861 334.457 801.146C338.497 819.052 339.468 833.432 339.468 833.432Z" fill="#AFAFAF"/>
<g opacity="0.2">
<path opacity="0.2" d="M339.468 833.432L296.985 822.726C296.985 822.726 280.712 852.949 254.563 839.108C244.472 833.769 237.952 820.112 235.753 804.3C236.198 804.947 250.228 825.142 266.762 825.066C283.574 824.989 301.324 811.654 304.307 796.071C304.307 796.071 313.628 819.358 334.438 801.162L334.454 801.146C338.497 819.052 339.468 833.432 339.468 833.432Z" fill="#000072"/>
</g>
<g opacity="0.6">
<path opacity="0.6" d="M339.467 833.435L337.5 832.941C333.177 805.38 320.151 752.22 283.79 748.804C252.752 745.898 237.647 772.352 235.23 799.885C232.432 767.815 246.767 729.5 283.79 732.976C333.005 737.592 339.467 833.435 339.467 833.435Z" fill="white"/>
</g>
<path d="M268.118 845.449C263.095 845.449 257.683 844.188 251.956 841.155C230.446 829.768 224.7 790.863 232.999 763.069C240.999 736.284 259.695 722.248 284.306 724.553C337.634 729.554 344.742 826.072 345.019 830.178C345.14 831.958 344.399 833.686 343.03 834.829C341.661 835.972 339.83 836.389 338.099 835.956L299.608 826.256C293.662 835.081 282.507 845.449 268.118 845.449ZM279.184 735.45C256.41 735.45 247.197 754.468 243.676 766.256C236.001 791.958 242.559 823.569 257.17 831.305C278.054 842.364 291.532 818.225 292.096 817.193C293.312 814.962 295.89 813.825 298.354 814.446L333.107 823.203C330.385 801.107 319.527 739.044 283.268 735.644C281.861 735.514 280.498 735.45 279.184 735.45Z" fill="#4B2710"/>
<path d="M290.115 822.191C290.933 821.169 291.847 819.823 292.672 818.578C293.515 817.308 294.336 816.003 295.113 814.678C296.67 812.026 298.15 809.298 299.411 806.475C301.922 800.834 303.896 794.833 303.785 788.352C304.864 791.392 305.421 794.687 305.65 798.013C305.857 801.346 305.685 804.695 305.361 808.041C305.023 811.387 304.434 814.694 303.727 817.995C303.374 819.648 302.97 821.287 302.524 822.926C302.066 824.598 301.636 826.142 300.99 827.95L300.901 828.198C299.739 831.455 296.157 833.151 292.904 831.99C289.647 830.828 287.951 827.246 289.113 823.993C289.348 823.328 289.701 822.713 290.115 822.191Z" fill="#4B2710"/>
<path d="M380.689 466.88C378.945 466.88 377.258 466.138 376.073 464.795L296.091 374.046C294.2 371.903 294.037 368.739 295.693 366.412C296.285 365.581 310.416 345.799 328.44 327.584C354.296 301.448 374.911 292.14 389.708 299.933C399.194 304.925 410.664 319.661 400.818 389.679C395.642 426.498 386.744 461.885 386.655 462.238C386.095 464.451 384.357 466.173 382.138 466.711C381.657 466.822 381.17 466.88 380.689 466.88ZM308.579 369.605L377.442 447.738C380.457 434.482 385.331 411.466 388.645 387.877C397.698 323.423 387.362 312.603 383.978 310.82C367.816 302.317 331.261 338.914 308.579 369.605Z" fill="#000072"/>
<path d="M366.845 419.199C365.148 419.199 363.496 418.495 362.318 417.212L326.941 378.76C325.021 376.672 324.776 373.543 326.349 371.181C326.642 370.744 333.581 360.367 342.192 350.387C355.649 334.791 365.635 328.921 373.622 331.917C382.389 335.202 384.194 348.553 379.855 377.99C377.156 396.313 373.008 413.746 372.829 414.478C372.301 416.69 370.595 418.428 368.395 419.001C367.882 419.132 367.36 419.199 366.845 419.199ZM339.311 374.03L363.419 400.232C369.086 373.288 371.445 349.136 368.774 343.45C363.929 344.084 350.724 357.794 339.311 374.03Z" fill="#000072"/>
<path d="M380.689 466.88C378.945 466.88 377.258 466.138 376.073 464.795L296.091 374.046C294.2 371.903 294.037 368.739 295.693 366.412C296.285 365.581 310.416 345.799 328.44 327.584C354.296 301.448 374.911 292.14 389.708 299.933C399.194 304.925 410.664 319.661 400.818 389.679C395.642 426.498 386.744 461.885 386.655 462.238C386.095 464.451 384.357 466.173 382.138 466.711C381.657 466.822 381.17 466.88 380.689 466.88ZM308.579 369.605L377.442 447.738C380.457 434.482 385.331 411.466 388.645 387.877C397.698 323.423 387.362 312.603 383.978 310.82C367.816 302.317 331.261 338.914 308.579 369.605Z" fill="#4B2710"/>
<path d="M85.022 413.918C83.8091 413.918 82.5994 413.558 81.5584 412.851C79.6707 411.565 78.652 409.34 78.9099 407.073C78.9512 406.71 83.1151 370.461 91.2646 334.183C106.761 265.196 122.694 255.458 133.33 254.134C149.922 252.068 165.925 268.048 180.896 301.627C191.331 325.034 197.574 348.524 197.835 349.514C198.564 352.278 197.294 355.178 194.769 356.518L87.9061 413.205C86.9989 413.679 86.0088 413.918 85.022 413.918ZM136.109 266.262C135.686 266.262 135.265 266.288 134.845 266.342C131.051 266.813 117.559 273.291 103.285 336.794C98.0612 360.035 94.4989 383.29 92.643 396.756L184.649 347.951C174.494 312.081 153.946 266.262 136.109 266.262Z" fill="#4B2710"/>
<path d="M114.8 374.189C113.548 374.189 112.307 373.81 111.25 373.062C109.394 371.75 108.41 369.519 108.697 367.265C108.793 366.517 111.062 348.744 115 330.646C121.326 301.595 127.721 289.737 137.071 289.737C137.077 289.737 137.083 289.737 137.093 289.737C145.624 289.753 152.895 298.768 159.981 318.107C164.515 330.484 167.348 342.645 167.466 343.154C168.106 345.917 166.772 348.76 164.238 350.036L117.566 373.533C116.691 373.972 115.745 374.189 114.8 374.189ZM137.519 302.273C133.018 306.739 126.725 330.118 122.529 357.256L154.331 341.247C149.413 322.153 141.951 304.765 137.519 302.273Z" fill="#4B2710"/>
<path d="M85.022 413.918C83.8091 413.918 82.5994 413.558 81.5584 412.851C79.6707 411.565 78.652 409.34 78.9099 407.073C78.9512 406.71 83.1151 370.461 91.2646 334.183C106.761 265.196 122.694 255.458 133.33 254.134C149.922 252.068 165.925 268.048 180.896 301.627C191.331 325.034 197.574 348.524 197.835 349.514C198.564 352.278 197.294 355.178 194.769 356.518L87.9061 413.205C86.9989 413.679 86.0088 413.918 85.022 413.918ZM136.109 266.262C135.686 266.262 135.265 266.288 134.845 266.342C131.051 266.813 117.559 273.291 103.285 336.794C98.0612 360.035 94.4989 383.29 92.643 396.756L184.649 347.951C174.494 312.081 153.946 266.262 136.109 266.262Z" fill="#4B2710"/>
<path d="M331.468 374.59C331.468 374.59 359.154 333.059 371.461 337.675C383.765 342.291 366.845 413.045 366.845 413.045L331.468 374.59Z" fill="#FA509C"/>
<path d="M161.471 344.539C161.471 344.539 150.221 295.909 137.08 295.887C123.939 295.865 114.8 368.035 114.8 368.035L161.471 344.539Z" fill="#FA509C"/>
<path d="M366.845 417.025C365.746 417.025 364.68 416.569 363.916 415.738L328.539 377.286C327.297 375.937 327.138 373.912 328.157 372.384C335.062 362.025 358.698 328.641 372.855 333.951C378.146 335.934 382.857 342.68 377.703 377.671C375.017 395.9 370.757 413.793 370.716 413.972C370.375 415.401 369.271 416.528 367.848 416.897C367.516 416.983 367.179 417.025 366.845 417.025ZM336.533 374.217L364.629 404.756C366.039 398.214 368.077 388.113 369.643 377.776C374.6 345.048 370.05 341.403 370.003 341.371C364.811 339.417 348.655 356.664 336.533 374.217Z" fill="#4B2710"/>
<path d="M114.799 372.015C113.991 372.015 113.185 371.769 112.504 371.286C111.304 370.436 110.667 368.997 110.852 367.536C110.874 367.354 113.205 349.11 117.123 331.105C124.636 296.584 131.42 291.908 137.067 291.908C137.074 291.908 137.08 291.908 137.086 291.908C152.211 291.936 162.541 331.512 165.349 343.644C165.762 345.433 164.9 347.27 163.26 348.095L116.589 371.591C116.025 371.875 115.411 372.015 114.799 372.015ZM137.07 299.866C137.083 299.873 131.541 301.681 124.627 334.049C122.443 344.271 120.787 354.445 119.797 361.061L156.862 342.403C151.711 321.701 142.673 299.876 137.07 299.866Z" fill="#4B2710"/>
<g opacity="0.2">
<path opacity="0.2" d="M191.882 351.074L85.0125 407.77C85.0125 407.77 88.5651 376.516 95.6864 342.769C114.698 328.755 145.29 309.467 175.392 304.409C185.668 327.523 191.882 351.074 191.882 351.074Z" fill="#000072"/>
</g>
<g opacity="0.2">
<path opacity="0.2" d="M303.005 365.533L383.577 455.776C383.577 455.776 391.083 425.228 396.11 391.105C383.137 371.368 361.134 342.667 334.654 327.482C316.999 345.599 303.005 365.533 303.005 365.533Z" fill="#000072"/>
</g>
<path d="M391.195 514.074C377.356 607.347 295.04 641.311 201.767 627.472C108.493 613.634 39.5856 557.234 53.4238 463.961C67.262 370.687 154.092 306.293 247.366 320.132C340.639 333.97 405.033 420.8 391.195 514.074Z" fill="#AFAFAF"/>
<g opacity="0.6">
<path opacity="0.6" d="M388.256 513.609C387.827 516.499 387.333 519.345 386.763 522.131C395.562 432.165 332.283 350.167 241.871 336.755C228.275 334.74 214.815 334.387 201.694 335.539V335.555C202.171 339.907 195.371 344.23 186.496 345.201C179.222 346 172.823 344.31 170.499 341.279C110.496 358.199 62.3978 407.465 49.4636 471.836C49.7247 469.083 50.078 466.3 50.495 463.483C64.3237 370.226 151.151 305.825 244.424 319.667C337.698 333.492 402.101 420.335 388.256 513.609Z" fill="white"/>
</g>
<g opacity="0.2">
<path opacity="0.2" d="M395.419 514.538C381.59 607.812 299.271 641.772 205.998 627.947C116.34 614.643 49.1995 562.022 56.413 475.118C62.6429 547.334 125.168 591.293 205.998 603.291C299.271 617.12 381.59 583.156 395.419 489.886C396.065 485.579 396.527 481.288 396.848 477.012C397.74 489.284 397.294 501.849 395.419 514.538Z" fill="#000072"/>
</g>
<path d="M240.983 636.625C228.084 636.625 214.678 635.606 200.866 633.559C151.246 626.196 110.505 607.618 83.0547 579.83C52.8888 549.291 40.5373 508.913 47.3402 463.06C61.6559 366.581 151.791 299.739 248.27 314.048C344.749 328.364 411.594 418.502 397.281 514.978C390.478 560.831 366.937 595.887 329.201 616.35C304.425 629.784 274.415 636.625 240.983 636.625ZM222.204 324.423C142.043 324.423 71.6199 383.242 59.5103 464.861C45.0322 562.458 123.968 609.706 202.671 621.383C281.371 633.062 370.63 610.763 385.108 513.169C398.427 423.404 336.23 339.538 246.465 326.218C238.318 325.009 230.207 324.423 222.204 324.423ZM391.194 514.074H391.21H391.194Z" fill="#000072"/>
<path d="M209.77 479.804L237.761 482.131C240.926 482.396 242.279 486.289 239.955 488.457L224.369 502.989C222.768 504.482 220.221 504.243 218.925 502.483L206.519 485.624C204.657 483.09 206.64 479.543 209.77 479.804Z" fill="#000072"/>
<path d="M162.496 493.391C164.371 497.443 165.995 500.706 167.829 503.635C169.634 506.551 171.537 509.13 173.699 511.45C175.844 513.765 178.194 515.904 180.941 517.543C183.707 519.17 186.77 520.186 190.128 520.38L191.137 520.386L192.43 520.358C193.321 520.383 194.069 520.198 194.872 520.119C196.447 519.88 197.988 519.457 199.468 518.903C202.416 517.766 205.157 516.194 207.634 514.249C210.155 512.332 212.326 510.005 214.443 507.417C216.633 504.832 218.807 502.031 221.762 498.389L221.79 498.354C222.211 497.835 222.975 497.755 223.493 498.176C223.624 498.284 223.732 498.418 223.805 498.558C226.078 502.944 226.002 508.035 224.496 512.609C222.914 517.177 219.944 521.249 216.305 524.515C212.625 527.756 208.188 530.153 203.464 531.448C201.108 532.117 198.692 532.547 196.269 532.728C195.066 532.795 193.815 532.938 192.688 532.856L190.962 532.801L190.065 532.779L188.957 532.706C184.287 532.209 179.461 530.971 175.074 528.899C170.665 526.845 166.597 523.869 163.541 520.03C160.507 516.194 158.438 511.59 157.804 506.831C157.187 502.088 157.916 497.192 160.453 493.219C160.796 492.681 161.513 492.522 162.051 492.866C162.245 492.99 162.388 493.162 162.48 493.356L162.496 493.391Z" fill="#4B2710"/>
<path d="M223.805 498.561C225.652 502.55 227.247 505.768 229.055 508.662C230.825 511.543 232.693 514.089 234.807 516.385C236.899 518.683 239.2 520.787 241.865 522.455C244.526 524.108 247.588 525.196 250.765 525.461L251.243 525.531C251.272 525.515 251.284 525.515 251.316 525.524L251.946 525.534L253.207 525.55C254.06 525.601 254.843 525.413 255.658 525.359C257.269 525.158 258.842 524.751 260.357 524.219C263.375 523.111 266.179 521.548 268.707 519.584C271.286 517.664 273.501 515.312 275.653 512.692C277.872 510.072 280.072 507.239 283.074 503.543L283.102 503.508C283.526 502.989 284.287 502.909 284.805 503.333C284.936 503.441 285.044 503.575 285.117 503.715C287.425 508.172 287.311 513.351 285.729 517.98C284.083 522.608 281.011 526.708 277.27 529.978C273.482 533.209 268.933 535.571 264.113 536.793C261.71 537.43 259.249 537.809 256.788 537.955C255.563 537.984 254.309 538.124 253.118 538.006L251.313 537.917L250.412 537.873C249.938 537.825 249.444 537.758 248.964 537.682L249.441 537.752C244.736 537.15 240.088 535.867 235.775 533.753C231.465 531.662 227.523 528.65 224.572 524.83C221.647 521.01 219.667 516.461 219.084 511.775C218.524 507.102 219.263 502.298 221.765 498.389C222.109 497.851 222.825 497.692 223.366 498.039C223.56 498.163 223.703 498.335 223.793 498.529L223.805 498.561Z" fill="#4B2710"/>
<path d="M215.532 597.396C214.793 597.396 214.054 597.358 213.313 597.281C201.563 596.078 191.959 585.518 186.957 568.315C183.561 556.613 182.536 542.877 183.991 528.583C184.089 527.651 184.185 526.753 184.296 525.843C184.691 522.624 187.515 520.256 190.755 520.45C204.135 521.208 215.506 511.355 216.646 497.988C216.646 497.978 216.649 497.966 216.649 497.956C216.935 494.572 219.915 492.06 223.296 492.347C226.68 492.633 229.195 495.607 228.908 498.994C228.908 499.007 228.905 499.016 228.905 499.029C227.784 512.431 237.376 524.05 250.753 525.492C254.025 525.846 256.441 528.711 256.234 531.999C256.152 533.285 256.04 534.587 255.91 535.908C254.471 550.084 250.734 563.247 245.099 573.998C237.242 588.995 226.568 597.396 215.532 597.396ZM195.986 532.61C195.097 544.201 196.071 555.569 198.774 564.881C202.254 576.847 208.156 584.382 214.567 585.041C221.017 585.703 228.361 579.435 234.209 568.28C238.799 559.517 242.062 548.327 243.463 536.59C233.68 533.903 225.722 527.434 221.055 518.951C215.025 526.54 206.083 531.601 195.986 532.61Z" fill="#000072"/>
<path d="M215.532 597.396C214.793 597.396 214.055 597.358 213.313 597.281C201.563 596.078 191.959 585.519 186.958 568.315C186.512 566.787 186.677 565.145 187.419 563.735C192.891 553.328 203.588 546.863 215.338 546.863C229.195 546.863 241.62 556.123 245.554 569.385C246.01 570.919 245.847 572.572 245.105 573.991C237.243 588.995 226.569 597.396 215.532 597.396ZM199.564 567.399C203.107 577.897 208.617 584.43 214.567 585.041C220.552 585.655 227.307 580.301 232.923 570.614C229.889 563.773 222.971 559.17 215.341 559.17C208.987 559.166 203.136 562.27 199.564 567.399Z" fill="#000072"/>
<path d="M240.983 636.625C228.084 636.625 214.678 635.606 200.866 633.559C151.246 626.196 110.505 607.618 83.0547 579.83C52.8888 549.291 40.5373 508.913 47.3402 463.06C61.6559 366.581 151.791 299.739 248.27 314.048C344.749 328.364 411.594 418.502 397.281 514.978C390.478 560.831 366.937 595.887 329.201 616.35C304.425 629.784 274.415 636.625 240.983 636.625ZM222.204 324.423C142.043 324.423 71.6199 383.242 59.5103 464.861C45.0322 562.458 123.968 609.706 202.671 621.383C281.371 633.062 370.63 610.763 385.108 513.169C398.427 423.404 336.23 339.538 246.465 326.218C238.318 325.009 230.207 324.423 222.204 324.423ZM391.194 514.074H391.21H391.194Z" fill="#4B2710"/>
<path d="M209.77 479.804L237.761 482.131C240.926 482.396 242.279 486.289 239.955 488.457L224.369 502.989C222.768 504.482 220.221 504.243 218.925 502.483L206.519 485.624C204.657 483.09 206.64 479.543 209.77 479.804Z" fill="#4B2710"/>
<path d="M250.1 531.605C250.024 532.821 249.916 534.049 249.791 535.297C248.391 549.078 244.701 561.506 239.655 571.136C232.795 584.226 223.43 592.13 213.937 591.163C204.492 590.195 196.957 580.673 192.863 566.6C189.816 556.11 188.696 543.097 190.109 529.207C190.201 528.332 190.294 527.469 190.402 526.594C206.984 527.549 221.38 515.121 222.78 498.478C221.37 515.162 233.55 529.819 250.1 531.605Z" fill="#4B2710"/>
<path d="M239.659 571.136C232.798 584.226 223.433 592.13 213.94 591.163C204.495 590.195 196.96 580.673 192.866 566.6C197.113 558.523 205.587 553.019 215.338 553.019C226.83 553.016 236.549 560.659 239.659 571.136Z" fill="#FF48A0"/>
<path d="M215.532 597.396C214.793 597.396 214.054 597.358 213.313 597.281C201.563 596.078 191.959 585.518 186.957 568.315C183.561 556.613 182.536 542.877 183.991 528.583C184.089 527.651 184.185 526.753 184.296 525.843C184.691 522.624 187.515 520.256 190.755 520.45C204.135 521.208 215.506 511.355 216.646 497.988C216.646 497.978 216.649 497.966 216.649 497.956C216.935 494.572 219.915 492.06 223.296 492.347C226.68 492.633 229.195 495.607 228.908 498.994C228.908 499.007 228.905 499.016 228.905 499.029C227.784 512.431 237.376 524.05 250.753 525.492C254.025 525.846 256.441 528.711 256.234 531.999C256.152 533.285 256.04 534.587 255.91 535.908C254.471 550.084 250.734 563.247 245.099 573.998C237.242 588.995 226.568 597.396 215.532 597.396ZM195.986 532.61C195.097 544.201 196.071 555.569 198.774 564.881C202.254 576.847 208.156 584.382 214.567 585.041C221.017 585.703 228.361 579.435 234.209 568.28C238.799 559.517 242.062 548.327 243.463 536.59C233.68 533.903 225.722 527.434 221.055 518.951C215.025 526.54 206.083 531.601 195.986 532.61Z" fill="#4B2710"/>
<path d="M82.2907 479.184C77.3437 478.152 72.7437 476.927 68.1723 475.726C63.6137 474.517 59.1219 473.348 54.6429 472.237C50.1638 471.082 45.6753 470.197 41.1198 469.277C36.5389 468.335 31.9389 467.809 26.9187 466.88C31.4296 464.635 36.4752 463.445 41.5114 463.241C46.5411 463.063 51.6282 463.505 56.4765 464.769C61.3376 465.982 66.0299 467.774 70.4134 470.13C74.7651 472.521 78.9131 475.376 82.2907 479.184Z" fill="#4B2710"/>
<path d="M83.0229 514.376C77.9836 514.745 73.2244 514.834 68.4971 514.939C63.7793 515.032 59.1443 515.143 54.5315 515.309C49.9061 515.43 45.3506 515.818 40.7156 516.184C36.0519 516.537 31.4838 517.302 26.4031 517.792C30.1213 514.392 34.6449 511.858 39.4295 510.276C44.2142 508.719 49.2312 507.745 54.2355 507.624C59.243 507.452 64.2473 507.882 69.1083 508.942C73.9534 510.043 78.7285 511.648 83.0229 514.376Z" fill="#4B2710"/>
<path d="M95.4604 546.105C90.9973 548.473 86.6774 550.476 82.3926 552.475C78.1141 554.458 73.9152 556.432 69.7609 558.444C65.5779 560.417 61.5636 562.611 57.4698 564.814C53.3441 567.017 49.4731 569.557 45.0195 572.053C47.0537 567.443 50.1734 563.302 53.9139 559.927C57.6672 556.572 61.8629 553.662 66.396 551.536C70.9069 549.361 75.6629 547.738 80.5398 546.748C85.4136 545.793 90.4306 545.334 95.4604 546.105Z" fill="#4B2710"/>
<path d="M364.916 504.893C369.35 502.394 374.205 501.05 379.101 500.207C384.013 499.408 389.033 499.245 394.022 499.685C399.013 500.073 403.97 501.308 408.665 503.119C413.357 504.953 417.741 507.726 421.271 511.317C416.222 510.559 411.702 509.553 407.064 508.951C402.454 508.337 397.924 507.707 393.315 507.341C388.718 506.93 384.093 506.57 379.387 506.226C374.676 505.873 369.93 505.529 364.916 504.893Z" fill="#4B2710"/>
<path d="M352.746 537.924C357.696 536.743 362.732 536.784 367.673 537.325C372.613 537.911 377.487 539.133 382.163 540.932C386.856 542.68 391.281 545.233 395.295 548.266C399.3 551.322 402.75 555.193 405.157 559.618C400.512 557.498 396.444 555.289 392.15 553.433C387.89 551.574 383.707 549.721 379.375 548.098C375.068 546.436 370.722 544.816 366.291 543.192C361.86 541.553 357.39 539.916 352.746 537.924Z" fill="#4B2710"/>
<path d="M330.643 563.859C335.648 564.772 340.241 566.841 344.545 569.325C348.833 571.852 352.797 574.934 356.352 578.464C359.943 581.953 362.961 586.076 365.416 590.469C367.851 594.881 369.449 599.812 369.869 604.832C366.472 601.022 363.639 597.357 360.459 593.929C357.307 590.51 354.229 587.129 350.918 583.898C347.646 580.641 344.322 577.407 340.922 574.138C337.523 570.856 334.091 567.555 330.643 563.859Z" fill="#4B2710"/>
<path d="M252.399 838.706C252.103 838.219 251.991 838.032 251.829 837.723C251.685 837.436 251.555 837.175 251.431 836.895C251.211 836.354 250.995 835.813 250.842 835.275C250.511 834.192 250.32 833.116 250.186 832.04C249.925 829.888 250.097 827.759 250.364 825.686C250.619 823.611 251.125 821.593 251.72 819.628C252.367 817.671 253.14 815.767 254.165 813.952C254.331 813.66 254.7 813.558 254.993 813.723C255.143 813.809 255.245 813.949 255.283 814.105L255.286 814.124C255.537 815.13 255.735 816.117 255.9 817.088C256.12 818.062 256.26 819.017 256.448 819.966C256.811 821.857 257.139 823.703 257.537 825.489L258.727 830.672C258.925 831.496 259.087 832.321 259.249 833.107L259.459 834.272C259.498 834.447 259.513 834.648 259.542 834.81C259.552 834.953 259.615 835.214 259.526 835.163C260.503 837.131 259.701 839.518 257.734 840.499C255.767 841.476 253.379 840.674 252.399 838.706Z" fill="#4B2710"/>
<path d="M273.594 841.985C272.588 839.732 272.263 837.751 272.085 835.596C271.916 833.483 272.078 831.359 272.343 829.271C272.906 825.097 273.995 821 275.978 817.241C276.134 816.945 276.5 816.833 276.796 816.989C276.955 817.072 277.06 817.215 277.102 817.378L277.105 817.397C277.614 819.444 277.945 821.414 278.362 823.353C278.719 825.288 279.142 827.183 279.515 829.048C279.9 830.914 280.368 832.741 280.67 834.552C280.979 836.322 281.282 838.258 281.256 839.84L281.247 840.419C281.215 842.628 279.397 844.392 277.188 844.36C275.583 844.335 274.208 843.364 273.594 841.985Z" fill="#4B2710"/>
<path d="M151.857 801.171C151.596 801.308 151.791 801.076 151.806 800.996L152.032 800.576C152.211 800.289 152.376 799.949 152.583 799.634C152.956 798.946 153.379 798.258 153.796 797.507C154.608 796.014 155.569 794.461 156.403 792.77C157.272 791.102 158.097 789.342 158.953 787.543C159.37 786.639 159.79 785.725 160.249 784.802C160.666 783.873 161.127 782.94 161.637 782.001L161.646 781.985C161.805 781.692 162.175 781.584 162.468 781.743C162.624 781.829 162.729 781.975 162.767 782.134C163.263 784.223 163.499 786.327 163.607 788.454C163.658 790.574 163.591 792.722 163.267 794.874C162.964 797.023 162.484 799.217 161.544 801.321C161.096 802.378 160.519 803.422 159.81 804.421C159.45 804.931 159.045 805.415 158.59 805.902C158.371 806.144 158.09 806.382 157.839 806.621C157.505 806.901 157.355 807.029 156.706 807.487C154.961 808.824 152.465 808.499 151.125 806.755C149.785 805.007 150.113 802.508 151.857 801.171Z" fill="#4B2710"/>
<path d="M169.439 812.896C169.188 812.966 169.439 812.762 169.5 812.663L169.856 812.246L170.674 811.291C171.225 810.604 171.814 809.887 172.394 809.114C173.53 807.56 174.772 805.905 175.86 804.065C176.994 802.257 178.028 800.305 179.091 798.309L180.661 795.25C181.157 794.206 181.695 793.158 182.288 792.105L182.3 792.082C182.463 791.796 182.822 791.694 183.109 791.856C183.278 791.952 183.383 792.121 183.408 792.299C183.561 793.499 183.66 794.706 183.717 795.915C183.758 797.125 183.698 798.328 183.666 799.548C183.472 801.964 183.15 804.412 182.479 806.828C181.845 809.244 180.966 811.689 179.543 813.949C178.849 815.086 178.019 816.181 177.022 817.19C176.532 817.702 175.975 818.177 175.376 818.638C175.068 818.871 174.737 819.081 174.393 819.301C173.985 819.539 173.772 819.667 173.014 820.01C171.05 820.997 168.659 820.208 167.673 818.244C166.686 816.276 167.478 813.882 169.439 812.896Z" fill="#4B2710"/>
<path d="M186.527 451.018C191.313 434.712 186.188 418.851 175.082 415.592C163.975 412.332 151.091 422.908 146.306 439.214C141.52 455.52 146.645 471.381 157.751 474.641C168.858 477.9 181.742 467.324 186.527 451.018Z" fill="#4B2710"/>
<path d="M178.808 442.846C180.206 438.083 178.709 433.451 175.465 432.499C172.221 431.547 168.458 434.636 167.06 439.398C165.663 444.16 167.16 448.792 170.404 449.744C173.647 450.696 177.41 447.608 178.808 442.846Z" fill="white"/>
<path d="M311.323 448.658C307.382 449.193 303.352 449.9 299.573 450.883C295.769 451.861 292.118 453.108 288.667 454.63C286.916 455.346 285.289 456.27 283.631 457.11L281.266 458.571C280.46 459.03 279.709 459.564 278.977 460.121C275.905 462.178 273.313 464.823 270.751 467.507L265.263 459.068C266.479 458.772 267.291 458.648 268.258 458.523C269.191 458.393 270.108 458.326 271.025 458.256C272.858 458.135 274.682 458.17 276.497 458.278C280.123 458.507 283.71 459.214 287.126 460.386C290.517 461.608 293.815 463.098 296.692 465.199C299.662 467.134 302.158 469.668 304.364 472.288C305.011 473.056 304.912 474.198 304.145 474.845C303.575 475.325 302.795 475.392 302.168 475.08L301.974 474.982C300.528 474.262 299.22 473.418 297.816 472.76C296.393 472.126 295.05 471.426 293.608 470.935C290.787 469.85 287.916 469.054 285.006 468.631C282.119 468.125 279.19 467.965 276.296 468.077C274.848 468.125 273.412 468.271 271.996 468.446C271.292 468.554 270.589 468.65 269.91 468.796C269.563 468.857 269.239 468.939 268.914 469.016L268.449 469.127L268.112 469.22L267.978 469.255C265.18 470.006 262.299 468.347 261.548 465.546C261.086 463.824 261.557 462.047 262.624 460.777C265.622 457.263 268.876 453.847 272.798 451.297C274.651 449.868 276.774 448.884 278.792 447.754C280.925 446.853 283.02 445.869 285.238 445.274C289.616 443.921 294.136 443.202 298.612 443.154C303.113 443.151 307.484 443.622 311.839 445.083C312.794 445.405 313.31 446.439 312.988 447.394C312.759 448.075 312.17 448.531 311.505 448.623L311.323 448.658Z" fill="#4B2710"/>
</g>
<defs>
<clipPath id="clip0_365_6">
<rect width="842.899" height="876" fill="white"/>
</clipPath>
</defs>
</svg>
