<svg width="150" height="95" viewBox="0 0 150 95" fill="none" xmlns="http://www.w3.org/2000/svg">
<g opacity="0.2">
<g opacity="0.2">
<g opacity="0.2">
<g opacity="0.2">
<path opacity="0.2" d="M76.1526 94.4281C115.457 94.4281 147.319 91.1017 147.319 86.9984C147.319 82.895 115.457 79.5686 76.1526 79.5686C36.8483 79.5686 4.98596 82.895 4.98596 86.9984C4.98596 91.1017 36.8483 94.4281 76.1526 94.4281Z" fill="#4B2710"/>
</g>
</g>
</g>
</g>
<path d="M136.741 41.9807C136.741 41.9807 143.088 43.5658 147.192 52.7317C151.045 61.3371 145.788 70.3113 139.885 65.8445C133.982 61.3783 136.741 41.9807 136.741 41.9807Z" fill="#FEC267"/>
<g opacity="0.3">
<g opacity="0.3">
<g opacity="0.3">
<g opacity="0.3">
<path opacity="0.3" d="M147.319 63.9653C145.775 66.8887 142.915 68.1368 139.885 65.8441C133.982 61.3784 136.74 41.9802 136.74 41.9802C136.74 41.9802 138.728 42.4778 141.197 44.5203C140.841 50.6101 140.997 59.9153 144.857 62.8365C145.701 63.4728 146.528 63.8366 147.319 63.9653Z" fill="#4B2710"/>
</g>
</g>
</g>
</g>
<path d="M143.027 67.9589C141.807 67.9589 140.545 67.4987 139.331 66.5799C133.067 61.8407 135.715 42.6649 135.83 41.8509L135.974 40.8396L136.964 41.087C137.241 41.1561 143.794 42.8894 148.032 52.355C150.713 58.3423 149.212 64.3959 146.212 66.7889C145.234 67.5695 144.148 67.9589 143.027 67.9589ZM137.504 43.2566C136.805 49.1959 136.25 61.9393 140.44 65.1096C142.094 66.3604 143.693 66.4429 145.066 65.3475C147.463 63.4342 148.637 58.2114 146.352 53.1089C143.45 46.6257 139.363 44.1085 137.504 43.2566Z" fill="#4B2710"/>
<path d="M126.36 84.3858L105.092 84.5168L104.879 84.519H104.842L72.7231 84.7168L80.6174 22.8835C80.6174 22.8835 115.936 7.98828 135.245 31.7535C138.725 36.0336 140.814 40.3338 141.882 44.5298C147.28 65.7922 126.36 84.3858 126.36 84.3858Z" fill="#FEC267"/>
<g opacity="0.3">
<g opacity="0.3">
<g opacity="0.3">
<g opacity="0.3">
<path opacity="0.3" d="M126.36 84.3859L105.092 84.5168L105.186 68.3296C105.186 68.3296 102.255 54.0261 110.584 45.706C114.296 41.9953 130.441 42.9976 141.882 44.5304C147.28 65.7923 126.36 84.3859 126.36 84.3859Z" fill="#4B2710"/>
</g>
</g>
</g>
</g>
<g opacity="0.6">
<g opacity="0.6">
<g opacity="0.6">
<g opacity="0.6">
<path opacity="0.6" d="M139.198 37.6582C138.807 37.1261 138.396 36.5963 137.966 36.0664C119.098 12.8439 85.9833 24.0105 80.1952 26.2013L80.618 22.8839C80.618 22.8839 115.937 7.98877 135.246 31.754C136.844 33.7219 138.152 35.6948 139.198 37.6582Z" fill="white"/>
</g>
</g>
</g>
</g>
<path d="M71.6489 85.6723L79.7484 22.2243L80.2502 22.0126C80.6168 21.8582 89.356 18.2183 100.628 17.4633C115.656 16.4554 127.883 21.1913 135.979 31.1573C144.859 42.0871 146.1 54.9063 139.567 68.2297C134.682 78.1929 127.3 84.817 126.988 85.0945L126.722 85.3307L126.367 85.333L71.6489 85.6723ZM81.484 23.5592L73.799 83.7645L125.99 83.4408C127.336 82.1777 133.677 75.9693 137.893 67.3466C144.138 54.5737 143.001 42.7997 134.512 32.3524C126.719 22.7608 115.377 18.3877 100.807 19.3493C91.3308 19.9761 83.4956 22.7837 81.484 23.5592Z" fill="#4B2710"/>
<path d="M36.0857 62.0046C36.0568 62.3228 36.0106 62.6231 35.9528 62.9095C35.9094 62.7301 35.8632 62.5568 35.8115 62.3835C35.7542 62.1952 35.8894 62.0046 36.0857 62.0046Z" fill="#6B184E"/>
<path d="M79.2389 71.7254C79.0542 71.5086 78.9563 71.3816 78.9563 71.3816C79.141 71.3816 79.2706 71.5493 79.2389 71.7254Z" fill="#6B184E"/>
<path d="M56.3644 36.9751V36.9784L56.3589 36.9751H56.3644Z" fill="#686779"/>
<path d="M56.3589 36.9751L56.3528 36.9784V36.9751H56.3589Z" fill="#686779"/>
<path d="M56.2471 59.1257C57.6005 62.9785 64.1007 66.4301 65.8797 58.2114L56.2471 59.1257Z" fill="white"/>
<path d="M56.2471 58.5556C56.2833 62.6742 49.031 65.7447 47.9257 57.7205L56.2471 58.5556Z" fill="white"/>
<path d="M47.0834 58.0822C47.2459 58.6293 47.4144 59.1731 47.6397 59.6773C47.8561 60.1866 48.1142 60.6652 48.4285 61.073C48.7406 61.4814 49.0994 61.8241 49.4999 62.0492C49.9004 62.2732 50.3343 62.3918 50.7916 62.3863C51.7073 62.3818 52.6758 61.9339 53.4701 61.2753C54.2639 60.6151 54.9159 59.7386 55.2508 58.8204L56.1242 56.428L56.987 58.8204C57.3191 59.7414 57.9799 60.61 58.7699 61.2731C59.5637 61.9316 60.5283 62.384 61.4473 62.3963C62.364 62.4242 63.2096 61.9316 63.851 61.102C64.0156 60.9014 64.153 60.6697 64.2999 60.444C64.4284 60.2028 64.5669 59.9665 64.6743 59.7069C64.9157 59.2032 65.0959 58.6577 65.2784 58.11L65.2856 58.0889C65.3707 57.8337 65.6455 57.6966 65.9003 57.7813C66.1278 57.8577 66.2619 58.0861 66.2263 58.3156C66.1334 58.9263 66.0221 59.5414 65.8241 60.147C65.6333 60.7516 65.3835 61.3572 65.0153 61.9216C64.6531 62.4843 64.1825 63.0248 63.5673 63.4193C62.9587 63.8137 62.2199 64.0667 61.4862 64.0862C60.7525 64.1129 60.041 63.9642 59.394 63.7151C58.7431 63.4672 58.1607 63.1039 57.6328 62.6866C56.5814 61.8469 55.7353 60.7582 55.2514 59.4333H56.9875C56.5069 60.761 55.6513 61.8419 54.6044 62.6844C54.0776 63.1022 53.4952 63.4655 52.8454 63.7157C52.1996 63.9675 51.4881 64.1196 50.7527 64.0956C50.0173 64.0823 49.273 63.8343 48.6583 63.4415C48.0391 63.0471 47.5513 62.5161 47.183 61.95C46.8092 61.3839 46.5366 60.7839 46.3397 60.176C46.1249 59.5709 46.0026 58.9542 45.8891 58.3424C45.8273 58.0098 46.0465 57.6905 46.3786 57.6287C46.6879 57.5713 46.9866 57.7585 47.0751 58.0532L47.0834 58.0822Z" fill="#343C47"/>
<path d="M55.3837 52.4309L56.212 60.0791L54.3718 60.1003L54.8291 52.4588L55.3837 52.4309Z" fill="#343C47"/>
<path d="M63.2435 50.9103C63.2691 53.5713 59.6877 55.7626 55.2452 55.8049C50.8027 55.8473 47.1808 53.7245 47.1552 51.064C47.1296 48.403 50.7332 48.5557 55.1757 48.5128C59.6182 48.471 63.2179 48.2492 63.2435 50.9103Z" fill="#343C47"/>
<path d="M58.4611 50.462C58.4678 51.159 57.1433 51.7362 55.5028 51.7518C53.8623 51.7674 52.5272 51.2153 52.5205 50.5188C52.5139 49.8218 53.8445 49.858 55.485 49.8424C57.1249 49.8268 58.4544 49.7655 58.4611 50.462Z" fill="white"/>
<path d="M101.352 55.4484C101.343 54.9659 101.329 54.4745 101.312 53.9803C101.297 53.602 101.283 53.2176 101.266 52.8298C100.7 40.4312 97.7854 25.1137 88.9789 16.6059C86.183 13.9008 82.8586 11.8572 79.4136 10.3199C78.7471 10.0196 78.0746 9.73882 77.4026 9.47584C66.8588 5.35729 55.9228 5.55397 55.9228 5.55397C55.9228 5.55397 42.3033 5.7969 31.0151 11.9842C28.2131 13.522 25.553 15.4235 23.2816 17.7815C15.0264 26.3562 12.5559 41.1678 12.3139 53.3875C12.3084 53.1418 12.305 52.8933 12.3023 52.642C12.1409 39.888 14.2415 23.0244 23.2816 13.6345C25.5524 11.276 28.2131 9.37444 31.0151 7.83723C42.3033 1.64938 55.9228 1.40701 55.9228 1.40701C55.9228 1.40701 66.8588 1.21034 77.4026 5.32888C78.0752 5.59186 78.7471 5.87211 79.4136 6.17298C82.8586 7.71075 86.183 9.75386 88.9789 12.4589C97.7854 20.9673 100.7 36.2848 101.266 48.6834C101.283 49.0706 101.297 49.455 101.312 49.8334C101.378 51.804 101.387 53.6884 101.352 55.4484Z" fill="white"/>
<path d="M79.3613 81.2953C79.3613 81.2953 99.2262 74.8143 100.573 62.7729C101.836 51.4742 101.399 24.8023 88.6295 12.4589C76.8013 1.02652 55.5745 1.40651 55.5745 1.40651C55.5745 1.40651 34.3478 1.78649 22.9351 13.6351C10.6139 26.427 11.1224 53.0989 12.7946 64.3441C14.9173 78.6198 35.5733 82.0786 35.5733 82.0786C49.4137 85.4389 63.8682 85.3219 77.6524 81.7393L79.3613 81.2953Z" fill="#FEC267"/>
<g opacity="0.6">
<g opacity="0.6">
<g opacity="0.6">
<g opacity="0.6">
<path opacity="0.6" d="M101.382 54.9726C101.195 42.1288 98.5548 24.8172 88.9778 15.5605C77.1501 4.12757 55.9239 4.50588 55.9239 4.50588C55.9239 4.50588 52.0138 4.57608 46.6473 5.59346C39.5107 6.94625 29.7985 9.97332 23.2828 16.7367C14.909 25.4301 12.4647 40.5393 12.28 52.8542C12.087 40.0774 14.1931 23.075 23.2828 13.6361C34.6977 1.78693 55.9239 1.40527 55.9239 1.40527C55.9239 1.40527 77.1501 1.0264 88.9778 12.4599C99.3481 22.485 101.584 41.9583 101.382 54.9726Z" fill="white"/>
</g>
</g>
</g>
</g>
<path d="M56.9269 85.2154C51.4692 85.2154 44.2998 84.3802 43.9165 84.3351C40.6083 84.0476 36.1475 83.0726 35.7458 82.9834C35.3014 82.9071 30.277 82.0045 24.9261 79.3931C17.5375 75.7877 13.1484 70.6306 12.2339 64.4795C10.421 52.2849 10.2585 25.8314 22.6225 12.9944C34.1671 1.00867 55.0256 0.499979 55.9078 0.484379C56.7901 0.469893 77.653 0.230313 89.6181 11.7953C102.418 24.1677 103.208 50.6173 101.837 62.8749C100.441 75.362 80.8299 81.8986 79.9961 82.1705C79.8097 82.2257 75.9725 83.3512 72.0173 84.0064L71.9839 84.0114C71.599 84.061 62.512 85.2154 56.9269 85.2154ZM56.0986 2.32692C56.0035 2.32692 55.9495 2.32747 55.9401 2.32803C55.732 2.33193 34.9559 2.84508 23.947 14.2753C12.0809 26.5947 12.2873 52.325 14.0541 64.2087C16.0528 77.6497 35.8743 81.1364 36.0746 81.1704L36.1219 81.1793C36.1686 81.1899 40.8175 82.2179 44.0896 82.5004L44.1196 82.5037C44.1925 82.5126 51.4575 83.3729 56.9275 83.3729C62.2845 83.3729 71.2847 82.2435 71.7336 82.1867C75.5686 81.5499 79.4125 80.4227 79.4509 80.4116C79.6184 80.3564 98.7429 73.9797 100.008 62.671C101.344 50.7254 100.624 24.9967 88.3398 13.1225C77.4589 2.60494 58.0562 2.32692 56.0986 2.32692ZM71.8665 83.0982H71.8693H71.8665Z" fill="#4B2710"/>
<g opacity="0.3">
<g opacity="0.3">
<g opacity="0.3">
<g opacity="0.3">
<path opacity="0.3" d="M101.312 49.8335C99.0176 48.0299 98.3629 40.2759 95.7973 33.21C89.4896 15.8493 77.2319 6.38983 77.9011 6.31183C78.4034 6.2511 78.9052 6.20485 79.4131 6.1731C82.8581 7.71086 86.1825 9.75398 88.9784 12.459C97.7849 20.9674 100.699 36.2849 101.265 48.6835C101.283 49.0702 101.297 49.4546 101.312 49.8335Z" fill="#4B2710"/>
</g>
</g>
</g>
</g>
<g opacity="0.3">
<g opacity="0.3">
<g opacity="0.3">
<g opacity="0.3">
<path opacity="0.3" d="M12.2667 49.8335C14.5608 48.0299 15.2156 40.2759 17.7812 33.21C24.0889 15.8493 36.3466 6.38983 35.6774 6.31183C35.1751 6.2511 34.6733 6.20485 34.1654 6.1731C30.7204 7.71086 27.396 9.75398 24.6001 12.459C15.7936 20.9674 12.8792 36.2849 12.3135 48.6835C12.2957 49.0702 12.2812 49.4546 12.2667 49.8335Z" fill="#4B2710"/>
</g>
</g>
</g>
</g>
<path d="M77.1829 27.0308C76.3001 26.877 75.4189 26.7166 74.5406 26.545C73.6511 26.37 72.8088 26.2101 71.9416 26.1761C70.2166 26.0887 68.4843 26.35 66.8855 26.9456C66.4878 27.0994 66.0945 27.2643 65.7173 27.4598C65.5265 27.554 65.3385 27.6521 65.1555 27.7596C64.9736 27.8588 64.7789 27.9769 64.5864 28.0905C63.8115 28.543 63.0733 29.016 62.2105 29.4489C60.5133 30.2819 58.6308 30.6964 56.7483 30.7493C54.8636 30.7683 52.9706 30.4033 51.2406 29.6389C50.3633 29.2311 49.6145 28.7954 48.8179 28.3736C48.4141 28.158 48.0553 27.9596 47.6631 27.7897C47.2793 27.6092 46.8804 27.4604 46.4777 27.3233C44.8605 26.7935 43.1238 26.6018 41.4093 26.7578C40.5477 26.8263 39.7155 27.0186 38.8321 27.2269C37.9604 27.4314 37.0865 27.6259 36.2103 27.8125C36.0612 27.8443 35.9149 27.749 35.8832 27.5997C35.8537 27.4604 35.9355 27.3228 36.0679 27.2793C36.9196 27.0018 37.774 26.7316 38.6307 26.472C39.4718 26.2084 40.3724 25.9288 41.2909 25.7895C43.1283 25.517 45.0352 25.6273 46.8381 26.1561C47.2876 26.2909 47.7343 26.4397 48.1676 26.6235C48.6021 26.7974 49.0327 27.0253 49.4221 27.2219C50.2153 27.622 51.0286 28.0655 51.7824 28.3942C53.3366 29.0589 55.0344 29.3837 56.7266 29.3575C58.4178 29.3291 60.1094 28.9653 61.6425 28.2471C62.3907 27.8983 63.1779 27.4286 63.9589 26.9979C64.1547 26.8887 64.3455 26.7795 64.5586 26.6692C64.7655 26.5567 64.9747 26.4497 65.1905 26.3561C65.6166 26.1572 66.0567 25.9928 66.5 25.8424C68.2796 25.2507 70.1771 25.0752 72.0173 25.2813C72.9373 25.3872 73.8441 25.634 74.6946 25.8703C75.5597 26.1009 76.4225 26.3422 77.283 26.5907C77.4026 26.6252 77.4716 26.75 77.4371 26.8698C77.4054 26.9823 77.2942 27.0498 77.1829 27.0308Z" fill="#4B2710"/>
<path d="M71.4821 21.8751C70.8374 21.7753 70.1943 21.6706 69.5523 21.5591C68.8993 21.4438 68.2979 21.3324 67.6743 21.3162C66.436 21.2677 65.1989 21.4706 64.0613 21.904C63.7781 22.016 63.4988 22.1364 63.2307 22.2784C62.9559 22.4144 62.7106 22.5637 62.4224 22.7359C61.86 23.0674 61.3299 23.4123 60.6868 23.7382C59.4302 24.3594 58.0356 24.6681 56.6404 24.7099C55.2436 24.7227 53.8406 24.4519 52.5589 23.8825C51.9042 23.5755 51.3685 23.2596 50.7889 22.9498C50.4929 22.7905 50.242 22.6501 49.9628 22.5269C49.6902 22.396 49.407 22.2885 49.1206 22.1882C47.9702 21.8026 46.7302 21.6516 45.5002 21.7502C44.8811 21.7915 44.2881 21.9263 43.6389 22.0673C43.002 22.2038 42.3634 22.333 41.7231 22.4578C41.5734 22.4868 41.4282 22.3888 41.3993 22.2389C41.3726 22.1018 41.4522 21.9687 41.5801 21.9246C42.1965 21.7112 42.8145 21.5034 43.4342 21.3023C44.0389 21.0995 44.7059 20.8911 45.3812 20.7819C46.7341 20.5691 48.1443 20.637 49.4805 21.022C49.8137 21.1195 50.1452 21.2276 50.4668 21.3619C50.7883 21.4889 51.1109 21.6583 51.3924 21.7993C51.9687 22.0873 52.569 22.4105 53.1002 22.6395C54.2067 23.1092 55.4144 23.3398 56.6187 23.3198C57.822 23.3025 59.0263 23.0451 60.1189 22.5381C60.6473 22.2963 61.2259 21.9547 61.7949 21.6444C62.0714 21.494 62.3879 21.3118 62.7045 21.1758C63.021 21.031 63.3475 20.9112 63.6763 20.8025C64.9947 20.3729 66.3977 20.2571 67.7511 20.4225C68.427 20.5083 69.0979 20.6922 69.7098 20.8761C70.3356 21.0566 70.9603 21.2443 71.5833 21.4371C71.7024 21.4739 71.7686 21.6004 71.7319 21.719C71.6985 21.8271 71.5911 21.8918 71.4821 21.8751Z" fill="#4B2710"/>
<path d="M39.5967 53.4925C45.2538 53.3911 49.7552 48.577 49.6509 42.7399C49.5465 36.9028 44.876 32.2532 39.2189 32.3547C33.5618 32.4561 29.0604 37.2702 29.1648 43.1073C29.2691 48.9443 33.9396 53.594 39.5967 53.4925Z" fill="#A15F43"/>
<path d="M74.507 52.867C80.1641 52.7656 84.6655 47.9515 84.5611 42.1144C84.4568 36.2774 79.7862 31.6277 74.1292 31.7292C68.4721 31.8306 63.9707 36.6447 64.075 42.4818C64.1794 48.3188 68.8499 52.9685 74.507 52.867Z" fill="#A15F43"/>
<path d="M70.0068 76.971C77.6235 75.2739 84.3634 70.7363 88.5801 64.1607C89.0735 63.3907 89.5218 62.6073 89.9023 61.8223C93.7819 53.807 88.2958 46.1471 81.4413 47.6826C76.2761 48.8387 73.8563 52.1923 67.8217 49.5135C63.3742 47.5383 59.5837 46.8814 56.7355 46.9327C53.884 46.9839 50.123 47.7762 45.745 49.9091C39.8133 52.8024 37.2756 49.5374 32.0726 48.5668C25.168 47.2776 19.9584 55.1285 24.1216 63.0001C24.5161 63.7456 24.9767 64.4917 25.4801 65.226C30.0489 71.8919 37.2238 76.284 45.1809 77.6502C48.685 78.2519 52.8415 78.6932 57.3013 78.613C61.7755 78.5322 66.2575 77.8062 70.0068 76.971Z" fill="#A15F43"/>
<g opacity="0.3">
<g opacity="0.3">
<g opacity="0.3">
<g opacity="0.3">
<path opacity="0.3" d="M100.573 62.7735C99.2257 74.8132 79.3602 81.2942 79.3602 81.2942L77.6513 81.7404C70.5325 83.5897 63.2385 84.5173 55.9389 84.5173C49.1039 84.5173 42.266 83.7033 35.5739 82.0786C35.5739 82.0786 14.9174 78.6203 12.7951 64.3447C12.1526 60.0211 11.6803 53.4188 12.0447 46.2024C12.1988 49.2712 12.4764 51.9802 12.7951 54.1297C14.9168 68.4059 35.5739 71.8636 35.5739 71.8636C42.266 73.4889 49.1011 74.2995 55.9361 74.2995C63.2357 74.2995 70.5325 73.3747 77.6513 71.5226L79.3602 71.0791C79.3602 71.0791 99.2257 64.5982 100.573 52.5585C100.713 51.2932 100.835 49.8356 100.916 48.2299C101.204 53.9999 100.975 59.1698 100.573 62.7735Z" fill="#4B2710"/>
</g>
</g>
</g>
</g>
<path d="M17.2961 29.4517C14.6777 36.8609 14.5058 45.1264 11.1631 43.9647C7.82034 42.803 0.378913 27.2526 0.948548 21.667C1.63834 14.9064 18.1639 4.7332 32.4181 6.281C32.995 6.3434 33.2014 7.08499 32.7564 7.45773C32.0154 8.07785 22.5674 14.5348 17.2961 29.4517Z" fill="#A15F43"/>
<g opacity="0.6">
<g opacity="0.6">
<g opacity="0.6">
<g opacity="0.6">
<path opacity="0.6" d="M1.31512 25.3684C1.29955 24.9951 1.30845 24.6519 1.33793 24.3388C1.9988 17.8528 17.226 8.23231 31.0463 8.81956C31.967 8.04343 32.5872 7.59937 32.7558 7.45785C33.2014 7.08455 32.9955 6.34409 32.4181 6.28168C18.1639 4.73277 1.63721 14.9077 0.947418 21.6666C0.847843 22.6405 0.992477 23.917 1.31512 25.3684Z" fill="white"/>
</g>
</g>
</g>
</g>
<g opacity="0.3">
<g opacity="0.3">
<g opacity="0.3">
<g opacity="0.3">
<path opacity="0.3" d="M11.1641 43.9642C14.5046 45.1259 14.6771 36.862 17.2955 29.4529C22.5668 14.5337 32.0142 8.07791 32.7563 7.45778C33.188 7.09396 33.0061 6.38302 32.4643 6.29053C28.3155 9.07801 22.6631 13.9025 17.75 21.759C13.4354 28.6651 12.6105 36.0954 9.37455 34.9214C6.95193 34.0428 2.19235 25.9857 2.94 17.5402C1.78515 18.971 1.07923 20.3795 0.947389 21.6665C0.378309 27.2527 7.82029 42.8025 11.1641 43.9642Z" fill="#4B2710"/>
</g>
</g>
</g>
</g>
<path d="M11.7655 44.9951C11.4712 44.9951 11.168 44.9422 10.8621 44.8357C6.92968 43.469 -0.559027 27.3815 0.0334161 21.5736C0.277069 19.1879 2.2096 16.4154 5.47555 13.7672C11.6142 8.79011 22.3571 4.26205 32.5171 5.36468C33.1424 5.43265 33.6647 5.86835 33.8478 6.47454C34.0341 7.09021 33.8372 7.75379 33.346 8.16442C33.2915 8.2101 33.1947 8.28476 33.0589 8.38839C26.5699 13.3488 21.2802 20.9385 18.1627 29.7589C17.3172 32.1519 16.7231 34.672 16.1996 36.8951C15.2578 40.8916 14.5775 43.7788 12.8947 44.7048C12.5443 44.8981 12.1632 44.9951 11.7655 44.9951ZM29.4409 7.04452C20.7055 7.04452 11.7254 11.0717 6.63374 15.1997C3.79279 17.503 2.0544 19.8944 1.86415 21.7609C1.6255 24.102 3.02234 28.9393 5.4227 34.0853C7.92154 39.4418 10.4009 42.7246 11.4651 43.0946C11.7543 43.1954 11.9023 43.1486 12.0091 43.0901C12.9748 42.5586 13.7041 39.4641 14.4095 36.4722C14.9441 34.2034 15.5504 31.6321 16.4294 29.1449C19.6208 20.1139 25.0251 12.313 31.6699 7.13534C30.93 7.07405 30.1857 7.04452 29.4409 7.04452Z" fill="#4B2710"/>
<path d="M97.2426 29.4517C99.861 36.8609 100.033 45.1264 103.376 43.9647C106.718 42.803 114.16 27.2526 113.59 21.667C112.9 14.9064 96.3748 4.7332 82.1205 6.281C81.5437 6.3434 81.3373 7.08499 81.7823 7.45773C82.5233 8.07785 91.9712 14.5348 97.2426 29.4517Z" fill="#A15F43"/>
<g opacity="0.6">
<g opacity="0.6">
<g opacity="0.6">
<g opacity="0.6">
<path opacity="0.6" d="M113.223 25.3684C113.239 24.9951 113.23 24.6519 113.2 24.3388C112.539 17.8528 97.3116 8.23231 83.4912 8.81956C82.5706 8.04343 81.9503 7.59937 81.7818 7.45785C81.3362 7.08455 81.542 6.34409 82.1194 6.28168C96.3742 4.73277 112.9 14.9077 113.591 21.6666C113.69 22.6405 113.546 23.917 113.223 25.3684Z" fill="white"/>
</g>
</g>
</g>
</g>
<g opacity="0.3">
<g opacity="0.3">
<g opacity="0.3">
<g opacity="0.3">
<path opacity="0.3" d="M103.374 43.9642C100.034 45.1259 99.8615 36.862 97.243 29.4529C91.9717 14.5337 82.5243 8.07791 81.7822 7.45778C81.3505 7.09396 81.5325 6.38302 82.0743 6.29053C86.223 9.07801 91.8755 13.9025 96.7886 21.759C101.103 28.6651 101.928 36.0954 105.164 34.9214C107.587 34.0428 112.346 25.9857 111.599 17.5402C112.753 18.971 113.459 20.3795 113.591 21.6665C114.16 27.2527 106.718 42.8025 103.374 43.9642Z" fill="#4B2710"/>
</g>
</g>
</g>
</g>
<path d="M102.773 44.995C102.375 44.995 101.994 44.898 101.643 44.7052C99.9606 43.7792 99.2803 40.892 98.3385 36.8955C97.8144 34.6724 97.2203 32.1524 96.3748 29.7594C93.2579 20.9389 87.9676 13.3492 81.4791 8.38883C81.344 8.28519 81.2472 8.21054 81.1921 8.16485C80.7015 7.75422 80.5045 7.09064 80.6909 6.47498C80.8739 5.86878 81.3962 5.43308 82.0215 5.36511C92.1832 4.26081 102.924 8.78999 109.063 13.7677C112.33 16.4159 114.262 19.1883 114.506 21.5741C115.098 27.3819 107.61 43.4694 103.677 44.8362C103.371 44.942 103.067 44.995 102.773 44.995ZM98.1098 29.1442C98.9888 31.6314 99.5951 34.2033 100.13 36.472C100.835 39.464 101.564 42.5585 102.53 43.09C102.636 43.1485 102.784 43.1948 103.074 43.0945C104.138 42.7245 106.618 39.4412 109.116 34.0852C111.517 28.9392 112.914 24.1019 112.675 21.7613C112.485 19.8948 110.746 17.5034 107.905 15.2001C102.38 10.72 92.2733 6.35964 82.8698 7.13577C89.5141 12.3124 94.9184 20.1138 98.1098 29.1442Z" fill="#4B2710"/>
<path d="M75.9624 57.4358C75.9624 57.4358 78.2699 63.8922 72.0145 65.5408C66.7848 66.9193 63.3336 63.3445 57.7374 59.7792C52.2714 63.5423 48.9503 67.2385 43.6745 66.0479C37.3646 64.6237 39.4401 58.0893 39.4401 58.0893" fill="#91867E"/>
<path d="M57.2684 53.1379L58.3838 59.3029C58.5212 60.0634 58.0177 60.7911 57.2584 60.9287C56.4991 61.0663 55.7726 60.5621 55.6352 59.8015C55.609 59.6578 55.6073 59.5096 55.6246 59.372L56.4306 53.1585C56.4607 52.9262 56.6737 52.7618 56.9057 52.7919C57.0932 52.817 57.2362 52.9613 57.2684 53.1379Z" fill="#6B184E"/>
<path d="M75.4857 57.436C75.4857 57.436 77.7932 63.8924 71.5378 65.541C66.3081 66.9194 62.857 63.3447 57.2607 59.7794C51.7947 63.5425 48.4736 67.2387 43.1978 66.048C36.8879 64.6239 38.9634 58.0895 38.9634 58.0895L57.2635 54.0261L75.4857 57.436Z" fill="#A15F43"/>
<g opacity="0.3">
<g opacity="0.3">
<g opacity="0.3">
<g opacity="0.3">
<path opacity="0.3" d="M71.5372 65.5398C66.3098 66.9188 62.8569 63.344 57.2612 59.7793C51.7941 63.5418 48.4747 67.2381 43.1978 66.0474C37.2784 64.713 38.7392 58.8784 38.9416 58.1602C39.4262 59.6651 40.5999 61.116 43.1978 61.7026C48.4747 62.8933 51.7941 59.1976 57.2612 55.4346C62.8569 58.9993 66.3098 62.574 71.5372 61.1951C73.9642 60.5566 75.1035 59.1926 75.5858 57.7613C75.9541 59.0935 76.9476 64.114 71.5372 65.5398Z" fill="#4B2710"/>
</g>
</g>
</g>
</g>
<path d="M75.8323 57.3115C76.2623 58.4019 76.4865 59.529 76.4531 60.7236C76.4369 61.3169 76.3424 61.9209 76.1499 62.5087C75.9569 63.0954 75.662 63.6632 75.2738 64.164C74.8849 64.6649 74.4037 65.0889 73.8847 65.4349C73.364 65.7826 72.8027 66.0344 72.2359 66.2445C71.1011 66.6278 69.9023 66.8445 68.6712 66.7944C67.4446 66.7476 66.2486 66.4284 65.1638 65.9715C64.0741 65.5179 63.0722 64.9519 62.1132 64.3652C60.2118 63.1673 58.4617 61.8886 56.6432 60.7514L57.9116 60.7286C56.137 61.9337 54.4359 63.2759 52.5807 64.5451C51.6433 65.1675 50.6632 65.7703 49.5901 66.2651C48.522 66.7621 47.3366 67.127 46.1094 67.2201C44.8783 67.3165 43.669 67.1437 42.5175 66.8022C41.9412 66.6133 41.3687 66.3815 40.8336 66.0523C40.3001 65.7247 39.8006 65.3163 39.3906 64.8276C38.9817 64.3384 38.6641 63.7785 38.4477 63.1962C38.2319 62.6129 38.1145 62.0095 38.0761 61.4144C37.9988 60.2154 38.1801 59.0788 38.5717 57.965C38.6468 57.7511 38.8816 57.6386 39.0952 57.7138C39.2921 57.7834 39.4023 57.9873 39.3606 58.1862L39.3544 58.2147C39.2532 58.6972 39.1992 59.2371 39.192 59.748C39.1809 60.2639 39.2109 60.7759 39.3038 61.2668C39.3973 61.7565 39.533 62.2285 39.7411 62.6547C39.9486 63.0809 40.2189 63.4615 40.5443 63.7818C40.8675 64.105 41.2436 64.3735 41.6586 64.5869C42.073 64.802 42.5336 64.9491 43.0048 65.0666L43.363 65.1446C43.4837 65.1664 43.6078 65.1781 43.7291 65.197L44.0945 65.2494L44.277 65.2761L44.4595 65.2817C44.7026 65.2845 44.9451 65.3085 45.186 65.2979L45.9047 65.2421C47.8105 64.982 49.5918 63.9401 51.3151 62.7076C53.0468 61.4752 54.7797 60.1034 56.6082 58.8303L57.2362 58.3935L57.8765 58.808C59.7473 60.0182 61.5263 61.3286 63.2986 62.5026C65.0637 63.6754 66.8811 64.6582 68.8008 64.8538L69.5234 64.885C69.7654 64.8878 70.008 64.8549 70.2511 64.8438L70.4341 64.8321L70.616 64.7992L70.9809 64.734C71.1022 64.7106 71.2257 64.6945 71.3464 64.6688L71.703 64.578C72.1714 64.4443 72.6286 64.281 73.0386 64.0498C73.4491 63.8208 73.818 63.5378 74.1328 63.2013C74.4499 62.867 74.7091 62.4742 74.9033 62.0374C75.098 61.6005 75.2176 61.1208 75.2949 60.6255C75.3717 60.1291 75.3839 59.6131 75.355 59.0955C75.3299 58.5824 75.2576 58.0436 75.1386 57.5594L75.1325 57.5349C75.0841 57.3371 75.2042 57.1377 75.4011 57.0886C75.583 57.0446 75.7661 57.1427 75.8323 57.3115Z" fill="#4B2710"/>
<path d="M65.9404 52.1791C65.9815 54.498 62.1476 57.2609 57.3585 57.3467C52.5695 57.4326 48.6393 54.8083 48.5976 52.4894C48.5565 50.1705 52.4237 49.2835 57.2128 49.1977C62.0019 49.1119 65.8992 49.8596 65.9404 52.1791Z" fill="#4B2710"/>
<path d="M61.0857 51.2675C61.0962 51.8452 59.3912 52.5473 57.274 52.5851C55.1562 52.623 53.4279 51.9828 53.4173 51.4045C53.4067 50.8262 55.1201 50.5922 57.2373 50.5543C59.3551 50.5164 61.0751 50.6897 61.0857 51.2675Z" fill="white"/>
<path d="M57.7796 55.185L58.1891 59.3397C58.2391 59.8484 57.8681 60.302 57.3596 60.3521C56.8517 60.4022 56.3989 60.0306 56.3489 59.5214C56.3427 59.4618 56.3433 59.3971 56.3489 59.3397L56.7583 55.185C56.7861 54.9025 57.037 54.6963 57.319 54.7242C57.5671 54.7487 57.7563 54.9459 57.7796 55.185Z" fill="#4B2710"/>
<path d="M47.3399 44.1587C46.9427 45.7015 45.9191 47.1719 44.4956 48.1023C43.0849 49.0545 41.3431 49.464 39.6737 49.3515C37.9987 49.2445 36.3788 48.621 35.0827 47.6198C33.7765 46.6303 32.7958 45.2781 32.259 43.8189C32.0971 43.3781 32.3224 42.8889 32.7624 42.7268C33.1118 42.5981 33.4917 42.714 33.7142 42.9876L33.7343 43.0126C34.567 44.04 35.4821 44.9014 36.5207 45.5221C37.5593 46.135 38.703 46.5138 39.8617 46.5974C41.0199 46.6832 42.1787 46.4665 43.2056 45.9528C44.2358 45.4363 45.1008 44.5939 45.7867 43.5124L45.8001 43.4912C46.0515 43.0951 46.5761 42.9775 46.9716 43.2294C47.2915 43.4311 47.4289 43.8116 47.3399 44.1587Z" fill="#4B2710"/>
<path d="M68.7502 43.5117C69.4355 44.5932 70.3011 45.4356 71.3308 45.9521C72.3583 46.4658 73.5164 46.6825 74.6746 46.5967C75.8339 46.5132 76.9776 46.1343 78.0162 45.5214C79.0548 44.9002 79.9705 44.0388 80.8027 43.0119L80.8216 42.9885C81.117 42.6236 81.6521 42.5679 82.0159 42.8643C82.3052 43.0994 82.3992 43.4866 82.2774 43.8187C81.7411 45.2779 80.7598 46.6302 79.4537 47.6197C78.1575 48.6209 76.5376 49.2444 74.8632 49.3513C73.1938 49.4639 71.4521 49.0544 70.0413 48.1022C68.6178 47.1717 67.5948 45.7019 67.197 44.1586C67.0802 43.7039 67.3534 43.2404 67.8067 43.1228C68.1717 43.0287 68.5427 43.1869 68.7346 43.4889L68.7502 43.5117Z" fill="#4B2710"/>
<path d="M74.6056 70.4489C74.2118 72.458 72.9785 74.09 71.3441 75.0522C71.1928 75.1463 71.0371 75.2305 70.8785 75.3074C70.819 75.3369 70.7723 75.3915 70.7523 75.4511C70.7228 75.5352 70.735 75.6344 70.7995 75.7063C72.2186 77.3037 72.8795 79.5407 72.3722 81.805C71.5995 85.2477 68.2668 87.5789 64.7772 87.1175C64.7722 87.1175 64.765 87.1153 64.76 87.1153C60.7903 86.5843 58.1457 82.8296 58.9084 78.9557L58.9106 78.9434C59.0369 78.3038 58.6186 77.6736 57.9772 77.5472L25.5652 71.1559C24.9216 71.0295 24.2947 71.4512 24.1712 72.0909L24.169 72.1031C23.4063 75.9821 19.5262 78.4548 15.6506 77.4307C12.2433 76.5331 10.0465 73.1077 10.6334 69.6304C11.0195 67.341 12.4781 65.523 14.395 64.5831C14.4618 64.5486 14.5063 64.4912 14.5235 64.4271C14.5508 64.348 14.5335 64.2533 14.474 64.1842C13.095 62.6291 12.4313 60.469 12.8619 58.2716C13.2802 56.1532 14.6248 54.4544 16.3882 53.5145C17.6932 52.8203 19.2286 52.5423 20.7862 52.8153C24.1512 53.3981 26.6277 56.434 26.4914 59.8539C26.4742 60.2311 26.4297 60.6005 26.3602 60.9549C26.2317 61.5922 26.6377 62.2124 27.2691 62.3361L59.7328 68.7373C60.3692 68.8638 60.9783 68.4448 61.0996 67.8074C61.1714 67.4503 61.2654 67.0909 61.3966 66.736C62.5654 63.5195 66.0049 61.6519 69.3404 62.3884C70.7739 62.7032 72.0122 63.4526 72.9357 64.4717C74.3559 66.0295 75.044 68.2169 74.6056 70.4489Z" fill="white"/>
<g opacity="0.3">
<g opacity="0.3">
<g opacity="0.3">
<g opacity="0.3">
<path opacity="0.3" d="M58.4061 75.6607C58.7338 76.2301 58.7822 77.2659 58.7994 77.7947L25.5658 71.1544C24.9244 71.0279 24.2953 71.4519 24.1718 72.0921L24.1696 72.1044C23.4069 75.9833 19.5268 78.456 15.6512 77.4319C13.3582 76.8269 11.6148 75.0785 10.8966 72.9379C11.637 73.5357 12.5059 73.9892 13.4694 74.245C17.3968 75.2819 21.3292 72.7768 22.1019 68.8455L22.1041 68.8333C22.2281 68.1836 22.8645 67.7568 23.5154 67.8833L56.3557 74.3614C57.0071 74.4873 58.0779 75.0913 58.4061 75.6607Z" fill="#4B2710"/>
</g>
</g>
</g>
</g>
<g opacity="0.3">
<g opacity="0.3">
<g opacity="0.3">
<g opacity="0.3">
<path opacity="0.3" d="M71.055 76.0145C71.0995 76.2474 71.1095 76.4212 71.0894 76.5505C71.0722 76.3521 71.0472 76.156 71.0149 75.9626C71.0305 75.9799 71.0427 75.9972 71.055 76.0145Z" fill="#6B184E"/>
</g>
</g>
</g>
</g>
<g opacity="0.3">
<g opacity="0.3">
<g opacity="0.3">
<g opacity="0.3">
<path opacity="0.3" d="M71.1912 76.1904C71.3074 76.3442 71.4142 76.5052 71.5155 76.669C71.4142 76.5058 71.3052 76.3442 71.1912 76.1904Z" fill="#6B184E"/>
</g>
</g>
</g>
</g>
<g opacity="0.3">
<g opacity="0.3">
<g opacity="0.3">
<g opacity="0.3">
<path opacity="0.3" d="M68.9822 86.3075C69.4005 86.0746 69.7921 85.7988 70.1537 85.489C69.7921 85.8016 69.4011 86.074 68.9822 86.3075Z" fill="#6B184E"/>
</g>
</g>
</g>
</g>
<g opacity="0.3">
<g opacity="0.3">
<g opacity="0.3">
<g opacity="0.3">
<path opacity="0.3" d="M71.055 76.0145C71.0995 76.2474 71.1095 76.4212 71.0894 76.5505C71.0722 76.3521 71.0472 76.156 71.0149 75.9626C71.0305 75.9799 71.0427 75.9972 71.055 76.0145Z" fill="#6B184E"/>
</g>
</g>
</g>
</g>
<g opacity="0.3">
<g opacity="0.3">
<g opacity="0.3">
<g opacity="0.3">
<path opacity="0.3" d="M74.6084 70.4468C74.2124 72.4582 72.9791 74.0901 71.3447 75.0523C71.283 75.0919 71.2184 75.1292 71.1539 75.1638C71.0649 75.2134 70.9731 75.2629 70.8791 75.3075C70.8769 75.3097 70.8741 75.3097 70.8719 75.3125C70.8151 75.3421 70.7729 75.3944 70.7528 75.4513C70.7234 75.5354 70.7356 75.6346 70.8001 75.7065C70.8747 75.7906 70.9464 75.8753 71.0154 75.9622C71.0477 76.1555 71.0721 76.3516 71.0899 76.55C71.11 76.4213 71.1 76.2475 71.0555 76.014C71.1027 76.0708 71.1495 76.1304 71.1918 76.1901C71.3058 76.3438 71.4148 76.5049 71.5161 76.6687C71.5906 76.7879 71.6596 76.9094 71.7263 77.0331C71.7636 77.1027 71.7981 77.1718 71.8326 77.2437C71.8799 77.3356 71.9244 77.4298 71.9639 77.5239C72.0034 77.6108 72.0384 77.6977 72.0729 77.7869C72.0801 77.807 72.0879 77.8242 72.0952 77.8437C72.1224 77.9134 72.1469 77.9825 72.1697 78.0521C72.1869 78.0917 72.1992 78.1312 72.2092 78.1713C72.2315 78.2332 72.2487 78.2928 72.2659 78.3546C72.2732 78.3797 72.281 78.4042 72.2882 78.4265C72.3132 78.5184 72.3377 78.6126 72.3599 78.7068C72.3844 78.8087 72.4045 78.9101 72.4245 79.0143C72.4445 79.1157 72.4617 79.2199 72.4762 79.3241C72.4912 79.4283 72.5035 79.5347 72.5135 79.6389C72.5207 79.7136 72.5257 79.7877 72.5285 79.8646C72.568 80.4997 72.5185 81.1494 72.3727 81.804C72.0857 83.0838 71.4443 84.2099 70.5726 85.0952C70.4391 85.2317 70.2978 85.3604 70.1543 85.4869C69.7927 85.7967 69.4016 86.0725 68.9827 86.3054C68.901 86.3527 68.817 86.3973 68.7302 86.4391C68.5594 86.5232 68.3858 86.6029 68.2078 86.6748C67.1481 87.1038 65.9716 87.2748 64.7783 87.116C64.7733 87.116 64.7661 87.1138 64.7611 87.1138C61.7844 86.7143 59.5537 84.4996 58.9446 81.784C59.7245 82.6593 60.7275 83.344 61.8912 83.7385C61.5992 82.9992 61.4429 82.2035 61.4429 81.37C61.4429 77.6025 64.6643 74.5498 68.639 74.5498C68.7107 74.5498 68.7825 74.5498 68.852 74.5548C68.5522 73.8427 68.5177 73.1758 69.0773 72.9279C73.3885 71.0157 73.0247 68.9893 73.2077 67.164C73.2867 66.3779 73.3785 65.619 73.2773 64.8774C74.4649 66.3991 75.0095 68.4054 74.6084 70.4468Z" fill="#4B2710"/>
</g>
</g>
</g>
</g>
<g opacity="0.3">
<g opacity="0.3">
<g opacity="0.3">
<g opacity="0.3">
<path opacity="0.3" d="M71.0549 76.0145C71.0994 76.2474 71.1094 76.4212 71.0894 76.5505C71.0721 76.3521 71.0471 76.156 71.0148 75.9626C70.9453 75.8757 70.8735 75.7916 70.7995 75.7069C70.735 75.635 70.7228 75.5359 70.7522 75.4517C70.7723 75.3949 70.814 75.3425 70.8713 75.313C70.9581 75.5882 71.0204 75.8211 71.0549 76.0145Z" fill="#6B184E"/>
</g>
</g>
</g>
</g>
<path d="M65.6517 88.0982C65.3218 88.0982 64.9897 88.0765 64.6554 88.033C62.4881 87.7472 60.5951 86.6139 59.3245 84.8421C58.0729 83.096 57.5923 80.8857 58.0067 78.778C58.0278 78.6721 57.9911 78.5997 57.9678 78.5651C57.9444 78.53 57.8915 78.4693 57.7986 78.4509L25.3873 72.0592C25.2944 72.0408 25.222 72.0776 25.1876 72.1004C25.1525 72.1238 25.0919 72.1767 25.0735 72.2703C24.6569 74.3909 23.3757 76.2535 21.5561 77.3945C19.7104 78.5518 17.5297 78.8816 15.4159 78.3228C11.5602 77.3037 9.0603 73.4181 9.72562 69.4767C10.0978 67.2703 11.4023 65.3337 13.2736 64.1558C12.0164 62.4046 11.5391 60.2373 11.9602 58.0939C12.7724 53.962 16.8021 51.1867 20.9437 51.9049C24.7859 52.5724 27.5657 56.0056 27.4105 59.8907C27.3938 60.3114 27.3437 60.7309 27.2625 61.1382C27.2441 61.2313 27.2775 61.2998 27.2992 61.3327C27.3237 61.3694 27.3699 61.4174 27.45 61.433L59.9131 67.8348C59.9926 67.8504 60.0533 67.8242 60.0905 67.7991C60.1234 67.7774 60.1801 67.7267 60.1985 67.6336C60.2775 67.2258 60.3898 66.8185 60.5333 66.4229C61.8606 62.7685 65.7324 60.6474 69.5401 61.4887C73.6444 62.3952 76.3229 66.4948 75.5102 70.6267C75.0885 72.7707 73.8269 74.5942 72.0006 75.7375C73.2867 77.5372 73.7607 79.8249 73.27 82.0084C72.4673 85.5782 69.2275 88.0982 65.6517 88.0982ZM25.3333 70.2105C25.4696 70.2105 25.6064 70.2239 25.7427 70.2506L58.1541 76.6424C58.7054 76.751 59.1821 77.0697 59.4964 77.5389C59.8107 78.008 59.9237 78.5707 59.8146 79.1229C59.4914 80.7682 59.8491 82.4135 60.8198 83.7674C61.7905 85.1207 63.238 85.9871 64.8957 86.2055C67.918 86.6044 70.8051 84.5819 71.4744 81.6028L72.3722 81.805L71.4744 81.6028C71.8955 79.7279 71.3865 77.7528 70.1126 76.3187C69.8672 76.0429 69.7677 75.6757 69.8389 75.3119C69.909 74.9525 70.1459 74.6422 70.4725 74.4817C72.1641 73.6493 73.3418 72.1143 73.7045 70.2696C74.3253 67.1121 72.2793 63.9803 69.1435 63.2878C66.2336 62.6448 63.2753 64.2628 62.2623 67.0519C62.1521 67.3562 62.0654 67.6693 62.0047 67.983C61.8979 68.5362 61.5831 69.0137 61.118 69.3274C60.6574 69.6383 60.1033 69.7503 59.5576 69.6428L27.0945 63.241C26.5493 63.1334 26.0787 62.8192 25.7694 62.3567C25.4579 61.8904 25.3472 61.3288 25.4579 60.7761C25.5208 60.4635 25.5586 60.1409 25.5719 59.8172C25.6904 56.852 23.5654 54.2316 20.6294 53.7213C17.4669 53.1719 14.3867 55.293 13.7659 58.4505C13.4032 60.2947 13.9122 62.1623 15.1622 63.5747C15.4036 63.8477 15.5054 64.2249 15.4348 64.5837C15.363 64.9475 15.1316 65.249 14.8006 65.4117C13.0789 66.2552 11.8601 67.8899 11.5402 69.7843C11.0323 72.7952 12.9409 75.7632 15.8854 76.541C17.503 76.9683 19.1702 76.7165 20.5804 75.8323C21.9911 74.9481 22.9446 73.5613 23.2661 71.9271C23.3763 71.3638 23.6939 70.8858 24.1623 70.571C24.5139 70.3336 24.9194 70.2105 25.3333 70.2105Z" fill="#4B2710"/>
<path d="M16.5151 86.0853C20.3378 87.6971 30.0283 87.5411 30.0283 87.5411C30.0283 87.5411 41.5323 87.9233 45.1175 85.6122C47.6103 84.0054 49.0789 79.6127 43.7808 74.9231C38.0466 69.8468 22.5151 66.5467 15.6144 71.7205C11.0039 75.1766 11.6681 84.0416 16.5151 86.0853Z" fill="#FEC267"/>
<g opacity="0.6">
<g opacity="0.6">
<g opacity="0.6">
<g opacity="0.6">
<path opacity="0.6" d="M47.0462 79.4572C46.7425 79.1429 46.4109 78.8282 46.0527 78.5117C39.3795 72.6052 21.3091 68.763 13.2742 74.7787C13.7882 73.5758 14.5642 72.5088 15.615 71.7215C22.5157 66.5477 38.0472 69.8478 43.7814 74.9224C45.5632 76.4992 46.5789 78.0414 47.0462 79.4572Z" fill="white"/>
</g>
</g>
</g>
</g>
<g opacity="0.3">
<g opacity="0.3">
<g opacity="0.3">
<g opacity="0.3">
<path opacity="0.3" d="M45.1181 85.611C41.5318 87.9233 30.0289 87.5422 30.0289 87.5422C30.0289 87.5422 20.3379 87.6982 16.514 86.0863C14.4746 85.2249 13.1746 83.1578 12.7001 80.7938C12.7546 80.8211 12.8091 80.8456 12.8631 80.8679C17.3122 82.7444 28.5926 82.5639 28.5926 82.5639C28.5926 82.5639 41.984 83.0096 46.1556 80.3185C46.4821 80.1079 46.7931 79.8555 47.0802 79.5686C47.9435 82.3115 46.7497 84.5591 45.1181 85.611Z" fill="#4B2710"/>
</g>
</g>
</g>
</g>
<path d="M31.8935 88.4883C30.8783 88.4883 30.1869 88.4688 30.0211 88.4632C29.3708 88.4727 20.058 88.5791 16.1585 86.9349C13.7392 85.9147 12.0575 83.3674 11.6598 80.1208C11.2109 76.4563 12.5465 72.8693 15.0631 70.9828C22.4617 65.4357 38.5751 69.0845 44.3905 74.2327C47.8461 77.2915 48.4091 80.0662 48.2734 81.8547C48.1321 83.7112 47.1391 85.4055 45.616 86.3872C42.72 88.2537 35.3892 88.4883 31.8935 88.4883ZM30.0361 86.6196L30.0589 86.6201C33.1791 86.7232 41.8783 86.604 44.6197 84.8372C45.6605 84.1664 46.3403 82.9985 46.4382 81.7148C46.5427 80.3431 46.0605 78.1707 43.1717 75.6134C37.7874 70.8468 22.7098 67.5507 16.1657 72.4581C14.1681 73.9558 13.1161 76.8759 13.4861 79.8963C13.8026 82.4793 15.0681 84.4756 16.8722 85.2361C20.473 86.7538 29.9193 86.6212 30.0144 86.6196H30.0361Z" fill="#4B2710"/>
<path d="M105.185 68.3305C110.294 83.7879 101.819 85.743 96.017 86.4935C89.1346 87.3844 82.8909 87.2913 82.8909 87.2913C82.8909 87.2913 69.7709 87.912 66.2813 85.3624C64.7916 84.2737 61.919 78.54 67.9864 73.9055C79.6405 65.0037 96.6985 73.369 101.105 63.2437" fill="#FEC267"/>
<g opacity="0.6">
<g opacity="0.6">
<g opacity="0.6">
<g opacity="0.6">
<path opacity="0.6" d="M101.105 63.2449L101.775 64.0789C97.494 76.1025 77.7531 68.0521 67.9853 76.3103C65.7068 78.2387 64.7205 80.2439 64.4535 82.0363C63.9445 79.7218 64.4262 76.6223 67.9853 73.9045C79.6417 65.0027 96.698 73.3696 101.105 63.2449Z" fill="white"/>
</g>
</g>
</g>
</g>
<g opacity="0.3">
<g opacity="0.3">
<g opacity="0.3">
<g opacity="0.3">
<path opacity="0.3" d="M96.0159 86.4923C89.1352 87.3832 82.8915 87.2919 82.8915 87.2919C82.8915 87.2919 69.7698 87.9109 66.2825 85.3607C65.2417 84.603 63.5317 81.5832 64.6487 78.2536C65.0637 79.5334 65.7585 80.4889 66.2825 80.87C69.7698 83.4196 82.8915 82.7983 82.8915 82.7983C82.8915 82.7983 89.1347 82.8925 96.0159 82.001C100.129 81.4689 105.586 80.3301 106.594 74.208C107.907 84.3266 100.984 85.851 96.0159 86.4923Z" fill="#4B2710"/>
</g>
</g>
</g>
</g>
<path d="M105.621 68.1856C106.751 70.1285 107.317 72.3254 107.573 74.5796C107.692 75.7107 107.731 76.864 107.624 78.029C107.515 79.1913 107.248 80.3719 106.746 81.4806C106.633 81.7626 106.471 82.0244 106.327 82.2935C106.173 82.5571 105.997 82.8106 105.821 83.0602C105.627 83.2976 105.448 83.5488 105.23 83.7645C105.124 83.8748 105.021 83.989 104.911 84.096L104.572 84.403C103.655 85.2136 102.586 85.7903 101.504 86.2321C99.3208 87.1002 97.0573 87.3721 94.8945 87.6278C92.711 87.8719 90.5248 88.0468 88.3353 88.1504C87.2405 88.2039 86.1458 88.2424 85.0493 88.2619C84.5008 88.2713 83.9523 88.2758 83.4011 88.2752L82.9855 88.273L82.9076 88.2719L82.832 88.2752L82.6239 88.283L81.7984 88.307C79.6022 88.356 77.4087 88.3349 75.207 88.2151C74.1061 88.1543 73.0041 88.0641 71.8982 87.9304C70.7929 87.7944 69.6847 87.6206 68.5683 87.3303C68.0103 87.1871 67.4501 87.0133 66.8861 86.7681C66.7453 86.7091 66.6046 86.6478 66.4627 86.5698C66.3214 86.4929 66.1807 86.431 66.0394 86.3324L65.828 86.1948L65.7229 86.1246L65.6072 86.0321C65.4531 85.9073 65.3285 85.7831 65.2133 85.6566C64.7583 85.1518 64.4379 84.623 64.1692 84.0664C63.9038 83.5109 63.7008 82.9309 63.5617 82.3342C63.2875 81.1413 63.2769 79.8738 63.5656 78.6731C63.8549 77.4735 64.4178 76.3553 65.1521 75.4126C65.8803 74.4626 66.7592 73.6581 67.6888 72.9895C68.1544 72.6613 68.6106 72.3187 69.1062 72.0367C69.3504 71.8908 69.5907 71.7375 69.8383 71.5971L70.5948 71.2043C72.6191 70.1619 74.8037 69.51 76.9915 69.0654C79.185 68.6213 81.3956 68.4291 83.5841 68.2898C85.7708 68.1589 87.9465 68.1093 90.0765 67.9483C91.1423 67.8692 92.1976 67.7622 93.2223 67.5783C94.2458 67.3956 95.2516 67.1577 96.1745 66.7799C97.0957 66.4027 97.9357 65.8957 98.626 65.236C99.3191 64.5791 99.8582 63.7718 100.263 62.8764L100.272 62.8564C100.481 62.3928 101.026 62.1867 101.489 62.3967C101.951 62.6062 102.158 63.1494 101.949 63.613C101.463 64.7017 100.778 65.7363 99.8916 66.5738C99.0093 67.4162 97.9524 68.0441 96.8648 68.4882C95.7734 68.9339 94.6508 69.1947 93.5388 69.3941C92.4245 69.5936 91.3153 69.7045 90.2155 69.7864C88.0127 69.9524 85.8426 70.0009 83.6925 70.1301C81.5481 70.2661 79.4181 70.4544 77.3503 70.8734C75.2871 71.2935 73.2672 71.8991 71.4231 72.8508L70.7333 73.2085C70.508 73.336 70.2905 73.4759 70.0686 73.6085C69.6174 73.8631 69.2052 74.1762 68.7813 74.4732C67.9469 75.0705 67.2109 75.7564 66.619 76.5369C66.021 77.3108 65.5955 78.1845 65.3763 79.101C65.1594 80.0186 65.171 80.9837 65.3869 81.9097C65.4965 82.3721 65.6572 82.8234 65.8625 83.2485C66.0644 83.6703 66.3242 84.0754 66.6007 84.3762C66.7437 84.5333 66.836 84.6008 67.0346 84.7233C67.1147 84.7835 67.226 84.8286 67.3222 84.8821C67.4179 84.9367 67.5269 84.9824 67.6365 85.0275C68.0693 85.2147 68.5499 85.3646 69.0445 85.4889C70.0324 85.7424 71.076 85.9045 72.1263 86.0288C73.1782 86.1519 74.2418 86.2344 75.3104 86.289C77.4477 86.3965 79.6022 86.4087 81.7489 86.3514L82.5516 86.3252L82.7502 86.3168L82.8776 86.3112L83.0033 86.3118L83.4022 86.3124C83.9373 86.3107 84.4747 86.3046 85.0121 86.2929C86.0874 86.2717 87.1638 86.2332 88.2385 86.1792C90.3891 86.075 92.5352 85.9006 94.6697 85.6594C96.8103 85.4131 98.9042 85.1217 100.783 84.4002C101.71 84.0297 102.585 83.5628 103.304 82.9343C104.028 82.313 104.615 81.5553 105.01 80.6794C105.824 78.9316 105.928 76.8334 105.729 74.7774C105.659 74.2609 105.611 73.7428 105.506 73.2268L105.375 72.4496C105.323 72.1911 105.276 71.9309 105.23 71.6701C105.154 71.1458 105.034 70.6254 104.964 70.0922C104.874 69.5629 104.788 69.0286 104.747 68.4754L104.746 68.457C104.727 68.1979 104.921 67.9722 105.181 67.9527C105.366 67.9394 105.534 68.0352 105.621 68.1856Z" fill="#4B2710"/>
<path d="M138.968 71.726C138.968 71.726 142.149 86.3882 126.504 86.3882C106.684 86.3882 106.998 86.4155 105.74 81.1353C105.591 80.5113 105.53 79.9196 105.545 79.358C105.644 74.3747 111.412 71.8942 111.412 71.8942C104.759 62.7796 105.542 48.5775 113.622 42.6755L134.529 30.9021C139.586 35.9745 142.181 41.3734 143.288 46.5277C146.172 59.9576 138.968 71.726 138.968 71.726Z" fill="#FEC267"/>
<g opacity="0.3">
<g opacity="0.3">
<g opacity="0.3">
<g opacity="0.3">
<path opacity="0.3" d="M138.968 71.7261C138.968 71.7261 142.149 86.3884 126.504 86.3884C106.684 86.3884 106.998 86.4157 105.74 81.1354C105.591 80.5114 105.53 79.9197 105.545 79.3581C106.988 80.3409 110.023 81.5962 116.185 81.7517C127.292 82.0364 134.559 81.4274 135.607 77.1177C136.712 72.5802 133.98 69.8078 134.793 67.4186C135.602 65.0518 144.999 61.8559 143.291 46.5551C143.291 46.5451 143.288 46.5379 143.288 46.5278C146.172 59.9577 138.968 71.7261 138.968 71.7261Z" fill="#4B2710"/>
</g>
</g>
</g>
</g>
<path d="M113.892 43.0476C111.932 44.7598 110.479 46.9238 109.508 49.285C108.534 51.6468 108.004 54.2014 107.927 56.775C107.821 59.3474 108.135 61.9427 108.837 64.4231C109.543 66.9025 110.651 69.2688 112.154 71.3487C112.453 71.7626 112.36 72.3415 111.946 72.6407C111.895 72.6781 111.842 72.7087 111.786 72.7338L111.774 72.7393C111.561 72.8341 111.292 72.9739 111.053 73.1076C110.809 73.2453 110.567 73.3918 110.331 73.5456C109.86 73.8537 109.41 74.1924 108.992 74.5602C108.156 75.2934 107.451 76.1514 107.003 77.1036C106.549 78.0541 106.378 79.0971 106.499 80.1424C106.529 80.4037 106.575 80.6644 106.636 80.9252L106.846 81.801C106.986 82.3732 107.134 82.9237 107.335 83.3672C107.539 83.813 107.781 84.1105 108.145 84.3495C108.512 84.5868 109.004 84.7596 109.535 84.8833C110.605 85.1306 111.792 85.2259 112.971 85.2983C115.344 85.4298 117.759 85.4415 120.169 85.4571L123.79 85.4649L125.602 85.4655H126.508C126.799 85.4588 127.09 85.4627 127.379 85.4471C129.688 85.3658 131.988 84.8972 133.882 83.7634C134.825 83.1984 135.648 82.4635 136.302 81.5915C136.958 80.7207 137.443 79.7139 137.765 78.6447C138.091 77.5755 138.255 76.4434 138.301 75.3023C138.323 74.7318 138.314 74.1573 138.276 73.5857C138.256 73.2999 138.23 73.0146 138.195 72.7321C138.162 72.4563 138.116 72.1543 138.068 71.9192L138.068 71.9175C138.019 71.6768 138.067 71.4378 138.183 71.2423C138.392 70.8918 138.612 70.4817 138.814 70.0895C139.019 69.6917 139.216 69.2872 139.406 68.8793C139.784 68.0631 140.137 67.2324 140.459 66.3899C141.108 64.7062 141.642 62.9784 142.059 61.225C142.893 57.7199 143.236 54.0978 142.943 50.5258C142.659 46.9555 141.719 43.4471 140.147 40.2345C139.363 38.6282 138.435 37.0899 137.379 35.6412C136.32 34.1943 135.146 32.8292 133.877 31.5522L133.875 31.55C133.517 31.1895 133.518 30.6056 133.878 30.2468C134.239 29.888 134.821 29.8891 135.18 30.2501C136.51 31.589 137.748 33.0259 138.866 34.5559C139.983 36.087 140.968 37.7195 141.802 39.4283C143.474 42.8454 144.476 46.59 144.777 50.3765C145.086 54.1658 144.722 57.9818 143.849 61.6518C143.413 63.4882 142.854 65.2929 142.176 67.0524C141.839 67.9327 141.471 68.8013 141.073 69.6582C140.874 70.0867 140.667 70.5118 140.45 70.9341C140.229 71.3609 140.014 71.7643 139.751 72.2061L139.866 71.5292C139.938 71.8874 139.98 72.1844 140.021 72.5092C140.06 72.8274 140.09 73.145 140.111 73.4631C140.153 74.0988 140.163 74.7362 140.139 75.3747C140.088 76.6506 139.904 77.9343 139.524 79.1813C139.149 80.4265 138.572 81.6372 137.772 82.7003C136.975 83.7645 135.959 84.6682 134.828 85.3446C133.696 86.0249 132.464 86.4851 131.218 86.7927C130.594 86.9414 129.965 87.0529 129.336 87.1375C128.706 87.2116 128.076 87.2696 127.448 87.2896C127.134 87.3064 126.821 87.3025 126.507 87.3097H125.601L123.788 87.3091L120.159 87.3013C117.737 87.2852 115.316 87.2752 112.863 87.1398C111.633 87.0612 110.399 86.9726 109.111 86.6784C108.47 86.5247 107.795 86.3135 107.141 85.8956C106.819 85.6839 106.508 85.4181 106.257 85.1078C106.002 84.8002 105.81 84.4626 105.659 84.1328C105.364 83.4703 105.207 82.8429 105.057 82.2423L104.844 81.3531C104.768 81.0244 104.707 80.6889 104.668 80.3491C104.507 78.989 104.744 77.5516 105.337 76.318C105.923 75.0772 106.798 74.0359 107.776 73.1762C108.266 72.7449 108.784 72.3555 109.325 72.0022C109.595 71.8256 109.87 71.6585 110.153 71.4997C110.442 71.3386 110.707 71.1977 111.047 71.0456L110.667 72.4362C109.009 70.1809 107.787 67.6263 107.002 64.9547C106.214 62.282 105.87 59.4822 105.985 56.6936C106.131 53.9123 106.708 51.1203 107.91 48.573C108.513 47.3038 109.27 46.1031 110.181 45.0317C111.094 43.9636 112.162 43.0281 113.348 42.3021C113.566 42.169 113.85 42.238 113.982 42.4559C114.101 42.6509 114.059 42.8999 113.892 43.0454L113.892 43.0476Z" fill="#4B2710"/>
<path d="M111.13 71.0155C111.544 70.8924 111.958 70.7414 112.377 70.6472C112.795 70.562 113.213 70.4455 113.632 70.387C114.47 70.2366 115.311 70.1536 116.149 70.0995C117.828 70.0031 119.504 70.0522 121.166 70.2438C122.825 70.4444 124.48 70.7497 126.086 71.2729C126.489 71.3949 126.884 71.5543 127.277 71.7136C127.671 71.8652 128.054 72.0613 128.433 72.2563C128.816 72.4374 129.175 72.6898 129.534 72.9199C129.717 73.0274 129.883 73.174 130.051 73.3121C130.219 73.4492 130.38 73.5929 130.542 73.7328C130.734 73.8988 130.756 74.1902 130.59 74.383C130.447 74.5485 130.213 74.5875 130.028 74.4905L129.99 74.4705C128.621 73.7534 127.134 73.2954 125.617 72.9344C124.098 72.5761 122.541 72.3254 120.972 72.1956L119.794 72.1103L118.614 72.073C118.222 72.0641 117.829 72.0713 117.436 72.0697C117.043 72.068 116.653 72.102 116.261 72.1103C114.701 72.1922 113.143 72.3761 111.693 72.77L111.633 72.7862C111.143 72.9193 110.638 72.6291 110.505 72.1387C110.374 71.6557 110.654 71.1576 111.13 71.0155Z" fill="#4B2710"/>
<path d="M41.9567 77.3467C42.4925 78.0002 42.9236 78.6705 43.3124 79.4009C43.694 80.128 44.0094 80.9036 44.2164 81.7293C44.4183 82.5545 44.5079 83.4376 44.3972 84.3312C44.2926 85.2244 43.9688 86.108 43.4854 86.8814L43.4843 86.8831C43.2145 87.3149 42.646 87.4458 42.2149 87.175C41.7837 86.9042 41.653 86.3354 41.9234 85.9036C41.9389 85.879 41.9562 85.854 41.9734 85.8311C42.3712 85.3124 42.6643 84.7202 42.8095 84.066C42.9586 83.4136 42.9647 82.7088 42.8641 82.0001C42.7595 81.2914 42.552 80.5799 42.2722 79.8901C41.9929 79.2065 41.6347 78.5161 41.2341 77.9161L41.2197 77.8949C41.0784 77.6832 41.1351 77.3974 41.3465 77.2564C41.5434 77.1238 41.8082 77.1673 41.9567 77.3467Z" fill="#4B2710"/>
<path d="M36.0346 78.389C36.5413 79.0537 36.9435 79.7312 37.3012 80.4666C37.6522 81.1987 37.9348 81.9765 38.1095 82.8C38.2781 83.6229 38.3342 84.4988 38.1929 85.3769C38.0589 86.2555 37.7101 87.1164 37.21 87.8657L37.2089 87.8669C36.9263 88.2903 36.3539 88.4045 35.9311 88.1209C35.5083 87.8379 35.3943 87.2646 35.6774 86.8411C35.6941 86.8166 35.7125 86.7921 35.7303 86.7692C36.1391 86.2695 36.449 85.695 36.6153 85.0543C36.7867 84.4158 36.8189 83.721 36.7472 83.019C36.6704 82.3164 36.4935 81.6071 36.2432 80.9163C35.9934 80.2315 35.6652 79.5373 35.2919 78.9316L35.2786 78.9094C35.1451 78.6932 35.2124 78.409 35.4288 78.2759C35.6301 78.1511 35.8927 78.204 36.0346 78.389Z" fill="#4B2710"/>
<path d="M70.428 77.6597C70.0286 78.2865 69.6736 79.0002 69.395 79.7067C69.1168 80.4199 68.9054 81.1526 68.7992 81.8836C68.7474 82.2491 68.7218 82.6129 68.7241 82.9706C68.7319 83.3277 68.7708 83.6776 68.8398 84.0153C68.9099 84.3529 69.0245 84.6733 69.1608 84.9786C69.2998 85.2839 69.484 85.5631 69.6814 85.8311L69.6992 85.855C70.0013 86.2656 69.914 86.8434 69.504 87.146C69.094 87.4485 68.5171 87.361 68.2156 86.9504C68.1995 86.9281 68.1834 86.9041 68.1695 86.8813C67.9264 86.4801 67.7105 86.0612 67.5581 85.6177C67.4085 85.1753 67.2989 84.7212 67.2494 84.2654C67.2004 83.8102 67.1965 83.3567 67.2299 82.9126C67.2694 82.4697 67.3434 82.0362 67.4452 81.6145C67.6521 80.772 67.9686 79.9797 68.3469 79.2315C68.733 78.4804 69.1608 77.7867 69.6909 77.1076C69.8472 76.907 70.1365 76.8719 70.3362 77.0284C70.5242 77.1755 70.5665 77.4396 70.4419 77.6374L70.428 77.6597Z" fill="#4B2710"/>
<path d="M76.3691 78.428C75.9975 79.0604 75.672 79.7775 75.4223 80.4851C75.173 81.1988 74.9923 81.9298 74.9138 82.6547C74.8359 83.379 74.866 84.096 75.0323 84.7568C75.1975 85.4182 75.5063 86.0116 75.9235 86.5219L75.9307 86.5303C76.2533 86.9248 76.1961 87.5064 75.8022 87.8296C75.4084 88.1527 74.8276 88.0954 74.5049 87.7014C74.4833 87.6747 74.4627 87.6463 74.4443 87.6179C74.1923 87.2284 73.9659 86.8217 73.8013 86.3888C73.6388 85.9564 73.5153 85.5118 73.4513 85.0627C73.3178 84.1646 73.3774 83.2742 73.5509 82.4357C73.7256 81.5955 74.0099 80.8015 74.3575 80.0483C74.7124 79.2922 75.1119 78.5918 75.6131 77.9021C75.7627 77.6965 76.0498 77.6508 76.2556 77.8007C76.4481 77.9411 76.4998 78.2029 76.3824 78.4046L76.3691 78.428Z" fill="#4B2710"/>
<path d="M114.002 76.9662C113.811 77.2581 113.621 77.6158 113.468 77.9607C113.313 78.3111 113.181 78.6705 113.078 79.0349C112.872 79.7631 112.781 80.5114 112.831 81.2351C112.858 81.5967 112.92 81.9517 113.012 82.2954C113.108 82.6392 113.244 82.9685 113.399 83.2872C113.729 83.9173 114.171 84.4895 114.696 84.996C115.063 85.3498 115.073 85.9337 114.72 86.3003C114.367 86.6675 113.784 86.6781 113.417 86.3243C113.396 86.3042 113.376 86.2836 113.359 86.2624L113.354 86.2574C112.769 85.5749 112.272 84.7943 111.927 83.9424C111.765 83.5123 111.632 83.0704 111.552 82.6191C111.475 82.1673 111.441 81.711 111.45 81.2585C111.474 80.3532 111.674 79.4762 111.989 78.6644C112.146 78.2577 112.333 77.8665 112.545 77.4905C112.761 77.1105 112.984 76.7639 113.275 76.4006C113.433 76.2023 113.722 76.1705 113.92 76.3293C114.106 76.4786 114.146 76.7427 114.019 76.9389L114.002 76.9662Z" fill="#4B2710"/>
<path d="M121.231 77.3578C121.072 77.6804 120.918 78.0737 120.812 78.4515C120.753 78.6415 120.716 78.8382 120.666 79.0298C120.633 79.2259 120.598 79.4204 120.57 79.6154C120.47 80.3982 120.507 81.1866 120.693 81.9299C120.723 82.1193 120.789 82.2992 120.853 82.4792C120.92 82.6581 120.962 82.8436 121.058 83.0113L121.307 83.5239C121.401 83.6894 121.515 83.8454 121.616 84.0058L121.77 84.2449C121.823 84.324 121.893 84.3931 121.953 84.4677L122.324 84.9073C122.585 85.1898 122.887 85.4416 123.161 85.7102L123.251 85.7982C123.614 86.1543 123.621 86.7387 123.265 87.1031C122.91 87.4675 122.326 87.4736 121.962 87.1176C121.945 87.1014 121.928 87.0825 121.913 87.0658C121.606 86.7148 121.283 86.3849 120.999 86.0161L120.596 85.4411C120.532 85.3436 120.459 85.2533 120.402 85.1503L120.235 84.8382C120.128 84.6287 120.01 84.4259 119.913 84.212L119.662 83.5506C119.568 83.335 119.53 83.0988 119.469 82.872C119.411 82.6436 119.354 82.4168 119.335 82.1817C119.194 81.2546 119.239 80.3113 119.436 79.4187C119.488 79.1964 119.549 78.9763 119.607 78.7568C119.683 78.5423 119.746 78.3239 119.833 78.1144C119.917 77.9038 120.005 77.6954 120.106 77.4915C120.208 77.2837 120.31 77.0948 120.446 76.8775C120.58 76.6624 120.864 76.5973 121.079 76.7321C121.28 76.8586 121.35 77.1149 121.247 77.3238L121.231 77.3578Z" fill="#4B2710"/>
</svg>
