<svg width="59" height="69" viewBox="0 0 59 69" fill="none" xmlns="http://www.w3.org/2000/svg">
<g clip-path="url(#clip0_168_4696)">
<g opacity="0.3">
<path opacity="0.3" d="M29.3172 69.0002C43.1623 69.0002 54.3859 67.0126 54.3859 64.5608C54.3859 62.1089 43.1623 60.1213 29.3172 60.1213C15.4721 60.1213 4.24841 62.1089 4.24841 64.5608C4.24841 67.0126 15.4721 69.0002 29.3172 69.0002Z" fill="#4B2710"/>
</g>
<path d="M53.5711 44.7892C52.2319 47.0182 49.9875 49.0246 46.2963 50.1439L44.6827 45.3388C44.6827 45.3388 47.306 44.5873 48.9479 41.7696C49.6903 40.4944 50.232 38.7945 50.2392 36.5507C50.2434 35.2525 51.3026 34.1835 52.6518 34.0939C52.7127 34.0898 52.7735 34.0884 52.8342 34.0884C54.2074 34.0884 55.3559 35.1235 55.4222 36.4597C55.5313 38.6477 55.3091 41.9049 53.5711 44.7892Z" fill="#FFA910"/>
<path d="M53.5712 44.7894C51.1897 44.3253 49.7784 43.1248 48.948 41.7696C49.6904 40.4944 50.2321 38.7945 50.2393 36.5507C50.2435 35.2525 51.3027 34.1835 52.6519 34.0939C52.7128 34.0898 52.7736 34.0884 52.8343 34.0884C54.2075 34.0884 55.3559 35.1235 55.4223 36.4597C55.5314 38.6479 55.3092 41.9052 53.5712 44.7894Z" fill="white"/>
<g opacity="0.3">
<path opacity="0.3" d="M55.4223 36.4596C55.3584 35.1766 54.2964 34.1739 52.9965 34.0959C53.2559 34.4623 53.4186 34.8985 53.4422 35.3744C53.5511 37.5627 53.3292 40.8199 51.5909 43.7042C50.436 45.6259 48.6076 47.3818 45.7596 48.5469L46.2961 50.144C49.9873 49.0248 52.2317 47.0184 53.5709 44.7893C55.3092 41.9051 55.5313 38.6479 55.4223 36.4596Z" fill="#4B2710"/>
</g>
<path d="M45.8842 50.9086L43.8783 44.9318L44.4997 44.754C44.7151 44.6903 49.5833 43.1773 49.6035 36.548C49.6084 34.942 50.9283 33.5963 52.6084 33.4843C53.4815 33.4259 54.3226 33.7012 54.9765 34.2589C55.632 34.8178 56.0161 35.5891 56.0584 36.4305C56.1563 38.3882 55.998 41.2989 54.6871 44.0475C53.1362 47.2998 50.3777 49.5464 46.4882 50.7255L45.8842 50.9086ZM45.4712 45.6943L46.7039 49.3669C54.1499 46.7897 54.9738 40.2321 54.7865 36.4893C54.7609 35.9786 54.5278 35.5107 54.1303 35.1715C53.7342 34.8338 53.2251 34.6665 52.6961 34.7024C51.6784 34.7701 50.8788 35.5824 50.8759 36.5515C50.8639 40.485 49.2496 42.8181 47.8972 44.0828C46.9767 44.9439 46.0534 45.4387 45.4712 45.6943Z" fill="#4B2710"/>
<path d="M37.7615 56.954C37.7615 58.4544 37.9426 59.7948 38.1729 60.8896C38.5943 62.9014 40.1472 64.5293 42.2078 65.0816C45.3375 65.9201 48.0373 65.6596 49.7726 65.2837C51.2164 64.9703 52.3181 63.8348 52.5035 62.4267C52.5644 61.9626 52.5644 61.534 52.5176 61.1379C52.1273 57.8726 48.4758 56.847 48.4758 56.847C48.6187 56.5622 48.7489 56.284 48.8662 56.0099C49.1137 55.4307 49.306 54.8744 49.4473 54.3412C49.74 53.2506 49.822 52.2548 49.7515 51.3486C49.699 50.6757 49.5619 50.0517 49.3626 49.4764C48.6582 47.4483 47.1761 46.0156 45.8866 45.0958C44.6224 44.1937 42.8404 44.4351 41.8659 45.6235C38.6468 49.551 37.76 53.6412 37.7615 56.954Z" fill="#FFA910"/>
<path d="M37.7615 56.9539C37.7615 58.4543 37.9426 59.7948 38.1729 60.8895C38.5943 62.9014 40.1472 64.5293 42.2078 65.0815C45.3375 65.92 48.0373 65.6595 49.7726 65.2837C51.2164 64.9702 52.3181 63.8348 52.5035 62.4266C53.0663 58.1368 48.4758 56.8469 48.4758 56.8469C48.4758 56.8469 43.8695 60.0186 37.7615 56.9539Z" fill="white"/>
<g opacity="0.3">
<path opacity="0.3" d="M37.7615 56.954C37.7615 58.4544 37.9426 59.7948 38.1729 60.8896C38.5943 62.9014 40.1472 64.5294 42.2078 65.0816C45.3375 65.9201 48.0373 65.6596 49.7726 65.2837C51.2164 64.9703 52.3181 63.8348 52.5035 62.4267C52.5644 61.9626 52.5644 61.5341 52.5176 61.1379C51.6719 61.9328 50.3935 62.6369 48.4758 63.0602C41.6127 64.5715 43.1413 58.289 43.1413 58.289C47.0049 58.4015 48.4758 56.847 48.4758 56.847C40.31 57.3923 45.8863 45.096 45.8863 45.096C44.6221 44.1939 42.8401 44.4353 41.8656 45.6237C38.6468 49.551 37.76 53.6412 37.7615 56.954Z" fill="#4B2710"/>
</g>
<g opacity="0.7">
<path opacity="0.7" d="M51.7961 63.3762C51.857 62.9122 51.857 62.4836 51.8103 62.0875C51.4199 58.8221 47.7685 57.7965 47.7685 57.7965C47.9113 57.5117 48.0415 57.2336 48.1588 56.9595C48.4063 56.3803 48.5986 55.824 48.74 55.2908C49.0327 54.2001 49.1147 53.2043 49.0441 52.2981C48.9917 51.6253 48.8545 51.0013 48.6552 50.4259C47.9508 48.3978 46.4687 46.9651 45.1792 46.0454C43.915 45.1432 42.133 45.3847 41.1585 46.5731C41.0879 46.6591 41.0199 46.7456 40.9515 46.8319C41.2333 46.4281 41.5367 46.0249 41.8656 45.6235C42.8401 44.4351 44.6219 44.1937 45.8863 45.0958C47.1761 46.0156 48.6582 47.4483 49.3624 49.4764C49.5619 50.0515 49.699 50.6757 49.7512 51.3486C49.822 52.2548 49.7398 53.2506 49.4471 54.3412C49.3057 54.8744 49.1134 55.4307 48.8659 56.0099C48.7487 56.284 48.6185 56.5622 48.4756 56.847C48.4756 56.847 52.1271 57.8726 52.5174 61.1379C52.5641 61.534 52.5641 61.9628 52.5032 62.4267C52.4031 63.1877 52.0339 63.8675 51.489 64.3823C51.6438 64.0703 51.7494 63.7321 51.7961 63.3762Z" fill="white"/>
</g>
<path d="M49.3894 65.026L49.4436 64.8608L49.5017 64.674C49.538 64.5467 49.576 64.4182 49.6093 64.2876C49.6782 64.0268 49.7378 63.7606 49.7855 63.4901C49.8332 63.2196 49.8705 62.945 49.9015 62.6649C49.9398 62.3837 49.954 62.1001 49.993 61.7995L49.994 61.7928C50.0036 61.7178 50.0752 61.6644 50.1535 61.6737C50.1999 61.6791 50.2387 61.7061 50.2601 61.7423C50.4196 62.0128 50.5408 62.3043 50.6238 62.6046C50.7125 62.905 50.7582 63.2148 50.7846 63.5266C50.8129 63.8388 50.8097 64.1537 50.7826 64.4685C50.7684 64.6258 50.7473 64.7834 50.7182 64.9407C50.7016 65.0198 50.6874 65.0982 50.6658 65.1778C50.6559 65.2172 50.6462 65.2577 50.6333 65.2982L50.6141 65.3602L50.59 65.4317C50.4824 65.7525 50.1239 65.9286 49.7897 65.8254C49.457 65.7227 49.2734 65.3814 49.3778 65.062L49.3894 65.026Z" fill="#4B2710"/>
<path d="M46.1012 65.2587L46.1554 65.0935L46.2135 64.9066C46.2498 64.7793 46.2878 64.6509 46.3211 64.5203C46.39 64.2595 46.4496 63.9933 46.4973 63.7228C46.545 63.4522 46.5823 63.1777 46.6133 62.8976C46.6516 62.6164 46.6657 62.3325 46.7048 62.0322L46.7055 62.0255C46.7152 61.9504 46.7868 61.897 46.865 61.9063C46.9115 61.9118 46.9502 61.9387 46.9716 61.975C47.1311 62.2455 47.2524 62.537 47.3354 62.8373C47.4243 63.1376 47.4698 63.4472 47.4961 63.7592C47.5245 64.0715 47.5212 64.3863 47.4941 64.7012C47.48 64.8585 47.4589 65.016 47.4298 65.1733C47.4131 65.2522 47.399 65.3309 47.3774 65.4105C47.3674 65.4498 47.3575 65.4901 47.3448 65.5308L47.3257 65.5928L47.3016 65.6643C47.194 65.9851 46.8355 66.1613 46.5013 66.0581C46.1686 65.9553 45.985 65.6143 46.0893 65.2947L46.1012 65.2587Z" fill="#4B2710"/>
<path d="M48.8459 57.3433C48.8128 57.3622 48.7907 57.3726 48.7656 57.3853L48.6933 57.4201C48.6458 57.443 48.5986 57.4644 48.5519 57.4847C48.4585 57.5271 48.3648 57.564 48.2716 57.6026C48.0841 57.6751 47.8987 57.7471 47.7104 57.8095C47.3347 57.9363 46.9548 58.0422 46.5706 58.1225C46.1868 58.2026 45.8024 58.2695 45.4155 58.307C45.0306 58.353 44.6433 58.3642 44.2604 58.3708C44.1804 58.3723 44.1143 58.3112 44.1128 58.2343C44.1116 58.1649 44.1633 58.1067 44.2321 58.0948L44.238 58.0939C44.6033 58.0307 44.9641 57.9561 45.3134 57.8434C45.6635 57.7368 46.0039 57.605 46.3314 57.4525C46.6598 57.3028 46.9761 57.1321 47.2785 56.947C47.4296 56.8542 47.5774 56.7587 47.7191 56.6569C47.7884 56.6049 47.8592 56.5544 47.9253 56.5012C47.9593 56.475 47.9919 56.4488 48.0232 56.4226L48.0691 56.3837C48.0831 56.3714 48.1002 56.357 48.1057 56.3499C48.3201 56.0665 48.7333 56.0033 49.0287 56.209C49.3241 56.4147 49.39 56.8111 49.1756 57.0945C49.1219 57.1655 49.0558 57.2225 48.9823 57.2651L48.8459 57.3433Z" fill="#4B2710"/>
<path d="M46.42 66.2486C45.1094 66.2486 43.6258 66.0956 42.0356 65.6694C39.7408 65.054 38.0214 63.2691 37.5485 61.0105C36.8566 57.7065 36.4319 51.265 41.365 45.247C42.5651 43.7826 44.718 43.5011 46.2665 44.6061C48.6841 46.3315 52.2135 50.1355 49.3405 56.5015C51.1359 57.2484 53.5734 59.1554 53.1346 62.5033C52.9184 64.1517 51.6237 65.5083 49.913 65.8792C48.9939 66.0782 47.8033 66.2484 46.42 66.2486ZM44.1612 45.1555C43.4871 45.1555 42.8203 45.4465 42.3653 46.0014C37.9794 51.3522 38.0037 56.9858 38.7963 60.7698C39.1745 62.5755 40.547 64.0025 42.3782 64.4934C45.3906 65.301 47.9856 65.0447 49.6322 64.6879C50.8221 64.43 51.7221 63.4907 51.8716 62.3505C52.3581 58.6397 48.4614 57.4794 48.2952 57.432L47.5794 57.227L47.9026 56.5813C50.7443 50.9344 48.1682 47.4848 45.5069 45.5857C45.1009 45.2959 44.6293 45.1555 44.1612 45.1555Z" fill="#4B2710"/>
<path d="M20.8727 56.954C20.8727 58.4544 20.6916 59.7948 20.4613 60.8896C20.0399 62.9014 18.487 64.5293 16.4264 65.0816C13.2967 65.9201 10.5969 65.6596 8.86163 65.2837C7.41779 64.9703 6.31609 63.8348 6.13073 62.4267C6.06986 61.9626 6.06986 61.534 6.11657 61.1379C6.50691 57.8726 10.1584 56.847 10.1584 56.847C10.0155 56.5622 9.88531 56.284 9.76803 56.0099C9.52056 55.4307 9.32825 54.8744 9.18687 54.3412C8.89417 53.2506 8.81218 52.2548 8.88274 51.3486C8.93517 50.6757 9.07232 50.0517 9.27159 49.4764C9.976 47.4483 11.4581 46.0156 12.7476 45.0958C14.0118 44.1937 15.7938 44.4351 16.7683 45.6235C19.9875 49.551 20.8742 53.6412 20.8727 56.954Z" fill="#FFA910"/>
<path d="M20.8727 56.9539C20.8727 58.4543 20.6916 59.7948 20.4613 60.8895C20.0399 62.9014 18.4869 64.5293 16.4264 65.0815C13.2967 65.92 10.5969 65.6595 8.8616 65.2837C7.41776 64.9702 6.31606 63.8348 6.1307 62.4266C5.56793 58.1368 10.1583 56.8469 10.1583 56.8469C10.1583 56.8469 14.7647 60.0186 20.8727 56.9539Z" fill="white"/>
<g opacity="0.3">
<path opacity="0.3" d="M20.8727 56.954C20.8727 58.4544 20.6916 59.7948 20.4613 60.8896C20.0399 62.9014 18.487 64.5294 16.4264 65.0816C13.2967 65.9201 10.5969 65.6596 8.86163 65.2837C7.41779 64.9703 6.31609 63.8348 6.13073 62.4267C6.06986 61.9626 6.06986 61.5341 6.11657 61.1379C6.96235 61.9328 8.24071 62.6369 10.1584 63.0602C17.0215 64.5715 15.4927 58.289 15.4927 58.289C11.629 58.4015 10.1584 56.847 10.1584 56.847C18.3242 57.3923 12.7479 45.096 12.7479 45.096C14.0121 44.1939 15.7941 44.4353 16.7686 45.6237C19.9875 49.551 20.8742 53.6412 20.8727 56.954Z" fill="#4B2710"/>
</g>
<g opacity="0.7">
<path opacity="0.7" d="M6.83811 63.3762C6.77724 62.9122 6.77724 62.4836 6.82395 62.0875C7.21429 58.8221 10.8657 57.7965 10.8657 57.7965C10.7229 57.5117 10.5927 57.2336 10.4754 56.9595C10.2279 56.3803 10.0356 55.824 9.89425 55.2908C9.60155 54.2001 9.51956 53.2043 9.59012 52.2981C9.64255 51.6253 9.7797 51.0013 9.97897 50.4259C10.6834 48.3978 12.1655 46.9651 13.455 46.0454C14.7192 45.1432 16.5012 45.3847 17.4757 46.5731C17.5463 46.6591 17.6143 46.7456 17.6827 46.8319C17.4009 46.4281 17.0975 46.0249 16.7686 45.6235C15.7941 44.4351 14.0123 44.1937 12.7479 45.0958C11.4581 46.0156 9.97599 47.4483 9.27184 49.4764C9.07232 50.0515 8.93517 50.6757 8.88299 51.3486C8.81218 52.2548 8.89442 53.2506 9.18711 54.3412C9.32849 54.8744 9.5208 55.4307 9.76827 56.0099C9.88555 56.284 10.0157 56.5622 10.1586 56.847C10.1586 56.847 6.50715 57.8726 6.11681 61.1379C6.0701 61.534 6.0701 61.9628 6.13098 62.4267C6.23111 63.1877 6.60033 63.8675 7.14521 64.3823C6.99042 64.0703 6.88482 63.7321 6.83811 63.3762Z" fill="white"/>
</g>
<path d="M8.04449 65.4319L8.02039 65.3604L8.00125 65.2984C7.98833 65.2579 7.97864 65.2174 7.9687 65.178C7.94709 65.0984 7.93293 65.0198 7.91628 64.9409C7.88721 64.7836 7.86584 64.626 7.85168 64.4687C7.82459 64.1539 7.82161 63.839 7.84969 63.5268C7.87578 63.215 7.9215 62.9054 8.01045 62.6048C8.09343 62.3045 8.21469 62.013 8.3742 61.7425C8.41296 61.6767 8.50017 61.6534 8.569 61.6905C8.60975 61.7127 8.63484 61.7508 8.64031 61.7921L8.6413 61.7995C8.68031 62.1 8.69447 62.3837 8.73274 62.6649C8.7638 62.945 8.80107 63.2195 8.84877 63.4901C8.89648 63.7606 8.95611 64.0268 9.02493 64.2876C9.05798 64.4182 9.096 64.5466 9.13252 64.6739L9.19091 64.8608L9.24508 65.026L9.25675 65.0619C9.3621 65.3835 9.17575 65.726 8.84057 65.8268C8.50688 65.9274 8.15158 65.7505 8.04449 65.4319Z" fill="#4B2710"/>
<path d="M11.3327 65.6646L11.3086 65.5931L11.2895 65.5311C11.2765 65.4903 11.2668 65.4501 11.2569 65.4107C11.2353 65.3311 11.2211 65.2525 11.2045 65.1736C11.1754 65.0163 11.154 64.8587 11.1401 64.7014C11.113 64.3866 11.1101 64.0717 11.1381 63.7595C11.1642 63.4477 11.2099 63.1379 11.2989 62.8376C11.3819 62.5372 11.5031 62.2457 11.6627 61.9752C11.7014 61.9092 11.7886 61.8861 11.8575 61.9233C11.8982 61.9454 11.9233 61.9836 11.9288 62.0248L11.9298 62.0322C11.9688 62.3327 11.9829 62.6164 12.0212 62.8976C12.0522 63.1777 12.0895 63.4523 12.1372 63.7228C12.1849 63.9933 12.2446 64.2595 12.3134 64.5203C12.3464 64.6509 12.3847 64.7794 12.421 64.9066L12.4794 65.0935L12.5335 65.2587L12.5452 65.2947C12.6506 65.6162 12.4642 65.9587 12.129 66.0595C11.7951 66.1601 11.4398 65.9832 11.3327 65.6646Z" fill="#4B2710"/>
<path d="M10.5286 56.3497C10.5341 56.3568 10.5512 56.3712 10.5651 56.3835L10.6111 56.4224C10.6424 56.4489 10.675 56.4751 10.709 56.5011C10.7748 56.554 10.8459 56.6047 10.9152 56.6567C11.0569 56.7585 11.2047 56.854 11.3558 56.9468C11.6581 57.132 11.9744 57.3026 12.3029 57.4523C12.6304 57.6048 12.9705 57.7369 13.3209 57.8432C13.67 57.9559 14.0307 58.0305 14.3962 58.0937L14.4022 58.0946C14.481 58.1082 14.5334 58.1804 14.5192 58.256C14.5063 58.3242 14.4439 58.3716 14.3739 58.3704C13.991 58.3637 13.6036 58.3525 13.2188 58.3065C12.8319 58.2691 12.4475 58.2021 12.0636 58.122C11.6795 58.0417 11.2996 57.9359 10.9239 57.8091C10.7356 57.7466 10.5502 57.6747 10.3626 57.6022C10.2695 57.5636 10.1758 57.5267 10.0824 57.4842C10.0357 57.464 9.98845 57.4425 9.94099 57.4196L9.86869 57.3848C9.84359 57.3722 9.82148 57.3617 9.78843 57.3429L9.65476 57.2661C9.34144 57.0867 9.23882 56.6974 9.42617 56.3967C9.61326 56.0961 10.019 55.9979 10.3326 56.1774C10.4108 56.2227 10.4779 56.2832 10.5286 56.3497Z" fill="#4B2710"/>
<path d="M12.2142 66.2485C10.8308 66.2485 9.64063 66.0781 8.72155 65.8788C7.01086 65.508 5.7161 64.1513 5.49994 62.5029C5.0609 59.1551 7.4986 57.2481 9.29402 56.5011C6.42075 50.1351 9.95022 46.3311 12.3678 44.6057C13.916 43.501 16.069 43.7823 17.2693 45.2467C22.2023 51.2649 21.7777 57.7062 21.0857 61.0101C20.6127 63.2687 18.8933 65.0539 16.5987 65.6691C15.0087 66.0955 13.5249 66.2483 12.2142 66.2485ZM13.1276 45.5856C10.466 47.485 7.88993 50.9343 10.7319 56.5812L11.0584 57.2297L10.3378 57.4323C10.1733 57.4795 6.27639 58.6396 6.76314 62.3504C6.91272 63.4906 7.81266 64.4299 9.00232 64.6878C10.6489 65.0449 13.2439 65.3011 16.2563 64.4933C18.0875 64.0023 19.46 62.5756 19.8382 60.7697C20.6308 56.9857 20.6549 51.3519 16.2692 46.0013C15.498 45.0612 14.1182 44.8784 13.1276 45.5856Z" fill="#4B2710"/>
<path d="M42.1695 57.1874C42.0436 57.7776 42.2274 58.3868 42.6404 58.8399C43.1381 59.3866 43.7972 60.2726 44.1197 61.4011C44.6867 63.3873 43.3333 65.4168 41.2291 65.8225C38.9904 66.2539 35.6147 66.5416 32.1499 65.5024C31.1118 65.1918 30.1969 64.5664 29.6143 63.6859C29.5705 63.6221 29.5293 63.5558 29.4898 63.4879C29.3767 63.2912 29.3174 63.0715 29.3174 62.8462C29.3174 63.0715 29.258 63.2912 29.1449 63.4879C29.1054 63.5558 29.0644 63.6221 29.0204 63.6859C28.4378 64.5664 27.5227 65.1918 26.4848 65.5024C23.02 66.5416 19.6443 66.2539 17.4056 65.8225C15.3014 65.4168 13.948 63.3873 14.515 61.4011C14.549 61.2817 14.587 61.1652 14.6295 61.051C14.9746 60.0893 15.5488 59.328 15.9943 58.8396C16.4073 58.3865 16.5912 57.7773 16.4652 57.1872C16.4257 56.9987 16.3817 56.8154 16.3337 56.6364C16.3323 56.6309 16.3295 56.6254 16.328 56.6187C16.3096 56.5427 16.2885 56.4669 16.2672 56.3935C16.2644 56.3868 16.2644 56.3825 16.2644 56.3825C16.1526 55.9905 16.0281 55.6229 15.8982 55.2823C15.5841 54.4548 15.2447 53.79 15.0213 53.3505C15.0199 53.3491 15.0199 53.3465 15.0186 53.345C14.6156 52.5502 14.2747 51.7279 13.9989 50.8827C13.9778 50.8148 13.9552 50.7483 13.9353 50.682C13.6821 49.8831 13.4871 49.1151 13.3385 48.3784C12.3456 43.4458 13.4883 39.924 14.2181 38.3219C14.5095 37.6843 14.7344 37.3506 14.7344 37.3506C14.7344 37.3506 15.4485 36.3765 18.0506 35.4865C20.2384 34.7362 23.7614 34.0471 29.3179 34.0471C41.4803 34.0471 43.9013 37.3506 43.9013 37.3506C43.9013 37.3506 44.1262 37.6843 44.4177 38.3219C45.2647 40.1845 46.6705 44.6368 44.6368 50.8827C44.361 51.7293 44.0189 52.554 43.6144 53.3503C43.2374 54.0904 42.5358 55.4618 42.1695 57.1874Z" fill="#FFA910"/>
<path d="M40.5843 35.487C38.3966 34.7367 34.8736 34.0476 29.3171 34.0476C23.7607 34.0476 20.2379 34.7367 18.0499 35.487C15.8694 40.1619 17.7204 44.5708 17.7204 44.5708C20.2364 51.0541 29.3171 53.1174 29.3171 53.1174C29.3171 53.1174 38.3978 51.0541 40.9138 44.5708C40.9138 44.5708 42.7651 40.1619 40.5843 35.487Z" fill="white"/>
<path d="M29.3171 62.8458C29.3171 63.0711 29.2577 63.2908 29.1447 63.4874C29.1052 63.5554 29.0642 63.6216 29.0202 63.6855C28.4375 64.566 27.5224 65.1914 26.4846 65.502C23.0197 66.5411 19.6441 66.2535 17.4054 65.8221C15.3011 65.4164 13.9477 63.3869 14.5147 61.4007C14.8372 60.2719 15.4962 59.3862 15.9941 58.8395C16.4071 58.3864 16.5909 57.7772 16.4649 57.187C16.4649 57.187 18.9031 62.1007 25.4935 59.1786C25.493 59.1789 29.3171 57.9674 29.3171 62.8458Z" fill="white"/>
<path d="M29.3171 62.8458C29.3171 63.0711 29.3765 63.2908 29.4896 63.4874C29.5291 63.5554 29.5701 63.6216 29.6141 63.6855C30.1967 64.566 31.1118 65.1914 32.1497 65.502C35.6145 66.5411 38.9902 66.2535 41.2289 65.8221C43.3331 65.4164 44.6865 63.3869 44.1195 61.4007C43.797 60.2719 43.1381 59.3862 42.6402 58.8395C42.2272 58.3864 42.0433 57.7772 42.1693 57.187C42.1693 57.187 39.7311 62.1007 33.1408 59.1786C33.1413 59.1789 29.3171 57.9674 29.3171 62.8458Z" fill="white"/>
<g opacity="0.3">
<path opacity="0.3" d="M44.1198 61.4011C44.0857 61.2817 44.0477 61.1652 44.0052 61.051C40.8261 66.1683 33.5117 63.9147 32.5499 62.8457C31.519 61.7022 33.141 59.1788 33.141 59.1788C40.1994 61.6724 41.9631 57.7056 42.301 56.6366C42.3025 56.6311 42.3052 56.6256 42.3067 56.619C42.3435 56.501 42.3619 56.4209 42.3676 56.3937C42.3703 56.387 42.3703 56.3828 42.3703 56.3828C39.4772 58.2037 37.5953 58.1911 36.3763 57.5004C34.4604 56.4145 34.4467 53.7702 36.2685 52.5442C41.1528 49.2572 40.9135 44.5708 40.9135 44.5708C38.3419 47.2274 35.1364 48.7223 32.7479 49.5334C30.5296 50.2866 28.1044 50.2866 25.8858 49.5334C23.4973 48.7223 20.2918 47.2274 17.7202 44.5708C17.7202 44.5708 17.4812 49.2572 22.3655 52.5442C24.1873 53.7702 24.1739 56.4145 22.2577 57.5004C21.0387 58.1913 19.1568 58.2037 16.2637 56.3828C16.2637 56.3828 16.2637 56.3868 16.2664 56.3937C16.2721 56.4209 16.2905 56.501 16.3273 56.619C16.3288 56.6256 16.3315 56.6311 16.333 56.6366C16.6709 57.7056 18.4345 61.6724 25.493 59.1788C25.493 59.1788 27.115 61.7022 26.0841 62.8457C25.1225 63.9147 17.8079 66.1681 14.6288 61.051C14.5863 61.1649 14.5483 61.2817 14.5142 61.4011C13.9472 63.3873 15.3006 65.4168 17.4049 65.8225C19.6436 66.2539 23.0192 66.5415 26.4841 65.5024C27.5222 65.1918 28.437 64.5664 29.0197 63.6859C29.0614 63.6251 29.1007 63.5617 29.1387 63.4972C29.2553 63.2984 29.3166 63.0741 29.3166 62.846C29.3166 63.0741 29.378 63.2984 29.4945 63.4972C29.5325 63.5617 29.5718 63.6249 29.6135 63.6859C30.1962 64.5664 31.1113 65.1918 32.1491 65.5024C35.614 66.5415 38.9897 66.2539 41.2283 65.8225C43.3336 65.4168 44.687 63.3873 44.1198 61.4011Z" fill="#4B2710"/>
</g>
<g opacity="0.3">
<path opacity="0.3" d="M44.417 39.4075C40.8234 41.1861 35.7972 42.7787 29.3174 42.7787C22.8377 42.7787 17.8112 41.1861 14.2179 39.4075C14.5093 38.77 14.7342 38.4363 14.7342 38.4363C14.7342 38.4363 15.4483 37.4622 18.0505 36.5722C20.2382 35.8219 23.7612 35.1328 29.3177 35.1328C41.4801 35.1328 43.9012 38.4363 43.9012 38.4363C43.9012 38.4363 44.1255 38.77 44.417 39.4075Z" fill="#4B2710"/>
</g>
<path d="M16.9791 56.597L17.0218 56.7045C17.0389 56.7462 17.0576 56.7886 17.0775 56.8313C17.117 56.9161 17.1597 57.0015 17.2037 57.0861C17.2931 57.2551 17.3952 57.4186 17.5018 57.578C17.722 57.8926 17.9754 58.1822 18.2614 58.4342C18.8336 58.9387 19.5455 59.2779 20.3316 59.4343C21.1163 59.6002 21.9655 59.5811 22.8133 59.4736C23.6665 59.369 24.5275 59.1943 25.4411 59.0605L25.4426 59.0603C25.5179 59.0493 25.5884 59.0989 25.5999 59.1714C25.6078 59.2214 25.5852 59.2693 25.5457 59.2977C24.7936 59.8342 23.9339 60.2165 23.0141 60.4534C22.5502 60.559 22.0766 60.6413 21.5886 60.6699C21.3461 60.693 21.0994 60.6887 20.8522 60.6889C20.7284 60.687 20.6042 60.6732 20.48 60.6644C20.3557 60.6575 20.2317 60.6393 20.1075 60.6193C19.6123 60.5442 19.1129 60.4189 18.6465 60.2079C18.1809 59.9989 17.7374 59.7305 17.357 59.3964C16.9733 59.066 16.6429 58.6849 16.3726 58.2719C16.2371 58.0654 16.1191 57.8495 16.0138 57.6276C15.9611 57.5163 15.9126 57.4033 15.8699 57.2865C15.848 57.2286 15.8272 57.1693 15.8075 57.1087C15.7867 57.0446 15.7708 56.9936 15.7477 56.9066C15.661 56.5808 15.8659 56.2492 16.2056 56.1661C16.5216 56.0886 16.8429 56.2535 16.956 56.5393L16.9791 56.597Z" fill="#4B2710"/>
<path d="M29.1966 53.7171C29.0125 53.6833 28.8604 53.6501 28.697 53.6122C28.536 53.5755 28.3772 53.536 28.2197 53.4923C27.9039 53.4075 27.5918 53.3152 27.2837 53.2118C26.6665 53.0087 26.0612 52.7749 25.4701 52.5113C24.8775 52.2506 24.3021 51.9541 23.741 51.6347C23.1785 51.317 22.6381 50.9628 22.1196 50.5814C21.6005 50.2005 21.1001 49.7949 20.6382 49.3499C20.1758 48.9068 19.7283 48.4473 19.3375 47.9441C19.1332 47.6998 18.9601 47.4322 18.7769 47.174C18.6134 46.9023 18.4393 46.6387 18.3014 46.3548C18.2283 46.2154 18.156 46.0762 18.0899 45.9341C18.0286 45.7895 17.9645 45.6467 17.9068 45.5015C17.878 45.4291 17.8469 45.3576 17.8198 45.2844C17.794 45.2108 17.7702 45.1364 17.7463 45.062C17.6981 44.914 17.6516 44.7658 17.6096 44.6168C17.592 44.5544 17.6303 44.49 17.6956 44.4731C17.7483 44.4595 17.802 44.4807 17.8303 44.5224L17.832 44.525C18.5198 45.5459 19.2264 46.5098 20.0578 47.3726C20.8673 48.2509 21.8003 49.0157 22.8018 49.6829C23.8034 50.3514 24.884 50.9106 26.0006 51.3873C26.5601 51.6239 27.1304 51.8375 27.7076 52.0294C27.9965 52.124 28.2865 52.2158 28.5782 52.2975C28.7238 52.339 28.8699 52.3783 29.015 52.4164C29.1571 52.4539 29.3127 52.4913 29.4379 52.5182L29.4558 52.522C29.7987 52.5957 30.0146 52.922 29.9378 53.2509C29.8623 53.5734 29.5328 53.7786 29.1966 53.7171Z" fill="#4B2710"/>
<path d="M29.1966 52.5183C29.3219 52.4914 29.4774 52.454 29.6195 52.4166C29.7646 52.3784 29.9107 52.3391 30.0563 52.2976C30.348 52.2159 30.6377 52.1241 30.927 52.0295C31.5039 51.8376 32.0744 51.6241 32.6339 51.3874C33.7508 50.9107 34.8314 50.3518 35.8327 49.683C36.8343 49.0158 37.7675 48.2507 38.5767 47.3727C39.4084 46.5099 40.1148 45.546 40.8025 44.5252L40.8042 44.5225C40.8408 44.4682 40.9166 44.4527 40.9732 44.4877C41.0189 44.5161 41.0383 44.569 41.0249 44.6169C40.9826 44.7659 40.9364 44.9141 40.8882 45.0621C40.8644 45.1365 40.8405 45.2109 40.8147 45.2845C40.7876 45.3577 40.7568 45.429 40.7277 45.5017C40.6701 45.6471 40.6062 45.7896 40.5446 45.9343C40.4785 46.0763 40.4062 46.2157 40.3332 46.3549C40.1953 46.6388 40.0211 46.9024 39.8576 47.1741C39.6747 47.4323 39.5015 47.6999 39.297 47.9442C38.906 48.4474 38.4585 48.9069 37.9963 49.35C37.5344 49.795 37.034 50.2006 36.515 50.5815C35.9962 50.9629 35.4558 51.3173 34.8935 51.6348C34.3322 51.9542 33.757 52.2509 33.1644 52.5114C32.5731 52.775 31.968 53.0088 31.3508 53.2119C31.0427 53.3154 30.7307 53.4074 30.4149 53.4924C30.2573 53.5361 30.0986 53.5756 29.9376 53.6123C29.7738 53.6502 29.622 53.6834 29.4379 53.7172C29.0928 53.7806 28.7593 53.5637 28.6933 53.2326C28.6284 52.908 28.8446 52.5944 29.1783 52.5224L29.1966 52.5183Z" fill="#4B2710"/>
<path d="M16.584 65.8247C16.54 65.7225 16.5109 65.6414 16.4806 65.5504C16.451 65.4624 16.4269 65.3726 16.4033 65.2837C16.3566 65.1051 16.3216 64.9247 16.2967 64.7419C16.2476 64.3768 16.2312 64.0054 16.262 63.6305C16.2948 63.2558 16.3646 62.8778 16.5072 62.5146C16.6535 62.1532 16.8665 61.8043 17.1689 61.5423C17.2625 61.4613 17.4069 61.4682 17.4914 61.5581C17.5386 61.6081 17.557 61.6732 17.548 61.7352L17.5448 61.7566C17.4946 62.0905 17.4752 62.3937 17.4737 62.7007C17.4782 63.0086 17.5016 63.3154 17.5321 63.6236C17.5642 63.9322 17.6146 64.2428 17.6633 64.5543L17.7383 65.0227C17.7483 65.1016 17.7654 65.1781 17.7746 65.2567C17.7863 65.3316 17.7997 65.4167 17.8044 65.4786L17.8097 65.5446C17.8365 65.8817 17.5736 66.1758 17.2223 66.2015C16.9403 66.2223 16.6866 66.0628 16.584 65.8247Z" fill="#4B2710"/>
<path d="M21.1013 66.2632C21.0573 66.1609 21.0283 66.0799 20.9979 65.9888C20.9684 65.9009 20.9443 65.811 20.9207 65.7221C20.874 65.5436 20.8389 65.3632 20.8141 65.1804C20.7649 64.8152 20.7485 64.4439 20.7793 64.069C20.8121 63.6943 20.8819 63.3163 21.0245 62.953C21.1709 62.5917 21.3838 62.2428 21.6862 61.9808C21.7799 61.8998 21.9242 61.9067 22.0087 61.9966C22.0557 62.0466 22.0743 62.1117 22.0654 62.1736L22.0621 62.1951C22.0119 62.529 21.9926 62.8322 21.9911 63.1392C21.9955 63.4471 22.0189 63.7539 22.0495 64.0621C22.0815 64.3707 22.1319 64.6813 22.1806 64.9928L22.2557 65.4611C22.2654 65.54 22.2828 65.6165 22.292 65.6952C22.3036 65.77 22.3171 65.8551 22.3218 65.9171L22.327 65.9831C22.3538 66.3201 22.0909 66.6143 21.7396 66.64C21.4576 66.6607 21.2039 66.501 21.1013 66.2632Z" fill="#4B2710"/>
<path d="M42.8863 56.9062C42.8632 56.9932 42.8473 57.0442 42.8265 57.1083C42.8068 57.1689 42.786 57.2282 42.7641 57.2861C42.7214 57.4031 42.6727 57.5161 42.6202 57.6272C42.5149 57.8491 42.3969 58.065 42.2615 58.2714C41.9911 58.6845 41.6607 59.0656 41.277 59.396C40.8966 59.7301 40.4531 59.9985 39.9875 60.2075C39.5211 60.4185 39.0217 60.5441 38.5263 60.6189C38.402 60.6389 38.278 60.657 38.1538 60.664C38.0296 60.6728 37.9053 60.6866 37.7816 60.6885C37.5346 60.6883 37.2877 60.6926 37.0451 60.6694C36.5574 60.6406 36.0836 60.5586 35.6197 60.453C34.6999 60.2161 33.8402 59.8338 33.0881 59.2973C33.027 59.2537 33.0143 59.1707 33.0597 59.1121C33.0913 59.0716 33.1425 59.053 33.1912 59.0601L33.1927 59.0604C34.1063 59.1941 34.9675 59.3686 35.8205 59.4734C36.6682 59.5809 37.5175 59.6 38.3021 59.4341C39.0885 59.2777 39.8001 58.9386 40.3724 58.434C40.6583 58.1821 40.9118 57.8925 41.1319 57.5779C41.2385 57.4184 41.3406 57.2549 41.4301 57.0859C41.4741 57.0013 41.5168 56.9157 41.5563 56.8311C41.5764 56.7885 41.5948 56.7463 41.612 56.7043L41.6547 56.5968L41.6778 56.5389C41.8025 56.2245 42.1693 56.067 42.497 56.1864C42.8021 56.2977 42.9656 56.6102 42.8863 56.9062Z" fill="#4B2710"/>
<path d="M40.8296 65.4789C40.8346 65.4167 40.848 65.3318 40.8595 65.257C40.8686 65.1784 40.8858 65.1018 40.8957 65.023L40.9708 64.5546C41.0195 64.2433 41.0699 63.9325 41.1017 63.6239C41.1323 63.3157 41.1556 63.0089 41.1601 62.701C41.1589 62.394 41.1392 62.0908 41.089 61.7569L41.0861 61.7364C41.0682 61.6167 41.1546 61.5057 41.2796 61.4885C41.3492 61.479 41.4165 61.5012 41.4652 61.5429C41.7676 61.8048 41.9805 62.1537 42.1269 62.5151C42.2695 62.8783 42.3393 63.2563 42.3721 63.631C42.4029 64.0062 42.3865 64.3775 42.3373 64.7424C42.3127 64.9252 42.2777 65.1054 42.2307 65.2842C42.2071 65.3731 42.183 65.4629 42.1535 65.5509C42.1232 65.6419 42.0941 65.723 42.0501 65.8252C41.9157 66.1377 41.5427 66.2864 41.217 66.1577C40.9554 66.0543 40.8038 65.8031 40.8239 65.5461L40.8296 65.4789Z" fill="#4B2710"/>
<path d="M36.3124 65.9171C36.3174 65.8549 36.3308 65.7701 36.3422 65.6952C36.3514 65.6166 36.3686 65.5401 36.3785 65.4612L36.4536 64.9928C36.5023 64.6816 36.5527 64.3708 36.5847 64.0621C36.6153 63.7539 36.6387 63.4472 36.6431 63.1392C36.6419 62.8322 36.6223 62.5291 36.5721 62.1951L36.5691 62.1746C36.5512 62.055 36.6377 61.9439 36.7626 61.9268C36.8322 61.9172 36.8996 61.9394 36.9483 61.9811C37.2506 62.243 37.4636 62.592 37.6099 62.9533C37.7525 63.3166 37.8224 63.6946 37.8552 64.0693C37.886 64.4444 37.8696 64.8157 37.8204 65.1807C37.7958 65.3635 37.7607 65.5437 37.7138 65.7224C37.6902 65.8113 37.6661 65.9012 37.6365 65.9891C37.6062 66.0802 37.5771 66.1612 37.5331 66.2635C37.3987 66.5759 37.0258 66.7247 36.7 66.596C36.4384 66.4925 36.2868 66.2413 36.307 65.9844L36.3124 65.9171Z" fill="#4B2710"/>
<path d="M29.3171 63.4569C28.9655 63.4569 28.6808 63.1836 28.6808 62.8463V53.1177C28.6808 52.7805 28.9658 52.5071 29.3171 52.5071C29.6684 52.5071 29.9534 52.7805 29.9534 53.1177V62.8463C29.9534 63.1836 29.6687 63.4569 29.3171 63.4569Z" fill="#4B2710"/>
<path d="M21.4346 66.8238C19.8449 66.8238 18.416 66.6396 17.2792 66.4205C16.0863 66.1908 15.0351 65.4881 14.3955 64.493C13.7597 63.5041 13.584 62.3486 13.9006 61.2398C14.2551 59.9985 14.9742 59.0311 15.5149 58.4383C15.8023 58.123 15.9243 57.7011 15.8414 57.3098C15.4955 55.6788 14.8234 54.3552 14.4621 53.6442L14.4492 53.619C14.0288 52.7909 13.6725 51.932 13.3905 51.0658C10.6044 42.5094 14.0512 37.2405 14.1992 37.0203L14.2134 37.0005C14.32 36.8551 16.9659 33.437 29.3169 33.437C41.6677 33.437 44.3139 36.8549 44.4204 37.0005L44.4346 37.0203C44.5827 37.2405 48.0294 42.5094 45.2434 51.0658C44.9614 51.932 44.6053 52.7909 44.1849 53.619L44.172 53.6442C43.8107 54.3552 43.1386 55.6788 42.7927 57.3095C42.7098 57.7011 42.8318 58.123 43.1192 58.4383C43.6601 59.0313 44.379 59.9985 44.7335 61.2398C45.0503 62.3486 44.8744 63.5041 44.2386 64.493C43.5988 65.4884 42.5478 66.1908 41.3549 66.4205C39.0551 66.8634 35.5581 67.1646 31.9591 66.0845C30.886 65.7625 29.9619 65.1509 29.3169 64.3429C28.6719 65.1509 27.7479 65.7625 26.6747 66.0845C24.855 66.631 23.0608 66.8238 21.4346 66.8238ZM15.2575 37.7005C15.045 38.0385 12.087 42.9663 14.6057 50.7016C14.8689 51.5096 15.2011 52.3112 15.5936 53.0841L15.6065 53.1094C15.9924 53.8692 16.7107 55.2833 17.0889 57.0664C17.2507 57.8289 17.0203 58.6421 16.473 59.2423C16.02 59.739 15.419 60.5446 15.1283 61.5626C14.9059 62.3415 15.0304 63.1545 15.4788 63.8521C15.934 64.5602 16.6817 65.0601 17.5299 65.2236C19.6839 65.6385 22.953 65.9224 26.2951 64.9194C27.2233 64.6408 28.0005 64.0864 28.4836 63.3583C28.5198 63.3034 28.5549 63.2472 28.5882 63.19C28.6488 63.0856 28.6809 62.9667 28.6809 62.8463H29.9537C29.9537 62.9667 29.9858 63.0854 30.0464 63.1898C30.0797 63.2472 30.1147 63.3034 30.1513 63.3583C30.6343 64.0866 31.4115 64.641 32.3398 64.9197C35.6819 65.9226 38.951 65.6388 41.1049 65.2238C41.9532 65.0603 42.7006 64.5605 43.156 63.8524C43.6045 63.1547 43.7292 62.3415 43.5066 61.5628C43.2159 60.5448 42.6148 59.7392 42.1619 59.2425C41.6145 58.6423 41.3844 57.8289 41.5459 57.0664C41.9239 55.2836 42.6424 53.8692 43.0283 53.1096L43.0412 53.0844C43.4338 52.3114 43.7662 51.5098 44.0291 50.7018C46.5689 42.9013 43.569 38.0006 43.3752 37.6972C43.2512 37.5537 40.5966 34.6583 29.3177 34.6583C18.1374 34.6578 15.4311 37.5027 15.2575 37.7005ZM43.6129 53.3515H43.6142H43.6129Z" fill="#4B2710"/>
<path d="M8.7459 29.3183C1.29589 28.8288 0.268979 25.1957 1.28719 21.4691C2.06663 18.608 4.05064 15.6911 5.25992 14.0959C5.89774 13.2548 6.37728 12.3147 6.6968 11.3204C10.9478 -1.93121 20.2564 2.31087 20.2564 2.31087C20.2564 2.31087 20.2832 2.48582 20.3272 2.80592C20.8261 6.55439 23.4141 30.2829 8.7459 29.3183Z" fill="#FFA910"/>
<g opacity="0.3">
<path opacity="0.3" d="M8.74591 29.3183C1.29589 28.8288 0.268979 25.1957 1.28719 21.4691C1.29813 21.4851 1.30931 21.5008 1.32024 21.5168C2.939 23.8338 6.66127 23.2469 7.44046 20.5598C7.84472 19.1653 8.24301 17.5286 8.49272 15.8351C9.04431 12.0909 12.6364 3.28094 20.3269 2.80615C20.8261 6.55438 23.4141 30.2829 8.74591 29.3183Z" fill="#4B2710"/>
</g>
<g opacity="0.7">
<path opacity="0.7" d="M4.83554 15.7237C5.47335 14.8825 5.95289 13.9425 6.27242 12.9481C10.5237 -0.30345 19.832 3.93887 19.832 3.93887C19.832 3.93887 19.8588 4.11382 19.9028 4.43415C20.1694 6.43578 21.0313 14.1346 19.5435 20.7284C21.6043 13.8348 20.6161 4.9752 20.3272 2.80601C20.2834 2.48591 20.2564 2.31097 20.2564 2.31097C20.2564 2.31097 10.9478 -1.93135 6.6968 11.32C6.37727 12.3144 5.89773 13.2546 5.25992 14.0955C4.05063 15.691 2.06663 18.6079 1.28719 21.469C1.20296 21.7774 1.13289 22.0854 1.07922 22.3909C1.96401 19.7651 3.72589 17.1878 4.83554 15.7237Z" fill="white"/>
</g>
<path d="M9.59865 29.9576C9.30472 29.9576 9.00606 29.9476 8.70219 29.9276C4.56994 29.6561 1.92974 28.3986 0.854627 26.1906C-1.03297 22.3139 2.48208 16.7239 4.74511 13.737C5.33124 12.9633 5.78296 12.0895 6.08782 11.1397C7.64919 6.27318 10.0653 3.12034 13.2688 1.76868C17.0072 0.191302 20.3873 1.69384 20.5294 1.75867L20.835 1.89786L20.8855 2.21891C20.8924 2.26301 21.5765 6.68218 21.4343 11.8858C21.2413 18.9522 19.6981 24.0393 16.8477 27.0057C14.9635 28.9668 12.5281 29.9576 9.59865 29.9576ZM16.8484 2.2785C15.9162 2.2785 14.852 2.43128 13.7634 2.89367C10.922 4.10089 8.7489 6.99608 7.30407 11.4989C6.95795 12.5774 6.44338 13.5721 5.77451 14.4549C4.08519 16.6846 0.336326 22.2412 2.00776 25.6743C2.87217 27.4495 5.15384 28.4708 8.78915 28.7099C11.7166 28.9025 14.113 28.0506 15.9119 26.1787C21.7447 20.1085 20.0082 5.19919 19.676 2.7447C19.184 2.57405 18.1439 2.2785 16.8484 2.2785Z" fill="#4B2710"/>
<path d="M49.8884 29.3182C57.3384 28.8284 58.3653 25.1955 57.3471 21.4687C56.5679 18.6076 54.5836 15.691 53.3746 14.0955C52.7368 13.2544 52.2573 12.3143 51.9377 11.32C47.6865 -1.93161 38.3782 2.31071 38.3782 2.31071C38.3782 2.31071 38.3513 2.48566 38.3074 2.80575C37.8082 6.55422 35.2202 30.2828 49.8884 29.3182Z" fill="#FFA910"/>
<g opacity="0.3">
<path opacity="0.3" d="M49.8884 29.3183C57.3384 28.8285 58.3653 25.1957 57.3471 21.4689C57.3362 21.4849 57.325 21.5006 57.314 21.5166C55.6953 23.8335 51.973 23.2467 51.1938 20.5596C50.7896 19.165 50.3913 17.5283 50.1416 15.8349C49.59 12.0907 45.9979 3.28069 38.3074 2.80591C37.8082 6.55438 35.2202 30.2829 49.8884 29.3183Z" fill="#4B2710"/>
</g>
<g opacity="0.7">
<path opacity="0.7" d="M53.7987 15.7236C53.1609 14.8825 52.6814 13.9424 52.3619 12.948C48.1106 -0.303531 38.8023 3.93879 38.8023 3.93879C38.8023 3.93879 38.7755 4.11374 38.7315 4.43407C38.4649 6.4357 37.603 14.1345 39.0908 20.7284C37.03 13.8347 38.0182 4.97512 38.3071 2.80593C38.3508 2.48583 38.3779 2.31089 38.3779 2.31089C38.3779 2.31089 47.6865 -1.9312 51.9375 11.3201C52.257 12.3145 52.7365 13.2548 53.3744 14.0957C54.5834 15.6912 56.5677 18.6078 57.3468 21.4689C57.4311 21.7773 57.5011 22.0853 57.5548 22.3908C56.6703 19.765 54.9084 17.1877 53.7987 15.7236Z" fill="white"/>
</g>
<path d="M49.0357 29.9578C46.1062 29.9578 43.671 28.9672 41.7867 27.0059C38.9363 24.0394 37.393 18.9524 37.2 11.8859C37.0578 6.68208 37.7419 2.26291 37.7488 2.21905L37.7993 1.898L38.1049 1.7588C38.247 1.69397 41.6269 0.191679 45.3656 1.76881C48.569 3.12048 50.9851 6.27332 52.5465 11.1399C52.8511 12.0894 53.3028 12.9635 53.8892 13.7371C56.1525 16.7241 59.6673 22.314 57.7797 26.1909C56.7046 28.399 54.0644 29.6563 49.9321 29.928C49.6285 29.9478 49.3294 29.9578 49.0357 29.9578ZM38.9586 2.74294C38.6274 5.19361 36.8919 20.1122 42.7231 26.1793C44.5218 28.0508 46.9182 28.9019 49.8449 28.7098C53.4802 28.471 55.7619 27.4497 56.6263 25.6742C58.2977 22.2411 54.5489 16.6845 52.8596 14.4548C52.1907 13.572 51.6761 12.5776 51.33 11.4988C49.8822 6.98645 47.7029 4.08864 44.853 2.88618C42.2433 1.78526 39.7989 2.44858 38.9586 2.74294Z" fill="#4B2710"/>
<path d="M29.3171 40.4427C3.36604 40.4427 6.71934 29.4404 8.17436 26.2132C8.3284 25.87 8.4755 25.5036 8.61265 25.1211C9.3255 23.1511 9.81895 20.7798 10.0948 19.2387C10.2391 18.4314 10.3437 17.6175 10.4272 16.8023C12.1781 -0.143371 29.3171 0.616475 29.3171 0.616475C29.3171 0.616475 46.4561 -0.143134 48.207 16.8023C48.2905 17.6177 48.3951 18.4317 48.5395 19.2387C48.8689 21.0782 49.5082 24.1036 50.4599 26.2132C51.9151 29.4406 55.2682 40.4427 29.3171 40.4427Z" fill="#FFA910"/>
<path d="M50.4599 26.2131C50.3059 25.8698 50.1588 25.5035 50.0216 25.121C48.6245 24.4507 46.245 23.8403 43.0976 24.9915C40.246 26.0345 37.0182 25.3233 34.9293 23.1889C34.7449 23.0004 34.5576 22.8021 34.3678 22.5933C33.7364 21.8985 33.1523 21.2893 32.6225 20.7595C30.8209 18.9588 27.8142 18.9588 26.0128 20.7595C25.4829 21.2891 24.8987 21.8983 24.2676 22.5933C24.078 22.8021 23.8907 23.0004 23.7061 23.1889C21.617 25.3233 18.3894 26.0345 15.5377 24.9915C12.3904 23.8403 10.0109 24.4507 8.61374 25.121C8.47658 25.5035 8.32949 25.8698 8.17544 26.2131C6.72017 29.4405 3.36712 40.4426 29.3182 40.4426C55.2693 40.4426 51.9152 29.4405 50.4599 26.2131Z" fill="white"/>
<g opacity="0.3">
<path opacity="0.3" d="M29.3171 40.4426C3.36604 40.4426 6.71934 29.4403 8.17436 26.2131C8.27324 25.9919 8.3694 25.7615 8.46282 25.5226C7.53927 29.6129 8.79651 36.9685 29.3169 36.9685C49.8414 36.9685 51.0944 29.6103 50.1709 25.52C50.2628 25.76 50.359 25.9922 50.4593 26.2131C51.9151 29.4406 55.2682 40.4426 29.3171 40.4426Z" fill="#4B2710"/>
</g>
<g opacity="0.7">
<path opacity="0.7" d="M50.4599 26.2132C49.508 24.1036 48.869 21.0782 48.5395 19.2387C48.3951 18.4314 48.2905 17.6175 48.2071 16.8023C46.4561 -0.143371 29.3172 0.616475 29.3172 0.616475C29.3172 0.616475 12.1782 -0.143371 10.4275 16.8023C10.344 17.6177 10.2394 18.4317 10.095 19.2387C9.81925 20.7798 9.3258 23.1511 8.61295 25.1211C8.47579 25.5036 8.3287 25.87 8.17465 26.2132C7.64641 27.3849 6.86821 29.5812 7.3326 31.9039C7.30775 30.1089 7.89214 28.5096 8.31603 27.5698C8.47008 27.2266 8.61717 26.8603 8.75432 26.4777C9.46717 24.5078 9.96063 22.1365 10.2364 20.5954C10.3808 19.7881 10.4854 18.9741 10.5689 18.159C11.4159 9.96179 15.8634 5.908 20.2302 3.90684C20.5781 4.55514 22.1536 4.70554 23.8782 4.23028C25.5904 3.75859 26.8375 2.83905 26.793 2.11496C28.4043 1.9269 29.4588 1.97338 29.4588 1.97338C29.4588 1.97338 46.5977 1.21377 48.3487 18.1592C48.4322 18.9746 48.5368 19.7886 48.6811 20.5956C49.0106 22.4352 49.6499 25.4605 50.6018 27.5701C50.8875 28.2036 51.246 29.1367 51.4421 30.2272C51.3989 28.563 50.8582 27.0967 50.4599 26.2132Z" fill="white"/>
</g>
<path d="M34.767 26.6225C34.767 28.2483 32.3271 29.9732 29.3172 29.9732C26.3072 29.9732 23.8673 28.2483 23.8673 26.6225C23.8673 24.9968 26.3072 23.679 29.3172 23.679C32.3271 23.679 34.767 24.9968 34.767 26.6225Z" fill="#4B2710"/>
<path d="M29.3172 25.6461C30.9156 25.6461 32.2114 25.4249 32.2114 25.152C32.2114 24.8792 30.9156 24.658 29.3172 24.658C27.7188 24.658 26.4231 24.8792 26.4231 25.152C26.4231 25.4249 27.7188 25.6461 29.3172 25.6461Z" fill="white"/>
<path d="M20.9026 28.4134C21.0229 29.3687 21.3777 30.3337 21.9971 31.0004C22.3117 31.3288 22.6811 31.5912 23.1068 31.7478L23.266 31.806L23.431 31.8522C23.5384 31.8882 23.6556 31.903 23.7667 31.9306C23.8827 31.9459 23.997 31.9664 24.1143 31.9762C24.2333 31.9809 24.3484 32.0002 24.4694 31.9971C24.7052 32.0033 24.9564 31.994 25.1986 31.9745C25.3204 31.9657 25.4416 31.9545 25.5606 31.9361C25.6811 31.9228 25.7982 31.8997 25.9154 31.877C26.0335 31.857 26.1463 31.8246 26.2618 31.7988C26.3729 31.7636 26.4881 31.7364 26.5952 31.694C26.8146 31.6182 27.0226 31.524 27.2211 31.417C27.6204 31.2061 27.9789 30.9355 28.2955 30.605C28.4533 30.4393 28.5994 30.2584 28.7368 30.0653C28.8039 29.9681 28.8699 29.8682 28.9336 29.7655C28.9947 29.6644 29.0556 29.5505 29.108 29.4557L29.1239 29.4266C29.179 29.3265 29.3085 29.2883 29.4128 29.3413C29.4817 29.3761 29.5224 29.4423 29.5264 29.5117C29.5351 29.6678 29.5271 29.8005 29.5075 29.9424C29.4896 30.082 29.4591 30.2196 29.4201 30.3557C29.3403 30.6271 29.2245 30.8922 29.0719 31.1403C28.7691 31.6372 28.3246 32.067 27.8058 32.368C27.5469 32.5189 27.2735 32.6457 26.9918 32.7389C26.8524 32.7915 26.709 32.8263 26.5674 32.8685C26.4243 32.9002 26.2817 32.9396 26.1378 32.962C25.9939 32.9865 25.8503 33.0106 25.7065 33.0239C25.5626 33.0425 25.4192 33.0528 25.2761 33.0602C24.9892 33.0776 24.7084 33.0745 24.414 33.0573C23.8325 33.0227 23.2347 32.8979 22.6881 32.6376C22.4155 32.5093 22.1544 32.3525 21.9226 32.163C21.6888 31.9769 21.4778 31.7645 21.3059 31.5297C21.1315 31.2969 20.9859 31.0495 20.8671 30.7949C20.7498 30.5392 20.6631 30.2756 20.5973 30.0108C20.5302 29.7462 20.4909 29.4781 20.47 29.2109C20.4489 28.9413 20.4479 28.6815 20.4777 28.4024C20.4897 28.2904 20.594 28.2089 20.7108 28.2203C20.8114 28.2301 20.8887 28.3061 20.9001 28.3986L20.9026 28.4134Z" fill="#4B2710"/>
<path d="M30.0176 29.3898C30.0166 29.382 30.0178 29.3877 30.0186 29.391L30.0216 29.4034L30.0293 29.4339L30.0481 29.5016C30.0618 29.5483 30.0782 29.596 30.0954 29.6439C30.1309 29.7397 30.1721 29.8355 30.2164 29.9299C30.3075 30.1177 30.4174 30.2975 30.5426 30.4648C30.796 30.7975 31.1148 31.0797 31.4895 31.2937C31.6768 31.4005 31.8751 31.4949 32.0863 31.5709C32.1892 31.6136 32.3005 31.6413 32.4078 31.677C32.5199 31.7032 32.629 31.7371 32.744 31.7571C32.8583 31.7795 32.9723 31.8026 33.0904 31.8164C33.2064 31.8362 33.3249 31.8489 33.4444 31.8593C33.682 31.8827 33.9299 31.8913 34.1598 31.8875C34.6266 31.8796 35.0764 31.8081 35.4824 31.6513C35.8913 31.499 36.2451 31.2485 36.5458 30.9305C37.1488 30.2944 37.5225 29.3658 37.733 28.4138L37.7364 28.3978C37.761 28.287 37.8743 28.2165 37.9899 28.2398C38.0766 28.2575 38.1399 28.3235 38.1554 28.4021C38.2103 28.6812 38.2237 28.9444 38.218 29.2185C38.2118 29.4902 38.1802 29.7636 38.1221 30.0353C38.0085 30.5782 37.7812 31.1202 37.4199 31.5995C37.2412 31.8398 37.0226 32.0574 36.7813 32.2488C36.5416 32.4431 36.272 32.6035 35.9915 32.7341C35.7117 32.8711 35.4158 32.9588 35.1198 33.0372C34.9715 33.0678 34.8219 33.1006 34.6728 33.1207C34.5243 33.1359 34.3734 33.1629 34.2259 33.1669C33.9252 33.1862 33.6415 33.1891 33.3495 33.1753C33.2039 33.1693 33.0581 33.1607 32.9112 33.1436C32.7649 33.1304 32.6183 33.1064 32.4714 33.0818C32.3246 33.0597 32.1782 33.0218 32.0317 32.9903C31.886 32.9486 31.7392 32.9143 31.5956 32.8616C31.3056 32.7686 31.0226 32.6421 30.7525 32.491C30.4825 32.3401 30.2238 32.1635 29.9888 31.9597C29.7545 31.7554 29.5433 31.5261 29.3589 31.2799C29.174 31.0337 29.0217 30.7675 28.8958 30.4908C28.8334 30.3518 28.778 30.2102 28.7323 30.0634C28.7097 29.9898 28.688 29.9156 28.6692 29.8386L28.6423 29.7204L28.6299 29.6575L28.6167 29.5772C28.5628 29.2061 28.8324 28.8633 29.2193 28.8116C29.6061 28.7599 29.9634 29.0187 30.0176 29.3898Z" fill="#4B2710"/>
<path d="M20.8625 23.2237C22.2798 23.2237 23.4287 21.8234 23.4287 20.0961C23.4287 18.3688 22.2798 16.9685 20.8625 16.9685C19.4453 16.9685 18.2964 18.3688 18.2964 20.0961C18.2964 21.8234 19.4453 23.2237 20.8625 23.2237Z" fill="#4B2710"/>
<path d="M21.5218 20.96C22.1087 20.96 22.5845 20.3801 22.5845 19.6648C22.5845 18.9495 22.1087 18.3696 21.5218 18.3696C20.9349 18.3696 20.4591 18.9495 20.4591 19.6648C20.4591 20.3801 20.9349 20.96 21.5218 20.96Z" fill="white"/>
<path d="M21.5218 21.0196C20.9014 21.0196 20.3967 20.4118 20.3967 19.6648C20.3967 18.9176 20.9014 18.3098 21.5218 18.3098C22.142 18.3098 22.6466 18.9176 22.6466 19.6648C22.6466 20.4118 22.142 21.0196 21.5218 21.0196ZM21.5218 18.429C20.9699 18.429 20.521 18.9834 20.521 19.6648C20.521 20.3462 20.9699 20.9004 21.5218 20.9004C22.0736 20.9004 22.5224 20.346 22.5224 19.6648C22.5224 18.9834 22.0734 18.429 21.5218 18.429Z" fill="#4B2710"/>
<path d="M37.7717 23.2237C39.189 23.2237 40.3379 21.8234 40.3379 20.0961C40.3379 18.3688 39.189 16.9685 37.7717 16.9685C36.3545 16.9685 35.2056 18.3688 35.2056 20.0961C35.2056 21.8234 36.3545 23.2237 37.7717 23.2237Z" fill="#4B2710"/>
<path d="M37.1127 20.96C37.6996 20.96 38.1754 20.3801 38.1754 19.6648C38.1754 18.9495 37.6996 18.3696 37.1127 18.3696C36.5258 18.3696 36.05 18.9495 36.05 19.6648C36.05 20.3801 36.5258 20.96 37.1127 20.96Z" fill="white"/>
<path d="M29.3171 41.0535C17.9386 41.0535 10.7261 38.9468 7.8802 34.7919C5.64152 31.5235 6.7375 27.8622 7.59024 25.9707C8.53491 23.875 9.17198 20.7886 9.46765 19.1354C9.59636 18.4168 9.69997 17.6563 9.79438 16.742C10.7284 7.69649 16.006 3.62197 20.269 1.79695C24.713 -0.105527 28.8927 -0.00995026 29.3171 0.00554224C29.7415 -0.00947357 33.9215 -0.105289 38.365 1.79695C42.628 3.62221 47.9056 7.69649 48.8396 16.742C48.934 17.6563 49.0379 18.4168 49.1664 19.1352C49.462 20.7886 50.0993 23.875 51.0438 25.9705C51.8965 27.862 52.9927 31.5232 50.7538 34.7917C47.9081 38.947 40.6956 41.0535 29.3171 41.0535ZM29.0135 1.22254C28.0132 1.22254 24.4281 1.3429 20.7458 2.93005C15.0194 5.3986 11.761 10.0862 11.0613 16.8626C10.9652 17.7935 10.8543 18.6044 10.7224 19.3421C10.3495 21.4271 9.70593 24.3538 8.75853 26.4555C8.00766 28.1213 7.03318 31.3321 8.94388 34.1217C10.0886 35.793 12.1205 37.121 14.9834 38.0685C18.52 39.2392 23.3428 39.8327 29.3169 39.8327C35.291 39.8327 40.1137 39.2392 43.6504 38.0685C46.513 37.1208 48.5449 35.793 49.6899 34.1217C51.6006 31.3321 50.6261 28.1213 49.8752 26.4555C48.9278 24.3543 48.2846 21.4274 47.9114 19.3421C47.7794 18.6046 47.6686 17.7935 47.5724 16.8626C46.8728 10.0862 43.6144 5.3986 37.8877 2.93029C33.5714 1.06952 29.3877 1.22516 29.346 1.22635L29.3171 1.22754L29.2878 1.22635C29.2816 1.22611 29.1859 1.22254 29.0135 1.22254Z" fill="#4B2710"/>
<path d="M29.3184 42.6086C33.9511 42.6086 35.6198 39.5635 34.729 36.7727C34.3148 35.4749 34.4773 32.5085 34.4773 32.5085C34.4773 32.5085 29.5396 32.8846 29.3172 29.0908C29.0951 32.8846 24.157 32.5085 24.157 32.5085C24.157 32.5085 24.3195 35.4749 23.9053 36.7727C23.0146 39.5635 24.6833 42.6086 29.3159 42.6086" fill="#F958A9"/>
<path d="M29.9536 29.091C30.0216 29.8577 30.0356 30.6245 30.042 31.3913C30.0433 32.158 30.0241 32.9248 29.9886 33.6915C29.9528 34.4583 29.9054 35.2251 29.8137 35.9918C29.7207 36.7586 29.6057 37.5253 29.4032 38.2921C29.3913 38.3376 29.3431 38.365 29.2956 38.3536C29.2631 38.3457 29.2392 38.3214 29.2315 38.2921C29.029 37.5253 28.914 36.7586 28.821 35.9918C28.7294 35.2251 28.6817 34.4583 28.6461 33.6915C28.6106 32.9248 28.5915 32.158 28.5927 31.3913C28.5992 30.6245 28.6128 29.8577 28.6812 29.091C28.7112 28.7537 29.0203 28.5037 29.3719 28.5325C29.6862 28.5583 29.928 28.7988 29.9536 29.091Z" fill="#4B2710"/>
<path d="M29.3184 43.2192C29.3177 43.2192 29.3169 43.2192 29.3162 43.2192C26.959 43.2192 25.0669 42.4486 23.9883 41.0495C23.0385 39.8177 22.7865 38.1936 23.2971 36.5939C23.6094 35.6152 23.5652 33.3361 23.5217 32.5405L23.4837 31.8448L24.2075 31.8999C24.2291 31.9013 26.4882 32.0522 27.7827 30.9639C28.34 30.4955 28.6342 29.8715 28.6819 29.0564H29.9528C30.0005 29.8715 30.2947 30.4955 30.852 30.9639C32.1465 32.0519 34.4058 31.9015 34.4284 31.8996L35.1499 31.8472L35.1134 32.5403C35.0699 33.3359 35.0257 35.615 35.338 36.5936C35.8486 38.1934 35.5967 39.8175 34.6468 41.0493C33.5677 42.4486 31.6754 43.2192 29.3184 43.2192ZM24.8165 33.1245C24.8403 34.1031 24.8351 35.9446 24.5138 36.9514C24.1225 38.1772 24.3039 39.4061 25.0113 40.3235C25.8561 41.4189 27.3446 41.9979 29.316 41.9979C29.3167 41.9979 29.3174 41.9979 29.3182 41.9979C31.2895 41.9979 32.7781 41.4189 33.6229 40.3235C34.3303 39.4061 34.5116 38.1769 34.1203 36.9514C33.799 35.9446 33.7938 34.1031 33.8177 33.1245C32.8782 33.0918 31.2068 32.8826 30.0181 31.887C29.7423 31.656 29.5085 31.3977 29.317 31.1128C29.1254 31.3977 28.8916 31.656 28.6158 31.887C27.4274 32.8826 25.7559 33.0918 24.8165 33.1245Z" fill="#4B2710"/>
<path d="M26.8725 27.2739C26.8725 27.2739 24.9026 30.7917 20.6904 28.408C20.6904 28.408 20.3065 32.5359 24.8119 32.5359C29.3174 32.5359 29.3171 28.2626 29.3171 28.2626L26.8725 27.2739Z" fill="white"/>
<path d="M31.7618 27.2739C31.7618 27.2739 33.7316 30.7917 37.9439 28.408C37.9439 28.408 38.3278 32.5359 33.8223 32.5359C29.3169 32.5359 29.3171 28.2626 29.3171 28.2626L31.7618 27.2739Z" fill="white"/>
<g opacity="0.3">
<path opacity="0.3" d="M37.9419 28.0445C37.9419 28.0445 37.3886 29.7887 34.7646 30.203C33.7883 30.3572 33.0429 30.1477 32.4916 29.8245C33.8688 29.1724 34.7668 28.1511 34.7668 27.1653C34.7668 25.5395 32.3269 24.2217 29.3169 24.2217C26.307 24.2217 23.8671 25.5395 23.8671 27.1653C23.8671 28.1508 24.7645 29.1719 26.141 29.824C25.5897 30.1477 24.844 30.3574 23.8671 30.2032C21.2433 29.789 20.6897 28.0448 20.6897 28.0448C20.6897 28.0448 18.4172 33.4664 24.6902 34.0187C24.6902 34.0187 27.0012 34.2804 29.3157 32.4198C31.6302 34.2804 33.9411 34.0187 33.9411 34.0187C40.2144 33.4662 37.9419 28.0445 37.9419 28.0445Z" fill="#4B2710"/>
</g>
<path d="M34.767 26.6225C34.767 28.2483 32.3271 29.9732 29.3172 29.9732C26.3072 29.9732 23.8673 28.2483 23.8673 26.6225C23.8673 24.9968 26.3072 23.679 29.3172 23.679C32.3271 23.679 34.767 24.9968 34.767 26.6225Z" fill="#4B2710"/>
<path d="M29.3172 25.6461C30.9156 25.6461 32.2114 25.4249 32.2114 25.152C32.2114 24.8792 30.9156 24.658 29.3172 24.658C27.7188 24.658 26.4231 24.8792 26.4231 25.152C26.4231 25.4249 27.7188 25.6461 29.3172 25.6461Z" fill="white"/>
<path d="M30.0176 29.5773L30.0044 29.6576L29.992 29.7205L29.9652 29.8387C29.9463 29.9157 29.9249 29.9898 29.9021 30.0635C29.8564 30.2101 29.801 30.3519 29.7386 30.4908C29.6126 30.7676 29.4603 31.034 29.2754 31.28C29.0911 31.5262 28.8801 31.7555 28.6456 31.9598C28.4105 32.1636 28.1519 32.3402 27.8818 32.491C27.6117 32.6421 27.3287 32.7687 27.0387 32.8617C26.8951 32.9143 26.748 32.9487 26.6027 32.9904C26.4561 33.0216 26.3097 33.0597 26.1629 33.0819C26.0161 33.1064 25.8695 33.1305 25.7231 33.1436C25.5763 33.1608 25.4304 33.1696 25.2848 33.1753C24.9929 33.1892 24.7091 33.1863 24.4085 33.167C24.2609 33.1632 24.1101 33.1362 23.9615 33.1207C23.8124 33.1007 23.6626 33.0678 23.5145 33.0373C23.2186 32.9589 22.9227 32.8712 22.6429 32.7342C22.3624 32.6033 22.0928 32.4431 21.853 32.2489C21.6117 32.0577 21.3931 31.8399 21.2144 31.5996C20.8532 31.1206 20.6258 30.5783 20.5123 30.0354C20.4541 29.7636 20.4223 29.4903 20.4164 29.2185C20.4107 28.9445 20.4241 28.6813 20.479 28.4022C20.5009 28.2909 20.6127 28.218 20.7287 28.2389C20.8159 28.2547 20.8805 28.3193 20.8979 28.3977L20.9014 28.4137C21.1121 29.3658 21.4855 30.2942 22.0886 30.9303C22.3892 31.2483 22.743 31.4988 23.152 31.6511C23.558 31.8079 24.0077 31.8794 24.4746 31.8873C24.7044 31.8911 24.9524 31.8825 25.1899 31.8592C25.3094 31.8487 25.4279 31.8363 25.544 31.8163C25.662 31.8027 25.776 31.7793 25.8903 31.7569C26.0054 31.7367 26.1145 31.7028 26.2265 31.6769C26.3339 31.6411 26.4452 31.6134 26.548 31.5708C26.7592 31.495 26.9575 31.4006 27.1448 31.2936C27.5198 31.0796 27.8383 30.7974 28.0917 30.4646C28.217 30.2971 28.3268 30.1176 28.418 29.9298C28.462 29.8354 28.5032 29.7396 28.539 29.6438C28.5561 29.5958 28.5725 29.5479 28.5862 29.5015L28.6051 29.4338L28.6128 29.4033L28.6158 29.3909C28.6165 29.3875 28.6178 29.3818 28.6168 29.3897C28.6709 29.0186 29.0282 28.76 29.4148 28.8117C29.8017 28.8634 30.0715 29.2062 30.0176 29.5773Z" fill="#4B2710"/>
<path d="M30.0176 29.3898C30.0166 29.382 30.0178 29.3877 30.0186 29.391L30.0216 29.4034L30.0293 29.4339L30.0481 29.5016C30.0618 29.5483 30.0782 29.596 30.0954 29.6439C30.1309 29.7397 30.1721 29.8355 30.2164 29.9299C30.3075 30.1177 30.4174 30.2975 30.5426 30.4648C30.796 30.7975 31.1148 31.0797 31.4895 31.2937C31.6768 31.4005 31.8751 31.4949 32.0863 31.5709C32.1892 31.6136 32.3005 31.6413 32.4078 31.677C32.5199 31.7032 32.629 31.7371 32.744 31.7571C32.8583 31.7795 32.9723 31.8026 33.0904 31.8164C33.2064 31.8362 33.3249 31.8489 33.4444 31.8593C33.682 31.8827 33.9299 31.8913 34.1598 31.8875C34.6266 31.8796 35.0764 31.8081 35.4824 31.6513C35.8913 31.499 36.2451 31.2485 36.5458 30.9305C37.1488 30.2944 37.5225 29.3658 37.733 28.4138L37.7364 28.3978C37.761 28.287 37.8743 28.2165 37.9899 28.2398C38.0766 28.2575 38.1399 28.3235 38.1554 28.4021C38.2103 28.6812 38.2237 28.9444 38.218 29.2185C38.2118 29.4902 38.1802 29.7636 38.1221 30.0353C38.0085 30.5782 37.7812 31.1202 37.4199 31.5995C37.2412 31.8398 37.0226 32.0574 36.7813 32.2488C36.5416 32.4431 36.272 32.6035 35.9915 32.7341C35.7117 32.8711 35.4158 32.9588 35.1198 33.0372C34.9715 33.0678 34.8219 33.1006 34.6728 33.1207C34.5243 33.1359 34.3734 33.1629 34.2259 33.1669C33.9252 33.1862 33.6415 33.1891 33.3495 33.1753C33.2039 33.1693 33.0581 33.1607 32.9112 33.1436C32.7649 33.1304 32.6183 33.1064 32.4714 33.0818C32.3246 33.0597 32.1782 33.0218 32.0317 32.9903C31.886 32.9486 31.7392 32.9143 31.5956 32.8616C31.3056 32.7686 31.0226 32.6421 30.7525 32.491C30.4825 32.3401 30.2238 32.1635 29.9888 31.9597C29.7545 31.7554 29.5433 31.5261 29.3589 31.2799C29.174 31.0337 29.0217 30.7675 28.8958 30.4908C28.8334 30.3518 28.778 30.2102 28.7323 30.0634C28.7097 29.9898 28.688 29.9156 28.6692 29.8386L28.6423 29.7204L28.6299 29.6575L28.6167 29.5772C28.5628 29.2061 28.8324 28.8633 29.2193 28.8116C29.6061 28.7599 29.9634 29.0187 30.0176 29.3898Z" fill="#4B2710"/>
</g>
<defs>
<clipPath id="clip0_168_4696">
<rect width="58" height="69" fill="white" transform="translate(0.317139)"/>
</clipPath>
</defs>
</svg>
