<svg width="62" height="64" viewBox="0 0 62 64" fill="none" xmlns="http://www.w3.org/2000/svg">
<g clip-path="url(#clip0_168_5067)">
<path d="M27.7113 64C26.8184 64 26.028 63.7616 25.3623 63.2915C23.5623 62.021 23.139 60.3455 24.1046 58.312C24.3809 57.7304 24.7461 57.1531 25.0994 56.595C25.322 56.243 25.5523 55.8789 25.7539 55.5238C26.2504 54.6527 26.4714 54.0124 26.4714 53.4456C26.4714 52.3955 26.1184 50.9933 25.7774 49.637C25.3196 47.8181 24.8873 46.1001 25.1387 44.7528C25.3702 43.4942 26.1244 42.9276 26.7161 42.6744C26.8405 42.6204 26.9804 42.5728 27.1383 42.5312L27.1618 42.5251C27.3226 42.4862 27.4863 42.4639 27.6481 42.459C27.6692 42.458 27.7001 42.4576 27.7303 42.4576C28.9954 42.4576 30.0451 43.3907 31.2606 44.4713C32.4866 45.5613 33.8764 46.7968 35.3272 46.7968C35.372 46.7968 35.4171 46.7955 35.4624 46.7934C35.6397 46.7846 35.8238 46.7562 36.0124 46.7088C36.2393 46.6504 36.4785 46.5588 36.7184 46.4373C37.0752 46.2567 37.4016 45.8559 37.5919 45.3649C37.6125 45.3119 37.63 45.2606 37.6468 45.2086C37.811 44.6967 37.9193 43.8496 37.4992 42.7371C37.4208 42.5283 37.2864 42.312 37.0989 42.092C36.4042 41.2828 35.1367 40.6219 33.6238 40.2824C33.4055 40.2337 33.1756 40.191 32.9427 40.1552C30.1172 39.7231 27.6332 39.2092 25.4042 38.5947C25.4121 38.7685 25.4205 38.9423 25.4287 39.1149C25.4567 39.6951 25.4855 40.2947 25.4912 40.8584C25.5037 42.2653 25.3982 43.6887 24.5504 44.5788C23.7401 45.4281 22.451 45.8765 20.8223 45.8765C18.9181 45.8765 16.8803 45.2453 15.631 44.2684C15.0705 43.8323 14.6676 43.3306 14.4364 42.7791C14.1991 42.2123 14.0843 41.6374 14.0925 41.0483C13.9046 41.0884 13.7155 41.1105 13.5267 41.1105C13.4035 41.1105 13.2813 41.101 13.1629 41.0828C12.3068 40.9503 11.4592 40.4345 10.7127 39.5911C9.02242 37.692 7.93464 34.2558 9.07993 32.3659C9.58823 31.5308 10.3168 30.9479 11.2471 30.6317C11.2497 30.6307 11.2521 30.63 11.2548 30.629C10.0227 29.3106 8.78085 27.746 7.63029 26.0596C6.86197 24.932 6.15116 23.7787 5.51729 22.6307C5.50171 22.6032 5.48661 22.576 5.47175 22.5487C5.45929 22.5264 5.44731 22.504 5.43437 22.4821L5.41711 22.4515C3.92457 19.7214 1.60091 14.7099 2.80779 11.8281C3.01078 11.3432 3.30195 10.9399 3.67054 10.6278C3.64513 10.5355 3.62117 10.4392 3.59888 10.3403C3.5706 10.22 3.54664 10.0965 3.52747 9.97348C3.22814 8.13906 3.98041 6.74022 5.54149 6.24096C5.96639 6.10485 6.45744 6.03557 7.00072 6.03557C7.07717 6.03557 7.1553 6.03703 7.23486 6.0397C8.87431 4.68583 15.1894 0.0255219 24.4054 0.0255219C25.8133 0.0255219 27.2426 0.137332 28.6537 0.358036C31.5259 0.805521 34.4197 1.71969 37.2643 3.07697C37.452 2.96978 37.6489 2.8587 37.85 2.7464C39.5597 1.79601 41.0357 1.07508 42.2385 0.602804C42.9054 0.343209 43.4935 0.157993 43.9896 0.05153L44.2298 0L44.4711 0.0454533C44.8171 0.110838 52.9852 1.75955 56.1668 11.5493C56.3769 12.2014 56.5581 12.8601 56.7065 13.5103C57.3154 16.1763 57.5148 19.176 57.2991 22.4253L57.2778 22.7466L57.1059 23.0176C57.0161 23.1593 56.6614 23.6508 55.8696 24.0212C55.6553 24.1221 55.4265 24.2057 55.184 24.2718C55.269 24.6705 55.346 25.0723 55.4143 25.474C55.5832 26.4621 55.7023 27.4771 55.7685 28.4893C55.8293 29.4149 55.8471 30.3516 55.8219 31.2882C55.8617 31.2855 55.901 31.2828 55.9401 31.2802C56.3276 31.2549 56.6899 31.2422 57.017 31.2422C57.5258 31.2422 57.9536 31.2717 58.3251 31.3322C58.7809 31.4066 59.1463 31.5286 59.4425 31.7053C60.9955 32.6311 61.6416 36.4003 61.1608 39.0252C60.7285 41.3834 59.549 42.336 58.6354 42.7198C58.1676 42.9167 57.6624 43.0168 57.1347 43.0168C56.5229 43.0168 55.8734 42.8815 55.2048 42.6141C54.719 42.4208 54.2177 42.1569 53.7053 41.8246C52.914 43.8863 51.9161 45.8466 50.7279 47.6713C47.495 52.6301 43.0114 56.2581 38.0767 57.917C36.8523 59.1119 32.7891 62.8683 29.2561 63.7878C28.7136 63.9288 28.194 64 27.7113 64Z" fill="white"/>
<path d="M20.379 35.6936C18.9801 36.0385 17.253 37.685 15.7348 38.8C14.8277 39.4682 13.9933 39.9465 13.35 39.8471C12.7425 39.7525 12.1494 39.3422 11.6301 38.7562C10.2228 37.1751 9.34187 34.3241 10.1308 33.0216C10.5104 32.3969 11.0213 32.0289 11.6394 31.8181C11.9306 31.7178 12.2457 31.6536 12.5812 31.6123C13.2376 31.5311 13.9765 31.542 14.7798 31.5639C16.8446 31.6183 18.77 30.2212 18.77 30.2212L20.379 35.6936Z" fill="#FFAA27"/>
<path d="M13.5212 40.3601C13.4383 40.3601 13.3561 40.3542 13.2751 40.3416C11.8571 40.1221 10.6756 38.5643 10.0425 37.1795C9.41673 35.8108 9.00117 33.931 9.71078 32.7601C10.4738 31.5015 11.6805 31.2186 12.5219 31.1155C13.22 31.0302 13.9943 31.0421 14.7928 31.0635C16.6599 31.1121 18.4647 29.827 18.4827 29.8139C18.6124 29.7203 18.7789 29.6955 18.9294 29.748C19.0799 29.8005 19.1966 29.9233 19.2419 30.0781L20.8512 35.5505C20.8898 35.682 20.8737 35.8237 20.8064 35.9426C20.739 36.0614 20.6266 36.1472 20.4951 36.1796C19.5623 36.41 18.3873 37.3465 17.2512 38.2522C16.8449 38.576 16.4251 38.9107 16.0244 39.2055C15.2371 39.7845 14.3363 40.3601 13.5212 40.3601ZM13.856 32.0487C13.4254 32.0487 13.0148 32.0632 12.6405 32.1089C11.5983 32.2368 10.9733 32.5883 10.5515 33.2842C10.1417 33.9604 10.297 35.3565 10.9378 36.7585C11.5978 38.2026 12.5739 39.2208 13.4242 39.3523C14.0185 39.4452 15.0929 38.6549 15.4459 38.3954C15.831 38.1122 16.225 37.7981 16.6422 37.4656C17.6878 36.6322 18.7638 35.7741 19.7689 35.3694L18.4818 30.9925C17.7185 31.4315 16.2925 32.1033 14.7674 32.064C14.4575 32.0555 14.152 32.0487 13.856 32.0487ZM15.7351 38.8003H15.7363H15.7351Z" fill="#4B2710"/>
<g opacity="0.3">
<path opacity="0.3" d="M20.3791 35.6936C18.9802 36.0385 17.2531 37.685 15.7349 38.8C14.8278 39.4682 13.9933 39.9465 13.3501 39.8471C12.7426 39.7525 12.1495 39.3422 11.6301 38.7562C12.4155 38.5844 13.1747 38.2937 13.8718 37.8834C14.5045 37.5105 15.1501 36.9138 15.0845 36.1751C15.0296 35.548 14.4901 35.0988 14.0221 34.6861C13.0874 33.8628 12.2829 32.8908 11.6397 31.8181C11.9309 31.7178 12.246 31.6536 12.5815 31.6123C13.2379 31.5311 13.9768 31.542 14.7801 31.5639C16.8449 31.6183 18.7703 30.2212 18.7703 30.2212L20.3791 35.6936Z" fill="#4B2710"/>
</g>
<path d="M19.5484 32.4444C19.3346 32.5453 19.1403 32.6257 18.9351 32.7064C18.7326 32.7866 18.5287 32.8605 18.324 32.9313C17.9145 33.0715 17.5001 33.1923 17.0824 33.2946C16.6656 33.3997 16.2415 33.4728 15.8187 33.529C15.3953 33.5844 14.9687 33.6004 14.5479 33.5941C14.9634 33.5173 15.3699 33.4191 15.7653 33.2847C16.16 33.1493 16.5473 32.9998 16.9221 32.8212C17.2976 32.6454 17.6645 32.4536 18.0211 32.2463C18.1992 32.1418 18.3751 32.0351 18.5474 31.9238C18.7178 31.8146 18.8942 31.6953 19.0442 31.5837L19.0456 31.5825C19.2666 31.4182 19.5767 31.4668 19.7387 31.6907C19.9007 31.9148 19.8528 32.2293 19.6318 32.3936C19.6064 32.4133 19.5767 32.4308 19.5484 32.4444Z" fill="#4B2710"/>
<path d="M19.9585 34.0703C19.5748 34.1933 19.1779 34.3367 18.7909 34.484C18.4022 34.6325 18.0163 34.7903 17.6338 34.957C17.2523 35.1257 16.8749 35.3046 16.5022 35.4966C16.1322 35.6921 15.7679 35.9009 15.4149 36.1342C15.7159 35.8362 16.0371 35.5557 16.3682 35.2866C16.7016 35.0212 17.0443 34.766 17.394 34.52C17.7443 34.276 18.1009 34.0397 18.463 33.8115C18.8271 33.583 19.1882 33.3637 19.5731 33.1494C19.8132 33.0157 20.1147 33.1046 20.2465 33.3479C20.3783 33.5915 20.2906 33.8973 20.0507 34.0309C20.0224 34.0467 19.9934 34.0594 19.964 34.0689L19.9585 34.0703Z" fill="#4B2710"/>
<path d="M56.069 22.3417C56.069 22.3417 55.8792 22.6394 55.353 22.8852C54.7692 23.1589 53.7703 23.3694 52.1565 23.0412L37.2914 6.13501L36.3496 5.06358C36.3496 5.06358 37.2258 4.5213 38.4456 3.84217C39.6894 3.15089 41.2912 2.31547 42.6841 1.76954C43.2523 1.54811 43.7857 1.37359 44.2454 1.27563C44.2454 1.27563 52.0062 2.74156 54.9949 11.9411C55.1847 12.5259 55.3566 13.1433 55.5047 13.7921C56.0487 16.1736 56.2898 18.9968 56.069 22.3417Z" fill="#FFAA27"/>
<g opacity="0.3">
<path opacity="0.3" d="M56.069 22.3415C56.069 22.3415 55.8792 22.6393 55.353 22.885C54.7692 23.1587 53.7703 23.3692 52.1565 23.0411L37.2914 6.13488L36.3496 5.06345C36.3496 5.06345 37.2258 4.52117 38.4456 3.84204C41.1206 4.17018 43.6772 5.37214 45.8053 7.06704C48.2689 9.02955 50.1894 11.6238 51.7028 14.4057C52.1754 15.2749 52.845 16.3028 53.8192 16.2046C54.743 16.1125 55.2264 15.0544 55.4318 14.1369C55.4582 14.0219 55.4819 13.9069 55.5047 13.7917C56.0487 16.1735 56.2898 18.9967 56.069 22.3415Z" fill="#4B2710"/>
</g>
<g opacity="0.6">
<path opacity="0.6" d="M54.9947 11.9414C52.8131 7.739 49.9479 5.27188 47.7845 3.89467C45.9553 2.73014 43.6546 2.63753 41.7379 3.64723C40.3683 4.36865 38.7497 5.28695 37.2912 6.13525L36.3494 5.06382C36.3494 5.06382 39.9266 2.8507 42.6838 1.76979C43.252 1.54836 43.7855 1.37383 44.2451 1.27588C44.2451 1.27588 52.006 2.74181 54.9947 11.9414Z" fill="white"/>
</g>
<path d="M53.6862 23.7099C53.1877 23.7099 52.6447 23.6506 52.0592 23.5315C51.9543 23.5101 51.8591 23.4549 51.7879 23.374L35.981 5.39632C35.8835 5.28548 35.8397 5.13673 35.8612 4.98967C35.8828 4.84286 35.9674 4.71331 36.0922 4.63601C36.2399 4.54486 39.739 2.38717 42.5058 1.30236C43.1353 1.05687 43.6861 0.883073 44.1433 0.785604C44.2066 0.772235 44.2718 0.771263 44.3353 0.783416C44.4743 0.809667 47.7759 1.46108 50.9539 4.46732C52.8156 6.22858 54.2448 8.43562 55.2015 11.0274C56.3885 14.243 56.846 18.0605 56.5611 22.3747C56.5555 22.4596 56.5287 22.5415 56.4832 22.6129C56.4384 22.6832 56.1839 23.0478 55.5591 23.3395C55.0321 23.5862 54.4054 23.7099 53.6862 23.7099ZM52.4132 22.5813C53.8365 22.8448 54.6822 22.6477 55.1457 22.4304C55.3712 22.3251 55.5109 22.2136 55.5871 22.1404C56.0408 14.7694 54.2075 8.91349 50.2808 5.19895C47.5964 2.6594 44.7853 1.91173 44.2464 1.78704C43.8593 1.87746 43.3937 2.02816 42.8605 2.23598C40.7836 3.05025 38.1952 4.54097 37.1153 5.18291L52.4132 22.5813ZM56.0688 22.3412H56.07H56.0688Z" fill="#4B2710"/>
<path d="M38.9273 7.56637C39.5207 7.28757 40.1061 7.04232 40.7036 6.80508C41.3001 6.57053 41.9006 6.34885 42.5103 6.1544C43.1202 5.96116 43.7332 5.77886 44.359 5.6476C44.9833 5.51562 45.6157 5.41402 46.2493 5.40381C45.6224 5.49739 45.0178 5.6792 44.4258 5.88848C43.8332 6.09679 43.258 6.3542 42.6896 6.6206C42.1213 6.88821 41.5646 7.18135 41.0154 7.48567C40.4689 7.79047 39.9204 8.11108 39.4035 8.44262L39.3989 8.44554C39.1681 8.59356 38.8626 8.5238 38.7166 8.28973C38.5707 8.05566 38.6395 7.74575 38.8702 7.59772C38.8885 7.5863 38.9091 7.57512 38.9273 7.56637Z" fill="#4B2710"/>
<path d="M42.2252 11.5618C42.905 11.2587 43.5739 11.0008 44.2588 10.7556C44.9416 10.513 45.6318 10.2945 46.3277 10.1003C47.0254 9.91068 47.7302 9.75099 48.4393 9.62484C49.1508 9.50962 49.8676 9.43403 50.5827 9.42212C49.8729 9.5174 49.1774 9.67466 48.4937 9.86887C47.8124 10.0743 47.1426 10.3108 46.4838 10.575C45.8264 10.8441 45.1793 11.1355 44.5431 11.4486C43.9101 11.7614 43.2751 12.0968 42.6812 12.4493L42.6738 12.4536C42.438 12.5934 42.1353 12.5129 41.9975 12.274C41.8597 12.0348 41.939 11.7278 42.1746 11.5881C42.1909 11.5781 42.2081 11.5694 42.2252 11.5618Z" fill="#4B2710"/>
<path d="M45.0657 14.6673C45.4213 14.5803 45.7571 14.5127 46.1024 14.4469C46.4458 14.3829 46.7893 14.3256 47.1332 14.2735C47.821 14.1695 48.5112 14.092 49.2018 14.038C49.5467 14.0069 49.893 13.993 50.2381 13.9736C50.5841 13.9661 50.9288 13.9476 51.2743 13.9532C51.9643 13.9449 52.6538 13.9872 53.338 14.0397C52.6511 14.0706 51.9679 14.1119 51.2894 14.2031C50.9498 14.2388 50.6124 14.2986 50.2752 14.347C49.939 14.4075 49.6028 14.4622 49.2694 14.5336C48.6015 14.6685 47.9391 14.8258 47.2846 15.0081C46.9575 15.099 46.6321 15.195 46.3095 15.2969C45.9895 15.3989 45.6617 15.5083 45.3609 15.6221L45.3547 15.6245C45.0988 15.7212 44.8141 15.5895 44.7187 15.3299C44.6233 15.0703 44.7532 14.7816 45.0091 14.6848C45.0269 14.678 45.0477 14.6717 45.0657 14.6673Z" fill="#4B2710"/>
<path d="M48.1828 18.1528C48.4541 18.1175 48.7026 18.0954 48.9609 18.0777C49.2169 18.0595 49.4724 18.048 49.7278 18.041C50.2385 18.0276 50.7485 18.0364 51.2563 18.067C51.7641 18.0981 52.2696 18.1615 52.7678 18.2488C53.266 18.3412 53.7554 18.4734 54.2273 18.6416C53.7333 18.5538 53.2387 18.5062 52.7436 18.4979C52.2482 18.4948 51.7553 18.5157 51.2652 18.5675C50.7751 18.62 50.2886 18.6931 49.8071 18.7874C49.5665 18.8348 49.3269 18.8864 49.0894 18.944C48.8541 18.9999 48.6108 19.0643 48.3934 19.1306L48.3889 19.1321C48.127 19.2121 47.8506 19.0619 47.7718 18.7962C47.6929 18.5305 47.841 18.2503 48.103 18.1703C48.1284 18.1623 48.1571 18.1564 48.1828 18.1528Z" fill="#4B2710"/>
<path d="M59.9482 38.7974C59.7167 40.0625 59.17 41.141 58.1638 41.5649C57.3712 41.8979 56.5023 41.7888 55.6572 41.4512C53.387 40.547 51.2863 37.9972 51.2863 37.9972L52.0299 33.0518C52.0299 33.0518 54.1139 32.651 56.0189 32.5287C56.8066 32.4779 57.5622 32.4755 58.1292 32.5674C58.4132 32.6133 58.6498 32.6835 58.818 32.7839C59.6819 33.2987 60.3896 36.3859 59.9482 38.7974Z" fill="#FFAA27"/>
<g opacity="0.6">
<path opacity="0.6" d="M59.9482 38.7974C59.786 39.686 59.4672 40.4826 58.9431 41.0248C59.0433 40.738 59.1221 40.4305 59.1806 40.1121C59.6223 37.6994 58.9143 34.6123 58.0502 34.0977C57.8819 33.9985 57.6456 33.9271 57.3614 33.8821C56.7944 33.79 56.0388 33.7924 55.251 33.8422C53.9668 33.9246 52.6 34.1339 51.8468 34.2623L52.0294 33.0515C52.0294 33.0515 54.1134 32.6507 56.0184 32.5285C56.8061 32.4777 57.5618 32.4752 58.1288 32.5671C58.4128 32.613 58.6493 32.6833 58.8175 32.7837C59.6819 33.2987 60.3896 36.3859 59.9482 38.7974Z" fill="white"/>
</g>
<path d="M57.1335 42.2674C56.614 42.2674 56.0601 42.1504 55.4766 41.9169C53.116 40.9764 50.9973 38.4262 50.9081 38.318C50.8176 38.2079 50.7778 38.0635 50.7991 37.9218L51.5427 32.9769C51.5744 32.7671 51.733 32.6001 51.9384 32.5608C52.1119 32.5275 56.2078 31.7472 58.2072 32.0739C58.5705 32.133 58.8523 32.2246 59.0685 32.3537C60.1225 32.9813 60.6972 35.7853 60.5534 37.9089C60.4098 40.0268 59.6283 41.4891 58.3526 42.0265C57.9711 42.1871 57.564 42.2674 57.1335 42.2674ZM58.1633 41.5644H58.1645H58.1633ZM51.809 37.8428C52.3089 38.4101 54.0392 40.2689 55.8382 40.9854C56.659 41.3141 57.3775 41.3532 57.9742 41.1021C59.2046 40.5836 59.5015 38.8358 59.5691 37.8399C59.7232 35.5646 59.0122 33.48 58.5686 33.2158C58.4948 33.1716 58.3455 33.1094 58.0509 33.0615C56.5347 32.8138 53.487 33.3024 52.4651 33.4812L51.809 37.8428Z" fill="#4B2710"/>
<g opacity="0.3">
<path opacity="0.3" d="M59.9482 38.7975C59.7167 40.0626 59.17 41.1411 58.1638 41.565C57.3712 41.898 56.5023 41.7889 55.6572 41.4513C53.387 40.5471 51.2863 37.9973 51.2863 37.9973L52.0299 33.0519C52.0299 33.0519 54.1139 32.6511 56.0189 32.5288C55.7802 33.2043 55.6525 33.915 55.6728 34.6328C55.7157 36.2139 56.5622 37.8082 57.9634 38.5019C58.5719 38.8036 59.2774 38.8981 59.9482 38.7975Z" fill="#4B2710"/>
</g>
<path d="M58.0224 35.3831C57.6344 35.5163 57.2419 35.6203 56.8498 35.7268C56.4563 35.8252 56.063 35.9239 55.6676 36.0087C55.2727 36.0967 54.8758 36.1738 54.4789 36.2493C54.0816 36.3228 53.6835 36.3911 53.2848 36.4543L53.3861 35.8726C54.0675 36.2566 54.7392 36.6587 55.3992 37.0818C55.7294 37.2931 56.0539 37.5148 56.3782 37.7372C56.6991 37.9656 57.0204 38.1929 57.3289 38.444C56.9553 38.312 56.5948 38.1564 56.2337 38.0019C55.8759 37.8412 55.5185 37.6798 55.1667 37.5079C54.4629 37.165 53.7705 36.8009 53.088 36.419C52.9392 36.3356 52.885 36.1458 52.9672 35.9949C53.0147 35.9076 53.0971 35.8524 53.187 35.8376L53.1891 35.8374C53.5879 35.7734 53.9874 35.7146 54.3876 35.6609C54.7883 35.6094 55.1893 35.5593 55.5919 35.5202C55.994 35.4779 56.3983 35.4494 56.8024 35.4207C57.2076 35.4003 57.6126 35.377 58.0224 35.3831Z" fill="#4B2710"/>
<path d="M54.2595 34.9442C53.5995 39.2939 52.0048 43.444 49.6987 46.9825C46.668 51.6324 42.407 55.2232 37.4237 56.8175C37.4237 56.8175 37.3701 56.8719 37.2699 56.9701C36.4309 57.7922 32.3106 61.7024 28.9504 62.5764C27.8643 62.8586 26.858 62.8234 26.0667 62.2653C24.5662 61.206 24.6379 60.0728 25.2157 58.8551C25.6238 57.9956 26.2865 57.0936 26.8235 56.1481C27.3153 55.2849 27.7045 54.3853 27.7045 53.4459C27.7045 50.8419 25.9773 46.9884 26.3509 44.9862C26.4511 44.4427 26.7078 44.0358 27.1959 43.8278C27.2736 43.794 27.3582 43.766 27.449 43.7429C27.5266 43.7235 27.6053 43.7126 27.6853 43.7104C29.6011 43.6377 32.0467 48.2212 35.525 48.0433C35.7805 48.0311 36.0431 47.9912 36.3103 47.9234C36.6219 47.8435 36.9418 47.7236 37.2699 47.5566C37.875 47.2504 38.4229 46.6415 38.7392 45.8231C38.7679 45.7504 38.7941 45.6753 38.8192 45.5992C39.1116 44.6877 39.126 43.5473 38.651 42.2906C38.5185 41.9396 38.3085 41.5981 38.0315 41.2749C37.1853 40.2895 35.7124 39.4711 33.8908 39.0617C33.6425 39.0061 33.3883 38.9589 33.1268 38.9188C29.3837 38.3462 25.8304 37.5703 22.586 36.3946C18.8093 35.0266 15.4554 33.1163 12.716 30.3573C11.3016 28.9325 9.90273 27.1928 8.64456 25.3489C7.90212 24.2593 7.20738 23.1336 6.58908 22.0136C6.55696 21.9567 6.52701 21.901 6.49585 21.8454C3.73891 16.802 2.52508 11.9378 5.19647 11.2125C5.19647 11.2125 4.94579 10.7064 4.80008 10.0564C4.77851 9.96674 4.76078 9.87365 4.7452 9.77788C4.5983 8.87829 4.71644 7.81658 5.91254 7.43424C6.34104 7.29618 6.90805 7.24659 7.65169 7.3217C7.65169 7.3217 15.9808 -0.358455 28.4658 1.59434C31.5142 2.07002 34.8099 3.12103 38.2927 4.99848C39.8097 5.81566 41.3638 6.79133 42.9477 7.94395C46.599 10.6024 49.3049 13.727 51.1835 17.0949C52.7149 19.8381 53.6984 22.7423 54.1986 25.6865C54.362 26.6454 54.4744 27.609 54.5375 28.5727C54.6784 30.7119 54.577 32.8512 54.2595 34.9442Z" fill="#FFAA27"/>
<g opacity="0.3">
<path opacity="0.3" d="M13.8452 13.1554C12.9273 13.3951 11.9498 13.0913 11.1201 12.6263C10.2904 12.1625 9.55518 11.5415 8.72934 11.0694C7.53804 10.3891 6.16675 10.0403 4.80003 10.0561C4.77846 9.9664 4.76072 9.8733 4.74515 9.77754C4.59824 8.87795 4.71639 7.81624 5.91249 7.43389C6.18593 7.4108 6.46153 7.42782 6.72418 7.48105C7.81987 7.70491 8.73893 8.44359 9.565 9.2073C10.3911 9.97126 11.1953 10.7994 12.21 11.2739C12.8731 11.5845 13.7697 11.5473 14.5761 11.3448C15.1465 11.2017 15.5659 11.8847 15.1726 12.3275C14.8086 12.7376 14.317 13.0329 13.8452 13.1554Z" fill="#4B2710"/>
</g>
<g opacity="0.2">
<path opacity="0.2" d="M30.3636 52.9181C30.1405 54.28 29.0065 55.3417 27.7425 55.855C27.443 55.9761 27.135 56.0718 26.8235 56.1479C27.3152 55.2848 27.7044 54.3852 27.7044 53.4458C27.7044 50.8418 25.9773 46.9882 26.3509 44.9861C26.4511 44.4426 26.7077 44.0357 27.1959 43.8276C27.0957 44.5299 27.1041 45.2248 27.3045 45.9173C27.6673 47.1678 28.5219 48.198 29.2394 49.2791C29.9576 50.3588 30.5747 51.6325 30.3636 52.9181Z" fill="#09004C"/>
</g>
<g opacity="0.6">
<path opacity="0.6" d="M38.7389 45.8228C38.7389 45.8228 38.4537 49.5624 34.769 49.1992C31.3351 48.8602 28.3917 44.3773 26.3506 44.9864C26.4675 44.3557 26.7947 43.9089 27.4487 43.7431C27.5263 43.7237 27.6049 43.7128 27.685 43.7106C29.6007 43.6379 32.0464 48.2214 35.5247 48.0435C35.7801 48.0313 36.0428 47.9914 36.31 47.9236C36.6215 47.8437 36.9415 47.7238 37.2696 47.5568C37.8747 47.2501 38.4225 46.6412 38.7389 45.8228Z" fill="white"/>
</g>
<path d="M49.6984 46.982C46.6678 51.6318 42.4068 55.2227 37.4235 56.8169C37.4235 56.8169 37.3698 56.8714 37.2696 56.9696C37.2255 56.9321 37.1812 56.892 37.1371 56.8522C36.3518 56.1247 35.756 55.1138 35.7644 54.0338C35.7728 52.8632 36.4675 51.8136 36.6942 50.6647C36.8756 49.7422 36.7275 48.7615 36.3098 47.9227C36.6214 47.8427 36.9413 47.7229 37.2694 47.5559C37.9282 47.2216 38.5192 46.5292 38.8187 45.5982C39.93 46.3053 41.3492 46.5206 42.6047 46.1176C43.8533 45.7168 44.9502 44.763 46.2596 44.7314C47.2492 44.7083 48.1886 45.2375 48.8831 45.9516C49.1901 46.2666 49.4573 46.6152 49.6984 46.982Z" fill="white"/>
<g opacity="0.3">
<path opacity="0.3" d="M54.2595 34.9442C53.5995 39.2938 52.0048 43.444 49.6987 46.9825C46.668 51.6324 42.407 55.2232 37.4237 56.8174C37.4237 56.8174 37.3701 56.8719 37.2699 56.9701C36.4309 57.7921 32.3106 61.7023 28.9504 62.5764C27.8643 62.8586 26.858 62.8234 26.0667 62.2653C24.5662 61.206 24.6379 60.0728 25.2157 58.8551C29.1891 61.0813 35.7649 54.0343 35.7649 54.0343C52.0146 48.3675 54.4078 34.3812 54.1988 25.6865C54.7249 28.7761 54.7203 31.908 54.2595 34.9442Z" fill="#4B2710"/>
</g>
<path d="M54.2591 34.9436C52.8768 36.0695 51.1271 36.7377 49.3511 36.7219C48.2674 36.7109 47.1978 36.4701 46.1153 36.4168C45.0328 36.3648 43.8796 36.5281 43.037 37.2194C42.1287 37.9639 41.718 39.2024 40.8001 39.9337C40.1794 40.4289 39.3917 40.6396 38.6564 40.9337C38.4249 41.0258 38.2195 41.1408 38.0309 41.274C37.1847 40.2886 35.7118 39.4702 33.8903 39.0609C33.9403 37.7498 34.0753 36.4472 34.4357 35.1906C35.0099 33.1882 36.2429 31.2828 38.1048 30.4002C39.2421 29.8616 40.5768 29.7138 41.5615 28.9221C42.7456 27.9693 43.1286 26.3206 43.2218 24.7903C43.3148 23.2602 43.2026 21.6827 43.7016 20.2359C44.3462 18.374 46.0434 16.9297 47.9628 16.6113C49.0525 16.431 50.1865 16.6162 51.1832 17.0943C54.3212 22.7164 55.1581 29.0152 54.2591 34.9436Z" fill="white"/>
<path d="M40.0517 12.9928C39.6304 14.6126 38.4703 15.9091 37.3803 17.1682C36.2894 18.4273 35.1914 19.8062 34.9419 21.4622C34.6888 23.1498 35.3311 25.0336 34.4609 26.4946C33.8843 27.4608 32.791 27.9606 31.9817 28.7355C31.0746 29.6035 30.5469 30.7923 29.8273 31.8248C28.2827 34.038 25.8455 35.5002 23.2685 36.2207C23.0418 36.2836 22.8148 36.3417 22.5857 36.3937C18.8091 35.0258 15.4552 33.1153 12.7157 30.3565C11.3013 28.9316 9.90245 27.192 8.64429 25.3481C9.55616 26.4934 10.6257 27.5007 11.8467 28.2948C14.2171 29.8383 17.1833 30.521 19.9275 29.8699C22.6703 29.2184 24.6093 27.9326 25.6418 25.2737C26.2694 23.6568 26.4326 20.8485 27.1643 19.225C28.346 16.6053 31.3109 15.2628 32.7766 12.7954C34.4525 9.97588 33.7125 6.08391 31.4708 3.70259C30.6174 2.79717 29.5898 2.09617 28.4653 1.59375C31.5137 2.06943 34.8094 3.1202 38.2922 4.99789C39.8334 7.49296 40.7489 10.315 40.0517 12.9928Z" fill="white"/>
<g opacity="0.6">
<path opacity="0.6" d="M54.5376 28.5727C52.0227 19.0197 45.7537 10.5807 36.3493 5.72063C24.2007 -0.557518 13.3057 4.89056 10.1076 7.57498C9.76725 7.86059 9.26542 7.82121 8.86329 7.63551C8.25793 7.35622 7.65186 7.32147 7.65186 7.32147C7.65186 7.32147 15.9804 -0.358447 28.4655 1.59434C31.5139 2.07002 34.8096 3.12104 38.2924 4.99848C39.8094 5.81567 41.3635 6.79134 42.9474 7.94396C46.5987 10.6024 49.3046 13.727 51.1832 17.0949C52.7146 19.8381 53.6981 22.7423 54.1983 25.6866C54.362 26.6455 54.4743 27.6092 54.5376 28.5727Z" fill="white"/>
</g>
<g opacity="0.3">
<path opacity="0.3" d="M35.5248 48.043C35.7802 48.0308 36.0429 47.991 36.3101 47.9231C36.6216 47.8432 36.9416 47.7233 37.2697 47.5564C37.9285 47.2221 38.5194 46.5296 38.819 45.5987C39.1114 44.6872 39.1258 43.5467 38.6508 42.2901C38.5182 41.9391 38.3083 41.5976 38.0313 41.2743C37.1851 40.2889 35.7122 39.4705 33.8906 39.0612C33.6423 39.0055 33.388 38.9584 33.1266 38.9183C29.3835 38.3456 25.8302 37.5698 22.5858 36.394C18.8091 35.0261 15.4552 33.1158 12.7158 30.3568C11.3013 28.9319 9.9025 27.1923 8.64434 25.3484C7.9019 24.2587 7.20715 23.1331 6.58885 22.013C6.55674 21.9562 6.52678 21.9005 6.49563 21.8448C3.73892 16.802 2.52509 11.9377 5.19648 11.2124C5.19648 11.2124 4.87175 10.5552 4.74522 9.77783L10.9879 13.5718C10.9879 13.5718 12.1217 14.7928 11.0861 16.2954C10.3075 17.4254 10.2927 18.9283 11.0349 20.0833C12.0855 21.718 14.0286 23.9649 17.5907 26.3668C23.2383 30.1752 40.4057 31.3363 42.6839 41.2743C43.7323 45.8483 39.9341 49.147 35.5248 48.043Z" fill="#4B2710"/>
</g>
<path d="M24.2497 0.621438C23.691 0.634807 23.1252 0.649391 22.5513 0.663732C23.1133 0.611716 23.6815 0.597375 24.2497 0.621438Z" fill="#FF764D"/>
<path d="M27.7105 63.2491C26.9709 63.2491 26.3265 63.0576 25.7846 62.6755C23.2573 60.8924 24.5696 58.8197 25.7274 56.9914C26.4566 55.84 27.2105 54.6492 27.2105 53.4453C27.2105 52.3007 26.846 50.8518 26.4935 49.4503C25.9565 47.3152 25.4491 45.2985 26.1427 44.1194C26.4005 43.6811 26.7995 43.3907 27.3287 43.2567C27.4411 43.2285 27.5554 43.2127 27.67 43.2093C28.6748 43.1721 29.6471 44.0355 30.7727 45.036C32.3235 46.4144 34.0809 47.9766 36.1888 47.4372C36.4738 47.3641 36.763 47.2535 37.048 47.1083C37.6212 46.8176 38.1075 46.1951 38.3495 45.4426C38.5515 44.8133 38.6877 43.7861 38.1897 42.4685C38.0794 42.1761 37.9007 41.8846 37.6584 41.6019C36.8591 40.6712 35.4466 39.9228 33.7834 39.5492C33.5527 39.4975 33.3068 39.4515 33.0528 39.4126C28.8581 38.7709 25.3799 37.9375 22.4195 36.8651C18.2773 35.3646 14.9893 33.3518 12.368 30.7116C10.978 29.3115 9.5502 27.5554 8.23859 25.633C7.48154 24.5219 6.78176 23.3866 6.15842 22.2575C6.14117 22.2271 6.12224 22.1926 6.1033 22.1581L6.0664 22.0913C4.91559 19.9856 2.36427 14.8073 3.48847 12.1217C3.71087 11.5906 4.07154 11.1873 4.54629 10.9341C4.27621 10.1917 3.91745 8.78584 4.59063 7.79534C5.10803 7.03406 6.0815 6.70106 7.48561 6.80412C8.05358 6.31556 10.0388 4.71108 13.173 3.26921C16.5576 1.71237 21.9713 0.0716778 28.5406 1.09912C31.8753 1.61952 35.2343 2.78259 38.524 4.556C40.0944 5.40187 41.6795 6.40476 43.235 7.53672C46.7924 10.1268 49.6109 13.2595 51.6127 16.8478C54.6424 22.276 55.7261 28.5597 54.7469 35.0195C54.7469 35.0195 54.7469 35.0195 54.7469 35.0197C54.0838 39.3886 52.4805 43.6203 50.1101 47.2578C46.9357 52.1286 42.5271 55.6754 37.6857 57.2576C37.6648 57.2782 37.6404 57.3023 37.6124 57.3298C36.4683 58.4505 32.4702 62.177 29.0729 63.0608C28.5885 63.1864 28.1339 63.2491 27.7105 63.2491ZM27.7304 44.2093C27.7212 44.2093 27.7121 44.2093 27.7033 44.2098C27.6546 44.2112 27.61 44.2176 27.5667 44.2283C27.2956 44.297 27.1118 44.4256 26.9901 44.6325C26.5065 45.4543 26.986 47.3602 27.4495 49.2031C27.8171 50.6642 28.1972 52.1753 28.1972 53.4453C28.1972 54.9428 27.3261 56.3186 26.5575 57.5322C25.272 59.5623 24.6789 60.6765 26.3478 61.8539C26.9536 62.2812 27.7879 62.361 28.8275 62.0912C32.0716 61.2472 36.1433 57.3769 36.9265 56.6096C37.0211 56.5169 37.0727 56.4649 37.0743 56.463C37.1304 56.4061 37.1992 56.3638 37.2747 56.3397C41.946 54.8451 46.2117 51.424 49.2867 46.7058C51.5792 43.1882 53.13 39.0945 53.7715 34.8673C54.7169 28.6319 53.6733 22.5711 50.7538 17.3405C48.823 13.8793 46.0998 10.8543 42.6596 8.34953C41.1398 7.24358 39.5926 6.26451 38.061 5.43955C34.8693 3.71888 31.6156 2.5913 28.3903 2.08791C22.0772 1.10033 16.8706 2.67224 13.6147 4.16467C10.0736 5.78786 8.00349 7.67235 7.98288 7.69131C7.8796 7.78635 7.74132 7.83302 7.60208 7.81868C6.82178 7.73944 5.80734 7.76933 5.40352 8.36193C4.90146 9.09866 5.40209 10.5077 5.63742 10.9887C5.70333 11.1232 5.7062 11.2807 5.64533 11.4175C5.58446 11.5544 5.46631 11.6564 5.32348 11.6951C4.87965 11.8157 4.57625 12.083 4.39651 12.5125C3.74418 14.0706 4.71405 17.5535 6.92722 21.602L6.96557 21.6715C6.98234 21.7019 6.99912 21.7327 7.01661 21.7636C7.62748 22.8701 8.31073 23.9787 9.05005 25.0637C10.3276 26.9363 11.7154 28.6438 13.0632 30.0016C15.5796 32.5358 18.7485 34.4728 22.7514 35.9227C25.6511 36.9735 29.0688 37.7914 33.1997 38.4234C33.4757 38.4657 33.7439 38.5157 33.9965 38.5724C35.8612 38.9912 37.4671 39.8562 38.4025 40.9452C38.721 41.3168 38.9592 41.7089 39.1106 42.1107C39.7122 43.7013 39.5387 44.9694 39.2873 45.753C38.9601 46.7698 38.3047 47.5899 37.4894 48.0033C37.1412 48.1805 36.7846 48.3169 36.4302 48.4078C33.8199 49.076 31.7694 47.2535 30.1218 45.789C29.209 44.9769 28.3455 44.2093 27.7304 44.2093ZM54.2592 34.9436H54.2604H54.2592Z" fill="#4B2710"/>
<path d="M11.4876 12.8077C11.4876 12.8077 10.0971 15.6672 7.24071 15.12C7.21076 15.1152 7.18224 15.1091 7.15228 15.103C4.23621 14.4808 5.19601 11.212 5.19601 11.212L4.74475 9.77014C4.74475 9.77014 6.07793 8.5655 7.84344 9.50009C8.7982 10.0049 9.46084 10.7154 10.0432 11.3778C10.5388 11.9397 10.9769 12.4674 11.4876 12.8077Z" fill="#4B2710"/>
<path d="M11.4875 12.8076C11.4875 12.8076 10.0971 15.667 7.24066 15.1199C6.96482 14.747 6.80737 14.3088 6.80737 13.8389C6.80737 12.4734 8.14654 11.3682 9.79965 11.3682C9.88209 11.3682 9.96309 11.3706 10.0431 11.3779C10.5387 11.9396 10.9768 12.4673 11.4875 12.8076Z" fill="#FF709D"/>
<path d="M7.94092 15.6882C7.68905 15.6882 7.42711 15.6644 7.15535 15.6127C7.12611 15.6078 7.09759 15.602 7.06835 15.5961L7.05565 15.5935C6.11047 15.3917 5.42004 14.9262 4.99873 14.2085C4.33801 13.0828 4.57575 11.6918 4.68311 11.2265L4.27474 9.92151C4.21579 9.73337 4.27163 9.52774 4.41686 9.39649C4.4818 9.33791 6.02779 7.97479 8.07177 9.05668C9.09101 9.59556 9.78647 10.3342 10.4115 11.0447L10.5649 11.2192C10.989 11.7029 11.3552 12.1208 11.7583 12.3894C11.9666 12.5279 12.0401 12.8023 11.9299 13.0289C11.4496 14.0169 10.0498 15.6882 7.94092 15.6882ZM5.32465 9.96842L5.6664 11.0608C5.69635 11.1563 5.69731 11.2589 5.66903 11.3549C5.66544 11.3675 5.28032 12.7374 5.84901 13.7005C6.12748 14.1725 6.58713 14.471 7.25432 14.6134L7.26319 14.6151C7.28188 14.619 7.30034 14.6229 7.31927 14.6258C7.32358 14.6265 7.32814 14.6273 7.33245 14.6282C9.21946 14.9902 10.389 13.6098 10.8371 12.936C10.4841 12.6329 10.1627 12.2666 9.82769 11.8843L9.67575 11.7114C9.11114 11.0695 8.48733 10.4047 7.61572 9.94387C6.57803 9.39478 5.72895 9.729 5.32465 9.96842Z" fill="#4B2710"/>
<path d="M7.94096 15.6882C7.68717 15.6882 7.42332 15.6641 7.1494 15.6116C7.02837 15.5885 6.92029 15.5202 6.84624 15.4201C6.49827 14.9495 6.31445 14.4028 6.31445 13.8389C6.31445 12.2006 7.87818 10.8677 9.80017 10.8677C9.90682 10.8677 10.001 10.8716 10.0875 10.8793C10.2121 10.8908 10.3279 10.9496 10.4113 11.0441L10.5649 11.2191C10.9891 11.7029 11.3553 12.1207 11.7584 12.3893C11.9666 12.5278 12.0402 12.8022 11.93 13.0288C11.4497 14.0168 10.0499 15.6882 7.94096 15.6882ZM7.52996 14.66C9.30098 14.8933 10.4048 13.5856 10.8369 12.9359C10.4839 12.6328 10.1625 12.2665 9.82749 11.8842L9.81359 11.8684C9.80904 11.8684 9.80449 11.8684 9.79969 11.8684C8.4217 11.8684 7.30062 12.7524 7.30062 13.8389C7.30086 14.124 7.3797 14.4045 7.52996 14.66Z" fill="#4B2710"/>
<path d="M11.7607 12.3908C11.7702 12.3993 11.8079 12.4243 11.835 12.4414C11.8644 12.4601 11.8956 12.4788 11.927 12.4968C11.9898 12.5332 12.0557 12.5668 12.1221 12.5986C12.2555 12.6616 12.3936 12.715 12.5338 12.7566C12.8142 12.8397 13.1025 12.8735 13.3838 12.847C13.6644 12.8179 13.9372 12.7267 14.1888 12.5753C14.439 12.4217 14.6683 12.2146 14.8694 11.9713L14.8713 11.9688C14.9847 11.8315 15.1865 11.8135 15.3219 11.9285C15.4498 12.0371 15.4721 12.227 15.3784 12.3633C15.1666 12.6696 14.9061 12.9557 14.5905 13.1888C14.2741 13.4202 13.8986 13.5872 13.5048 13.6625C13.1106 13.7359 12.7073 13.7223 12.3253 13.6445C12.1338 13.6056 11.9471 13.5514 11.765 13.4841C11.6739 13.4498 11.5838 13.4134 11.4947 13.3718C11.4498 13.3511 11.4055 13.3295 11.3607 13.3064C11.313 13.2814 11.2768 13.2632 11.215 13.2248L11.1762 13.2007C10.9423 13.0556 10.8687 12.7457 11.0118 12.5084C11.1548 12.2712 11.4604 12.1966 11.6943 12.3417C11.717 12.3556 11.7405 12.3735 11.7607 12.3908Z" fill="#4B2710"/>
<path d="M41.7719 24.8331C41.7266 28.0544 39.7011 34.1778 34.7859 34.1851H34.7691C31.2098 34.1753 30.0901 29.6611 29.7549 27.4504C29.6463 26.7336 29.6199 26.2592 29.6199 26.2592C29.0088 20.6553 30.1594 21.6927 30.1594 21.6927C30.1594 21.6927 30.2739 21.7872 30.6047 21.9107C31.0092 22.0609 31.7363 22.2532 32.9729 22.3672C34.1819 22.4785 36.2779 22.1929 38.1079 22.1844C39.6846 22.1759 41.0657 22.3733 41.5157 23.2087C41.5253 23.2269 41.5361 23.2461 41.5457 23.2668C41.7027 23.6032 41.7815 24.154 41.7719 24.8331Z" fill="#FFAA27"/>
<g opacity="0.6">
<path opacity="0.6" d="M41.772 24.833C41.7339 24.7895 41.6943 24.747 41.6526 24.7059C40.8874 23.9432 39.8085 23.58 38.7426 23.4614C37.6766 23.3428 36.6001 23.4444 35.5281 23.4821C34.4562 23.5195 33.3593 23.4894 32.3508 23.1201C31.6824 22.8768 31.0522 22.4629 30.6045 21.9106C31.009 22.0609 31.7361 22.2531 32.9727 22.3671C34.1818 22.4784 36.2777 22.1928 38.1077 22.1843C39.6844 22.1758 41.0655 22.3732 41.5156 23.2086C41.5251 23.2268 41.5359 23.246 41.5455 23.2667C41.7027 23.6031 41.7816 24.1539 41.772 24.833Z" fill="white"/>
</g>
<path d="M29.8907 26.2434C29.9857 26.9807 30.129 27.7327 30.3176 28.4573C30.4086 28.8216 30.5162 29.1804 30.6341 29.5333C30.7501 29.887 30.8829 30.2334 31.0327 30.5686C31.3243 31.2419 31.6944 31.8719 32.1485 32.3979C32.6048 32.9217 33.1605 33.3191 33.7827 33.5104L34.0183 33.5746C34.0976 33.5933 34.1798 33.6006 34.2601 33.6149L34.3811 33.6344C34.4216 33.6395 34.4635 33.6385 34.5045 33.6409L34.7516 33.6526C34.9232 33.6475 35.0955 33.6329 35.2673 33.6249L35.7756 33.5486C36.4464 33.4112 37.0798 33.1242 37.6459 32.7229C38.2126 32.3223 38.7173 31.8133 39.1406 31.2316C39.5664 30.6517 39.9237 30.011 40.2209 29.3399C40.5183 28.6685 40.7546 27.9644 40.9274 27.2459C41.0983 26.5283 41.2236 25.7938 41.2531 25.0692C41.2696 24.7085 41.2658 24.3461 41.2205 24.0133C41.2109 23.929 41.1917 23.8534 41.1788 23.7729C41.161 23.6985 41.1397 23.6276 41.1191 23.5619C41.0748 23.4445 41.0187 23.3578 40.9334 23.27C40.7599 23.0984 40.4697 22.9633 40.15 22.8736C39.8293 22.7817 39.4749 22.7331 39.1171 22.7005C38.3976 22.6422 37.6506 22.6429 36.9015 22.6679C36.1511 22.6901 35.395 22.7397 34.6289 22.7608C34.2457 22.7703 33.8594 22.7749 33.4663 22.7591L33.1692 22.7411C33.0702 22.7307 32.9655 22.7241 32.8715 22.7102C32.6798 22.6854 32.4881 22.6607 32.2964 22.6291C31.9134 22.5661 31.5314 22.4876 31.1516 22.3819C30.9617 22.3306 30.7724 22.2676 30.5841 22.1957C30.4899 22.1585 30.3964 22.1184 30.3025 22.0712C30.2557 22.0489 30.2083 22.0224 30.1613 21.9959L30.0887 21.9509C30.0616 21.9324 30.0448 21.9225 30.0017 21.8875C29.8958 21.7992 29.8802 21.6407 29.967 21.5331C30.054 21.4256 30.2102 21.4098 30.3164 21.4978C30.3109 21.4922 30.3346 21.5075 30.3478 21.5141L30.399 21.5399C30.4364 21.5566 30.4738 21.5737 30.5143 21.589C30.5934 21.6206 30.6775 21.6483 30.7624 21.674C30.933 21.7256 31.1082 21.7705 31.2879 21.8055C31.6457 21.879 32.0129 21.9256 32.3817 21.9623C32.5657 21.9825 32.7515 21.9959 32.9367 22.0095C33.0311 22.018 33.116 22.0177 33.2058 22.0224L33.4771 22.0236C33.8424 22.018 34.2143 21.9934 34.5881 21.9631C35.3366 21.9037 36.0924 21.832 36.8569 21.7774C37.2392 21.7506 37.6236 21.7275 38.0116 21.7173C38.3993 21.7052 38.7911 21.7069 39.188 21.7326C39.5853 21.7599 39.9877 21.8029 40.4004 21.9093C40.6065 21.9631 40.815 22.0304 41.0237 22.1276C41.2313 22.2297 41.4412 22.352 41.6284 22.5364C41.8153 22.7168 41.9718 22.9562 42.0619 23.1995C42.1022 23.3152 42.1359 23.4292 42.1633 23.541C42.1836 23.6497 42.21 23.7613 42.2234 23.8677C42.286 24.297 42.2881 24.7078 42.2702 25.1144C42.2368 25.9277 42.1014 26.7167 41.9174 27.493C41.7319 28.2692 41.4747 29.0263 41.1587 29.7611C40.8402 30.4947 40.4531 31.2044 39.9777 31.8622C39.5051 32.5206 38.9277 33.1191 38.2541 33.603C37.5804 34.085 36.7999 34.4362 35.9824 34.6022C35.7773 34.6355 35.5714 34.6676 35.3653 34.6914C35.1583 34.6995 34.9519 34.7121 34.7449 34.7138L34.4242 34.6941C34.3708 34.6897 34.3173 34.6888 34.2641 34.6815L34.1045 34.6543C33.9984 34.6343 33.8915 34.6207 33.7868 34.5942L33.4745 34.5038C33.369 34.478 33.2715 34.4277 33.1704 34.3888C33.0702 34.347 32.9688 34.3081 32.8756 34.253C32.7807 34.2012 32.6851 34.1501 32.5914 34.0964L32.3251 33.9139C31.9834 33.6562 31.6699 33.3643 31.4109 33.0374C31.1501 32.7126 30.9155 32.3707 30.7267 32.0104C30.533 31.6524 30.3629 31.2854 30.2219 30.9108C29.9358 30.1624 29.7364 29.3936 29.5943 28.6197C29.5226 28.2327 29.4699 27.8433 29.427 27.4534C29.3846 27.0618 29.3544 26.6766 29.3482 26.2738C29.3458 26.1217 29.4656 25.9962 29.6156 25.9938C29.7551 25.9916 29.8718 26.0966 29.8893 26.2337L29.8907 26.2434Z" fill="#4B2710"/>
<g opacity="0.3">
<path opacity="0.3" d="M34.7859 34.1851H34.7691C31.2098 34.1754 30.0902 29.6612 29.7549 27.4505C30.2026 28.1515 30.7612 28.775 31.4344 29.2506C33.0671 30.4045 35.2944 30.5654 37.1337 29.7941C38.9719 29.0229 40.4042 27.3827 41.081 25.4843C41.3353 24.77 41.4879 24.023 41.5452 23.2666C42.4523 25.2012 40.7371 34.1766 34.7859 34.1851Z" fill="#4B2710"/>
</g>
<path d="M36.5567 50.7968C36.1308 51.0676 35.6348 51.203 35.1375 51.2655C34.6383 51.3231 34.1259 51.3094 33.631 51.2035C33.5059 51.184 33.3854 51.1439 33.2629 51.1128C33.1419 51.0766 33.019 51.0464 32.9025 50.9961C32.7851 50.949 32.6674 50.9038 32.5519 50.8537C32.4373 50.8014 32.3276 50.738 32.2169 50.6782C31.9928 50.5644 31.7922 50.4077 31.5921 50.2592C31.4907 50.1872 31.403 50.0934 31.3127 50.0071C31.2233 49.9189 31.1358 49.8301 31.0538 49.7354C31.2971 49.809 31.5152 49.9108 31.7414 49.9918C31.9705 50.0669 32.1843 50.1646 32.4115 50.2278C32.5234 50.2626 32.6324 50.3032 32.7434 50.3374C32.8565 50.3659 32.9672 50.3989 33.0784 50.4303C33.1882 50.4663 33.3015 50.4889 33.4139 50.5141C33.5263 50.5394 33.6363 50.5747 33.7506 50.5897C34.2007 50.6872 34.6582 50.7395 35.1229 50.7752C35.5897 50.8097 36.0604 50.8177 36.5567 50.7968Z" fill="#4B2710"/>
<path d="M35.8525 55.0879C35.4672 55.338 35.094 55.5667 34.7209 55.7942L33.608 56.4678L32.4936 57.1418C32.3026 57.2495 32.1183 57.3676 31.9222 57.4741C31.7269 57.5815 31.5359 57.6962 31.3231 57.7905C31.5692 57.3987 31.8707 57.0526 32.2058 56.7461C32.5374 56.4347 32.9067 56.1686 33.2923 55.9308C33.6796 55.6958 34.0911 55.5009 34.5181 55.3494C34.9454 55.2024 35.3912 55.0903 35.8525 55.0879Z" fill="#4B2710"/>
<path d="M35.7641 53.51C35.4317 53.6938 35.0773 53.7971 34.7214 53.8708C34.3646 53.9422 34.0025 53.977 33.6401 53.9772C33.2778 53.9789 32.9147 53.9461 32.5571 53.8734C32.1998 53.8029 31.847 53.6894 31.5146 53.51C31.8859 53.4318 32.2389 53.4092 32.5912 53.3829C32.9425 53.3632 33.2905 53.3528 33.6387 53.3521C33.9869 53.3525 34.3356 53.3613 34.6879 53.3819C35.0406 53.405 35.3944 53.4374 35.7641 53.51Z" fill="#4B2710"/>
<path d="M37.1249 39.849C37.1829 39.8835 37.2205 39.91 37.2642 39.9387C37.308 39.9671 37.3464 39.9963 37.3866 40.0252C37.4676 40.0823 37.5443 40.1424 37.6188 40.2034C37.6953 40.2632 37.7696 40.3247 37.8403 40.3893C37.9115 40.4535 37.9853 40.5152 38.054 40.5816C38.1882 40.7172 38.3311 40.8451 38.454 40.9904L38.6438 41.2033C38.7073 41.2741 38.7629 41.3514 38.8226 41.4253C39.2942 42.0205 39.6897 42.6724 39.9974 43.362C40.0743 43.5341 40.138 43.712 40.2085 43.8865C40.2423 43.9745 40.2787 44.0613 40.3099 44.1498L40.3923 44.4196C40.4455 44.5997 40.5052 44.7781 40.5524 44.9592L40.6677 45.5093L40.7245 45.7837L40.7597 46.0615L40.8232 46.6167C40.8366 46.7088 40.8374 46.8019 40.8405 46.8947L40.8477 47.173L40.857 47.728C40.8594 47.8745 40.7444 47.9951 40.6001 47.9978C40.468 48 40.3573 47.9027 40.3374 47.7744L40.3334 47.7484C40.2782 47.3974 40.2428 47.0464 40.1853 46.7L40.0793 46.1847L40.0297 45.9273L39.9593 45.6753L39.8193 45.1726C39.7659 45.0076 39.7038 44.8457 39.6468 44.6823L39.5598 44.4381C39.5272 44.3581 39.4896 44.2803 39.4548 44.2016C39.3824 44.0453 39.3172 43.8853 39.2398 43.7322L38.9935 43.2803C38.912 43.1296 38.8101 42.9916 38.7215 42.846C38.6345 42.6987 38.5278 42.5655 38.4277 42.4282C38.3761 42.3606 38.3287 42.2896 38.2743 42.2247L38.1096 42.0307C38.054 41.9671 38.0025 41.8992 37.9436 41.8387L37.7681 41.6562C37.6545 41.531 37.5275 41.4214 37.4067 41.3047C37.2805 41.1963 37.1556 41.0833 37.0233 40.9863C36.9581 40.9352 36.8927 40.8864 36.8263 40.8419C36.7932 40.8193 36.7599 40.7947 36.7281 40.7755C36.6967 40.7556 36.6602 40.732 36.6408 40.7213L36.6394 40.7206C36.4002 40.5881 36.3123 40.2841 36.4426 40.0415C36.5732 39.7989 36.873 39.7097 37.1122 39.8419C37.1158 39.8436 37.1213 39.8468 37.1249 39.849Z" fill="#4B2710"/>
<path d="M18.5982 32.6403C18.5982 32.6403 18.6042 34.2856 17.937 35.8859C17.758 36.3145 17.5313 36.7381 17.2435 37.128C16.7124 37.8458 16.2324 38.5118 15.8851 39.1605C15.3289 40.2004 15.113 41.1967 15.5712 42.29C15.7229 42.6519 16.0081 42.9849 16.3841 43.2778C18.215 44.71 22.2196 45.2221 23.6628 43.71C24.1617 43.1869 24.2691 42.1228 24.2571 40.8712C24.2367 38.7782 23.8811 36.1572 24.4673 34.6631C24.4673 34.6631 25.243 33.3916 21.9517 31.8437C18.6603 30.2959 18.5982 32.6403 18.5982 32.6403Z" fill="#FFAA27"/>
<g opacity="0.3">
<path opacity="0.3" d="M24.5626 34.6635L24.4813 34.6355C24.5697 34.4442 24.9611 33.2603 21.9508 31.8439C19.1769 30.5389 18.7616 32.1152 18.6995 32.6429L18.6935 32.6404C18.6935 32.6404 18.6935 32.6684 18.6923 32.7204V32.7265C18.6887 32.7761 18.6887 32.804 18.6887 32.804C18.6887 32.804 18.6887 32.8065 18.6899 32.8125C18.6707 33.2739 18.5706 34.5945 18.0323 35.8863C18.0788 35.8997 18.1219 35.9143 18.16 35.9286C19.0422 36.2711 19.8503 36.81 20.4995 37.5061C21.1442 38.1962 21.6465 39.0776 21.6716 40.0279C21.7133 41.6575 20.2716 43.051 18.6935 43.3572C17.9571 43.5014 17.2086 43.454 16.4794 43.2785C17.5262 44.0969 19.2806 44.6151 20.8623 44.627C22.0501 44.6355 23.1397 44.3582 23.758 43.7106C24.257 43.1876 24.3644 42.1234 24.3524 40.8719C24.3322 38.7783 23.9764 36.1574 24.5626 34.6635Z" fill="#4B2710"/>
</g>
<path d="M24.6802 34.749C24.5717 35.3022 24.5494 35.8715 24.5623 36.4534C24.5753 37.0343 24.6117 37.6223 24.6491 38.2159C24.7121 39.4061 24.8391 40.6071 24.7663 41.8772C24.7454 42.1956 24.7102 42.5201 24.6354 42.8538C24.5945 43.0215 24.5508 43.1902 24.4811 43.3628C24.4135 43.5339 24.3304 43.7091 24.2074 43.8766C24.1794 43.9189 24.1463 43.9597 24.1106 43.9998C24.0761 44.0392 24.0401 44.0832 24.0066 44.1119C23.9381 44.1746 23.8707 44.241 23.7993 44.2988L23.5793 44.4607L23.3502 44.5976C23.0401 44.7648 22.7189 44.8776 22.3983 44.9592C21.7558 45.118 21.115 45.1544 20.4854 45.1269C20.1703 45.1141 19.8582 45.0778 19.5481 45.0336C19.2392 44.9813 18.9313 44.925 18.6274 44.8464C18.3235 44.7687 18.022 44.6795 17.7258 44.5672C17.4291 44.4578 17.1365 44.3309 16.8518 44.1778C16.5669 44.0259 16.2874 43.8545 16.0238 43.6416C15.7609 43.4296 15.5095 43.1814 15.3051 42.8696L15.2296 42.7519C15.2064 42.7106 15.1855 42.6666 15.1637 42.6239L15.1002 42.4941L15.053 42.3733C15.0202 42.2935 14.9921 42.2114 14.967 42.1273C14.9389 42.0449 14.9178 41.9593 14.8975 41.8735C14.8157 41.5308 14.7865 41.1691 14.8169 40.8176C14.8742 40.1096 15.1304 39.4703 15.4312 38.9076C15.7384 38.3439 16.094 37.8376 16.4545 37.3486L16.727 36.9857C16.7713 36.9264 16.8204 36.8644 16.8612 36.8075L16.9774 36.641C17.015 36.5846 17.0582 36.5324 17.0917 36.4723L17.1972 36.2959C17.2722 36.1811 17.3311 36.0548 17.3956 35.932C17.5197 35.6833 17.6288 35.4238 17.7313 35.1593L17.871 34.7553C17.9116 34.618 17.96 34.4826 17.9947 34.3426C18.15 33.7904 18.271 33.208 18.3535 32.6409L18.3556 32.6268C18.3755 32.4907 18.5001 32.3966 18.6343 32.4168C18.7484 32.4338 18.8323 32.5279 18.8431 32.6392C18.9037 33.2753 18.8651 33.8907 18.7721 34.5144C18.6765 35.1345 18.5104 35.7524 18.2499 36.3418C18.1824 36.4884 18.1205 36.6371 18.039 36.7786C17.9631 36.9223 17.8842 37.0647 17.7903 37.1998L17.6546 37.4052C17.6098 37.4711 17.5674 37.5277 17.5238 37.5895L17.2671 37.9519C16.929 38.4344 16.6031 38.9164 16.3411 39.4093C16.0775 39.8998 15.8875 40.4051 15.8482 40.9012C15.8266 41.1494 15.8474 41.3947 15.9009 41.6372C15.9145 41.6978 15.9282 41.7585 15.9483 41.8186C15.9653 41.8789 15.985 41.9389 16.009 41.9982L16.0423 42.0877L16.0782 42.1598C16.0902 42.1839 16.1005 42.2085 16.1132 42.2328L16.159 42.304C16.4058 42.6885 16.8417 43.0254 17.3199 43.2777C17.5583 43.408 17.8119 43.5198 18.0719 43.617C18.3309 43.7172 18.5991 43.7979 18.8697 43.8688C19.4115 44.011 19.9714 44.0883 20.5264 44.11C21.0802 44.1282 21.6364 44.0908 22.145 43.9534C22.3978 43.8844 22.6387 43.7928 22.851 43.6739L23.0037 43.5793L23.1417 43.4736C23.1855 43.4369 23.2227 43.3958 23.2646 43.3584C23.2884 43.3387 23.2972 43.3224 23.3121 43.3054C23.3262 43.2896 23.3404 43.2726 23.3526 43.2515C23.4609 43.1003 23.5421 42.8667 23.5977 42.6168C23.6507 42.3628 23.6831 42.0879 23.702 41.8064C23.7365 41.2418 23.7293 40.6528 23.7116 40.0593C23.6965 39.4647 23.6699 38.8629 23.6601 38.2547C23.6577 38.1026 23.6562 37.9504 23.6586 37.7971C23.6586 37.6442 23.6627 37.491 23.6701 37.3367C23.6802 37.0294 23.7013 36.7193 23.7389 36.4091C23.8108 35.7925 23.9455 35.1532 24.2537 34.5772C24.3145 34.4634 24.4547 34.4211 24.5669 34.4828C24.658 34.5329 24.7025 34.6362 24.6834 34.7342L24.6802 34.749Z" fill="#4B2710"/>
<path d="M20.8281 33.3282C20.7553 33.8156 20.656 34.274 20.5401 34.7378C20.4233 35.1989 20.2863 35.6537 20.1303 36.1009C19.9774 36.5491 19.7916 36.9852 19.5908 37.4113C19.3888 37.8374 19.1496 38.2435 18.8925 38.6329C19.106 38.2161 19.2967 37.7907 19.4487 37.3505C19.5994 36.9103 19.7336 36.4657 19.8343 36.0124C19.9381 35.5603 20.0224 35.1043 20.0862 34.6464C20.1487 34.1906 20.1962 33.7227 20.2134 33.2772L20.2137 33.2692C20.2204 33.0961 20.3639 32.9615 20.5345 32.9683C20.7052 32.9751 20.8379 33.1207 20.8312 33.2937C20.8308 33.3052 20.8296 33.3168 20.8281 33.3282Z" fill="#4B2710"/>
<path d="M22.5332 33.9598C22.4148 34.4005 22.3082 34.8565 22.2107 35.3093C22.1134 35.7636 22.0261 36.2203 21.949 36.6795C21.8742 37.1386 21.8114 37.6002 21.7632 38.064C21.7196 38.528 21.692 38.9942 21.693 39.4628C21.6408 38.9976 21.6168 38.5278 21.6091 38.0572C21.606 37.5868 21.618 37.1158 21.6424 36.6452C21.669 36.1749 21.7062 35.7048 21.7539 35.2354C21.8025 34.7649 21.8581 34.2999 21.931 33.8256C21.9573 33.6548 22.1153 33.5376 22.2837 33.5643C22.4522 33.5911 22.5677 33.7513 22.5414 33.9221C22.5397 33.9336 22.5373 33.945 22.5342 33.9559L22.5332 33.9598Z" fill="#4B2710"/>
<path d="M0.580555 6.34829C0.792646 6.40833 0.992036 6.52403 1.13511 6.69369C1.27818 6.86335 1.3611 7.08891 1.34217 7.31132C1.43563 7.02134 1.39225 6.68931 1.22785 6.43385C1.0855 6.21266 0.818528 6.01383 0.556111 5.9713C0.454019 5.95477 0.360076 5.96887 0.326046 6.08335C0.274761 6.25593 0.453061 6.31232 0.580555 6.34829Z" fill="white"/>
<path d="M23.6558 7.44413C25.0873 7.96308 25.4848 10.1407 24.5435 12.3079C23.6021 14.4751 21.6787 15.8112 20.2473 15.292C18.8158 14.7731 18.4183 12.5954 19.3596 10.4283C20.3007 8.26132 22.2244 6.92519 23.6558 7.44413Z" fill="#4B2710"/>
<path d="M23.2779 8.36C23.6053 8.76179 23.4066 9.55929 22.8338 10.1409C22.2611 10.7228 21.5313 10.8687 21.204 10.4667C20.8766 10.0649 21.0753 9.26737 21.648 8.68571C22.2206 8.10405 22.9503 7.95821 23.2779 8.36Z" fill="white"/>
<path d="M22.3004 13.5333C22.4176 13.7931 22.2304 14.1946 21.8824 14.4302C21.5345 14.6657 21.1575 14.646 21.0403 14.3864C20.9231 14.1266 21.1103 13.725 21.458 13.4895C21.8062 13.254 22.1832 13.2737 22.3004 13.5333Z" fill="#B199C5"/>
</g>
<defs>
<clipPath id="clip0_168_5067">
<rect width="61" height="64" fill="white" transform="translate(0.317139)"/>
</clipPath>
</defs>
</svg>
