<svg width="57" height="67" viewBox="0 0 57 67" fill="none" xmlns="http://www.w3.org/2000/svg">
<path d="M54.494 45.4953C51.9234 51.9033 46.4465 51.4407 43.2966 49.4885C42.2809 48.8594 41.5072 48.0745 41.1517 47.3161L42.5975 39.3275L43.2498 35.7214L43.401 34.884C43.401 34.884 43.8866 36.7835 44.8691 38.5175C45.9494 40.4183 47.6286 42.1193 49.9226 40.8885C49.9226 40.8885 55.9888 41.7686 54.494 45.4953Z" fill="white"/>
<g opacity="0.2">
<path opacity="0.2" d="M54.494 45.4952C51.0943 53.9693 42.6121 50.4277 41.1517 47.3159L42.142 40.197C45.114 43.6762 48.4478 55.3184 54.2329 42.9413C54.7285 43.5893 54.9229 44.4243 54.494 45.4952Z" fill="#4B2710"/>
</g>
<path d="M47.6882 51.2123C46.2746 51.2123 44.7845 50.8198 43.4682 50.0978C42.1836 49.393 41.1922 48.446 40.7482 47.4998C40.6451 47.2799 40.7422 47.0193 40.9651 46.9176C41.188 46.816 41.452 46.9117 41.5554 47.1315C42.295 48.7085 45.0724 50.4121 47.8737 50.3328C49.8122 50.2786 52.4624 49.3678 54.0801 45.3345C54.3713 44.6084 54.3548 43.9855 54.0299 43.4307C53.5443 42.6018 52.4493 42.0744 51.6162 41.7776C50.9064 41.525 50.2672 41.3947 49.9956 41.3459C49.0192 41.8293 48.0634 41.8749 47.1529 41.4814C44.3476 40.2694 43.0248 35.2066 42.9698 34.9916C42.9099 34.7568 43.0541 34.5184 43.2922 34.4593C43.5302 34.3999 43.7717 34.5424 43.8319 34.7772C43.8445 34.8257 45.1032 39.6395 47.5106 40.6786C48.2092 40.98 48.9284 40.923 49.7102 40.5039L49.8405 40.434L49.9873 40.4552C50.1356 40.4766 53.6353 41.0048 54.7999 42.992C55.2632 43.7829 55.2994 44.6796 54.9072 45.6573C54.1573 47.5269 53.1162 48.9533 51.813 49.8973C50.6668 50.7276 49.3499 51.1692 47.8991 51.2094C47.829 51.2112 47.7586 51.2123 47.6882 51.2123Z" fill="#4B2710"/>
<path d="M39.9067 48.5645C39.9067 48.5645 43.931 50.1365 44.3598 54.0226C44.9574 59.4387 40.3515 62.495 40.3515 62.495H31.1028V48.1423" fill="white"/>
<g opacity="0.2">
<path opacity="0.2" d="M44.3091 56.3076C43.6733 60.291 40.3515 62.4953 40.3515 62.4953H31.1025V60.9475H37.0556C40.1009 60.9475 42.9195 59.2514 44.2081 56.5303C44.2426 56.4568 44.2764 56.3827 44.3091 56.3076Z" fill="#4B2710"/>
</g>
<path d="M40.4871 62.9331H30.658V48.142C30.658 47.9 30.8571 47.7036 31.1025 47.7036C31.348 47.7036 31.5471 47.9 31.5471 48.142V62.0563H40.2079C40.5085 61.8356 41.4044 61.1304 42.2401 60.0048C43.5875 58.19 44.1519 56.193 43.9174 54.0698C43.7534 52.5827 43.0098 51.2773 41.7071 50.1894C40.7134 49.3595 39.7516 48.9755 39.7419 48.9716C39.514 48.8818 39.4028 48.6272 39.4934 48.4024C39.5839 48.1776 39.8419 48.0675 40.0698 48.1567C40.1134 48.1738 41.1556 48.5864 42.2579 49.5006C42.9091 50.0407 43.4481 50.6456 43.8599 51.2987C44.3792 52.1224 44.6961 53.0227 44.801 53.9751C44.9441 55.2728 44.8117 56.5488 44.4075 57.7676C44.0851 58.7394 43.5904 59.6756 42.9371 60.5498C41.8272 62.0351 40.6488 62.8258 40.599 62.8585L40.4871 62.9331Z" fill="#4B2710"/>
<path d="M39.1904 62.1306C40.5109 61.3846 42.6663 61.8519 43.0035 62.7161C43.2735 63.4082 43.1822 64.6599 42.267 65.2292C41.5347 65.6846 40.4719 65.6836 37.8416 65.6759H24.8007V55.5381L39.1904 62.1306Z" fill="white"/>
<g opacity="0.3">
<path opacity="0.3" d="M42.2675 65.2289C41.5352 65.6849 40.4727 65.6839 37.8419 65.6761H24.8007V55.5381L24.9574 55.6093V64.1186H37.9986C40.6294 64.1263 41.6916 64.1273 42.4242 63.6724C42.722 63.4871 42.9331 63.2286 43.0721 62.9414C43.2476 63.6536 43.0899 64.717 42.2675 65.2289Z" fill="#4B2710"/>
</g>
<path d="M39.1538 62.0672C39.3641 61.9049 39.6072 61.7792 39.8628 61.6889C40.1184 61.5973 40.3866 61.5405 40.6585 61.5098C40.7945 61.4956 40.9313 61.4876 41.069 61.4866C41.2063 61.4866 41.3445 61.4922 41.4826 61.5057C41.6208 61.5193 41.7587 61.5408 41.8968 61.5691C42.0347 61.5983 42.172 61.6362 42.3089 61.6837C42.446 61.7309 42.5815 61.7905 42.7155 61.8643C42.8492 61.9387 42.9818 62.0285 43.1048 62.1477C43.1663 62.2073 43.2254 62.2741 43.2788 62.3505C43.2921 62.3696 43.3055 62.3889 43.3175 62.4096C43.3301 62.4297 43.3424 62.4504 43.3536 62.4723C43.3654 62.4934 43.3764 62.5156 43.3863 62.5386C43.3913 62.5494 43.3973 62.5626 43.401 62.5716L43.4122 62.5995C43.47 62.7481 43.5082 62.8957 43.5347 63.0436C43.586 63.3388 43.5917 63.6348 43.5512 63.93C43.5103 64.2244 43.4243 64.5194 43.2777 64.7965C43.1317 65.0726 42.9211 65.3291 42.66 65.525C42.5954 65.5737 42.5258 65.6197 42.4588 65.6591C42.391 65.6999 42.3209 65.7363 42.2503 65.7704C42.1085 65.8372 41.9635 65.8898 41.8204 65.9316C41.677 65.9729 41.5352 66.0036 41.3958 66.0281C41.2563 66.0527 41.1189 66.0715 40.9834 66.0852C40.7121 66.113 40.4471 66.1285 40.1846 66.1373C39.1365 66.1688 38.119 66.1414 37.0936 66.1344L35.557 66.1208C35.0447 66.1164 34.5327 66.1169 34.0204 66.1148L32.4838 66.1187L30.9471 66.1285C28.8985 66.1445 26.8496 66.1726 24.8009 66.1538L24.313 66.1494L24.3169 65.6764L24.3274 64.4092L24.3431 63.1419C24.3549 62.2971 24.3695 61.4522 24.397 60.6074C24.4239 59.7626 24.4621 58.9177 24.5145 58.0729C24.5401 57.6505 24.5704 57.2281 24.6045 56.8056C24.639 56.3832 24.6775 55.9608 24.7272 55.5384C24.7319 55.4981 24.769 55.4692 24.8098 55.4739C24.8449 55.478 24.8713 55.5054 24.8753 55.5384C24.925 55.9608 24.9632 56.3832 24.998 56.8056C25.0317 57.2281 25.0623 57.6505 25.088 58.0729C25.1403 58.9177 25.1782 59.7626 25.2054 60.6074C25.2327 61.4522 25.2476 62.2971 25.2593 63.1419L25.275 64.4092L25.2855 65.6764L24.8015 65.199C26.8504 65.1802 28.8993 65.2083 30.9482 65.2243L32.4848 65.2341L34.0214 65.238C34.5337 65.2359 35.046 65.2365 35.558 65.2321L37.0947 65.2184L37.8631 65.2106L38.6307 65.206C39.1409 65.2042 39.6504 65.1985 40.1496 65.1823C40.3989 65.173 40.6456 65.1609 40.8837 65.1374C41.1221 65.1144 41.3515 65.0806 41.5575 65.0246C41.6605 64.997 41.7573 64.964 41.8476 64.924C41.9371 64.8837 42.0237 64.8352 42.0972 64.7828C42.2471 64.6765 42.3722 64.5356 42.4677 64.3666C42.5642 64.1986 42.631 64.0033 42.6663 63.7986C42.7013 63.5943 42.7079 63.3793 42.6807 63.1752C42.6673 63.0735 42.6451 62.9744 42.6155 62.8857L42.6064 62.8583C42.6045 62.8519 42.6024 62.8452 42.5996 62.8385C42.5975 62.8317 42.5941 62.8248 42.5907 62.8175C42.5878 62.8103 42.5836 62.8031 42.5797 62.7959C42.5637 62.7662 42.5417 62.7347 42.5148 62.7027C42.4604 62.6392 42.3882 62.5742 42.3044 62.5154C42.2207 62.456 42.1263 62.4026 42.0268 62.3531C41.9272 62.3038 41.8214 62.261 41.7126 62.222C41.6038 62.1833 41.4915 62.1495 41.3769 62.1216C41.2626 62.0922 41.1459 62.069 41.0282 62.0504C40.9102 62.031 40.7911 62.0176 40.671 62.0091C40.1909 61.975 39.6975 62.0194 39.2275 62.1941L39.2265 62.1946C39.1878 62.2091 39.1446 62.1897 39.13 62.1515C39.1179 62.1206 39.1286 62.0865 39.1538 62.0672Z" fill="#4B2710"/>
<path d="M52.6743 38.9378C52.6743 38.4893 53.1042 36.578 54.3836 37.0045C56.0537 37.5614 54.2408 40.5567 54.1484 41.3353" fill="white"/>
<path d="M54.1489 41.7736C54.1316 41.7736 54.1144 41.7726 54.0966 41.7706C53.8527 41.7424 53.6782 41.5246 53.7067 41.2841C53.7365 41.0328 53.8736 40.6837 54.0474 40.2419C54.36 39.4466 54.8326 38.2449 54.5678 37.687C54.5063 37.5572 54.4053 37.4749 54.241 37.4199C54.0466 37.3552 53.8961 37.3714 53.7533 37.4726C53.3409 37.7644 53.1185 38.6431 53.1185 38.938C53.1185 39.18 52.9194 39.3764 52.674 39.3764C52.4286 39.3764 52.2295 39.18 52.2295 38.938C52.2295 38.5465 52.4678 37.303 53.235 36.7601C53.6128 36.4928 54.0591 36.4337 54.5259 36.5893C54.9168 36.7196 55.2098 36.9707 55.3734 37.3157C55.7988 38.2129 55.2658 39.5692 54.8765 40.5593C54.7439 40.8968 54.6065 41.2459 54.5898 41.3866C54.5636 41.6093 54.3713 41.7736 54.1489 41.7736Z" fill="#4B2710"/>
<path d="M1.34829 51.4436C1.544 52.0924 1.76718 52.7088 2.01443 53.2959C6.96598 65.0712 21.6537 64.8049 21.6537 64.8049L22.1014 61.4862C21.644 61.4093 21.1833 61.3252 20.7202 61.2305C15.1014 60.0989 9.2378 57.7035 6.81501 53.2484C5.71586 51.2269 5.3234 48.8622 5.48902 46.7529C5.73496 43.6104 7.22081 41.0339 9.45653 41.0032C10.8725 40.9843 11.0525 42.6023 11.0729 43.02C11.1847 45.4593 12.1841 46.8466 14.4285 46.6192C15.1294 46.5483 15.9334 45.9457 16.4531 44.9551C17.1082 43.7077 17.311 41.8434 16.2898 39.6443C12.3963 31.2576 -3.47583 35.4392 1.34829 51.4436Z" fill="white"/>
<path d="M3.41211 37.9518C2.97334 39.5676 2.47544 43.084 6.28074 43.5224C6.97356 42.0196 8.07062 41.0222 9.45601 41.0031C10.872 40.9843 11.052 42.6022 11.0724 43.02C11.1841 45.4593 12.1836 46.8465 14.4277 46.6192C15.1286 46.5482 15.9327 45.9457 16.4523 44.9551C17.1074 43.7077 17.3105 41.8433 16.289 39.6443C13.9554 34.6165 7.31631 34.1061 3.41211 37.9518Z" fill="#F9744B"/>
<g opacity="0.5">
<path opacity="0.5" d="M16.2893 40.6768C16.6729 41.5031 16.8837 42.2818 16.9628 42.9984C17.0813 41.9647 16.9175 40.7395 16.2893 39.3866C12.8377 31.9505 -0.0297503 34.395 0.458732 46.199C0.923144 35.5154 12.9672 33.52 16.2893 40.6768Z" fill="white"/>
</g>
<g opacity="0.2">
<path opacity="0.2" d="M5.4885 46.753C5.73444 43.6106 7.2203 41.034 9.45602 41.0033C10.872 40.9845 11.052 42.6024 11.0724 43.0202C11.1842 45.4595 12.1836 46.8467 14.428 46.6194C15.1289 46.5484 15.9329 45.9459 16.4525 44.9552C15.7984 45.2938 15.0339 45.3895 14.2804 45.3281C12.5512 45.1895 12.2019 43.1043 11.9583 40.9145C11.6739 38.3627 7.44714 38.1924 6.23287 41.5689C5.55705 43.4472 5.43827 45.3361 5.4885 46.753Z" fill="#4B2710"/>
</g>
<g opacity="0.2">
<path opacity="0.2" d="M2.0144 53.2959C6.96595 65.0712 21.6537 64.8049 21.6537 64.8049L22.1013 61.4862C21.644 61.4093 21.1832 61.3252 20.7201 61.2305C18.5611 61.7252 14.0334 62.1597 8.29456 59.3499C5.74409 58.1025 3.66195 55.8147 2.0144 53.2959Z" fill="#4B2710"/>
</g>
<path d="M21.5676 65.2443C21.2769 65.2443 20.345 65.2301 19.0077 65.0732C17.5409 64.9008 15.2895 64.5153 12.8932 63.6573C10.1894 62.6891 7.8558 61.3292 5.9576 59.6156C3.57877 57.4679 1.88464 54.7605 0.922331 51.5685C0.284452 49.4525 -0.0253309 47.4387 0.00161812 45.5836C0.026474 43.8695 0.337565 42.2879 0.925732 40.8829C1.98459 38.3543 3.92439 36.4592 6.38774 35.5473C8.32519 34.8299 10.4152 34.791 12.2723 35.4381C13.2286 35.7713 14.0886 36.2737 14.8285 36.9314C15.609 37.6253 16.2367 38.4766 16.694 39.4615C17.2183 40.5913 17.47 41.7091 17.4421 42.7841C17.418 43.7131 17.1788 44.5943 16.7508 45.3323C16.1838 46.31 15.3112 46.9704 14.4737 47.0553C13.4117 47.1629 12.5481 46.941 11.9068 46.3957C11.1302 45.7354 10.6998 44.6067 10.6276 43.0404C10.6216 42.9069 10.586 42.4407 10.3877 42.0399C10.1831 41.6263 9.88901 41.4364 9.46175 41.442C8.23832 41.4588 7.43849 42.372 6.98271 43.1353C5.67241 45.3295 5.30533 49.5469 7.20563 53.0411C10.0714 58.3109 17.8149 60.3239 22.1756 61.0547C22.4177 61.0952 22.5807 61.3217 22.5393 61.5604C22.4983 61.7991 22.2685 61.9599 22.0265 61.9191C18.6129 61.347 15.4881 60.4039 12.99 59.1916C9.88116 57.6828 7.67135 55.7532 6.42175 53.4555C5.51517 51.7883 5.01256 49.7536 5.00628 47.7259C5.00052 45.795 5.43014 44.0067 6.2161 42.6902C6.60281 42.0425 7.06382 41.5313 7.58579 41.1711C8.15512 40.7783 8.78175 40.5745 9.44893 40.5652C9.45966 40.5649 9.47039 40.5649 9.48111 40.5649C10.8989 40.5649 11.4636 41.8732 11.5154 43.0006C11.5761 44.3164 11.9029 45.235 12.4868 45.7315C12.9418 46.1183 13.5619 46.2662 14.3824 46.1828C14.9313 46.1271 15.5577 45.6223 15.9784 44.897C16.356 44.2462 17.1024 42.4492 15.885 39.8267C14.1012 35.9839 9.91387 35.1783 6.69988 36.3684C2.78547 37.8178 -0.853161 42.603 1.77397 51.3187C3.43591 56.8326 7.26999 60.7035 13.1695 62.8238C17.6045 64.4178 21.6058 64.3682 21.6456 64.3674C21.8907 64.3631 22.0935 64.5558 22.0979 64.7979C22.1024 65.0399 21.9072 65.2396 21.6618 65.244C21.6555 65.2438 21.6233 65.2443 21.5676 65.2443Z" fill="#4B2710"/>
<path d="M44.1846 43.1716C44.0601 45.4504 43.7288 47.5736 43.2966 49.4885C42.3785 53.5705 41.0072 56.7099 40.2336 58.4055C38.1985 62.8733 37.1705 63.8017 35.4058 64.8922C33.5097 66.063 27.9982 66.4454 27.9982 66.4454H23.7693C22.0689 66.4454 19.1359 65.9652 18.5635 65.4741C17.9923 64.982 17.79 64.1862 17.2743 63.6216C12.872 58.8008 15.3461 53.6634 18.1757 48.1774C19.8918 44.8474 21.4721 41.2827 22.6503 38.4745C23.9273 35.4316 24.7342 33.2777 24.7342 33.2777C24.7342 33.2777 41.5431 31.1917 42.4311 33.2777C42.6857 33.8774 42.9101 34.4714 43.1045 35.0611L43.25 35.7209L43.9423 38.8711L44.0823 39.5056C44.2236 40.7656 44.2492 41.989 44.1846 43.1716Z" fill="white"/>
<g opacity="0.2">
<path opacity="0.2" d="M42.1419 53.6154C41.4428 55.7001 40.7204 57.3379 40.2335 58.4054C38.1985 62.8732 37.1705 63.8017 35.4057 64.8922C33.5096 66.0629 27.9982 66.4453 27.9982 66.4453H24.4495L25.702 59.7119H27.9982C27.9982 59.7119 33.3238 48.8439 33.5774 51.0349C34.6232 60.0649 39.9392 56.9684 42.1419 53.6154Z" fill="#4B2710"/>
</g>
<path d="M43.0399 35.0821C42.874 34.7069 42.7063 34.334 42.5313 33.9655C42.4434 33.7813 42.3552 33.5978 42.2636 33.4159L42.2466 33.3816C42.2411 33.3708 42.2343 33.3563 42.2315 33.3524C42.2244 33.3398 42.2152 33.3274 42.2056 33.315C42.1859 33.2902 42.1611 33.266 42.132 33.2428C42.0742 33.1958 41.9994 33.1548 41.9193 33.1179C41.7574 33.0446 41.5711 32.9935 41.3814 32.952C41.1909 32.9104 40.9944 32.8802 40.7958 32.8562C40.3984 32.8077 39.9931 32.7824 39.5865 32.7669C39.1797 32.7517 38.7707 32.7465 38.361 32.7478C37.9513 32.7484 37.541 32.7558 37.1302 32.7659C36.3087 32.7871 35.4856 32.8214 34.6622 32.8634C33.8388 32.9065 33.0154 32.962 32.192 33.025C31.3687 33.0872 30.5455 33.1579 29.7229 33.235C28.9001 33.3112 28.0777 33.3935 27.2562 33.4817C26.8454 33.5258 26.4346 33.5705 26.0241 33.6172C25.6141 33.6639 25.2023 33.7119 24.796 33.7627L25.1989 33.4471C25.0336 33.8887 24.8653 34.3224 24.6953 34.7585C24.5252 35.1938 24.3533 35.6281 24.179 36.0616C23.8303 36.9284 23.4763 37.7929 23.1126 38.6534C22.3863 40.3751 21.6354 42.0872 20.8468 43.7836C20.453 44.6321 20.0504 45.4766 19.6375 46.3168C19.4308 46.7369 19.222 47.156 19.0098 47.5735C18.7979 47.991 18.5815 48.4083 18.368 48.8204C17.941 49.6466 17.5208 50.4731 17.131 51.3092C16.7406 52.1447 16.3801 52.9896 16.0792 53.8494C15.7796 54.7087 15.5431 55.585 15.4175 56.4701C15.2916 57.3544 15.283 58.248 15.4314 59.1153C15.4696 59.3318 15.513 59.5473 15.5708 59.7594L15.5915 59.8391L15.6145 59.9183C15.6302 59.971 15.6443 60.0241 15.6613 60.0762C15.6956 60.1808 15.7286 60.2855 15.7673 60.3885C15.8031 60.4925 15.8458 60.5941 15.8861 60.6966C15.9073 60.7474 15.9298 60.7977 15.9515 60.8483L15.9845 60.9242L16.0195 60.999L16.0902 61.1487L16.1655 61.2963L16.2032 61.3701L16.2432 61.4428L16.3233 61.5884C16.5444 61.9729 16.7937 62.3432 17.0697 62.6959C17.2089 62.8714 17.3513 63.0453 17.502 63.2125L17.6166 63.3413C17.6631 63.3931 17.7076 63.4458 17.749 63.4995C17.8327 63.6063 17.9065 63.7152 17.9745 63.823C18.1106 64.039 18.222 64.2506 18.3337 64.4447C18.4447 64.639 18.5553 64.816 18.678 64.961C18.7084 64.9979 18.7401 65.0315 18.772 65.0642C18.7882 65.0802 18.8044 65.096 18.8206 65.1112L18.8455 65.1334L18.8518 65.1391C18.8539 65.1409 18.8562 65.1432 18.8568 65.1432C18.8586 65.1445 18.8602 65.1458 18.8617 65.1471C18.8764 65.1589 18.908 65.1796 18.9447 65.1989C18.9816 65.2188 19.0242 65.2389 19.0692 65.2583C19.1597 65.2973 19.2594 65.3334 19.3622 65.3672C19.4648 65.401 19.5713 65.4322 19.6791 65.4616C20.1113 65.5788 20.5634 65.6691 21.0169 65.7457C21.4711 65.8216 21.9297 65.8828 22.3884 65.9287C22.8465 65.9738 23.3067 66.0051 23.756 66.0066H25.1696H27.9982L27.9671 66.0076L28.2101 65.9886L28.4558 65.9674C28.6199 65.9527 28.7839 65.9369 28.9477 65.9202C29.2755 65.8869 29.6034 65.85 29.9302 65.8095C30.584 65.7279 31.2355 65.6327 31.8802 65.5161C32.5241 65.3984 33.1635 65.2601 33.7786 65.08C34.0858 64.9897 34.3869 64.8877 34.669 64.7665C34.8098 64.7058 34.9456 64.6405 35.0709 64.5693C35.1025 64.5518 35.1318 64.5329 35.1627 64.5149L35.2655 64.4503C35.3346 64.4073 35.4019 64.3634 35.4699 64.3198C35.6041 64.2315 35.7375 64.1433 35.8655 64.0512C35.9306 64.006 35.9926 63.9585 36.0562 63.9121C36.1174 63.8638 36.1808 63.8174 36.2404 63.7676C36.3623 63.6708 36.478 63.5678 36.5923 63.4638C36.6478 63.4102 36.7053 63.3583 36.759 63.3028L36.8409 63.2208L36.9204 63.1361C37.1326 62.9106 37.3294 62.6683 37.5154 62.4144C37.7014 62.1605 37.8767 61.8955 38.0444 61.6235C38.2124 61.3518 38.3712 61.0718 38.5266 60.789C38.6049 60.6481 38.6797 60.5043 38.7556 60.3614C38.8296 60.2171 38.905 60.0739 38.9772 59.9281L39.0863 59.7103L39.1933 59.491C39.2655 59.3452 39.3348 59.1976 39.4055 59.0508L39.6137 58.6077L39.8191 58.1626C40.3641 56.973 40.8738 55.7744 41.3311 54.5538C41.4457 54.2488 41.5577 53.9431 41.6653 53.6357C41.7192 53.4819 41.7741 53.3287 41.8256 53.1743C41.878 53.0203 41.9311 52.8662 41.9811 52.7112C42.1841 52.0924 42.3754 51.4694 42.5522 50.8427C42.7288 50.2156 42.8921 49.5847 43.0394 48.9502C43.1883 48.3159 43.3228 47.678 43.4418 47.037C43.5593 46.3958 43.6639 45.752 43.7532 45.1056C43.7942 44.782 43.839 44.4584 43.8725 44.1338C43.9117 43.8094 43.9392 43.4843 43.9708 43.1589L43.9714 43.154C43.9826 43.0376 44.0878 42.9522 44.2058 42.9633C44.3193 42.9741 44.4036 43.0706 44.3999 43.1816C44.3884 43.5116 44.3816 43.8424 44.362 44.1725C44.3471 44.503 44.3209 44.8326 44.2979 45.1629C44.2422 45.8222 44.1713 46.4809 44.0818 47.1374C43.9007 48.4501 43.6498 49.7542 43.3319 51.0429C43.1726 51.687 42.9983 52.328 42.8068 52.9638C42.7602 53.123 42.7103 53.2814 42.6611 53.4401C42.6124 53.5988 42.5611 53.7567 42.5098 53.9147C42.407 54.2305 42.2995 54.5448 42.1896 54.8583C41.7485 56.1114 41.2419 57.3436 40.6941 58.5499L40.4871 59.0023L40.2749 59.4531C40.1315 59.7532 39.9863 60.0525 39.8338 60.3498C39.7592 60.4989 39.6802 60.6465 39.603 60.7949C39.5235 60.9425 39.4452 61.0906 39.3628 61.2372C39.1998 61.5311 39.0303 61.8229 38.8487 62.1104C38.6676 62.3979 38.4761 62.6817 38.2692 62.9583C38.0625 63.2347 37.8398 63.5041 37.5965 63.758L37.5052 63.853L37.411 63.9456C37.349 64.0081 37.283 64.0669 37.2189 64.1273C37.0876 64.2449 36.9544 64.3605 36.816 64.4684C36.541 64.6872 36.2535 64.8831 35.9662 65.0678C35.8943 65.1133 35.8223 65.1595 35.7504 65.2036L35.642 65.2704C35.6012 65.2942 35.5601 65.3194 35.5191 65.3419C35.355 65.4332 35.1902 65.5104 35.0254 65.5801C34.6954 65.7181 34.3647 65.8281 34.0337 65.9248C33.3715 66.1171 32.7067 66.2569 32.0413 66.3782C31.376 66.4987 30.7093 66.596 30.0416 66.6793C29.7078 66.7206 29.3737 66.7583 29.0393 66.7924C28.8721 66.8094 28.7046 66.8254 28.5369 66.8404L28.285 66.862L28.0301 66.8819L28.0163 66.8829H27.999H25.1694H23.7544C23.2604 66.8811 22.779 66.8476 22.2989 66.8004C21.8193 66.7524 21.3431 66.6889 20.8677 66.6094C20.3923 66.5289 19.9187 66.435 19.4415 66.3057C19.3222 66.2729 19.2024 66.2381 19.0815 66.1983C18.9606 66.1586 18.8387 66.115 18.7131 66.0608C18.6501 66.0335 18.586 66.0038 18.5195 65.9682C18.4528 65.932 18.3837 65.8915 18.306 65.8309L18.2767 65.8071C18.2712 65.8028 18.2683 65.8002 18.2649 65.7971L18.2547 65.7881L18.2142 65.7517C18.1877 65.7271 18.1618 65.7021 18.1365 65.6768C18.0865 65.626 18.0383 65.5739 17.9941 65.5207C17.8152 65.3078 17.6802 65.0854 17.5595 64.8751C17.4389 64.6645 17.3322 64.4638 17.2191 64.2847C17.1626 64.1951 17.1051 64.1105 17.0446 64.0336C17.0145 63.9946 16.9834 63.9583 16.952 63.9229L16.8332 63.7895C16.671 63.6091 16.5166 63.421 16.3657 63.2303C16.0656 62.8471 15.7916 62.441 15.5478 62.0165L15.4593 61.8555L15.4151 61.775L15.3733 61.6932L15.2898 61.5293L15.2113 61.3629L15.1723 61.2795L15.1357 61.1951C15.1114 61.1389 15.0865 61.0826 15.063 61.0261C15.018 60.9118 14.9706 60.7985 14.9306 60.6824C14.8455 60.452 14.7733 60.2166 14.71 59.9795C14.6454 59.7423 14.5957 59.5016 14.553 59.2601L14.5232 59.0784L14.4986 58.8962C14.49 58.8356 14.4837 58.7747 14.4774 58.7138C14.4717 58.6529 14.4635 58.592 14.4596 58.5311C14.4384 58.2872 14.4301 58.0431 14.428 57.7993C14.4272 57.5554 14.4371 57.3123 14.4531 57.07C14.4714 56.828 14.4968 56.587 14.5297 56.3475C14.664 55.3894 14.9157 54.4602 15.2231 53.5599C15.5334 52.6598 15.9015 51.7866 16.2961 50.9314C16.6906 50.0758 17.1106 49.2369 17.5344 48.4034C17.7474 47.9859 17.9578 47.574 18.1652 47.1588C18.3727 46.7436 18.5771 46.3269 18.7796 45.9091C19.1838 45.0733 19.5784 44.2321 19.964 43.387C20.7345 41.6963 21.4779 39.9924 22.194 38.2772C22.5514 37.4195 22.9059 36.5602 23.2515 35.6978C23.4245 35.2666 23.5972 34.8354 23.767 34.4032C23.9365 33.9717 24.1053 33.5372 24.2688 33.107L24.375 32.8271L24.6717 32.7914C25.088 32.7416 25.4995 32.6957 25.9135 32.6506C26.3268 32.6057 26.7402 32.562 27.1536 32.5208C27.9809 32.4384 28.8085 32.3618 29.6371 32.2921C30.4657 32.2235 31.2951 32.1613 32.1256 32.1074C32.956 32.0542 33.7875 32.0104 34.6203 31.9778C35.4531 31.9448 36.2875 31.927 37.124 31.9363C37.9602 31.9461 38.7985 31.9804 39.6383 32.0687C40.0583 32.1141 40.4785 32.1724 40.8984 32.2609C41.1082 32.3063 41.3181 32.3585 41.5274 32.425C41.7364 32.4926 41.9455 32.5734 42.1498 32.6926C42.2516 32.753 42.3523 32.8242 42.4444 32.9192C42.4902 32.9664 42.5334 33.0201 42.5698 33.0815C42.5878 33.1122 42.6046 33.1445 42.6182 33.1785C42.6263 33.1976 42.6289 33.2069 42.6336 33.2198L42.6467 33.2564C42.7147 33.4518 42.7809 33.6476 42.8424 33.8448C42.9664 34.2388 43.0768 34.6367 43.1689 35.0382C43.1773 35.0746 43.154 35.1107 43.1174 35.119C43.0852 35.1283 43.0527 35.1113 43.0399 35.0821Z" fill="#4B2710"/>
<path d="M52.034 32.0155C52.0295 32.0243 52.0242 32.0319 52.0197 32.0406L52.0382 32.01C52.0361 32.0124 52.035 32.0134 52.034 32.0155Z" fill="#4B2710"/>
<path d="M52.0197 32.0398L51.4878 32.8818C51.6712 32.609 51.8504 32.3304 52.0197 32.0398Z" fill="#4B2710"/>
<path d="M52.0349 31.7441C52.0317 31.7478 52.0283 31.7513 52.0262 31.7536C52.0217 31.7597 52.0174 31.7655 52.0132 31.7716L52.0349 31.7441Z" fill="#4B2710"/>
<path d="M51.4971 32.3947C51.6753 32.1934 51.8477 31.9864 52.0131 31.7712L51.4971 32.3947Z" fill="#4B2710"/>
<path d="M16.1038 32.3945L15.5891 31.7744C15.7529 31.9886 15.9245 32.1945 16.1038 32.3945Z" fill="#4B2710"/>
<path d="M52.4184 31.5083C52.411 31.5167 52.4038 31.526 52.3964 31.5344L52.4227 31.5051C52.4216 31.5064 52.4195 31.5075 52.4184 31.5083Z" fill="#4B2710"/>
<path d="M52.3964 31.5337L51.8669 32.1174C51.869 32.1164 51.87 32.1143 51.8721 32.1133C52.0534 31.9262 52.2287 31.7332 52.3964 31.5337Z" fill="#4B2710"/>
<path d="M34.8998 49.8946C33.6996 55.8766 33.7399 63.6042 33.786 63.7317C33.8017 63.775 35.7388 64.5311 34.6831 65.6128C33.2124 67.1198 28.4558 66.5428 27.9851 65.8593C27.2967 64.8599 25.3614 53.1186 25.9689 47.6821" fill="white"/>
<path d="M35.045 49.9229C35.0837 50.0408 35.1041 50.1549 35.1206 50.2676C35.1365 50.3804 35.1447 50.4916 35.1491 50.6018C35.1528 50.712 35.1515 50.8211 35.1457 50.9292C35.1397 51.0374 35.1292 51.145 35.1187 51.2523C35.0976 51.467 35.0698 51.6807 35.0361 51.8936C35.0026 52.1064 34.9618 52.3186 34.9246 52.5312L34.8966 52.6907L34.8705 52.8504C34.8529 52.957 34.837 53.0638 34.8223 53.1709C34.7935 53.3851 34.7684 53.5995 34.7428 53.8142C34.6925 54.2433 34.6465 54.6735 34.6046 55.1039C34.4372 56.8258 34.3283 58.5557 34.2653 60.2867C34.2344 61.1519 34.2143 62.0184 34.2129 62.8811C34.2129 63.096 34.2137 63.3128 34.219 63.522L34.2213 63.5984C34.2221 63.6227 34.2234 63.648 34.2247 63.6642C34.225 63.6666 34.2252 63.6712 34.225 63.6668C34.2252 63.6691 34.2234 63.6544 34.2218 63.6475C34.2805 63.6872 34.0706 63.3492 34.0604 63.3874C34.0392 63.3716 34.0329 63.3685 34.0306 63.367C34.0269 63.3649 34.0267 63.3646 34.0272 63.3649L34.0358 63.3695L34.1044 63.4049C34.2064 63.4573 34.3139 63.5153 34.4186 63.5783C34.6284 63.7055 34.8372 63.8513 35.0308 64.0516C35.1269 64.1522 35.2195 64.2681 35.2959 64.4087C35.3718 64.5483 35.4293 64.7176 35.44 64.8982C35.4458 64.988 35.4398 65.0788 35.4241 65.1655C35.4081 65.2525 35.3822 65.3348 35.3506 65.4109C35.2865 65.5634 35.2001 65.6899 35.1093 65.799C34.928 66.0145 34.7158 66.1796 34.4953 66.3131C34.2744 66.4462 34.0458 66.5471 33.816 66.6292C33.5861 66.7107 33.3545 66.7729 33.123 66.8224C32.6598 66.9207 32.197 66.9698 31.7363 66.9899C31.2755 67.0095 30.8163 66.9992 30.359 66.9631C29.9011 66.9259 29.4456 66.865 28.9875 66.7621C28.7577 66.7097 28.5285 66.648 28.291 66.5574C28.2316 66.5345 28.1714 66.5092 28.1097 66.4803C28.0482 66.4511 27.9854 66.4188 27.9192 66.3778C27.8862 66.3574 27.8525 66.335 27.8169 66.3079C27.7816 66.2811 27.7452 66.2509 27.707 66.2124L27.678 66.1817C27.6683 66.1709 27.6583 66.1587 27.6486 66.1471C27.639 66.135 27.6288 66.1211 27.6193 66.1076C27.6112 66.0958 27.6052 66.0862 27.5982 66.0754L27.5879 66.0597L27.5796 66.0455L27.5634 66.0171C27.5531 65.9988 27.5448 65.9822 27.5359 65.9647C27.5027 65.8979 27.4781 65.8383 27.4548 65.7794C27.4317 65.7208 27.4113 65.6638 27.3922 65.6078C27.354 65.4956 27.3203 65.3856 27.2886 65.2765C27.2256 65.0582 27.1701 64.8422 27.1178 64.6262C27.0134 64.1945 26.9218 63.7641 26.8355 63.3334C26.6636 62.4718 26.5142 61.6092 26.3771 60.745C26.2402 59.8808 26.117 59.0151 26.0058 58.1478C25.8941 57.2805 25.7968 56.4114 25.7088 55.541L25.6416 54.8882L25.5772 54.2345C25.5359 53.7987 25.4972 53.3621 25.4679 52.9247C25.4093 52.0497 25.3902 51.1705 25.426 50.2901C25.4456 49.8498 25.4833 49.4094 25.5445 48.9704C25.5751 48.7511 25.6118 48.532 25.657 48.3142C25.7023 48.0964 25.7544 47.8797 25.8214 47.6658C25.8459 47.5873 25.9305 47.5432 26.01 47.5674C26.0704 47.5858 26.1107 47.6382 26.116 47.6967V47.6978C26.1351 47.9163 26.1489 48.1331 26.1631 48.3493L26.2039 48.9962C26.2303 49.4269 26.2562 49.8566 26.2792 50.2865L26.4195 52.8687C26.465 53.7308 26.5163 54.5948 26.5961 55.4566C26.678 56.3182 26.7779 57.1788 26.8875 58.0381C26.9979 58.8971 27.1201 59.7551 27.2554 60.6103C27.3909 61.4652 27.539 62.3185 27.7078 63.1644C27.7926 63.5871 27.8823 64.0085 27.9825 64.4231C28.0327 64.6303 28.0856 64.8363 28.1437 65.0363C28.1725 65.1361 28.2028 65.2347 28.235 65.3284C28.2509 65.3753 28.2674 65.421 28.2842 65.4638C28.3009 65.5064 28.3182 65.5474 28.3336 65.5781L28.3441 65.598L28.3483 65.6052L28.3501 65.6086L28.3512 65.6099C28.3517 65.6104 28.3527 65.6125 28.3522 65.6119C28.3509 65.6096 28.3485 65.607 28.3472 65.6055C28.3464 65.6042 28.3451 65.6029 28.3443 65.6021C28.3443 65.6016 28.3438 65.6014 28.3436 65.6014C28.3451 65.6029 28.3645 65.6197 28.392 65.6362C28.4192 65.6532 28.454 65.6716 28.4919 65.6894C28.5299 65.7072 28.5712 65.7247 28.6144 65.7415C28.7884 65.8083 28.9856 65.8628 29.1855 65.9079C29.5877 65.9982 30.0086 66.0555 30.4299 66.0893C30.8517 66.1226 31.2766 66.1319 31.697 66.1141C32.1172 66.0958 32.5348 66.0509 32.9343 65.9657C33.1339 65.9231 33.3289 65.8702 33.5138 65.8044C33.6988 65.7386 33.8741 65.6597 34.0301 65.5658C34.1855 65.4723 34.3218 65.3616 34.4225 65.2414C34.4717 65.1828 34.5078 65.1253 34.528 65.0765C34.5484 65.0272 34.5541 64.9893 34.552 64.9521C34.5497 64.915 34.5382 64.8724 34.5102 64.8205C34.4824 64.7692 34.439 64.7111 34.3838 64.6538C34.2731 64.5382 34.1209 64.4268 33.9552 64.3271C33.8718 64.2768 33.7857 64.2301 33.692 64.1821L33.6141 64.1419L33.5863 64.1269L33.5651 64.1145C33.5568 64.1094 33.5447 64.1026 33.518 64.0828C33.5015 64.1174 33.2888 63.7729 33.3467 63.8056C33.344 63.792 33.3412 63.7705 33.3409 63.7662C33.3388 63.7484 33.3383 63.7393 33.3375 63.728C33.3349 63.69 33.3336 63.6609 33.3325 63.6309L33.3299 63.5442C33.3244 63.3187 33.3236 63.1002 33.3236 62.88C33.3249 62.0024 33.3453 61.1289 33.3765 60.255C33.4401 58.5077 33.5497 56.7621 33.7192 55.0192C33.7616 54.5837 33.8082 54.1481 33.8592 53.713L33.9385 53.0604C33.9516 52.9515 33.9639 52.8426 33.9751 52.7335C33.9872 52.6246 33.9984 52.5154 34.0094 52.406C34.0324 52.1877 34.0547 51.9692 34.0866 51.7519C34.1185 51.5346 34.159 51.3184 34.2095 51.1039C34.2352 50.9969 34.2614 50.8898 34.2927 50.7834C34.3244 50.6774 34.361 50.5721 34.4042 50.4684C34.4476 50.3646 34.496 50.2617 34.5528 50.1608C34.6101 50.0599 34.6724 49.9603 34.7538 49.8648C34.8139 49.7944 34.9207 49.7851 34.9921 49.8444C35.017 49.8651 35.0345 49.8914 35.0439 49.92L35.045 49.9229Z" fill="#4B2710"/>
<path d="M31.1999 63.8789C31.4 63.7839 31.6091 63.7034 31.8226 63.6319C32.0364 63.561 32.2556 63.5016 32.4804 63.4539L32.6502 63.4204L32.8223 63.3938C32.8799 63.3837 32.9382 63.3791 32.9966 63.3729C33.0552 63.3677 33.1138 63.3589 33.1732 63.3574L33.3521 63.3491C33.4121 63.3471 33.4725 63.3499 33.5332 63.3504L33.6245 63.3522C33.6551 63.3533 33.6857 63.3569 33.7163 63.3592L33.9016 63.3757C34.1206 63.3953 34.2818 63.586 34.2621 63.802C34.2422 64.018 34.0489 64.1769 33.8299 64.1576C33.7901 64.154 33.7525 64.1449 33.7171 64.131L33.7007 64.1243L33.5646 64.0696C33.5416 64.0606 33.5191 64.0502 33.4955 64.0422L33.4241 64.0195C33.3762 64.0048 33.3286 63.9873 33.2794 63.9744L33.1303 63.937C32.9291 63.8923 32.72 63.8567 32.5065 63.8407C32.2933 63.8229 32.0761 63.817 31.8577 63.8232C31.6392 63.8293 31.4191 63.8456 31.1999 63.8789Z" fill="#4B2710"/>
<path d="M51.4872 32.611C51.6662 32.4082 51.8407 32.1989 52.0084 31.9829L51.4872 32.611Z" fill="white"/>
<path d="M16.1383 32.6112L15.6192 31.9841C15.7848 32.2001 15.9593 32.4084 16.1383 32.6112Z" fill="white"/>
<g opacity="0.2">
<path opacity="0.2" d="M44.8693 38.5175C44.5614 38.6414 44.2524 38.7598 43.9423 38.8716C43.4954 39.0349 43.0465 39.1872 42.5975 39.3275C36.0235 41.386 29.163 41.1088 22.6503 38.4747C23.9273 35.4318 24.7342 33.278 24.7342 33.278C24.7342 33.278 41.5431 31.1919 42.4311 33.278C42.6857 33.8776 42.9101 34.4717 43.1045 35.0613L43.25 35.7211L43.4012 34.8838C43.401 34.884 43.8868 36.7835 44.8693 38.5175Z" fill="#4B2710"/>
</g>
<path d="M11.276 28.3297C11.376 29.1879 13.152 28.3746 13.539 28.1872C13.5701 28.172 13.6033 28.2037 13.5944 28.2409C13.5588 28.3888 13.4633 28.7222 13.2211 29.2548C12.921 29.9125 12.6766 30.4222 12.8121 30.7674C12.9576 31.1336 13.5612 31.275 14.3137 31.1916C14.7349 31.1444 15.1862 31.5072 15.5884 31.9456L15.5894 31.9467L15.5928 31.95L15.6195 31.9841C15.613 31.9743 15.6051 31.9655 15.5983 31.9557C15.7951 32.1707 15.9795 32.4039 16.1428 32.6155C16.8186 33.3773 17.581 34.0526 18.4123 34.6489C19.4847 35.3921 20.6673 35.9786 21.9143 36.4377V36.4289C21.9143 36.4289 23.6247 37.0516 26.1542 37.6226C26.1542 37.6226 28.4148 38.0995 30.481 38.3624C30.481 38.3624 32.0626 38.5477 33.8007 38.5477C35.5377 38.5477 37.146 38.3624 37.146 38.3624C39.2109 38.0995 41.4727 37.6226 41.4727 37.6226C44.0012 37.0516 45.7126 36.4289 45.7126 36.4289V36.4377C46.9596 35.9784 48.1422 35.3921 49.2147 34.6489C50.0449 34.0526 50.8073 33.3775 51.4831 32.6155C51.6487 32.4019 51.8342 32.1673 52.0333 31.9503C52.0255 31.9611 52.0166 31.9722 52.009 31.9831L52.0391 31.9459C52.038 31.9469 52.0357 31.948 52.0346 31.9493C52.4381 31.5098 52.8905 31.1447 53.3128 31.1919C54.0652 31.2752 54.6686 31.1338 54.8143 30.7677C54.9509 30.4224 54.7055 29.9128 54.4064 29.255C54.1631 28.7224 54.0673 28.389 54.0317 28.2412C54.0239 28.204 54.0561 28.172 54.0872 28.1875C54.4739 28.3748 56.2499 29.1882 56.3501 28.3299C56.4069 27.8541 55.6244 26.416 55.352 24.9428C54.5618 20.6735 54.3329 19.8305 54.3329 19.8305C54.3274 19.8021 53.5616 16.7417 52.4169 14.4879C53.5605 11.4825 54.3096 2.71674 52.3957 0.88618C50.8599 -0.583638 45.0839 2.50076 42.9167 4.65904C39.6392 3.3087 34.5557 3.10587 33.8132 3.10691C33.5576 3.10691 32.7886 3.12987 31.7559 3.21658C29.7866 3.38095 26.8591 3.77343 24.7107 4.65904C22.5433 2.50076 16.7673 -0.583638 15.2302 0.88618C13.3163 2.71674 14.0654 11.4822 15.209 14.4879C14.4856 15.9118 13.9131 17.658 13.5897 18.7573C13.4008 19.3985 13.2951 19.8194 13.293 19.8305C13.293 19.8305 13.0651 20.6735 12.275 24.9428C12.0029 26.4158 11.2203 27.8538 11.276 28.3297Z" fill="white"/>
<path d="M14.7903 13.0601C14.2914 10.9292 13.9623 7.78132 14.0823 5.17456C14.1925 7.89409 14.6548 10.7078 15.2092 12.1668C15.0638 12.454 14.9238 12.7543 14.7903 13.0601Z" fill="white"/>
<g opacity="0.2">
<path opacity="0.2" d="M54.4061 29.2552C54.7051 29.9129 54.9505 30.4226 54.814 30.7678C54.6685 31.134 54.0649 31.2754 53.3124 31.1921C52.8901 31.1448 52.4377 31.51 52.0343 31.9494C52.0353 31.9484 52.0377 31.9471 52.0387 31.9461L52.0087 31.9832C52.0165 31.9724 52.0254 31.9613 52.0333 31.9505C51.8344 32.1675 51.6486 32.402 51.483 32.6157C50.8072 33.3774 50.0448 34.0527 49.2146 34.6491C48.1421 35.3922 46.9595 35.9788 45.7125 36.4378V36.4291C45.7125 36.4291 44.0009 37.0517 41.4727 37.6228C41.4727 37.6228 39.211 38.0996 37.1459 38.3626C37.1459 38.3626 35.5376 38.5479 33.8006 38.5479C32.0622 38.5479 30.4809 38.3626 30.4809 38.3626C28.4147 38.0996 26.1541 37.6228 26.1541 37.6228C23.6246 37.0517 21.9142 36.4291 21.9142 36.4291V36.4378C20.6673 35.9785 19.4847 35.3922 18.4122 34.6491C17.581 34.0527 16.8185 33.3777 16.1427 32.6157C15.9795 32.4041 15.7947 32.1706 15.5982 31.9559C15.605 31.9657 15.6126 31.9745 15.6194 31.9843L15.5927 31.9502L15.5893 31.9468L15.5883 31.9458C15.1859 31.5074 14.7348 31.1446 14.3136 31.1918C13.5611 31.2752 12.9578 31.1337 12.812 30.7676C12.6765 30.4223 12.9209 29.9127 13.221 29.2549C13.2911 29.1004 13.3489 28.9623 13.3965 28.8418C13.6501 28.8988 13.9656 28.9086 14.3133 28.8702C14.7346 28.823 15.1859 29.1858 15.588 29.6242L15.5891 29.6252L15.5925 29.6286L15.6192 29.6626C15.6124 29.6528 15.6048 29.6441 15.598 29.6342C15.7947 29.8492 15.9792 30.0825 16.1425 30.2941C16.8183 31.0558 17.5807 31.7311 18.4119 32.3275C19.4844 33.0706 20.667 33.6572 21.914 34.1162V34.1074C21.914 34.1074 23.6243 34.7301 26.1539 35.3012C26.1539 35.3012 28.4144 35.778 30.4806 36.041C30.4806 36.041 32.0622 36.2262 33.8003 36.2262C35.5373 36.2262 37.1456 36.041 37.1456 36.041C39.2105 35.778 41.4724 35.3012 41.4724 35.3012C44.0009 34.7301 45.7123 34.1074 45.7123 34.1074V34.1162C46.9593 33.6569 48.1419 33.0706 49.2143 32.3275C50.0445 31.7311 50.8069 31.0561 51.4828 30.2941C51.6484 30.0804 51.8339 29.8458 52.033 29.6288C52.0251 29.6397 52.0162 29.6508 52.0084 29.6616L52.0385 29.6244C52.0374 29.6255 52.0351 29.6268 52.034 29.6278C52.4375 29.1883 52.8899 28.8232 53.3122 28.8704C53.6601 28.9089 53.9757 28.8988 54.2289 28.8421C54.2771 28.9626 54.3349 29.1006 54.4061 29.2552Z" fill="#4B2710"/>
</g>
<path d="M13.5897 18.7573C14.2443 18.8373 14.9112 18.8778 15.5868 18.8778C24.42 18.8778 31.5997 11.8923 31.7554 3.21632C29.786 3.38069 26.8585 3.77318 24.7102 4.65878C22.5433 2.50076 16.7673 -0.583637 15.2301 0.886182C13.3162 2.71675 14.0653 11.4822 15.209 14.4879C14.4855 15.9118 13.9133 17.6578 13.5897 18.7573Z" fill="#F9744B"/>
<path d="M52.0048 31.9868L51.4875 32.6105C51.6662 32.4095 51.8391 32.2023 52.0048 31.9868Z" fill="#4B2710"/>
<path d="M16.1381 32.6105L15.6208 31.9868C15.7864 32.202 15.9604 32.4092 16.1381 32.6105Z" fill="#4B2710"/>
<path d="M48.1215 8.52702C49.6372 10.0443 50.5901 12.1654 50.7256 11.918C50.7387 11.8942 50.752 11.8658 50.7651 11.8328C51.0542 11.1392 51.5357 8.3887 51.5343 5.93729C51.533 5.54196 51.5223 5.19283 51.5009 4.88498C51.4433 4.05408 51.3172 3.52148 51.1626 3.1806C50.9705 2.76386 50.5385 2.63613 50.1558 2.77573C49.138 3.1486 46.2471 4.92395 45.3049 6.06244C45.1367 6.26526 46.6045 7.00972 48.1215 8.52702Z" fill="#FA508E"/>
<g opacity="0.2">
<path opacity="0.2" d="M48.1215 8.52725C49.6372 10.0445 50.5901 12.1657 50.7256 11.9182C50.7387 11.8945 50.752 11.8661 50.7651 11.833C50.4278 10.5464 49.4977 8.76877 48.785 7.48346C47.8107 5.72824 49.1547 4.33403 50.3198 3.91729C50.7193 3.77408 51.1934 4.38848 51.5006 4.88547C51.443 4.05457 51.3169 3.52197 51.1623 3.18109C50.9702 2.76435 50.5383 2.63662 50.1555 2.77622C49.1377 3.14909 46.2468 4.92444 45.3047 6.06293C45.1367 6.26549 46.6045 7.00995 48.1215 8.52725Z" fill="#4B2710"/>
</g>
<path d="M50.6957 12.3246C50.4378 12.3246 50.2792 12.1035 50.1735 11.9564C50.073 11.8163 49.9474 11.6197 49.802 11.3921C49.3577 10.6961 48.6863 9.6446 47.8412 8.79873C47.0739 8.03053 46.3277 7.47213 45.7829 7.06442C45.1835 6.61568 44.9352 6.43015 44.9017 6.15327C44.8871 6.03121 44.9219 5.91199 45.0001 5.81755C46.0009 4.60887 48.9799 2.79327 50.0191 2.41343C50.6246 2.19203 51.2554 2.4475 51.5191 3.02113C51.792 3.61953 51.9252 4.573 51.9262 5.93728C51.9283 8.47489 51.41 11.4829 51.0709 12.1017C50.9971 12.2361 50.8627 12.3195 50.7107 12.3244C50.7057 12.3246 50.7007 12.3246 50.6957 12.3246ZM45.7984 6.09624C45.9213 6.19636 46.0961 6.32719 46.2573 6.44795C46.7892 6.84611 47.5932 7.44761 48.4004 8.25555C49.3051 9.16128 50.004 10.2556 50.4663 10.9797C50.4995 11.0318 50.5335 11.0853 50.5675 11.1379C50.8169 10.1057 51.1431 7.99209 51.1416 5.93806C51.1405 4.7028 51.027 3.82855 50.8041 3.34007C50.6916 3.09544 50.4579 3.07919 50.2923 3.13957C49.4027 3.46471 46.8614 4.99955 45.7984 6.09624Z" fill="#4B2710"/>
<path d="M19.6236 8.52702C18.1079 10.0443 17.155 12.1654 17.0195 11.918C17.0064 11.8942 16.9931 11.8658 16.98 11.8328C16.6909 11.1392 16.2094 8.3887 16.2108 5.93729C16.2121 5.54196 16.2228 5.19283 16.2442 4.88498C16.3018 4.05408 16.4279 3.52148 16.5825 3.1806C16.7746 2.76386 17.2066 2.63613 17.5893 2.77573C18.6071 3.1486 21.498 4.92395 22.4402 6.06244C22.6081 6.26526 21.1403 7.00972 19.6236 8.52702Z" fill="#FA508E"/>
<g opacity="0.2">
<path opacity="0.2" d="M19.6236 8.52725C18.1079 10.0445 17.155 12.1657 17.0195 11.9182C17.0064 11.8945 16.9931 11.8661 16.98 11.833C17.3172 10.5464 18.2474 8.76877 18.9601 7.48346C19.9344 5.72824 18.5904 4.33403 17.4253 3.91729C17.0258 3.77408 16.5517 4.38848 16.2445 4.88547C16.3021 4.05457 16.4282 3.52197 16.5828 3.18109C16.7749 2.76435 17.2068 2.63662 17.5896 2.77622C18.6074 3.14909 21.4982 4.92444 22.4404 6.06293C22.6081 6.26549 21.1403 7.00995 19.6236 8.52725Z" fill="#4B2710"/>
</g>
<path d="M17.0491 12.3249C17.0441 12.3249 17.0392 12.3249 17.0342 12.3246C16.8822 12.3197 16.7474 12.2364 16.6739 12.1019C16.3348 11.4831 15.8165 8.47511 15.8186 5.9375L16.2111 5.93776L15.8186 5.9375C15.8197 4.57322 15.9526 3.61975 16.2252 3.02238C16.4892 2.44797 17.1203 2.19251 17.7257 2.41391C18.7649 2.79375 21.7442 4.60935 22.7448 5.81803C22.823 5.91247 22.8578 6.03169 22.8431 6.15374C22.8096 6.43062 22.5616 6.61642 21.9619 7.0649C21.4172 7.4726 20.671 8.03101 19.9036 8.79921C19.0585 9.64508 18.3871 10.6966 17.9429 11.3926C17.7977 11.6201 17.6721 11.8168 17.5713 11.9569C17.4659 12.104 17.3071 12.3249 17.0491 12.3249ZM17.3644 11.7339H17.3646H17.3644ZM17.2888 3.11011C17.1566 3.11011 17.0193 3.16998 16.9405 3.34106C16.7181 3.82877 16.6046 4.70276 16.6035 5.93802C16.602 7.99205 16.9282 10.1059 17.1776 11.1379C17.2113 11.0852 17.2456 11.0318 17.2788 10.9797C17.7411 10.2556 18.4397 9.16125 19.3447 8.25551C20.1519 7.44758 20.9557 6.84607 21.4878 6.44791C21.649 6.32715 21.8238 6.19658 21.9468 6.0962C20.8837 4.99951 18.3424 3.46441 17.4531 3.13953C17.4026 3.12147 17.3461 3.11011 17.2888 3.11011Z" fill="#4B2710"/>
<path d="M37.1169 38.145C37.8327 37.9998 38.5478 37.854 39.2615 37.7004L40.3314 37.4682L40.8654 37.3492L41.132 37.2891L41.2649 37.2589L41.3311 37.2437L41.3936 37.229L41.9185 37.0953C42.0941 37.0489 42.2701 37.0045 42.4449 36.9562C42.7958 36.8636 43.1448 36.7642 43.4936 36.6652C43.8421 36.5645 44.1893 36.461 44.5349 36.3534C44.7078 36.3 44.88 36.2448 45.0514 36.1886L45.3075 36.1029L45.4344 36.0593L45.5577 36.0157L46.1573 35.8038L46.1581 36.4285V36.437L45.5561 36.0247C46.0914 35.8263 46.6162 35.6036 47.1264 35.354C47.6361 35.1037 48.1304 34.8256 48.6042 34.5187C48.6628 34.48 48.7227 34.4416 48.7805 34.4026L48.9524 34.2855L49.1207 34.1624C49.1769 34.1198 49.2342 34.0783 49.29 34.0347C49.5142 33.8628 49.7332 33.6845 49.9459 33.5C50.1589 33.3155 50.365 33.1238 50.5649 32.9261C50.6152 32.8768 50.6646 32.827 50.7135 32.7767C50.763 32.7269 50.8111 32.6758 50.8595 32.625C50.9082 32.5744 50.955 32.5223 51.0029 32.4709C51.0267 32.4451 51.0497 32.4188 51.0733 32.393L51.1084 32.354L51.1259 32.3344L51.1348 32.3246L51.1392 32.3197C51.1379 32.3197 51.0987 32.3705 51.1055 32.3628C51.1034 32.3659 51.1084 32.3584 51.1178 32.3455C51.1275 32.3326 51.1426 32.3138 51.1654 32.2913C51.1882 32.2691 51.2198 32.2431 51.2601 32.2203L51.1434 32.3145C51.3268 32.1071 51.5024 31.8952 51.668 31.6777L51.679 31.6632L51.6889 31.6521C51.7175 31.6207 51.7329 31.609 51.7431 31.6003L51.758 31.5887L51.7454 31.5985C51.736 31.6065 51.7211 31.6176 51.6934 31.6483L52.3914 32.2304L51.837 32.9011L51.1178 32.3409C51.3533 32.0364 51.5997 31.7259 51.8967 31.4323C52.0461 31.2857 52.2083 31.1422 52.4045 31.0127C52.5029 30.9482 52.6107 30.8873 52.7339 30.8367C52.8566 30.7864 52.9971 30.7461 53.1533 30.7345C53.1923 30.7317 53.2321 30.7307 53.2724 30.732C53.2925 30.7327 53.3127 30.7335 53.3331 30.7353L53.3791 30.7397C53.4213 30.7441 53.4631 30.7477 53.505 30.7505C53.5884 30.7562 53.6709 30.7588 53.7517 30.7575C53.8323 30.7562 53.9111 30.7513 53.9856 30.7418C54.0602 30.7325 54.1306 30.7185 54.1915 30.7002C54.2527 30.6824 54.3038 30.6594 54.3367 30.6388C54.3697 30.6176 54.3799 30.6024 54.3804 30.6011C54.3794 30.6037 54.3872 30.5887 54.3878 30.5498C54.388 30.5106 54.3802 30.4507 54.3632 30.3833C54.3464 30.3157 54.3221 30.2406 54.2933 30.163C54.2645 30.0853 54.2313 30.0045 54.196 29.9227C54.1251 29.7581 54.0466 29.5901 53.967 29.4149C53.8857 29.235 53.8085 29.0521 53.7381 28.8627C53.703 28.768 53.6696 28.6715 53.6384 28.5716C53.623 28.5215 53.6081 28.4707 53.5939 28.4181L53.5835 28.3781L53.5785 28.3577L53.5759 28.3474C53.5767 28.3512 53.5712 28.327 53.5696 28.3167C53.5673 28.303 53.5652 28.2896 53.5641 28.2754C53.5534 28.1618 53.5816 28.0359 53.6601 27.9291C53.6999 27.8754 53.7509 27.8266 53.8187 27.7879C53.8859 27.7495 53.9691 27.7239 54.056 27.7216C54.1431 27.719 54.2255 27.7402 54.2915 27.7719L54.308 27.7799L54.338 27.7941L54.3987 27.8225C54.4393 27.8413 54.4801 27.8597 54.5212 27.878C54.6034 27.9144 54.686 27.9489 54.7687 27.982C54.9343 28.048 55.101 28.1074 55.2648 28.1551C55.4275 28.2023 55.5908 28.2382 55.7287 28.2488C55.7962 28.254 55.8577 28.2519 55.8935 28.2449C55.9113 28.2418 55.9218 28.2377 55.9225 28.2372C55.9236 28.2364 55.9144 28.2405 55.904 28.2509C55.8932 28.2607 55.8841 28.2759 55.8809 28.2823C55.8778 28.2893 55.8796 28.288 55.8807 28.2769C55.8799 28.2854 55.8815 28.2705 55.8778 28.2452C55.8749 28.2202 55.8689 28.1876 55.8611 28.1525C55.8451 28.0816 55.8221 28.0013 55.7959 27.919C55.7697 27.8367 55.7407 27.7518 55.7101 27.6661C55.5871 27.3219 55.449 26.9655 55.3221 26.6017C55.1947 26.2376 55.0756 25.8645 54.9801 25.479C54.9563 25.3824 54.9338 25.2854 54.9134 25.1874C54.9032 25.1383 54.8932 25.089 54.8841 25.0395L54.8579 24.9002L54.7538 24.3456C54.6143 23.6066 54.4728 22.8681 54.3268 22.1313C54.2538 21.7631 54.1795 21.3951 54.1031 21.0287C54.0649 20.8455 54.0262 20.6626 53.9864 20.4806L53.9257 20.2094L53.8946 20.0758L53.8789 20.0105L53.8645 19.9532L53.8566 19.9191L53.7742 19.6095C53.7439 19.4972 53.7122 19.3847 53.6805 19.2725C53.6167 19.048 53.5505 18.8237 53.482 18.6003C53.3454 18.1533 53.1999 17.709 53.0453 17.2688C52.8907 16.8285 52.7261 16.3927 52.5497 15.9636C52.4616 15.7491 52.3692 15.5368 52.2745 15.3265C52.1787 15.1167 52.0793 14.9092 51.976 14.7051L51.8805 14.516L51.9553 14.3173C52.039 14.0953 52.1128 13.8628 52.18 13.6265C52.2473 13.3898 52.3077 13.1494 52.3637 12.9065C52.4752 12.4209 52.568 11.9275 52.6492 11.4316C52.8101 10.4391 52.922 9.43481 52.9919 8.42973C53.0605 7.42439 53.0871 6.41621 53.051 5.41629C53.0325 4.91646 52.9979 4.41895 52.9383 3.92841C52.8784 3.43864 52.7949 2.95403 52.6667 2.49626C52.6023 2.2679 52.5264 2.04675 52.4349 1.84315C52.343 1.64059 52.2342 1.45402 52.1112 1.31545C52.096 1.29817 52.0806 1.28139 52.0649 1.26591L52.0416 1.24294L52.0223 1.2254C51.9958 1.20243 51.9665 1.18127 51.9344 1.16166C51.87 1.12244 51.7925 1.08967 51.7049 1.06438C51.5288 1.01406 51.3153 0.996512 51.0927 1.00425C50.8695 1.01199 50.6369 1.04244 50.4027 1.08812C50.1685 1.13353 49.9328 1.19392 49.6979 1.26359C49.2277 1.40396 48.7609 1.58176 48.3015 1.78122C47.842 1.98095 47.3897 2.20261 46.9454 2.44053C46.5011 2.6787 46.0652 2.93313 45.6398 3.20253C45.2144 3.47219 44.7992 3.75629 44.4007 4.05717C44.0032 4.35805 43.6194 4.6757 43.2785 5.01426L43.036 5.25501L42.7173 5.1247C42.3769 4.98561 42.026 4.86253 41.6694 4.75131C41.5799 4.72447 41.4915 4.6948 41.401 4.67003L41.1304 4.59287C40.9486 4.54488 40.7673 4.49585 40.5836 4.45224C39.851 4.27341 39.1038 4.13381 38.3518 4.01743C37.5993 3.90312 36.8411 3.8128 36.0808 3.74442C35.7006 3.71036 35.3199 3.68172 34.9395 3.65901C34.7493 3.6474 34.5591 3.63785 34.3696 3.62985C34.2749 3.62572 34.1805 3.62263 34.0866 3.61979C33.9931 3.61721 33.899 3.61514 33.8116 3.61488C33.7242 3.61514 33.63 3.61747 33.5366 3.61979C33.4427 3.62263 33.3482 3.62598 33.2535 3.62985C33.0641 3.63785 32.8738 3.6474 32.6836 3.65901C32.3032 3.68198 31.9225 3.71062 31.5424 3.74468C30.782 3.81332 30.0241 3.90364 29.2716 4.01821C28.5196 4.13484 27.7726 4.27444 27.04 4.45353C26.8564 4.49714 26.6751 4.54617 26.4932 4.59416L26.2227 4.67132C26.1322 4.69635 26.0437 4.72576 25.9542 4.7526C25.5979 4.86408 25.247 4.98716 24.9066 5.12625L24.5866 5.25708L24.3431 5.01503C24.0024 4.67674 23.6186 4.35934 23.2209 4.05846C22.8224 3.75784 22.4072 3.47373 21.9818 3.20434C21.5563 2.93494 21.1204 2.68051 20.6762 2.44259C20.2319 2.20467 19.7795 1.98327 19.3201 1.7838C18.8609 1.58485 18.3941 1.4068 17.9242 1.26668C17.6893 1.19701 17.4535 1.13663 17.2196 1.09147C16.9857 1.0458 16.7534 1.01561 16.5305 1.00787C16.3083 1.00012 16.0951 1.01767 15.9198 1.06773C15.8324 1.09276 15.7555 1.12553 15.6917 1.1645C15.6597 1.18411 15.6307 1.20501 15.6045 1.22798L15.5854 1.24552L15.5624 1.26849C15.547 1.28397 15.5315 1.30075 15.5164 1.31804C15.3939 1.45635 15.2853 1.6424 15.1938 1.8447C15.1022 2.04804 15.0266 2.26919 14.9622 2.4973C14.8343 2.95481 14.7508 3.43916 14.6911 3.92867C14.6317 4.41895 14.5975 4.91646 14.5789 5.41603C14.5431 6.41569 14.57 7.42387 14.6388 8.4287C14.7087 9.43378 14.8209 10.4376 14.9821 11.43C15.0629 11.926 15.1566 12.4191 15.2681 12.9045C15.324 13.147 15.3848 13.3875 15.4517 13.6239C15.5187 13.86 15.5928 14.0925 15.6765 14.3139L15.7526 14.516L15.6553 14.7085C15.5522 14.9126 15.4528 15.1198 15.3573 15.3298C15.2626 15.5401 15.1705 15.7522 15.0823 15.9669C14.9059 16.3958 14.7416 16.8316 14.5873 17.2716C14.4329 17.7116 14.2877 18.1559 14.1511 18.6029C14.0828 18.8263 14.0166 19.0503 13.9528 19.2748C13.9209 19.387 13.8895 19.4993 13.8591 19.6115L13.777 19.9204L13.7689 19.9553L13.7545 20.0123L13.7388 20.0773L13.7076 20.211L13.6472 20.4822C13.6074 20.6639 13.5687 20.8468 13.5305 21.03C13.4541 21.3964 13.3801 21.7644 13.3071 22.1326C13.1613 22.8694 13.02 23.6079 12.8809 24.3469L12.777 24.9014L12.7508 25.0408C12.7414 25.0903 12.7317 25.1396 12.7215 25.1889C12.7008 25.2872 12.6786 25.3845 12.6548 25.481C12.5593 25.8673 12.4402 26.2407 12.3128 26.6051C12.1859 26.9692 12.0478 27.3258 11.9251 27.6697C11.8947 27.7554 11.8657 27.8403 11.8395 27.9224C11.8134 28.0044 11.7903 28.0844 11.7746 28.1549C11.7668 28.1897 11.761 28.222 11.7582 28.2462C11.7548 28.271 11.7563 28.2852 11.7553 28.2751C11.7563 28.2854 11.7579 28.2852 11.7542 28.2769C11.7508 28.2689 11.7404 28.2524 11.7286 28.2413C11.7168 28.2297 11.7061 28.2251 11.7061 28.2251C11.7058 28.2251 11.7084 28.2261 11.7126 28.2274C11.7147 28.2282 11.7181 28.2287 11.721 28.2294L11.7322 28.2318C11.7665 28.2382 11.827 28.2405 11.8937 28.2354C12.0303 28.2248 12.1927 28.1892 12.355 28.1422C12.5182 28.0947 12.6846 28.0354 12.8497 27.9696C12.9324 27.9366 13.0148 27.902 13.097 27.8656C13.138 27.8475 13.1789 27.829 13.2192 27.8104L13.2796 27.782L13.3094 27.7678L13.3259 27.7598C13.3937 27.727 13.4782 27.7056 13.5677 27.7082C13.6569 27.7105 13.7422 27.7368 13.8112 27.7761C13.8808 27.8158 13.9332 27.8659 13.974 27.9208C14.0546 28.0302 14.0833 28.1595 14.0724 28.2759C14.0711 28.2903 14.069 28.304 14.0666 28.3182C14.065 28.329 14.0593 28.3538 14.0601 28.3497L14.0574 28.36L14.0525 28.3807L14.042 28.4209C14.0279 28.4738 14.013 28.5246 13.9975 28.575C13.9664 28.6751 13.9329 28.7716 13.8976 28.8666C13.8272 29.0565 13.7498 29.2397 13.6681 29.4198C13.5886 29.595 13.5101 29.763 13.4395 29.9274C13.4041 30.0092 13.3712 30.0897 13.3424 30.1671C13.3136 30.2445 13.2895 30.3191 13.2728 30.3862C13.256 30.4527 13.2485 30.5118 13.2487 30.5495C13.249 30.5867 13.2566 30.5996 13.2542 30.5944C13.2542 30.5944 13.2555 30.597 13.2615 30.6029C13.2676 30.6089 13.278 30.6176 13.2935 30.6274C13.3251 30.6473 13.3751 30.67 13.4355 30.6873C13.4957 30.7054 13.5656 30.7191 13.6393 30.7283C13.7131 30.7379 13.7916 30.7428 13.8717 30.7441C13.952 30.7454 14.0342 30.743 14.1171 30.7374C14.1587 30.7345 14.2003 30.7309 14.2424 30.7265L14.2887 30.7221C14.3094 30.7201 14.3296 30.7196 14.35 30.7188C14.3908 30.7175 14.4308 30.7185 14.4703 30.7214C14.6283 30.733 14.7702 30.7738 14.8939 30.8243C15.0179 30.8754 15.1265 30.9366 15.2254 31.0013C15.4227 31.1317 15.5854 31.2757 15.7353 31.4227C16.0328 31.7174 16.2796 32.0281 16.5153 32.3329L15.7754 32.9091L15.2212 32.2382L15.9392 31.6395C15.9106 31.6078 15.8952 31.5964 15.8855 31.5881L15.8724 31.5778L15.8876 31.5897C15.8981 31.5985 15.914 31.6106 15.9434 31.6428L15.9536 31.6542L15.9648 31.6689C16.1302 31.8862 16.3057 32.0978 16.4889 32.305L16.3688 32.208C16.4101 32.2312 16.4426 32.258 16.4661 32.2807C16.4897 32.3037 16.5051 32.3233 16.5153 32.3365C16.525 32.3496 16.53 32.3571 16.5279 32.354C16.5349 32.3618 16.4946 32.3096 16.4933 32.3096L16.4978 32.3145L16.5067 32.3243L16.5242 32.344L16.5593 32.3829C16.5828 32.409 16.6058 32.4353 16.6296 32.4608C16.6775 32.5122 16.7243 32.5643 16.773 32.6146C16.8214 32.6652 16.8696 32.7166 16.919 32.7661C16.9679 32.8164 17.0174 32.8662 17.0676 32.9153C17.2675 33.1127 17.4734 33.3041 17.6861 33.4884C17.8989 33.6729 18.1176 33.8509 18.3415 34.0225C18.397 34.0659 18.4543 34.1074 18.5106 34.15L18.6785 34.2731L18.8502 34.3902C18.9077 34.4292 18.9677 34.4677 19.0263 34.5064C19.4996 34.8129 19.9933 35.0908 20.5027 35.3409C21.0124 35.5904 21.5367 35.8128 22.0718 36.0113L21.4545 36.437V36.4285L21.4556 35.7857L22.0725 36.0038L22.1955 36.0471L22.3224 36.0908L22.5783 36.1764C22.7497 36.2327 22.9216 36.2879 23.0945 36.3413C23.4401 36.4487 23.7876 36.5511 24.1361 36.651C24.4849 36.7495 24.8342 36.8481 25.1848 36.9407C25.3598 36.9885 25.5356 37.0331 25.7112 37.0796L26.2358 37.2135L26.2653 37.2207L26.298 37.2282L26.3642 37.2434L26.4971 37.2736L26.7635 37.334L27.2972 37.4535L28.3663 37.6886C29.0795 37.8447 29.7938 37.9936 30.5089 38.145L30.5099 38.1453C30.6303 38.1708 30.7069 38.2877 30.681 38.4064C30.6578 38.5133 30.5591 38.5853 30.4518 38.5798C29.7119 38.5432 28.9767 38.466 28.2446 38.3716C27.8786 38.3239 27.5134 38.2717 27.1489 38.2147C26.9668 38.1861 26.7847 38.1564 26.6026 38.1257L26.3297 38.0785L26.1931 38.054L26.1246 38.0416L26.09 38.0351L26.0524 38.0279C25.8703 37.9894 25.6868 37.952 25.506 37.9118C25.3255 37.871 25.1445 37.8313 24.9647 37.7874C24.6042 37.7025 24.2457 37.6093 23.8883 37.5126C23.5309 37.4153 23.1754 37.3108 22.8208 37.2021C22.6434 37.148 22.4666 37.0917 22.2897 37.0342L22.0241 36.9462L21.891 36.9008L21.7549 36.853L22.3726 36.4283V36.4368L22.3737 37.0889L21.7533 36.861C21.1906 36.6543 20.6361 36.421 20.0951 36.1578C19.5543 35.8944 19.0273 35.5997 18.52 35.2733C18.4567 35.2317 18.3936 35.1915 18.3303 35.1491L18.1401 35.0201L17.9546 34.8852C17.8944 34.84 17.8334 34.7959 17.7741 34.7497C17.5347 34.5673 17.3007 34.3779 17.0729 34.1812C16.8447 33.9846 16.6234 33.7802 16.4085 33.5691C16.3547 33.5165 16.3015 33.4633 16.2487 33.4094C16.1956 33.356 16.1438 33.3013 16.0914 33.2471C16.0391 33.1929 15.9886 33.1372 15.9371 33.0822L15.8609 32.9986L15.823 32.9565L15.8042 32.9356L15.7947 32.9251L15.79 32.9199C15.7879 32.9191 15.7469 32.866 15.7534 32.8729C15.7508 32.8688 15.755 32.8755 15.7641 32.8879C15.7735 32.9003 15.7882 32.9189 15.811 32.9411C15.8337 32.9633 15.8651 32.9891 15.9057 33.0118L15.7856 32.9147C15.5891 32.6936 15.3986 32.4652 15.2168 32.2284L15.2382 32.2544C15.2667 32.2862 15.2822 32.2975 15.2919 32.3058L15.305 32.3161L15.2898 32.3042C15.2793 32.2954 15.2633 32.2833 15.234 32.2511L15.952 31.6524L16.5082 32.3218L15.7683 32.898C15.6542 32.7509 15.5409 32.6079 15.425 32.4712C15.3094 32.3344 15.1914 32.2038 15.0703 32.0851C14.9496 31.967 14.8248 31.8604 14.7045 31.7819C14.6446 31.7427 14.586 31.7112 14.5336 31.6901C14.4813 31.6687 14.4368 31.6588 14.4041 31.6565C14.396 31.656 14.3884 31.6557 14.3814 31.656C14.378 31.6563 14.3743 31.656 14.3712 31.6568L14.3662 31.657L14.3463 31.6591C14.2934 31.6648 14.2401 31.6697 14.1864 31.6733C14.0792 31.6808 13.9706 31.6847 13.8599 31.6831C13.7492 31.6816 13.637 31.6754 13.5213 31.6607C13.406 31.6462 13.2877 31.6245 13.165 31.5887C13.0425 31.5525 12.9146 31.5027 12.7846 31.4222C12.7197 31.3815 12.6543 31.3324 12.5925 31.272C12.5308 31.2119 12.4724 31.1399 12.4256 31.0581C12.3283 30.8891 12.2977 30.7111 12.2958 30.5609C12.2948 30.4102 12.3178 30.2819 12.3458 30.1658C12.3743 30.0499 12.4089 29.9452 12.4455 29.8456C12.4821 29.746 12.5206 29.652 12.5596 29.5604C12.6375 29.378 12.7184 29.2041 12.7942 29.0356C12.868 28.8717 12.9368 28.7071 12.997 28.5432C13.0271 28.4614 13.0551 28.3799 13.0797 28.2999C13.0917 28.2602 13.1032 28.2204 13.1134 28.1825L13.1208 28.1544L13.1242 28.1407L13.1257 28.134C13.1273 28.127 13.1221 28.1489 13.121 28.1569C13.1189 28.168 13.1176 28.1789 13.1166 28.1905C13.1077 28.2834 13.1307 28.3884 13.1972 28.4787C13.2307 28.5244 13.2746 28.5659 13.3338 28.5997C13.3924 28.6333 13.4661 28.6562 13.5433 28.6581C13.6208 28.6604 13.6935 28.6418 13.7505 28.6139L13.7348 28.6214L13.7003 28.6379L13.6315 28.6704C13.5857 28.6919 13.5399 28.7128 13.4939 28.7331C13.4018 28.7742 13.3089 28.8134 13.2147 28.8513C13.0263 28.9269 12.8338 28.9966 12.631 29.0562C12.4274 29.115 12.2163 29.1664 11.9722 29.1873C11.8489 29.1961 11.7171 29.1987 11.563 29.1723C11.486 29.1587 11.4028 29.137 11.3152 29.0988C11.2281 29.0609 11.136 29.0043 11.0556 28.9272C10.9751 28.8508 10.9097 28.7548 10.8686 28.6604C10.8267 28.5657 10.8053 28.4733 10.7953 28.3902C10.7833 28.2865 10.7896 28.206 10.7971 28.1376C10.8053 28.0684 10.817 28.008 10.8296 27.951C10.855 27.8375 10.8845 27.7366 10.9151 27.6388C10.9458 27.5412 10.9779 27.4476 11.0101 27.3557C11.1402 26.9893 11.2739 26.6425 11.3942 26.2941C11.5148 25.9468 11.6237 25.6007 11.7084 25.2552C11.7296 25.1688 11.7493 25.0826 11.767 24.9964C11.7759 24.9533 11.7843 24.9102 11.7924 24.8674L11.8181 24.7291L11.9209 24.173C12.059 23.4314 12.199 22.6903 12.344 21.9489C12.4164 21.5781 12.4902 21.2075 12.5669 20.8365C12.6051 20.6509 12.6441 20.4654 12.6844 20.2791L12.7461 19.9989L12.7788 19.8572L12.7961 19.785L12.8162 19.705L12.8081 19.7398L12.8157 19.7062L12.8188 19.6933L12.8246 19.6699L12.8361 19.625L12.8589 19.5367L12.9054 19.3618C12.9366 19.2454 12.9688 19.1298 13.0012 19.0142C13.0664 18.783 13.1336 18.5528 13.2035 18.3231C13.3426 17.8638 13.4907 17.4071 13.649 16.9529C13.8073 16.4988 13.9763 16.0469 14.1595 15.599C14.2511 15.3747 14.3471 15.1518 14.4465 14.9299C14.547 14.7079 14.6522 14.4873 14.7623 14.2677L14.7411 14.6623C14.6435 14.405 14.5619 14.1493 14.4886 13.8936C14.4154 13.6378 14.3505 13.3824 14.2908 13.1266C14.172 12.6152 14.0742 12.103 13.9899 11.59C13.822 10.5638 13.7055 9.53338 13.6323 8.49888C13.5603 7.46439 13.5305 6.42602 13.5666 5.38223C13.5854 4.8602 13.6205 4.33715 13.6833 3.81203C13.7469 3.28717 13.8353 2.76024 13.9818 2.23151C14.0559 1.96727 14.1451 1.70226 14.2634 1.43803C14.3835 1.17456 14.5294 0.909035 14.7469 0.660023C14.7741 0.629058 14.8023 0.598351 14.8322 0.568417L14.8777 0.52326L14.9298 0.475522C15.0007 0.413591 15.0763 0.358628 15.1545 0.31089C15.311 0.215155 15.4753 0.14858 15.6367 0.102132C15.9604 0.0107844 16.2709 -0.00702064 16.5658 0.00175285C16.8612 0.0118166 17.1438 0.049749 17.4185 0.102648C17.6932 0.155547 17.9598 0.223671 18.2212 0.300826C18.7437 0.45591 19.2458 0.647121 19.7353 0.858975C20.2248 1.07135 20.7013 1.30462 21.1683 1.5544C21.6351 1.80419 22.0916 2.07075 22.5388 2.35331C22.9857 2.63612 23.4229 2.93494 23.8478 3.25543C24.2722 3.57695 24.6855 3.91654 25.0759 4.30335L24.5121 4.19213C24.8865 4.03885 25.2651 3.90622 25.646 3.787C25.7415 3.7581 25.8365 3.72662 25.932 3.7003L26.2188 3.6185C26.4105 3.56766 26.6023 3.51605 26.7946 3.47012C27.5639 3.28201 28.3383 3.13725 29.1146 3.01648C29.8911 2.89804 30.6698 2.80488 31.45 2.73444C31.8401 2.69909 32.2307 2.66967 32.6224 2.64593C32.8181 2.6338 33.0143 2.624 33.2114 2.61548C33.3097 2.61135 33.4086 2.60774 33.5081 2.6049C33.608 2.60206 33.7072 2.59974 33.8131 2.59948C33.9191 2.59974 34.0183 2.60232 34.1182 2.6049C34.2176 2.608 34.3165 2.61135 34.4149 2.61574C34.6119 2.62425 34.8079 2.63406 35.0039 2.64619C35.3955 2.66993 35.7862 2.6996 36.1763 2.73495C36.9565 2.80566 37.7351 2.89907 38.5117 3.01777C39.288 3.13854 40.0624 3.28356 40.8314 3.47193C41.0237 3.51786 41.2155 3.56947 41.4072 3.62056L41.694 3.70262C41.7898 3.7292 41.8847 3.76068 41.98 3.78958C42.3607 3.9088 42.7393 4.04169 43.1137 4.19497L42.5524 4.30567C42.9428 3.91912 43.3559 3.57953 43.7806 3.25827C44.2055 2.93804 44.6427 2.63948 45.0896 2.35666C45.5365 2.0741 45.9933 1.8078 46.46 1.55827C46.9268 1.30875 47.4035 1.07522 47.8928 0.863362C48.3823 0.652024 48.8844 0.460813 49.4066 0.305729C49.668 0.228832 49.9344 0.160708 50.2091 0.107809C50.4836 0.0549099 50.7661 0.0169774 51.061 0.00717178C51.3556 -0.00134368 51.6656 0.0164614 51.9888 0.107551C52.1497 0.153999 52.3137 0.220316 52.4697 0.315792C52.5476 0.363531 52.623 0.418236 52.6936 0.479908L52.7457 0.527388L52.791 0.572288C52.8205 0.602221 52.8488 0.632928 52.876 0.663894C53.0929 0.91239 53.2389 1.17766 53.3587 1.44086C53.4767 1.70484 53.5657 1.9696 53.6397 2.23358C53.7862 2.76205 53.8744 3.28872 53.938 3.81332C54.0008 4.33818 54.0358 4.86124 54.0544 5.383C54.0903 6.42653 54.0604 7.4649 53.9882 8.49914C53.9147 9.53338 53.798 10.5635 53.6298 11.5895C53.5453 12.1025 53.4472 12.6144 53.3284 13.1256C53.2687 13.3813 53.2038 13.6365 53.1306 13.892C53.0573 14.1475 52.9757 14.4029 52.8781 14.6599L52.8574 14.2721C52.9676 14.4914 53.0728 14.7121 53.173 14.9337C53.2721 15.1559 53.3684 15.3789 53.4597 15.6028C53.6426 16.0508 53.8114 16.5024 53.9697 16.9565C54.1277 17.4107 54.2758 17.8674 54.4147 18.3265C54.4843 18.5561 54.5515 18.7863 54.6164 19.0173C54.6489 19.1329 54.6808 19.2485 54.7122 19.3649L54.7585 19.5398L54.7813 19.6281L54.7928 19.673L54.7985 19.6964L54.8017 19.7093L54.809 19.7424L54.8011 19.7083L54.821 19.788L54.8383 19.8603L54.8707 20.002L54.9325 20.2822C54.9728 20.4685 55.0115 20.654 55.0497 20.8396C55.1261 21.2106 55.1999 21.5815 55.2721 21.952C55.4168 22.6934 55.5568 23.4347 55.6944 24.1763L55.797 24.7324L55.8226 24.8707C55.8307 24.9138 55.8391 24.9569 55.848 25C55.8658 25.0862 55.8854 25.1727 55.9066 25.2591C55.9911 25.6051 56.1002 25.9514 56.2205 26.2993C56.3409 26.6479 56.4746 26.995 56.6044 27.3611C56.6366 27.453 56.6687 27.5464 56.6994 27.6439C56.73 27.7415 56.7593 27.8421 56.7846 27.9551C56.7972 28.0119 56.8087 28.072 56.8168 28.1404C56.8244 28.2083 56.8304 28.288 56.8187 28.3902C56.8087 28.4725 56.7875 28.5636 56.7464 28.6568C56.7059 28.7497 56.6418 28.8441 56.5623 28.9192C56.4832 28.9951 56.3924 29.0508 56.3066 29.0882C56.2203 29.1259 56.1381 29.1473 56.062 29.161C55.9097 29.187 55.7786 29.1847 55.6562 29.1757C55.4134 29.155 55.203 29.1037 55 29.0451C54.7978 28.9858 54.6054 28.9161 54.4176 28.8405C54.3237 28.8026 54.2308 28.7633 54.1389 28.7223C54.0929 28.7019 54.0471 28.681 54.0013 28.6596L53.9328 28.6273L53.8985 28.6108L53.8828 28.6033C53.938 28.6304 54.0086 28.6485 54.0837 28.6462C54.1586 28.6444 54.2303 28.6224 54.287 28.5897C54.3443 28.5566 54.387 28.5164 54.4194 28.4723C54.4838 28.3845 54.506 28.2829 54.4974 28.1928C54.4963 28.1814 54.495 28.1711 54.4932 28.1603C54.4922 28.1528 54.4869 28.1314 54.4885 28.1381L54.4901 28.1451L54.4935 28.1587L54.5008 28.1871C54.511 28.2256 54.5225 28.2651 54.5345 28.305C54.5594 28.3853 54.5874 28.4671 54.6175 28.5492C54.6777 28.7133 54.7467 28.8784 54.8205 29.0423C54.8964 29.2108 54.9772 29.385 55.0549 29.5669C55.0939 29.6582 55.1324 29.7522 55.1688 29.8512C55.2051 29.9503 55.2397 30.0548 55.2679 30.1699C55.2957 30.2853 55.3184 30.4128 55.3174 30.5619C55.3155 30.7105 55.2854 30.8863 55.1894 31.053C55.1431 31.1337 55.0858 31.2047 55.0246 31.264C54.9634 31.3236 54.899 31.3719 54.8346 31.4124C54.7059 31.4919 54.579 31.5414 54.4576 31.5773C54.3357 31.6129 54.2182 31.6346 54.1034 31.649C53.9885 31.6635 53.8765 31.6699 53.7664 31.6712C53.6562 31.6725 53.5479 31.6689 53.4409 31.6614C53.3875 31.6578 53.3344 31.6529 53.2815 31.6472L53.2617 31.6452L53.2562 31.6449C53.2528 31.6444 53.2491 31.6447 53.2454 31.6441C53.2381 31.6439 53.23 31.6439 53.2214 31.6447C53.1871 31.647 53.1413 31.6573 53.0879 31.6792C53.0348 31.7006 52.9754 31.7326 52.915 31.7721C52.7933 31.8513 52.668 31.9584 52.5471 32.0771C52.4257 32.1961 52.3075 32.3272 52.1915 32.4639C52.0756 32.601 51.9621 32.7442 51.848 32.8913L51.1288 32.3311L51.685 31.6617L52.3831 32.2438C52.3545 32.2753 52.3391 32.2869 52.3289 32.2957L52.314 32.3073L52.3266 32.2975C52.336 32.2895 52.3509 32.2784 52.3786 32.2477L52.3996 32.2222C52.218 32.459 52.0278 32.6872 51.8315 32.908L51.7148 33.0025C51.7541 32.9803 51.7847 32.9553 51.8069 32.9336C51.8292 32.9119 51.8433 32.8938 51.8525 32.882C51.8614 32.8701 51.8655 32.8637 51.8629 32.8675C51.8692 32.8608 51.8292 32.9124 51.8271 32.9135L51.8224 32.9186L51.813 32.9292L51.7941 32.9501L51.7562 32.9919L51.6803 33.0755C51.6288 33.1305 51.5783 33.1862 51.5259 33.2404C51.4739 33.2946 51.4221 33.3493 51.3689 33.4027C51.3164 33.4564 51.2632 33.5098 51.2093 33.5622C50.9948 33.773 50.7735 33.9774 50.5456 34.1737C50.3177 34.3701 50.084 34.5595 49.8449 34.7417C49.7855 34.7876 49.7248 34.8318 49.6646 34.8769L49.4794 35.0116L49.2894 35.1404C49.2261 35.183 49.1631 35.223 49.1 35.2645C48.5929 35.5907 48.0665 35.8851 47.5262 36.1483C46.9857 36.4112 46.4318 36.6443 45.8693 36.851L45.2664 37.0724L45.2672 36.4386V36.4301L45.8677 36.8429L45.7316 36.8907L45.5987 36.9361L45.3334 37.0241C45.1566 37.0816 44.9797 37.1379 44.8023 37.1921C44.4478 37.3007 44.0919 37.4039 43.7345 37.5004C43.3769 37.5967 43.0184 37.6891 42.6582 37.7737C42.4781 37.8173 42.2976 37.8573 42.1168 37.8978C41.936 37.9383 41.7526 37.9755 41.5708 38.0142C41.56 38.0165 41.5459 38.0191 41.5331 38.0214L41.4986 38.0279L41.43 38.0403L41.2934 38.0648L41.0205 38.1123C40.8387 38.1438 40.6566 38.1727 40.4745 38.2018C40.2924 38.231 40.11 38.2586 39.9277 38.2852C39.7453 38.3123 39.5627 38.3378 39.3798 38.3618C38.6485 38.4588 37.9138 38.5393 37.1747 38.5819C37.0517 38.5891 36.9463 38.4965 36.9392 38.3755C36.9327 38.265 37.0099 38.1688 37.1166 38.1474L37.1169 38.145Z" fill="#4B2710"/>
<path d="M22.2586 30.4316C23.4159 30.4316 24.354 29.9874 24.354 29.4394C24.354 28.8915 23.4159 28.4473 22.2586 28.4473C21.1013 28.4473 20.1631 28.8915 20.1631 29.4394C20.1631 29.9874 21.1013 30.4316 22.2586 30.4316Z" fill="#F27E80"/>
<path d="M45.367 30.4316C46.5243 30.4316 47.4624 29.9874 47.4624 29.4394C47.4624 28.8915 46.5243 28.4473 45.367 28.4473C44.2097 28.4473 43.2715 28.8915 43.2715 29.4394C43.2715 29.9874 44.2097 30.4316 45.367 30.4316Z" fill="#F27E80"/>
<path d="M36.9542 27.8981C36.9542 27.8981 36.4042 29.3212 35.1164 28.9927C33.6507 28.6188 33.8268 26.8948 33.8268 26.8948" fill="white"/>
<path d="M30.6452 27.8981C30.6452 27.8981 31.1952 29.3212 32.483 28.9927C33.9487 28.6188 33.7726 26.8948 33.7726 26.8948" fill="white"/>
<path d="M37.1619 27.9759L37.1477 28.0231L37.1339 28.0652C37.1245 28.093 37.1148 28.1204 37.1041 28.1472C37.0829 28.2012 37.0593 28.2538 37.0345 28.3062C36.9837 28.4102 36.9254 28.5116 36.8576 28.6086C36.7223 28.8024 36.5499 28.9836 36.333 29.1234C36.1179 29.2648 35.8534 29.3536 35.5876 29.3719C35.4549 29.3797 35.3228 29.3727 35.1956 29.3515C35.1632 29.3477 35.1329 29.3394 35.1015 29.3332C35.0708 29.3257 35.0384 29.3206 35.0091 29.311L34.9196 29.2844L34.8749 29.271L34.8307 29.2545L34.7425 29.221C34.7132 29.2096 34.6847 29.1946 34.6559 29.1812C34.6274 29.167 34.5981 29.1552 34.5706 29.1386L34.4874 29.0909C34.3783 29.0241 34.2744 28.9467 34.1826 28.8576C34.1347 28.8151 34.0936 28.766 34.0507 28.7191C34.0117 28.6693 33.9709 28.6207 33.9369 28.5684C33.9005 28.517 33.8704 28.4628 33.839 28.4094C33.811 28.3547 33.782 28.3005 33.7592 28.2443C33.6619 28.0213 33.6093 27.7898 33.5853 27.5612C33.5743 27.4466 33.568 27.3328 33.5722 27.2191C33.5735 27.1623 33.5769 27.1055 33.5818 27.0487C33.5847 27.0204 33.5879 26.9917 33.5915 26.9631L33.5978 26.9197L33.6059 26.872C33.6261 26.7533 33.7399 26.6733 33.8602 26.6929C33.957 26.7089 34.0287 26.7848 34.0423 26.8756L34.0484 26.9158C34.0494 26.922 34.0499 26.9355 34.0507 26.946L34.0531 26.9806C34.0549 27.0041 34.057 27.0276 34.0593 27.0513C34.0646 27.0988 34.0693 27.1463 34.0766 27.1935C34.0913 27.2879 34.1072 27.3816 34.1305 27.4727C34.1758 27.6549 34.2378 27.8288 34.3218 27.9831C34.3419 28.0223 34.3657 28.0585 34.3877 28.0956C34.4126 28.1305 34.4356 28.1666 34.4628 28.1988C34.4874 28.2332 34.517 28.2628 34.5439 28.2943C34.574 28.3227 34.602 28.3532 34.6339 28.379C34.7569 28.4876 34.9029 28.5668 35.0635 28.6238L35.0933 28.6349L35.1247 28.6437L35.187 28.6618C35.2079 28.6687 35.2281 28.6708 35.2488 28.676C35.2692 28.6798 35.2896 28.6865 35.31 28.6886L35.3707 28.6976C35.3911 28.7015 35.4107 28.7007 35.4309 28.7028C35.4712 28.7072 35.5101 28.7051 35.5496 28.7059C35.7053 28.6974 35.8566 28.6605 36.0012 28.5818C36.1459 28.5049 36.2846 28.3942 36.4104 28.2608C36.4735 28.1942 36.5334 28.1225 36.5905 28.0471C36.6192 28.0097 36.6472 27.9712 36.6731 27.9318C36.6865 27.9122 36.6998 27.8928 36.7124 27.8732L36.731 27.844C36.7367 27.8353 36.7435 27.8236 36.7474 27.8193L36.7817 27.7777C36.8584 27.6851 36.9968 27.6711 37.0907 27.7467C37.1603 27.804 37.1857 27.8949 37.1619 27.9759Z" fill="#4B2710"/>
<path d="M30.853 27.8199C30.8567 27.8243 30.8637 27.8362 30.8695 27.8447L30.8881 27.8738C30.9006 27.8935 30.914 27.9128 30.9273 27.9324C30.9535 27.9716 30.9815 28.0101 31.01 28.0478C31.067 28.1231 31.1272 28.1948 31.19 28.2614C31.3158 28.3948 31.4545 28.5055 31.5992 28.5824C31.7436 28.6611 31.8951 28.6983 32.0508 28.7065C32.0903 28.7058 32.1293 28.7078 32.1696 28.7035C32.1897 28.7014 32.2093 28.7022 32.2297 28.6983L32.2904 28.6893C32.3106 28.6872 32.3313 28.6805 32.3517 28.6766C32.3723 28.6717 32.3925 28.6696 32.4134 28.6624L32.4757 28.6444L32.5068 28.6356L32.5367 28.6245C32.6973 28.5675 32.8433 28.4885 32.9663 28.3796C32.9984 28.3541 33.0262 28.3234 33.0563 28.295C33.0832 28.2635 33.1125 28.2338 33.1374 28.1995C33.1646 28.1675 33.1876 28.1314 33.2125 28.0963C33.2344 28.0591 33.2583 28.023 33.2784 27.9838C33.3624 27.8297 33.4244 27.6558 33.4697 27.4734C33.4929 27.3823 33.5089 27.2886 33.5236 27.1942C33.5311 27.1469 33.5356 27.0995 33.5408 27.052C33.5432 27.0282 33.5455 27.0047 33.5471 26.9813L33.5495 26.9467C33.5502 26.9361 33.5508 26.9227 33.5518 26.9165L33.5578 26.8768C33.5756 26.7578 33.6879 26.6755 33.8085 26.693C33.9056 26.7072 33.9786 26.7821 33.994 26.8726L34.0021 26.9204L34.0084 26.9637C34.012 26.9924 34.0152 27.0207 34.0181 27.0494C34.0233 27.1062 34.0264 27.1629 34.0277 27.2197C34.0317 27.3335 34.0256 27.4473 34.0144 27.5619C33.9903 27.7905 33.9377 28.022 33.8404 28.2449C33.8176 28.3012 33.7886 28.3554 33.7606 28.4101C33.7292 28.4635 33.6991 28.5177 33.6627 28.569C33.6287 28.6214 33.5879 28.6702 33.5489 28.7197C33.506 28.7667 33.4652 28.8157 33.4171 28.8583C33.3252 28.9473 33.2214 29.0247 33.1123 29.0915L33.0291 29.1393C33.0016 29.1558 32.9723 29.1677 32.9438 29.1819C32.915 29.195 32.8865 29.21 32.8572 29.2216L32.769 29.2552L32.7248 29.2717L32.68 29.2851L32.5905 29.3117C32.5612 29.3212 32.5288 29.3264 32.4982 29.3339C32.4668 29.34 32.4364 29.3483 32.404 29.3522C32.2768 29.3731 32.1447 29.38 32.0121 29.3726C31.7462 29.3542 31.4817 29.2655 31.2666 29.1241C31.0495 28.9842 30.8771 28.8031 30.7421 28.6093C30.6743 28.512 30.6157 28.4108 30.5652 28.3068C30.5403 28.2545 30.517 28.2018 30.4956 28.1479C30.4849 28.121 30.4752 28.0937 30.4658 28.0658L30.4519 28.0238L30.4378 27.9765C30.4038 27.8617 30.4705 27.7415 30.5872 27.7079C30.6743 27.6829 30.7648 27.7136 30.819 27.7789L30.853 27.8199Z" fill="#4B2710"/>
<path d="M32.034 25.9912C32.034 26.3989 32.5735 26.7591 33.0685 27.004C33.5863 27.26 34.1666 27.26 34.6844 27.004C35.1794 26.7591 35.7189 26.3989 35.7189 25.9912C35.7189 24.7611 32.034 24.7611 32.034 25.9912Z" fill="#4B2710"/>
<g opacity="0.5">
<path opacity="0.5" d="M33.146 25.75C33.146 25.8677 33.3598 25.9714 33.5562 26.0421C33.7616 26.1159 33.9916 26.1159 34.197 26.0421C34.3932 25.9717 34.6073 25.8677 34.6073 25.75C34.607 25.3952 33.146 25.3952 33.146 25.75Z" fill="white"/>
</g>
<path d="M49.7573 48.164C50.8303 48.2323 53.2387 48.0943 54.4932 45.496C55.7478 42.8978 53.9221 37.8169 51.5333 37.1788C51.1871 37.0864 50.5432 37.2373 50.3499 37.7663C49.9689 38.8086 50.9804 40.4848 50.9804 40.4848C50.9804 40.4848 47.279 41.5289 47.2871 43.9184C47.2929 45.5077 47.5697 48.0246 49.7573 48.164Z" fill="white"/>
<g opacity="0.2">
<path opacity="0.2" d="M54.494 45.4951C53.2392 48.0941 50.8308 48.2322 49.7573 48.163C47.5699 48.0239 47.2934 45.5072 47.2876 43.9177C47.2866 43.7303 47.3088 43.5515 47.351 43.3817C47.5121 44.81 48.2861 45.5872 49.9776 45.7805C51.3308 45.9353 53.7041 45.6257 54.494 43.7925C54.6544 43.4202 54.7852 43.0132 54.8475 42.5681C54.9752 43.6449 54.8828 44.6895 54.494 45.4951Z" fill="#4B2710"/>
</g>
<path d="M50.134 48.6142C49.9878 48.6142 49.852 48.6093 49.7287 48.6013C48.5974 48.5293 47.7547 47.8883 47.2913 46.7477C46.9936 46.0146 46.8468 45.0896 46.8429 43.9196C46.8355 41.7863 49.2607 40.6406 50.3475 40.2345C50.2701 40.0732 50.1845 39.8797 50.1052 39.6678C49.7957 38.8392 49.7374 38.1495 49.9318 37.6174C50.0608 37.2641 50.3394 36.9857 50.7157 36.8334C51.0212 36.7098 51.3703 36.6807 51.6495 36.7553C52.7162 37.0401 53.7431 38.0937 54.4665 39.6456C54.9168 40.6117 55.2172 41.7115 55.3122 42.7426C55.4173 43.8837 55.2729 44.9009 54.8946 45.6843C54.3004 46.9152 53.4009 47.774 52.2214 48.2372C51.4647 48.5344 50.7172 48.6142 50.134 48.6142ZM49.786 47.7262C50.9231 47.7985 52.9945 47.5805 54.0921 45.3073C54.7017 44.0445 54.5236 41.8671 53.6589 40.012C53.055 38.7164 52.2169 37.8153 51.4174 37.6019C51.2761 37.5642 50.8737 37.6272 50.7685 37.9149C50.5168 38.6034 51.1288 39.8709 51.3632 40.2608L51.657 40.7495L51.1034 40.9061C51.0699 40.9157 47.7256 41.8888 47.7324 43.9167C47.7361 44.9592 47.8656 45.802 48.1173 46.4218C48.453 47.2494 48.999 47.6762 49.786 47.7262Z" fill="#4B2710"/>
<path d="M24.2499 49.1047C24.2499 49.1047 28.2742 50.6767 28.7031 54.5629C29.3006 59.979 24.6947 63.0352 24.6947 63.0352" fill="white"/>
<path d="M24.3318 48.9009L24.4033 48.9239C24.426 48.9313 24.4485 48.9391 24.4708 48.9471C24.5155 48.9628 24.5595 48.9791 24.6034 48.9956C24.6916 49.0284 24.7774 49.065 24.8635 49.1014C25.0354 49.1747 25.2031 49.2567 25.3692 49.3424C25.7007 49.5145 26.0205 49.7104 26.3271 49.9274C26.9391 50.3617 27.4982 50.8858 27.9553 51.4981C28.0147 51.5729 28.0678 51.6524 28.122 51.7311C28.1489 51.7706 28.1764 51.8098 28.2028 51.8498L28.2784 51.9721L28.3538 52.0945L28.3726 52.1252L28.3899 52.1566L28.4244 52.2199L28.493 52.3466C28.516 52.3886 28.539 52.4307 28.5589 52.4745L28.6824 52.7352L28.7915 53.0023C28.8004 53.0247 28.8101 53.0466 28.8182 53.0693L28.8417 53.1375L28.8886 53.274C28.904 53.3196 28.9202 53.3651 28.9346 53.4107L28.9733 53.5498L29.0118 53.6889L29.0309 53.7586L29.0461 53.829L29.1065 54.1113C29.123 54.206 29.1361 54.3012 29.1507 54.3962C29.1573 54.4434 29.1662 54.4917 29.1709 54.5384L29.1858 54.6782C29.225 55.0514 29.2384 55.4276 29.2298 55.8041C29.2195 56.1803 29.1858 56.5565 29.1282 56.9292C29.1154 57.0226 29.0968 57.1152 29.0809 57.2081C29.0631 57.3007 29.0442 57.3931 29.0241 57.4852C29.0026 57.5771 28.9825 57.6692 28.9574 57.7603L28.9213 57.8971L28.8818 58.0331C28.6688 58.7569 28.3666 59.4536 27.9854 60.1016C27.8909 60.2641 27.791 60.4233 27.6876 60.5797C27.5846 60.7366 27.4765 60.8901 27.365 61.0408C27.1421 61.3425 26.9011 61.63 26.6484 61.9063C26.3959 62.1829 26.1277 62.4451 25.847 62.6941C25.7769 62.7566 25.7055 62.8177 25.6338 62.8784C25.5613 62.9385 25.4883 62.9978 25.414 63.0562C25.3397 63.1145 25.2643 63.172 25.1874 63.2285C25.1489 63.2569 25.11 63.2848 25.0702 63.3129L25.0098 63.355L24.9425 63.3999C24.7395 63.5359 24.4632 63.4837 24.3253 63.2835C24.1911 63.0884 24.2379 62.8244 24.4284 62.6854L24.4462 62.6725L24.4901 62.6405L24.5393 62.6035C24.5723 62.5783 24.6055 62.5527 24.6385 62.5264C24.7047 62.474 24.7706 62.4198 24.8358 62.3649C24.9661 62.2542 25.0945 62.1401 25.2201 62.0229C25.4715 61.7884 25.7109 61.5407 25.9391 61.2839C26.167 61.0266 26.3818 60.7591 26.5822 60.4819C26.6829 60.3436 26.7803 60.2032 26.8729 60.06C26.9658 59.9171 27.0553 59.772 27.1398 59.6242C27.1829 59.5509 27.223 59.4758 27.264 59.4015C27.3033 59.3261 27.3438 59.2516 27.3813 59.1754C27.459 59.0245 27.5296 58.8707 27.5982 58.7159C27.7324 58.4052 27.8504 58.088 27.9451 57.7645C28.0398 57.4409 28.1178 57.1126 28.1722 56.7805C28.2271 56.4484 28.2614 56.1127 28.2742 55.7757C28.2863 55.4387 28.2761 55.1007 28.2494 54.7629L28.2387 54.6362C28.2353 54.5939 28.2285 54.5541 28.2235 54.5131C28.2125 54.4316 28.2033 54.3495 28.191 54.2682L28.1445 54.0257L28.133 53.965L28.1175 53.9051L28.0869 53.7854L28.0566 53.6657C28.0448 53.6262 28.0317 53.5872 28.0191 53.548L27.9817 53.4301L27.9631 53.3713C27.9566 53.3516 27.9485 53.3325 27.9412 53.3135L27.8525 53.0822L27.7507 52.8557C27.7347 52.8175 27.7154 52.7808 27.6963 52.7439L27.6392 52.6332L27.611 52.5778L27.5969 52.5499L27.5812 52.5228L27.5189 52.4144L27.4569 52.306C27.4349 52.2704 27.4119 52.2356 27.3896 52.2005C27.3438 52.1306 27.3017 52.0583 27.252 51.9907C26.8734 51.437 26.4043 50.9351 25.8797 50.4874C25.6175 50.2631 25.3402 50.0536 25.0542 49.8539C24.9103 49.7553 24.7638 49.6603 24.6155 49.5679L24.5032 49.5001L24.3904 49.434C24.3528 49.4123 24.3151 49.3904 24.2772 49.3698L24.167 49.3096L24.1542 49.3027C24.0467 49.2441 24.0077 49.1104 24.0673 49.0044C24.1207 48.9097 24.2324 48.8689 24.3318 48.9009Z" fill="#4B2710"/>
<path d="M20.1325 61.7107C22.8222 61.4183 25.9352 61.9194 26.3376 63.2563C26.7235 64.5383 27.5641 67.1144 21.1757 66.2164" fill="white"/>
<path d="M20.1325 62.8068C20.3688 62.6218 20.6422 62.4812 20.9234 62.365C21.2058 62.25 21.4993 62.1612 21.7968 62.0913C22.3928 61.9524 23.0061 61.8856 23.6236 61.8838C23.9326 61.8833 24.2429 61.9011 24.5542 61.9403C24.8651 61.9821 25.1777 62.0425 25.4886 62.1473C25.644 62.1999 25.7991 62.2634 25.9524 62.3457C26.105 62.4288 26.2567 62.531 26.3946 62.6703C26.4632 62.7402 26.5278 62.8195 26.5827 62.91C26.6102 62.9552 26.6351 63.0032 26.6565 63.053C26.6672 63.078 26.6772 63.1036 26.6861 63.1294L26.7065 63.1905C26.7546 63.3356 26.7999 63.4857 26.8384 63.6403C26.8768 63.7951 26.909 63.9549 26.9297 64.1205C26.9401 64.2034 26.9467 64.2877 26.9506 64.3731C26.9537 64.4588 26.9524 64.5458 26.9475 64.6338C26.9417 64.722 26.9307 64.811 26.9148 64.9006C26.8975 64.9901 26.875 65.0799 26.8457 65.169C26.8151 65.2577 26.7795 65.3457 26.7355 65.4306C26.6908 65.5147 26.6419 65.5978 26.5843 65.6745C26.4721 65.8301 26.3342 65.9635 26.1884 66.0773C26.0422 66.1913 25.8849 66.2809 25.7264 66.3562C25.5676 66.4313 25.4064 66.4907 25.2452 66.5394C25.0838 66.5872 24.9226 66.6238 24.762 66.6543C24.4407 66.7146 24.122 66.7417 23.807 66.7557C23.4917 66.7691 23.1793 66.7665 22.8698 66.7503C22.5603 66.7348 22.2531 66.7095 21.9486 66.6731C21.6437 66.6383 21.3413 66.5947 21.0407 66.5436C20.7986 66.5025 20.6362 66.2757 20.678 66.037C20.7186 65.8053 20.9365 65.6474 21.171 65.6763L21.1741 65.6768C21.4656 65.7132 21.7565 65.747 22.0467 65.7759C22.3371 65.8032 22.6267 65.8272 22.9151 65.8404L23.1309 65.8484L23.346 65.8528C23.4888 65.8543 23.6314 65.8543 23.773 65.8494L23.8789 65.8458L23.9841 65.8399C24.0545 65.8368 24.1238 65.8298 24.1934 65.8246C24.2282 65.8218 24.2625 65.8174 24.297 65.8141C24.3316 65.8105 24.3661 65.8071 24.3999 65.8022L24.5022 65.7893L24.6032 65.7736C24.8708 65.7294 25.1285 65.6636 25.3543 65.5653C25.5804 65.467 25.7693 65.3367 25.8996 65.1723C25.9655 65.0903 26.0168 64.9989 26.0568 64.8983C26.0759 64.8477 26.0922 64.7948 26.1058 64.7398C26.1181 64.6843 26.1283 64.6273 26.1351 64.5685C26.161 64.3321 26.139 64.0707 26.0869 63.8044C26.061 63.671 26.0283 63.5358 25.9919 63.3977L25.9799 63.3528C25.9776 63.3436 25.9747 63.3345 25.9715 63.3252C25.9653 63.3067 25.9571 63.2881 25.9475 63.2692C25.9281 63.2316 25.9012 63.1929 25.8679 63.1547C25.8012 63.078 25.7089 63.0042 25.6031 62.9389C25.4974 62.8729 25.3792 62.8143 25.2546 62.7632C25.0045 62.6618 24.7327 62.5831 24.4538 62.525C24.1751 62.4647 23.8886 62.4247 23.5998 62.3958C23.0218 62.3405 22.4329 62.3369 21.8478 62.3903C21.5553 62.4174 21.2636 62.46 20.9758 62.5248C20.8319 62.557 20.6885 62.5947 20.548 62.6414C20.4064 62.6871 20.268 62.7418 20.1325 62.8068Z" fill="#4B2710"/>
<g opacity="0.2">
<path opacity="0.2" d="M17.2746 63.6216C17.7896 64.1862 17.9923 64.9828 18.5635 65.4738C19.136 65.9662 22.0689 66.4456 23.7693 66.4456H25.8646L26.1045 64.0169C26.1045 64.0169 22.2715 65.4916 19.9842 64.0169C18.3748 62.9788 19.3338 61.9492 18.9894 61.2615C18.5465 60.3808 15.9617 61.31 14.9165 56.9155C14.7053 59.2173 15.2932 61.4519 17.2746 63.6216Z" fill="#4B2710"/>
</g>
<path d="M29.5952 22.9619C29.9017 20.6195 28.7604 18.5437 27.0459 18.3255C25.3314 18.1073 23.6931 19.8292 23.3865 22.1716C23.08 24.514 24.2214 26.5897 25.9359 26.808C27.6504 27.0262 29.2887 25.3042 29.5952 22.9619Z" fill="#4B2710"/>
<path d="M28.5118 21.9331C28.602 21.1234 28.3017 20.4265 27.841 20.3766C27.3804 20.3267 26.9339 20.9427 26.8437 21.7524C26.7535 22.5621 27.0538 23.259 27.5144 23.3089C27.975 23.3588 28.4216 22.7428 28.5118 21.9331Z" fill="white"/>
<path d="M25.2755 23.5942C25.3427 23.1922 25.212 22.8362 24.9834 22.799C24.7549 22.7618 24.5151 23.0575 24.4478 23.4596C24.3806 23.8616 24.5113 24.2176 24.7399 24.2548C24.9684 24.292 25.2082 23.9963 25.2755 23.5942Z" fill="white"/>
<path d="M42.1803 26.8122C43.8948 26.594 45.0362 24.5182 44.7297 22.1758C44.4232 19.8335 42.7848 18.1115 41.0703 18.3297C39.3559 18.5479 38.2145 20.6237 38.521 22.9661C38.8275 25.3085 40.4659 27.0304 42.1803 26.8122Z" fill="#4B2710"/>
<path d="M40.5995 23.3094C41.0601 23.2595 41.3604 22.5626 41.2702 21.7529C41.1801 20.9432 40.7335 20.3273 40.2729 20.3772C39.8123 20.4271 39.512 21.1239 39.6022 21.9337C39.6924 22.7434 40.1389 23.3593 40.5995 23.3094Z" fill="white"/>
<path d="M43.3789 24.2572C43.6075 24.22 43.7383 23.8639 43.671 23.4619C43.6037 23.0599 43.3639 22.7641 43.1354 22.8013C42.9068 22.8385 42.7761 23.1946 42.8433 23.5966C42.9106 23.9986 43.1504 24.2944 43.3789 24.2572Z" fill="white"/>
<path d="M46.7555 35.3003C46.1076 34.2611 44.6919 34.0872 43.6383 34.7261L43.4742 34.8255L43.3735 34.6637C42.7257 33.6245 41.3827 33.1497 40.3291 33.7889C39.2754 34.4278 38.9465 35.7882 39.5944 36.8274L39.6951 36.9892L41.732 40.2563C41.9028 40.5303 42.2665 40.6157 42.5441 40.4472L45.8567 38.4384L46.0208 38.339C47.0744 37.6996 47.4033 36.3394 46.7555 35.3003Z" fill="#FF0660"/>
<g opacity="0.3">
<path opacity="0.3" d="M46.7555 35.3003C46.6731 35.1682 46.5784 35.0503 46.4735 34.946C46.6103 35.8004 46.228 36.6915 45.4342 37.173L45.2702 37.2723L41.9575 39.2812C41.6797 39.4497 41.3163 39.364 41.1454 39.0902L39.3181 36.1596C39.3712 36.3898 39.462 36.6153 39.5941 36.8274L39.6949 36.9892L41.7317 40.2563C41.9026 40.5304 42.2663 40.6158 42.5439 40.4473L45.8565 38.4384L46.0206 38.3391C47.0744 37.6996 47.4033 36.3395 46.7555 35.3003Z" fill="#4B2710"/>
</g>
<g opacity="0.7">
<path opacity="0.7" d="M40.5203 34.4335C41.574 33.7946 42.917 34.2691 43.5648 35.3083L43.6655 35.4701L43.8296 35.3707C44.8832 34.7318 46.2989 34.9057 46.9468 35.9449C46.9918 36.0171 47.0318 36.0912 47.0674 36.1663C47.0273 35.868 46.9253 35.573 46.7552 35.3003C46.1074 34.2611 44.6917 34.0872 43.638 34.7261L43.474 34.8255L43.3733 34.6637C42.7254 33.6245 41.3824 33.1497 40.3288 33.7889C39.3485 34.3834 38.996 35.6022 39.4735 36.606C39.3613 35.7681 39.7435 34.9047 40.5203 34.4335Z" fill="white"/>
</g>
<path d="M42.2364 40.8558C41.928 40.8558 41.6266 40.7028 41.4533 40.4251L39.3155 36.9965C38.5743 35.8074 38.9518 34.2455 40.1574 33.5142C40.7378 33.1622 41.428 33.0822 42.1006 33.2892C42.698 33.4729 43.2192 33.86 43.5805 34.3859C44.1435 34.0775 44.7856 33.964 45.4028 34.0659C46.0977 34.1807 46.677 34.559 47.0339 35.1313C47.7751 36.3204 47.3976 37.8824 46.1919 38.6136L42.7155 40.7221C42.5661 40.8127 42.4002 40.8558 42.2364 40.8558ZM41.3673 33.8223C41.0609 33.8223 40.7639 33.9036 40.5002 34.0636C40.0651 34.3275 39.76 34.7427 39.6417 35.2328C39.5235 35.7228 39.6054 36.2291 39.873 36.6582L42.0109 40.0868C42.087 40.2089 42.2495 40.2471 42.3733 40.172L45.8497 38.0635C46.7479 37.5188 47.0294 36.3547 46.4771 35.4689C46.2207 35.0575 45.801 34.7851 45.2953 34.7017C44.7995 34.6199 44.2579 34.7288 43.8099 35.0005L43.6459 35.0999C43.5721 35.1448 43.4832 35.1587 43.3986 35.1388C43.3141 35.119 43.2414 35.0668 43.1959 34.9941L43.0951 34.8323C42.8196 34.3902 42.3864 34.0522 41.9062 33.9046C41.7262 33.8496 41.5452 33.8223 41.3673 33.8223Z" fill="#4B2710"/>
</svg>
