<svg width="38" height="38" viewBox="0 0 38 38" fill="none" xmlns="http://www.w3.org/2000/svg">
<g clip-path="url(#clip0_165_2272)">
<path d="M0 11.3531C0.220752 10.9564 0.552998 10.8258 1.00834 10.825C3.35848 10.8207 5.71024 10.837 8.05774 10.7454C9.25712 10.6987 10.4482 10.4411 11.651 10.2777C11.4634 9.4316 11.2473 8.69391 11.1454 7.94055C10.9997 6.86494 10.8937 5.77977 10.851 4.69541C10.8016 3.44809 10.8386 2.19731 10.8398 0.948161C10.8404 0.429377 11.0046 0.151675 11.3725 0.0348981C11.709 -0.0719103 12.0148 0.059108 12.3025 0.471897C13.1977 1.75706 14.2176 2.92686 15.4256 3.92985C16.8314 5.09741 18.3911 5.97304 20.1592 6.46477C21.0158 6.703 21.8646 6.97033 22.7248 7.19412C23.9781 7.52024 25.1602 7.9552 25.9494 9.10426C26.0464 9.01433 26.1219 8.95513 26.1848 8.88454C26.8432 8.14583 27.5099 7.41445 28.1547 6.66394C30.4635 3.97603 34.4256 4.40896 36.08 7.54872C36.7015 8.7285 37.2816 9.93024 37.871 11.1269C38.2026 11.8005 37.8765 12.3105 37.1227 12.3171C36.7145 12.3205 36.3062 12.314 35.8979 12.3185C34.508 12.3339 33.5687 13.2653 33.5595 14.6528C33.5504 16.0381 33.5748 17.4237 33.5542 18.8086C33.4922 22.9987 31.5766 26.1482 28.0886 28.3758C26.1512 29.6129 23.9993 30.1392 21.7085 30.1323C20.125 30.1274 18.5413 30.1457 16.958 30.1203C16.6068 30.1146 16.4695 30.2424 16.3458 30.54C15.579 32.3875 14.77 34.2179 14.026 36.0743C13.6502 37.0118 13.12 37.7332 12.1017 37.9991C11.8294 37.9991 11.5572 37.9991 11.285 37.9991C11.2703 37.9806 11.2596 37.9541 11.2404 37.9448C9.68723 37.1914 8.12874 36.4491 6.58287 35.6808C6.14971 35.4656 5.87281 35.077 5.70434 34.6213C5.34585 33.6511 5.64371 32.8495 6.30312 32.1084C8.56231 29.569 10.8073 27.017 13.0569 24.469C13.1246 24.3921 13.1843 24.3081 13.2656 24.2043C12.7539 24.1358 12.2852 24.0971 11.8262 24.0074C8.60402 23.3775 6.15032 21.6391 4.41869 18.859C2.95075 16.5029 1.47324 14.1521 0 11.7985C0 11.6502 0 11.5016 0 11.3531ZM5.41462 17.6135C6.35765 19.34 7.65571 20.6778 9.37818 21.6126C11.3045 22.6579 13.3761 22.8252 15.501 22.6746C16.5285 22.6018 17.5277 22.3758 18.4805 21.9662C19.5256 21.517 20.4546 20.8979 21.2807 20.1165C21.7588 19.6643 22.1793 19.6297 22.5102 19.9865C22.8436 20.3464 22.7923 20.7948 22.2811 21.1929C21.5038 21.7982 20.7264 22.4197 19.8788 22.9139C18.6054 23.6567 17.1956 24.0298 15.7198 24.1474C15.5175 24.1634 15.2624 24.2387 15.1364 24.3801C12.5279 27.3073 9.9328 30.247 7.33872 33.1876C6.83618 33.7573 6.93648 34.2358 7.61664 34.5731C8.81196 35.1657 10.0085 35.7557 11.2054 36.3449C11.8351 36.6549 12.2028 36.5247 12.476 35.8837C13.2168 34.1456 13.9529 32.4056 14.689 30.6655C14.7275 30.5748 14.7493 30.4769 14.7897 30.3479C13.6791 30.7282 12.9393 31.3666 12.4054 32.37C12.3244 32.5222 12.2473 32.6802 12.1419 32.8145C11.9161 33.1022 11.556 33.1712 11.2429 33.008C10.935 32.8477 10.782 32.5028 10.8886 32.161C10.9432 31.9861 11.0229 31.816 11.112 31.6553C12.2266 29.6444 13.9474 28.6577 16.2355 28.6488C18.0666 28.6417 19.8978 28.6449 21.7289 28.6482C23.0522 28.6504 24.3372 28.4476 25.5787 27.9778C29.2944 26.5716 32.1323 23.0329 32.0753 18.7595C32.0564 17.3373 32.0417 15.9138 32.0824 14.4923C32.1225 13.0928 32.7711 12.0188 33.9962 11.3131C34.6179 10.955 35.2995 10.8223 36.0696 10.8213C35.5632 9.82994 35.1213 8.86379 34.5915 7.94829C33.5148 6.08738 30.88 5.83694 29.4483 7.43967C27.759 9.3309 26.0827 11.2335 24.4015 13.1316C24.3651 13.1727 24.3358 13.2199 24.2888 13.2838C24.5714 13.4539 24.8243 13.6061 25.0772 13.7585C25.6589 14.1094 25.8267 14.5059 25.571 14.9246C25.3152 15.3433 24.893 15.3781 24.3069 15.0267C22.526 13.9589 20.7399 12.8997 18.9667 11.8192C17.2937 10.8 15.5397 10.5703 13.6685 11.1702C11.6823 11.807 9.64878 12.2133 7.55906 12.2658C5.8899 12.3077 4.21951 12.3024 2.54953 12.3177C2.41789 12.3189 2.28625 12.3179 2.13631 12.3179C2.15319 12.3887 2.15319 12.4277 2.17069 12.4558C2.75889 13.4 3.34708 14.3442 3.94118 15.2845C3.99042 15.3624 4.0716 15.4438 4.15542 15.4729C5.45958 15.9256 6.74198 16.4734 8.0789 16.7918C10.0233 17.2549 11.9676 17.0301 13.8315 16.305C14.4721 16.0558 15.0652 15.6861 15.688 15.3878C16.2257 15.1303 16.806 15.5044 16.7684 16.0722C16.7464 16.4045 16.5309 16.6006 16.2668 16.7599C13.533 18.4082 10.5932 18.8444 7.48724 18.2123C6.79305 18.0713 6.12143 17.8208 5.41462 17.6135ZM13.1104 9.77746C13.2378 9.74348 13.3336 9.7209 13.4274 9.69221C14.9895 9.21595 16.5629 9.18584 18.0821 9.78458C19.0052 10.1483 19.8664 10.6763 20.738 11.1615C21.491 11.5808 22.2196 12.0438 22.9751 12.4971C23.6406 11.7484 24.2884 11.0197 24.9317 10.296C24.5256 9.53353 23.9616 9.10466 23.0485 8.83449C21.5102 8.37938 19.947 7.9906 18.4424 7.44191C16.3043 6.66211 14.5322 5.29903 12.9704 3.65865C12.7714 3.44951 12.5782 3.23488 12.3407 2.97773C12.2602 5.32649 12.3832 7.5711 13.1104 9.77746Z" fill="#969696"/>
<path d="M22.2864 27.1574C22.2494 27.1574 22.2123 27.1566 22.1753 27.1576C21.6144 27.1713 21.2496 26.8901 21.239 26.4356C21.2288 25.9976 21.5655 25.6955 22.1092 25.677C23.0858 25.644 24.0251 25.445 24.8935 24.9964C27.1873 23.8118 28.4298 21.9179 28.6449 19.348C28.653 19.2495 28.6497 19.1502 28.6573 19.0516C28.6941 18.5698 29.006 18.2484 29.4206 18.2622C29.8396 18.2762 30.1578 18.617 30.1325 19.0933C30.1045 19.6222 30.0839 20.1632 29.9584 20.6738C29.1295 24.0435 27.0143 26.1508 23.6457 26.9845C23.2048 27.0935 22.7423 27.1155 22.2901 27.1778C22.2886 27.1708 22.2876 27.1641 22.2864 27.1574Z" fill="#969696"/>
<path d="M32.822 9.3434C32.4336 9.34808 32.0828 9.00467 32.0779 8.61466C32.073 8.22649 32.4167 7.87596 32.8069 7.87087C33.1951 7.86599 33.5461 8.20961 33.551 8.59961C33.5558 8.98799 33.212 9.33872 32.822 9.3434Z" fill="#969696"/>
<path d="M19.7421 26.4055C19.7518 26.7935 19.4123 27.1476 19.0212 27.1572C18.633 27.1668 18.279 26.8276 18.2692 26.4364C18.2595 26.0484 18.5986 25.6946 18.9901 25.6847C19.3781 25.6747 19.7323 26.0143 19.7421 26.4055Z" fill="#969696"/>
</g>
<defs>
<clipPath id="clip0_165_2272">
<rect width="38" height="38" fill="white"/>
</clipPath>
</defs>
</svg>
