<svg width="37" height="41" viewBox="0 0 37 41" fill="none" xmlns="http://www.w3.org/2000/svg">
<g clip-path="url(#clip0_165_2296)">
<path d="M22.6341 -4.30941e-05C24.0849 0.241109 25.3918 0.815751 26.5616 1.70029C27.3702 2.31171 27.631 3.30661 27.2286 4.1969C26.7121 5.34024 25.3346 5.74414 24.2496 5.07976C23.8067 4.8087 23.3643 4.5289 22.8947 4.31116C22.3756 4.07057 21.8069 3.92008 21.3 4.32454C20.7276 4.78139 20.5017 5.40972 20.5717 6.13745C20.587 6.29612 20.6364 6.45106 20.658 6.60935C20.7535 7.30829 20.8657 8.00611 20.9267 8.70838C20.9508 8.98372 21.0171 9.08739 21.3023 9.13904C23.6582 9.56691 25.8115 10.4615 27.6364 12.0347C28.2486 12.5625 28.7793 13.1846 29.2934 13.7087C30.1434 13.4761 30.9782 13.2044 31.8326 13.0253C32.772 12.8286 33.4837 13.2327 33.8714 14.1103C34.2532 14.975 34.2866 15.8952 34.2387 16.8199C34.1316 18.8961 33.6769 20.9087 33.0881 22.8938C32.9862 23.2375 32.9966 23.5138 33.1894 23.8306C33.4517 24.2612 33.6324 24.7407 33.8766 25.1839C33.933 25.2864 34.1062 25.3873 34.2227 25.3841C34.8636 25.3661 35.5031 25.3041 36.144 25.2797C36.6606 25.26 36.9726 25.5121 36.9914 25.9231C37.0106 26.3419 36.6904 26.6178 36.1601 26.6425C35.6011 26.6685 35.0422 26.6965 34.5525 26.7203C34.6813 27.8036 34.7988 28.8433 34.9374 29.8802C34.9499 29.9733 35.0832 30.0766 35.1846 30.1271C35.6495 30.3588 36.134 30.5529 36.59 30.8C36.9932 31.0185 37.099 31.3996 36.9068 31.7427C36.7045 32.1039 36.3197 32.1875 35.9034 31.9683C35.566 31.7906 35.2246 31.621 34.8897 31.4503C34.6442 32.2783 34.4141 33.0538 34.1716 33.8713C34.2223 33.9116 34.3136 33.9859 34.4061 34.0584C35.4181 34.85 36.0474 35.8776 36.2545 37.1413C36.4495 38.3309 35.9769 39.2536 35.0117 39.9361C34.218 40.4976 33.3051 40.7538 32.3551 40.8723C30.762 41.0709 29.1796 41.0964 27.6624 40.4426C27.5889 40.4108 27.5032 40.3954 27.4426 40.3478C26.7866 39.8317 26.1142 39.9542 25.352 40.1431C20.5334 41.3375 15.7175 41.2903 10.9271 39.9545C10.6374 39.8737 10.4053 39.8847 10.1377 40.0439C8.6773 40.9125 7.07706 41.0895 5.41665 40.9548C4.37019 40.8699 3.34944 40.6971 2.40971 40.1951C0.949168 39.4148 0.416438 38.1619 0.875405 36.5725C1.20287 35.4384 1.87716 34.5531 2.83235 33.8822C2.59486 33.0871 2.3609 32.3029 2.10981 31.4624C1.80806 31.6112 1.48656 31.7566 1.17791 31.9252C0.69845 32.1867 0.32144 32.1334 0.0986619 31.7527C-0.116293 31.3851 0.0187524 31.0024 0.503239 30.7443C0.925512 30.5193 1.37703 30.3493 1.80545 30.1349C1.91442 30.0803 2.04872 29.9577 2.06325 29.8518C2.20313 28.826 2.32011 27.7971 2.4492 26.7214C1.9418 26.6969 1.35617 26.6735 0.771281 26.6388C0.180248 26.6036 -0.146469 26.1403 0.0781723 25.666C0.214708 25.3776 0.457417 25.2613 0.763458 25.2766C1.41745 25.3093 2.07293 25.3323 2.72394 25.3979C2.97801 25.4235 3.08046 25.3481 3.16335 25.1268C3.26599 24.8531 3.36676 24.5637 3.53962 24.3346C4.03807 23.6736 3.99058 23.014 3.76444 22.2503C3.16503 20.2265 2.72301 18.1627 2.79454 16.0349C2.81522 15.419 2.92307 14.7823 3.12424 14.2012C3.45766 13.2388 4.2154 12.8258 5.21157 13.0307C6.04196 13.2015 6.85242 13.4683 7.75359 13.7148C9.97653 10.8161 13.1576 9.44002 16.8746 8.94508C16.7957 8.43267 16.7426 7.93291 16.6392 7.44373C16.0925 4.85645 16.7957 2.70001 18.8575 1.0164C19.4912 0.498983 20.2489 0.236093 21.0467 0.0828182C21.1493 0.0631247 21.2488 0.0278251 21.3498 -0.000228882C21.7778 -4.30941e-05 22.2059 -4.30941e-05 22.6341 -4.30941e-05ZM32.6157 25.6797C32.3281 25.1372 32.0964 24.6246 31.7958 24.1561C31.5324 23.7457 31.5117 23.3706 31.6575 22.9122C32.2897 20.9252 32.7716 18.9014 32.8528 16.8098C32.8784 16.1531 32.7938 15.4818 32.6738 14.8331C32.5865 14.3597 32.3723 14.2499 31.9122 14.3699C31.3336 14.5209 30.7245 14.6536 30.2125 14.9419C28.6791 15.8055 27.1811 16.7326 25.682 17.655C25.3439 17.8631 25.0437 17.932 24.6711 17.7653C20.5734 15.9324 16.4691 15.929 12.3664 17.7488C12.0011 17.9108 11.6951 17.8889 11.3562 17.658C10.4958 17.0716 9.63081 16.4882 8.73616 15.9567C7.60253 15.283 6.481 14.5663 5.12607 14.3849C4.5993 14.3143 4.42384 14.3643 4.32344 14.8903C4.20981 15.4865 4.14518 16.1055 4.16418 16.7112C4.23254 18.8868 4.75372 20.9819 5.40008 23.0482C5.5083 23.3943 5.4757 23.6855 5.29148 23.998C4.97482 24.5349 4.693 25.0923 4.39981 25.6349C5.08454 25.8568 5.73722 26.0184 6.34782 26.2789C7.0698 26.5867 7.76458 26.9628 8.45303 27.3421C8.90529 27.5913 9.01724 27.985 8.8021 28.3421C8.58528 28.7019 8.1917 28.7636 7.75173 28.5057C7.63661 28.4383 7.52429 28.3657 7.40843 28.2991C6.32602 27.678 5.17972 27.2288 3.86335 26.9786C3.70484 27.8882 3.55098 28.7707 3.38874 29.7013C3.56476 29.6812 3.64039 29.6712 3.7162 29.6641C4.75316 29.5675 5.78901 29.4564 6.82746 29.3823C7.24135 29.3527 7.53007 29.655 7.53901 30.034C7.54739 30.3907 7.28568 30.6843 6.89824 30.7294C6.69968 30.7527 6.49627 30.7324 6.29715 30.7527C5.37325 30.8461 4.45029 30.947 3.43475 31.0549C3.65082 31.8256 3.83858 32.4948 4.03193 33.1842C4.17908 33.1437 4.24204 33.1292 4.30314 33.1094C6.41841 32.419 8.33512 32.8065 9.9756 34.2809C11.2556 35.4315 12.0035 36.8275 11.4672 38.6295C11.4617 38.6481 11.4874 38.6758 11.4991 38.699C15.1315 39.9055 23.2628 39.878 25.5205 38.6555C24.9787 36.5312 25.9553 35.0291 27.5691 33.8482C29.1971 32.6568 31.0086 32.5033 32.9741 33.1919C33.1673 32.4779 33.3507 31.7999 33.5614 31.0213C32.3583 30.92 31.2826 30.8272 30.2065 30.7396C29.7431 30.7019 29.443 30.4175 29.4614 30.0192C29.4797 29.6271 29.7736 29.3709 30.2277 29.378C30.6284 29.3843 31.0304 29.399 31.429 29.4375C32.1269 29.5047 32.8227 29.5931 33.6113 29.6831C33.448 28.7612 33.2919 27.8806 33.1289 26.9607C32.6718 27.0804 32.295 27.1328 31.9571 27.2764C31.0632 27.6563 30.1771 28.0576 29.3055 28.4862C28.8095 28.7304 28.4442 28.7198 28.2097 28.3578C27.9739 27.9941 28.0991 27.6251 28.5625 27.3282C28.7085 27.2346 28.8585 27.1471 29.0082 27.0592C30.1113 26.4127 31.2962 25.974 32.6157 25.6797ZM28.054 14.452C23.5105 8.56143 12.7119 9.137 8.97719 14.4661C9.88377 15.0525 10.7967 15.6299 11.6928 16.2322C11.9109 16.3788 12.0752 16.3816 12.3088 16.2828C14.0849 15.5318 15.9385 15.1173 17.868 15.0456C20.2687 14.9562 22.5749 15.3705 24.7857 16.314C24.8926 16.3595 25.0638 16.3857 25.1487 16.332C26.1171 15.7193 27.0749 15.0893 28.054 14.452ZM8.2282 39.4492C8.68326 39.2398 9.13906 39.0821 9.5388 38.8342C10.195 38.4275 10.4074 37.8215 10.2064 37.0717C10.1349 36.8051 10.0296 36.5392 9.89308 36.2993C9.0476 34.8155 7.22626 33.9432 5.53885 34.1981C3.974 34.4346 2.47509 35.6911 2.1344 37.0579C1.98986 37.6381 2.06306 38.1721 2.51439 38.6066C2.9674 39.0429 3.52751 39.2504 4.11128 39.3687C4.11128 38.7971 4.10588 38.2529 4.11277 37.7091C4.11929 37.1876 4.36554 36.8989 4.79116 36.8931C5.22256 36.8872 5.47123 37.1698 5.48017 37.6888C5.48651 38.0619 5.47496 38.4353 5.4839 38.8084C5.49582 39.3085 5.7741 39.621 6.18446 39.6127C6.58233 39.6045 6.8405 39.3059 6.85186 38.8225C6.86061 38.4495 6.84869 38.076 6.85614 37.703C6.86676 37.1787 7.11003 36.8952 7.53808 36.8931C7.96687 36.8911 8.21796 37.1746 8.22616 37.6957C8.2351 38.2531 8.2282 38.8103 8.2282 39.4492ZM32.8892 39.3912C33.0708 39.3351 33.2621 39.2848 33.4472 39.2175C34.973 38.6631 35.3498 37.5716 34.4937 36.1944C33.5344 34.6512 31.5748 33.8129 29.8457 34.2826C28.3425 34.691 27.2143 35.5685 26.7762 37.1354C26.5981 37.7721 26.7726 38.3545 27.3234 38.7278C27.7586 39.0224 28.265 39.2123 28.7732 39.4654C28.7732 38.7828 28.765 38.2247 28.7756 37.6667C28.7849 37.1716 29.0351 36.897 29.451 36.8935C29.8671 36.89 30.1275 37.166 30.143 37.6528C30.1557 38.0523 30.1389 38.4526 30.1497 38.8521C30.1622 39.3082 30.42 39.5982 30.8044 39.6129C31.2001 39.6281 31.4966 39.3245 31.5139 38.8593C31.5285 38.4732 31.5139 38.0864 31.5195 37.7C31.5272 37.1764 31.7687 36.8929 32.1974 36.8933C32.6247 36.8937 32.8795 37.1826 32.8869 37.6987C32.8953 38.2546 32.8892 38.8106 32.8892 39.3912ZM19.5953 8.87318C19.5452 8.42654 19.5063 8.01688 19.4522 7.60926C19.3464 6.80926 19.0786 6.03397 19.2526 5.19811C19.6553 3.26388 21.2781 2.28199 23.134 2.94729C23.7536 3.16931 24.3196 3.54664 24.8984 3.87363C25.2836 4.09119 25.6738 4.05867 25.8992 3.74767C26.1246 3.43684 26.0635 3.00675 25.6967 2.7721C25.1478 2.42058 24.589 2.07093 23.997 1.80265C23.0394 1.36865 22.0283 1.21557 20.9867 1.48812C18.9791 2.01334 17.5515 4.22161 17.8438 6.37954C17.9558 7.20666 18.1221 8.02673 18.2676 8.87336C18.6815 8.87318 19.1045 8.87318 19.5953 8.87318Z" fill="#969696"/>
<path d="M18.4988 35.9598C17.6772 36.7757 16.7179 37.0851 15.5986 36.744C14.5057 36.4109 13.75 35.3998 13.7167 34.2644C13.7089 33.998 13.705 33.7307 13.7171 33.4644C13.735 33.0702 14.0017 32.8021 14.3675 32.7899C14.7335 32.7776 15.0318 33.0297 15.0705 33.4163C15.0956 33.6673 15.0752 33.9228 15.0835 34.1758C15.1085 34.9205 15.6755 35.489 16.4107 35.5115C17.1334 35.5336 17.7722 34.9779 17.8055 34.2449C17.8372 33.5529 17.821 32.8582 17.8083 32.1649C17.8066 32.0729 17.7161 31.9685 17.6423 31.894C17.0913 31.3372 16.4629 30.84 15.9963 30.221C15.3635 29.3816 16.0626 28.1082 17.1807 28.0322C18.059 27.9726 18.9468 27.9819 19.826 28.0337C20.4591 28.071 20.9244 28.4573 21.1494 29.0525C21.3577 29.6034 21.2073 30.1104 20.7905 30.518C20.2972 31.0005 19.7807 31.4592 19.2839 31.938C19.221 31.9986 19.1891 32.1184 19.188 32.2111C19.1804 32.8645 19.1716 33.5183 19.1884 34.1714C19.2079 34.9335 19.8109 35.5124 20.5548 35.5116C21.2999 35.5109 21.8913 34.9298 21.9165 34.1688C21.9243 33.9289 21.9068 33.6876 21.9258 33.449C21.9587 33.0388 22.2562 32.7733 22.6386 32.7899C23.0058 32.8056 23.2887 33.073 23.2781 33.4702C23.2641 33.986 23.287 34.5283 23.1365 35.01C22.5613 36.8514 20.2765 37.4754 18.7987 36.2303C18.6979 36.1455 18.6025 36.0536 18.4988 35.9598ZM17.1875 29.4184C17.174 29.4566 17.1604 29.4951 17.147 29.5334C17.4929 29.8934 17.8156 30.2815 18.198 30.5974C18.3228 30.7005 18.6771 30.7022 18.8002 30.5996C19.1811 30.2819 19.5013 29.8917 19.845 29.5298C19.8317 29.4878 19.8187 29.4459 19.8055 29.4041C18.9328 29.3589 18.0601 29.34 17.1875 29.4184Z" fill="#969696"/>
<path d="M11.6314 23.8828C13.2188 23.8834 14.5514 24.8283 15.0011 26.2923C15.1469 26.7668 14.9912 27.1417 14.5941 27.2722C14.221 27.3948 13.8782 27.1885 13.7117 26.7414C13.271 25.5575 12.3527 25.0665 11.0264 25.3292C10.6491 25.4039 10.2814 25.5304 9.91236 25.6432C9.45451 25.7831 9.10283 25.646 8.95736 25.2584C8.81654 24.8835 9.00616 24.5154 9.45376 24.361C9.84307 24.2265 10.2408 24.1095 10.6425 24.0194C10.9661 23.9471 11.3014 23.9265 11.6314 23.8828Z" fill="#969696"/>
<path d="M24.7541 23.8111C25.4724 23.9991 26.197 24.1665 26.9066 24.3826C27.3248 24.51 27.4912 24.9004 27.3561 25.2733C27.2274 25.6287 26.8563 25.7647 26.4251 25.6541C25.8723 25.5126 25.3172 25.3348 24.7537 25.2889C23.6927 25.2027 22.9777 25.7192 22.615 26.7226C22.4427 27.1991 22.1013 27.4085 21.7079 27.2785C21.3187 27.1499 21.1703 26.7709 21.32 26.2886C21.7818 24.8001 23.1213 23.8637 24.7541 23.8111Z" fill="#969696"/>
</g>
<defs>
<clipPath id="clip0_165_2296">
<rect width="37" height="41" fill="white"/>
</clipPath>
</defs>
</svg>
