<svg width="43" height="23" viewBox="0 0 43 23" fill="none" xmlns="http://www.w3.org/2000/svg">
<g clip-path="url(#clip0_165_2280)">
<path d="M43.0001 12.9759C42.8339 13.829 42.7341 14.7004 42.4892 15.5313C41.8438 17.7208 40.8257 19.7199 39.0612 21.2822C37.7648 22.4299 36.2317 23.0007 34.4758 23.0002C30.2064 22.9991 25.9368 23.0012 21.6674 22.9988C20.7688 22.9983 20.4385 22.6682 20.4955 21.8022C20.5588 20.8389 20.9102 19.9753 21.5167 19.2109C21.585 19.1249 21.6547 19.0398 21.7222 18.9533C21.7288 18.945 21.7254 18.929 21.7327 18.8511C21.1654 18.8511 20.6019 18.8511 20.0382 18.8511C19.4796 18.8511 18.9211 18.8511 18.3035 18.8511C18.3035 19.2502 18.3057 19.6263 18.3033 20.0025C18.2925 21.6562 17.2177 22.7141 15.5212 22.7201C13.2816 22.728 11.0417 22.7239 8.80206 22.721C7.97926 22.7201 7.66487 22.3902 7.70328 21.5905C7.75392 20.5308 8.15713 19.6082 8.8439 18.7949C8.9058 18.7218 8.96818 18.6491 9.02886 18.575C9.03645 18.5658 9.03547 18.5498 9.05112 18.4814C8.38687 18.4176 7.72921 18.3447 7.06984 18.2925C5.5226 18.1701 4.06734 17.8013 2.82225 16.8422C1.53508 15.8508 0.827025 14.5091 0.429693 13.0016C0.23592 12.266 0.113343 11.5085 0.0159676 10.7538C-0.126426 9.652 0.707874 8.31153 1.83479 7.87726C5.09493 6.62112 8.36509 5.38928 11.6372 4.16315C11.9203 4.05715 12.047 3.92589 12.1153 3.63549C12.5797 1.65921 14.4868 0.341612 16.4708 0.609611C17.436 0.739918 18.1504 1.26639 18.6691 2.03679C18.8474 2.30169 19.0045 2.3036 19.2773 2.23261C21.6246 1.62205 23.9599 0.953602 26.3309 0.446191C28.5809 -0.0354917 30.8765 -0.156508 33.17 0.230601C36.0918 0.723719 38.4246 2.16138 40.2072 4.45188C41.5896 6.22782 42.531 8.19671 42.8699 10.4172C42.9127 10.6978 42.9565 10.9782 42.9998 11.2588C43.0001 11.831 43.0001 12.4035 43.0001 12.9759ZM19.4821 3.97782C19.6536 5.127 19.5513 6.21662 19.0507 7.23978C18.4985 8.36871 17.6679 9.18723 16.3139 9.3235C16.1018 9.34494 15.8594 9.31397 15.6666 9.22988C15.3138 9.07575 15.156 8.76797 15.2017 8.39205C15.2489 8.00209 15.4723 7.71503 15.8794 7.66429C16.5087 7.58591 16.9985 7.32125 17.299 6.7762C17.9649 5.56747 17.96 4.3423 17.287 3.14619C16.9956 2.62853 16.5667 2.25524 15.8679 2.32028C14.7185 2.42748 13.8387 3.25982 13.7797 4.4028C13.7462 5.05005 13.458 5.3788 12.8246 5.61011C9.41102 6.856 6.01461 8.14716 2.61478 9.42855C2.13573 9.60912 1.71735 10.1859 1.78928 10.5982C1.92727 11.3886 2.04618 12.1883 2.27323 12.9561C2.84794 14.8995 4.15958 16.1066 6.23383 16.4344C7.17113 16.5826 8.12312 16.6416 9.06899 16.7384C10.3628 16.8706 11.6585 16.9864 12.9501 17.1371C13.4675 17.1977 13.7394 17.5643 13.7115 18.0481C13.6865 18.4798 13.3396 18.8068 12.8537 18.8461C12.6587 18.8619 12.4617 18.8545 12.2662 18.8669C11.0669 18.9438 9.89081 19.8841 9.64884 20.977C9.7741 20.983 9.89521 20.9939 10.0166 20.9939C11.8224 20.9951 13.6283 20.9959 15.4339 20.9942C16.2266 20.9935 16.5263 20.7052 16.528 19.9346C16.5314 18.4081 16.5283 16.8815 16.5297 15.355C16.53 15.0825 16.518 14.8081 16.5471 14.5382C16.5936 14.1082 16.9276 13.8113 17.3516 13.7868C17.7898 13.7616 18.1399 14.001 18.2512 14.425C18.292 14.5808 18.3001 14.7476 18.3013 14.9095C18.3065 15.6292 18.3035 16.3489 18.3035 17.0838C20.2163 17.0838 22.0917 17.0838 23.9624 17.0838C23.6621 16.6104 23.3292 16.1819 23.1048 15.7047C22.8743 15.2149 22.6661 14.6889 22.593 14.1599C22.1839 11.1952 23.2051 8.72485 25.4357 6.70855C26.1915 6.02533 27.0728 5.52459 28.0316 5.15677C28.3956 5.01718 28.7475 5.0348 29.0462 5.309C29.3038 5.54531 29.3741 5.84523 29.283 6.17112C29.18 6.53941 28.8605 6.68544 28.5373 6.83266C25.8247 8.06736 24.3873 10.1463 24.2706 13.0564C24.2192 14.3397 24.7536 15.4129 25.7283 16.2769C26.5656 17.0192 27.5775 17.3063 28.6819 17.3837C29.1908 17.4194 29.493 17.7472 29.5116 18.1989C29.5297 18.637 29.2346 18.9862 28.748 19.0813C28.599 19.1103 28.4419 19.1082 28.2885 19.1087C27.2947 19.1118 26.3004 19.0939 25.307 19.117C23.9303 19.1489 22.6803 20.0873 22.452 21.235C22.5218 21.2424 22.5903 21.256 22.659 21.256C26.6485 21.2569 30.6382 21.2572 34.6277 21.2565C35.8429 21.2562 36.8879 20.8312 37.8059 20.0677C38.9445 19.1203 39.6416 17.8825 40.2278 16.5783C41.1176 14.5984 41.4487 12.5369 41.0621 10.3929C40.7 8.38538 39.7607 6.64256 38.4403 5.0803C37.0548 3.44087 35.2934 2.40437 33.1578 1.98605C31.7199 1.70447 30.2688 1.70638 28.8121 1.84121C25.6158 2.13708 22.568 3.03565 19.4821 3.97782Z" fill="#969696"/>
<path d="M10.5721 10.7526C10.5721 10.9837 10.5912 11.2166 10.5682 11.4456C10.5188 11.9354 10.1537 12.2553 9.68005 12.2493C9.20907 12.2434 8.84428 11.9125 8.81859 11.4203C8.7951 10.9727 8.79412 10.5217 8.82202 10.0746C8.85138 9.60364 9.20858 9.28729 9.66439 9.27466C10.1415 9.26156 10.5114 9.5722 10.5657 10.0596C10.5912 10.2881 10.5701 10.5213 10.5701 10.7526C10.5706 10.7526 10.5714 10.7526 10.5721 10.7526Z" fill="#969696"/>
<path d="M31.0761 6.29332C30.4887 6.29309 30.0659 5.92742 30.0752 5.42763C30.0845 4.92832 30.509 4.56646 31.0918 4.56146C31.6768 4.55622 32.0991 4.91283 32.1057 5.41786C32.1128 5.94957 31.7083 6.29356 31.0761 6.29332Z" fill="#969696"/>
</g>
<defs>
<clipPath id="clip0_165_2280">
<rect width="43" height="23" fill="white"/>
</clipPath>
</defs>
</svg>
