<svg width="21" height="20" viewBox="0 0 21 20" fill="none" xmlns="http://www.w3.org/2000/svg">
<path d="M1.08716 8.61108H19.9131V11.7889H1.08716V8.61108Z" fill="#99AAB5"/>
<path d="M10.5001 7.02222C5.3014 7.02222 1.08716 9.15609 1.08716 11.7889C1.08716 12.3503 1.28871 12.8868 1.64086 13.3868C2.11594 14.0621 2.87341 14.669 3.85568 15.1647C5.55832 16.0238 7.90657 16.5556 10.5001 16.5556C13.7171 16.5556 16.5543 15.7373 18.252 14.49C18.7127 14.1516 19.082 13.7803 19.3594 13.3868C19.7115 12.8863 19.9131 12.3503 19.9131 11.7889C19.9131 9.15609 15.6988 7.02222 10.5001 7.02222Z" fill="#99AAB5"/>
<path d="M1.64087 10.209V13.3868C2.11595 14.062 2.87341 14.669 3.85568 15.1647V11.987C2.87341 11.4912 2.11595 10.8843 1.64087 10.209ZM19.3594 13.3868V10.209C19.082 10.603 18.7127 10.9738 18.252 11.3122V14.49C18.7127 14.1521 19.082 13.7808 19.3594 13.3868Z" fill="#E1E8ED"/>
<path d="M10.5001 13.3778C15.6988 13.3778 19.9131 11.2437 19.9131 8.61115C19.9131 5.97859 15.6988 3.84448 10.5001 3.84448C5.30149 3.84448 1.08716 5.97859 1.08716 8.61115C1.08716 11.2437 5.30149 13.3778 10.5001 13.3778Z" fill="#CCD6DD"/>
<path d="M10.5001 12.3187C15.121 12.3187 18.8671 10.5403 18.8671 8.34649C18.8671 6.15269 15.121 4.37427 10.5001 4.37427C5.8791 4.37427 2.13306 6.15269 2.13306 8.34649C2.13306 10.5403 5.8791 12.3187 10.5001 12.3187Z" fill="#FF871D"/>
<path d="M10.5001 5.43353C14.742 5.43353 18.2375 6.93344 18.784 8.87612C18.8328 8.7024 18.8671 8.52656 18.8671 8.34649C18.8671 6.15276 15.1213 4.37427 10.5001 4.37427C5.87886 4.37427 2.13306 6.15276 2.13306 8.34649C2.13306 8.52656 2.16683 8.7024 2.21611 8.87612C2.76262 6.93344 6.25815 5.43353 10.5001 5.43353Z" fill="#99AAB5"/>
<path d="M6.90111 8.08148C7.35982 8.08148 7.73167 7.84435 7.73167 7.55185C7.73167 7.25934 7.35982 7.02222 6.90111 7.02222C6.44241 7.02222 6.07056 7.25934 6.07056 7.55185C6.07056 7.84435 6.44241 8.08148 6.90111 8.08148Z" fill="#F5F8FA"/>
<path d="M5.23998 9.1408C5.69868 9.1408 6.07053 8.90368 6.07053 8.61117C6.07053 8.31867 5.69868 8.08154 5.23998 8.08154C4.78128 8.08154 4.40942 8.31867 4.40942 8.61117C4.40942 8.90368 4.78128 9.1408 5.23998 9.1408Z" fill="#F5F8FA"/>
<path d="M9.11596 8.61126C9.57466 8.61126 9.94651 8.37414 9.94651 8.08163C9.94651 7.78913 9.57466 7.552 9.11596 7.552C8.65725 7.552 8.2854 7.78913 8.2854 8.08163C8.2854 8.37414 8.65725 8.61126 9.11596 8.61126Z" fill="#F5F8FA"/>
<path d="M6.90111 10.2001C7.35982 10.2001 7.73167 9.96301 7.73167 9.6705C7.73167 9.37799 7.35982 9.14087 6.90111 9.14087C6.44241 9.14087 6.07056 9.37799 6.07056 9.6705C6.07056 9.96301 6.44241 10.2001 6.90111 10.2001Z" fill="#F5F8FA"/>
<path d="M12.438 10.7297C12.8967 10.7297 13.2685 10.4925 13.2685 10.2C13.2685 9.90753 12.8967 9.67041 12.438 9.67041C11.9793 9.67041 11.6074 9.90753 11.6074 10.2C11.6074 10.4925 11.9793 10.7297 12.438 10.7297Z" fill="#F5F8FA"/>
</svg>
