<svg width="14" height="15" viewBox="0 0 14 15" fill="none" xmlns="http://www.w3.org/2000/svg">
<path d="M8.14923 13.146C9.35496 14.4019 11.3289 14.4019 12.5356 13.146C13.7414 11.89 13.7414 9.83385 12.5356 8.57677L9.27656 5.18188L4.89014 9.75107L8.14923 13.146Z" fill="#FF871D"/>
<path d="M9.27662 5.18184L6.01753 1.78695C4.81179 0.530977 2.8379 0.530977 1.63111 1.78695C0.425373 3.04293 0.425373 5.09906 1.63111 6.35614L4.8902 9.75103L9.27662 5.18184Z" fill="#FDD835"/>
<path d="M9.50114 5.41608L5.11472 9.98538L4.88989 9.7514L9.27631 5.18188L9.50114 5.41608Z" fill="#C62828"/>
<path opacity="0.65" d="M7.65871 4.40361C8.94709 5.86597 11.2844 8.62514 11.2844 8.62514C11.5874 8.9132 12.0038 9.65597 11.7315 9.91202C11.4412 10.1857 10.7652 9.60851 10.4622 9.32045L5.51741 4.47424C5.21545 4.18619 4.20467 3.25359 4.40174 2.5969C4.77363 1.35748 6.22412 2.77459 7.65871 4.40361Z" fill="white"/>
</svg>
