<svg width="11" height="21" viewBox="0 0 11 21" fill="none" xmlns="http://www.w3.org/2000/svg">
<path d="M6.05458 5.34757L7.0386 4.84912V8.00594H4.81543L6.05458 5.34757Z" fill="#FED0AC"/>
<path d="M4.52393 6.80976C5.17994 7.17529 4.81549 8.00603 4.81549 8.00603C5.72663 8.00603 6.38265 6.37778 6.38265 5.34766L4.52393 6.80976Z" fill="#E0A372"/>
<path d="M6.71063 1.22729L2.70163 2.49002C2.19139 3.32077 2.55585 3.78598 2.5194 4.15151C2.5194 4.31766 2.15495 4.61672 1.97272 4.78287C1.53537 5.11517 2.26428 5.41424 2.5194 5.34778C2.70163 5.7133 2.19139 5.91268 3.39409 5.7133C3.39409 5.7133 2.15495 6.17852 3.02964 6.41113C2.95675 6.84311 2.84741 7.67386 5.36215 6.80988C6.09106 6.54405 6.38262 5.34778 6.38262 5.34778L7.62177 5.1484L6.71063 1.22729Z" fill="#FED0AC"/>
<path d="M3.86778 0.928124C6.49185 0.130611 7.94967 1.36011 8.16834 1.92501C8.82436 3.38712 8.27768 5.04861 7.03853 6.27811C7.03853 6.27811 6.45541 6.0455 6.34607 5.3809C6.34607 5.3809 7.00209 5.64674 7.29365 4.38401C7.54877 3.32066 6.30962 2.75576 5.69005 4.21786H5.50782C5.14337 3.48681 5.79939 2.55638 4.8518 2.29054C4.05 2.0247 2.59219 2.6893 2.59219 2.6893C2.33707 2.22408 2.81086 1.26042 3.86778 0.928124Z" fill="#99AAB5"/>
<path d="M3.5396 4.15144C3.5396 4.38405 3.39382 4.5502 3.21159 4.5502C3.02936 4.5502 2.99292 4.35082 2.99292 4.15144C2.99292 3.91883 3.02936 3.75269 3.21159 3.75269C3.39382 3.75269 3.5396 3.95206 3.5396 4.15144Z" fill="#664E27"/>
<path d="M6.05444 4.45037C6.05444 4.01839 6.45534 3.61963 6.85624 3.61963C6.85624 3.61963 6.16378 4.1513 6.34601 4.88236C6.34601 4.88236 6.05444 4.78267 6.05444 4.45037Z" fill="#E0A372"/>
<path d="M3.79493 5.61353C3.79493 5.61353 3.2847 5.94582 3.13892 6.01228C2.77446 6.17843 2.73802 6.07874 2.92024 5.91259C3.06603 5.77967 3.39403 5.67999 3.39403 5.67999L3.79493 5.61353Z" fill="#664E27"/>
<path d="M2.04544 19.5368C1.35297 19.5368 0.733398 20.002 0.733398 20.6001H3.68548C4.01349 20.6001 4.37795 20.3675 4.37795 20.0685V19.5368H2.04544ZM8.64207 18.839C8.13183 19.2377 8.0225 19.9355 8.45984 20.3675L10.683 18.706C10.9381 18.5067 11.0475 18.1411 10.7924 17.9085L10.3915 17.5098L8.64207 18.839Z" fill="#99AAB5"/>
<path d="M5.98169 8.17224L7.5124 12.2595L8.86088 12.193L7.1115 7.40796L5.98169 8.17224Z" fill="#D19224"/>
<path d="M8.16825 11.9605L7.54868 12.0602C7.33001 12.0934 7.18422 12.2928 7.22067 12.4922L7.29356 12.758C7.33001 12.8909 7.43934 12.9906 7.58512 13.0238C7.69446 13.3561 7.94958 13.8213 8.71493 13.6884C8.82427 13.6552 9.55318 13.5555 9.37095 12.8245C9.11583 11.7943 9.11584 11.7943 8.16825 11.9605Z" fill="#FED0AC"/>
<path d="M7.73099 13.057C8.27767 12.9241 8.09544 12.4257 8.02255 12.0934C8.02255 12.0269 7.91321 12.0601 7.91321 12.1266C7.9861 12.4257 8.16833 12.8576 7.69454 12.9573C7.65809 12.9906 7.69454 13.0902 7.73099 13.057Z" fill="#E0A372"/>
<path d="M7.51222 12.8575H3.28454C3.28454 12.8575 2.99298 10.033 4.08634 8.23856C4.88814 6.87614 7.11132 7.44105 7.11132 7.44105L7.51222 12.8575Z" fill="#FFAA27"/>
<path d="M7.51223 15.5825V12.8577H3.28456L2.26408 15.8816L2.04541 19.5368H4.37792L4.74238 16.3136L5.10683 15.649L5.21617 16.7123L8.71493 18.7726L10.4279 17.5431L7.51223 15.5825Z" fill="#3E4347"/>
<path d="M6.30951 8.70385C6.3824 8.37155 6.12728 8.03925 5.72638 7.97279C5.32548 7.90633 4.96103 8.13894 4.88814 8.47124L4.48724 10.465L2.44629 11.7277L3.32098 12.7579L5.61705 11.329C5.72638 11.2625 5.83572 11.1296 5.87216 11.0299C5.90861 10.9635 5.90861 10.9302 5.90861 10.8638L6.30951 8.70385Z" fill="#FF8500"/>
<path d="M3.1753 12.2262L2.81085 11.6945C2.66506 11.4951 2.40994 11.4287 2.19127 11.5616L1.89971 11.6945C1.75393 11.761 1.64459 11.9271 1.68104 12.06C1.31658 12.2926 0.879234 12.6582 1.31658 13.3228C1.38947 13.4224 1.79037 14.0206 2.59217 13.6218C3.72198 13.0237 3.72198 13.0237 3.1753 12.2262Z" fill="#FED0AC"/>
</svg>
