<svg width="17" height="18" viewBox="0 0 17 18" fill="none" xmlns="http://www.w3.org/2000/svg">
<path d="M4.30703 9.80093C3.43231 9.80093 2.7127 9.81727 2.04267 9.84996C1.92753 9.8559 1.8044 9.85738 1.67807 9.85887C0.875308 9.86778 0.382778 9.91533 0.307619 10.5126C0.277236 10.7503 0.291628 11.0786 0.526699 11.3C0.614651 11.3832 0.721792 11.4352 0.833731 11.4916C1.02403 11.5852 1.24151 11.6922 1.38223 11.9566C1.8012 12.753 2.46164 13.4141 3.28999 13.8702C3.54105 14.0084 3.8049 14.0975 4.08475 14.1941C4.28144 14.2609 4.47653 14.3278 4.66683 14.411C5.0906 14.5952 5.40243 14.8953 5.50317 15.2162C5.57673 15.4509 5.53515 15.6916 5.38484 15.9115C5.22492 16.1447 4.97546 16.274 4.75798 16.3869C4.44935 16.5474 4.25905 16.6588 4.21748 16.9247C4.19989 17.0376 4.22707 17.1312 4.30063 17.2129C4.44455 17.3734 4.7292 17.4536 4.95147 17.4611C5.29209 17.4744 5.60552 17.4893 5.89656 17.5012C6.62576 17.5339 7.20144 17.5591 7.78672 17.5591C8.69982 17.5591 9.56175 17.4908 10.6651 17.3288C10.8315 17.3051 10.945 17.2545 11.0058 17.1788C11.0649 17.103 11.0809 16.9871 11.0553 16.8356C11.0058 16.5474 10.7643 16.4226 10.4301 16.2785C10.0047 16.0957 9.95833 15.8788 9.88157 15.5163C9.73925 14.8433 10.3133 14.4763 10.7771 14.1822C10.9866 14.0485 11.3959 13.683 11.5303 13.5404C12.2403 12.7812 12.6736 11.9061 12.6513 10.9419C12.6513 10.8929 12.6704 10.8454 12.7072 10.8112C12.744 10.7755 12.7952 10.7562 12.8479 10.7562H15.5761C15.8671 10.7562 16.1054 10.5363 16.1054 10.2645V2.77073C16.1049 2.64043 16.049 2.51557 15.9499 2.42344C15.8507 2.3313 15.7163 2.27936 15.5761 2.27897H12.2291C11.9396 2.27897 11.7014 2.49885 11.7014 2.77073V7.81161C11.7014 7.89778 11.6374 7.97058 11.5479 7.9899C11.4519 8.00772 11.3656 7.96612 11.3256 7.88887C11.268 7.7715 11.2056 7.65562 11.1433 7.54716C10.8634 7.05392 10.6524 6.52948 10.4477 6.02286C10.3741 5.84013 10.2989 5.6559 10.2238 5.47465C10.0815 5.14335 9.72966 4.39308 9.38904 3.66807C9.01485 2.87324 8.62786 2.05166 8.47434 1.68916C8.33202 1.35043 8.02339 0.910667 7.73075 0.766556C7.66519 0.733872 7.57564 0.717529 7.47009 0.717529C7.34216 0.717529 7.25581 0.719015 7.18385 0.735357C6.95997 0.782899 6.75848 1.07558 6.7281 1.30734C6.64974 1.8719 6.89761 2.45428 7.15986 3.00398C7.42692 3.56705 8.48394 5.85796 8.75419 6.45668C9.02444 7.05392 9.30109 7.66305 9.58094 8.25286L9.69607 8.50097C9.85279 8.84267 10.0143 9.19478 10.2446 9.47854C10.2909 9.53499 10.2973 9.61076 10.2638 9.67168C10.2302 9.73259 10.163 9.76973 10.0879 9.76973H10.0831C9.68968 9.75933 9.29629 9.75339 8.90291 9.75339C8.23448 9.75487 7.60122 9.76676 6.96797 9.77864C6.29634 9.79053 5.6279 9.8039 4.95627 9.8039L4.30703 9.80093Z" fill="#E0E0E0"/>
<path d="M11.6868 8.4756C11.6868 8.4756 12.5216 9.15901 13.601 9.20506C14.6804 9.25112 16.0812 9.18278 16.1052 8.24829V10.6417C16.1068 10.9834 15.9613 11.0696 15.7294 11.0696H11.3926L11.6868 8.4756Z" fill="#B0BEC5"/>
<path d="M7.43338 0.534689C7.33423 0.534689 7.23349 0.536174 7.13914 0.556974C6.81612 0.625315 6.57145 0.998219 6.53307 1.28347C6.44672 1.90448 6.71537 2.52103 6.97923 3.07667C7.25108 3.64717 8.3129 5.94996 8.57195 6.52492C8.83901 7.11473 9.11725 7.72831 9.4003 8.32407C9.64816 8.84405 9.86724 9.44872 10.331 9.84094C10.5964 10.0653 11.6695 10.2584 11.8789 9.67306C12.0037 9.32541 11.8885 8.99262 11.6886 8.47264C11.2313 7.28707 10.5916 5.843 10.4061 5.40621C10.1119 4.7124 8.94935 2.3175 8.65831 1.6222C8.51439 1.2805 8.18656 0.784282 7.82356 0.604515C7.71642 0.552517 7.58689 0.533203 7.46856 0.533203C7.45417 0.534689 7.44297 0.534689 7.43338 0.534689Z" fill="#E0E0E0"/>
<path d="M10.9082 11.854C10.646 11.8674 10.4189 11.8792 10.4189 11.8748C10.4461 12.1823 10.534 12.4364 10.4637 12.7469C10.3837 13.0916 10.2286 13.4318 10.0111 13.7215C9.80483 13.9948 9.55376 14.1924 9.26592 14.3781C8.99887 14.5505 8.66305 14.7808 8.51433 15.0556C8.36722 15.3245 8.38481 15.6811 8.50154 15.9574C8.7542 16.5561 9.16998 17.1816 8.44237 17.6347C8.38481 17.6704 8.19611 17.7061 8.2041 17.7729C8.42158 17.8011 8.63747 17.8086 8.85815 17.8294C9.03085 17.8457 9.20516 17.8784 9.37786 17.862C9.56976 17.8457 9.76485 17.7788 9.95834 17.7536C10.187 17.7224 10.4125 17.7506 10.6364 17.7283C11.0298 17.6882 11.4983 17.4074 11.4967 17.0063C11.4951 16.8176 11.5447 16.5799 11.4375 16.412C11.3112 16.2144 11.0713 15.9723 10.8858 15.8178C10.6955 15.6588 10.4157 15.586 10.2798 15.3631C10.0127 14.9249 10.8315 14.5951 11.0761 14.341C11.4519 13.9503 11.8533 13.5833 12.1475 13.1317C12.2771 12.9326 12.3682 12.7142 12.4386 12.4913C12.469 12.3948 12.4754 12.2967 12.4962 12.2031C12.5153 12.1214 12.5761 12.0546 12.5921 11.9714C12.6497 11.6816 11.8821 11.805 11.6934 11.8124C11.6374 11.8139 11.244 11.8362 10.9082 11.854Z" fill="#B0BEC5"/>
<path d="M0.296631 11.4692H12.9233V12.2581H0.296631V11.4692Z" fill="#B0BEC5"/>
</svg>
