<svg width="18" height="18" viewBox="0 0 18 18" fill="none" xmlns="http://www.w3.org/2000/svg">
<g clip-path="url(#clip0_361_2)">
<path d="M9.01185 15.6841C7.19846 15.6841 5.38461 15.6855 3.57122 15.6836C2.79096 15.6826 2.18757 15.191 2.03373 14.4232C1.94575 13.9837 2.03235 13.5745 2.27186 13.1996C2.64357 12.6186 3.01435 12.0371 3.3773 11.4509C3.42935 11.3664 3.46159 11.2525 3.46206 11.1517C3.46758 9.71617 3.4639 8.28016 3.4662 6.84464C3.47035 4.28723 4.95487 2.12164 7.26755 1.29699C10.3103 0.211302 13.7022 2.21525 14.376 5.51092C14.4668 5.95533 14.5101 6.41808 14.5156 6.87311C14.5331 8.29657 14.5202 9.72051 14.5262 11.144C14.5266 11.2496 14.5621 11.3698 14.6174 11.4586C14.9716 12.0299 15.3345 12.5949 15.6979 13.16C16.0466 13.7019 16.107 14.2712 15.8108 14.8503C15.5137 15.4308 15.0222 15.6851 14.4014 15.6846C12.6045 15.6836 10.8082 15.6841 9.01185 15.6841Z" fill="#2E2B2B"/>
<path d="M11.0582 16.4651C10.8104 17.3389 9.91589 18 8.99377 18C8.07256 18 7.17669 17.338 6.92981 16.4651C8.30471 16.4651 9.67638 16.4651 11.0582 16.4651Z" fill="#2E2B2B"/>
</g>
<circle cx="13" cy="3" r="3" fill="#FF8500"/>
<defs>
<clipPath id="clip0_361_2">
<rect width="14" height="17" fill="white" transform="translate(2 1)"/>
</clipPath>
</defs>
</svg>
