<svg width="41" height="41" viewBox="0 0 41 41" fill="none" xmlns="http://www.w3.org/2000/svg">
<path d="M33.9531 13.1328C33.1296 13.1328 32.3245 13.377 31.6397 13.8346C30.9549 14.2921 30.4212 14.9425 30.106 15.7034C29.7909 16.4642 29.7084 17.3015 29.8691 18.1092C30.0297 18.917 30.4263 19.659 31.0087 20.2413C31.591 20.8237 32.333 21.2203 33.1408 21.3809C33.9485 21.5416 34.7858 21.4591 35.5466 21.144C36.3075 20.8288 36.9579 20.2951 37.4154 19.6103C37.873 18.9255 38.1172 18.1205 38.1172 17.2969C38.113 16.1938 37.6729 15.1371 36.8929 14.3571C36.1129 13.5771 35.0562 13.137 33.9531 13.1328V13.1328ZM33.9531 19.5391C33.5097 19.5391 33.0762 19.4076 32.7074 19.1612C32.3387 18.9148 32.0513 18.5646 31.8816 18.1549C31.7119 17.7452 31.6675 17.2944 31.754 16.8594C31.8405 16.4245 32.0541 16.025 32.3677 15.7114C32.6812 15.3978 33.0808 15.1843 33.5157 15.0978C33.9506 15.0113 34.4015 15.0557 34.8112 15.2254C35.2209 15.3951 35.5711 15.6825 35.8174 16.0512C36.0638 16.4199 36.1953 16.8534 36.1953 17.2969C36.1953 17.8915 35.9591 18.4619 35.5386 18.8823C35.1181 19.3028 34.5478 19.5391 33.9531 19.5391V19.5391ZM11.2109 17.2969C11.2109 16.4733 10.9667 15.6682 10.5092 14.9834C10.0516 14.2987 9.40128 13.765 8.64039 13.4498C7.87951 13.1346 7.04226 13.0522 6.23451 13.2128C5.42676 13.3735 4.68479 13.7701 4.10244 14.3524C3.52009 14.9348 3.1235 15.6768 2.96283 16.4845C2.80215 17.2923 2.88462 18.1295 3.19978 18.8904C3.51495 19.6513 4.04867 20.3016 4.73345 20.7592C5.41822 21.2167 6.2233 21.4609 7.04688 21.4609C8.14996 21.4567 9.20665 21.0167 9.98665 20.2367C10.7667 19.4567 11.2067 18.4 11.2109 17.2969V17.2969ZM7.04688 19.5391C6.60341 19.5391 6.16991 19.4076 5.80118 19.1612C5.43246 18.9148 5.14507 18.5646 4.97537 18.1549C4.80566 17.7452 4.76126 17.2944 4.84777 16.8594C4.93429 16.4245 5.14784 16.025 5.46141 15.7114C5.77499 15.3978 6.17451 15.1843 6.60945 15.0978C7.04439 15.0113 7.49522 15.0557 7.90492 15.2254C8.31463 15.3951 8.66481 15.6825 8.91119 16.0512C9.15756 16.4199 9.28906 16.8534 9.28906 17.2969C9.28906 17.8915 9.05283 18.4619 8.63234 18.8823C8.21185 19.3028 7.64154 19.5391 7.04688 19.5391V19.5391ZM14.7344 13.7734C15.558 13.7734 16.363 13.5292 17.0478 13.0717C17.7326 12.6141 18.2663 11.9638 18.5815 11.2029C18.8966 10.442 18.9791 9.60476 18.8184 8.79701C18.6578 7.98926 18.2612 7.24729 17.6788 6.66494C17.0965 6.08259 16.3545 5.686 15.5467 5.52533C14.739 5.36465 13.9017 5.44712 13.1409 5.76228C12.38 6.07745 11.7296 6.61117 11.2721 7.29595C10.8145 7.98072 10.5703 8.7858 10.5703 9.60938C10.5745 10.7125 11.0146 11.7692 11.7946 12.5492C12.5746 13.3292 13.6313 13.7692 14.7344 13.7734V13.7734ZM14.7344 7.36719C15.1778 7.36719 15.6113 7.49869 15.9801 7.74507C16.3488 7.99144 16.6362 8.34162 16.8059 8.75133C16.9756 9.16103 17.02 9.61186 16.9335 10.0468C16.847 10.4817 16.6334 10.8813 16.3198 11.1948C16.0063 11.5084 15.6067 11.722 15.1718 11.8085C14.7369 11.895 14.286 11.8506 13.8763 11.6809C13.4666 11.5112 13.1164 11.2238 12.8701 10.8551C12.6237 10.4863 12.4922 10.0528 12.4922 9.60938C12.4922 9.01471 12.7284 8.4444 13.1489 8.02391C13.5694 7.60342 14.1397 7.36719 14.7344 7.36719V7.36719ZM26.2656 13.7734C27.0892 13.7734 27.8943 13.5292 28.5791 13.0717C29.2638 12.6141 29.7976 11.9638 30.1127 11.2029C30.4279 10.442 30.5103 9.60476 30.3497 8.79701C30.189 7.98926 29.7924 7.24729 29.2101 6.66494C28.6277 6.08259 27.8857 5.686 27.078 5.52533C26.2702 5.36465 25.433 5.44712 24.6721 5.76228C23.9112 6.07745 23.2609 6.61117 22.8033 7.29595C22.3458 7.98072 22.1016 8.7858 22.1016 9.60938C22.1058 10.7125 22.5458 11.7692 23.3259 12.5492C24.1059 13.3292 25.1625 13.7692 26.2656 13.7734V13.7734ZM26.2656 7.36719C26.7091 7.36719 27.1426 7.49869 27.5113 7.74507C27.88 7.99144 28.1674 8.34162 28.3371 8.75133C28.5068 9.16103 28.5512 9.61186 28.4647 10.0468C28.3782 10.4817 28.1647 10.8813 27.8511 11.1948C27.5375 11.5084 27.138 11.722 26.7031 11.8085C26.2681 11.895 25.8173 11.8506 25.4076 11.6809C24.9979 11.5112 24.6477 11.2238 24.4013 10.8551C24.1549 10.4863 24.0234 10.0528 24.0234 9.60938C24.0234 9.01471 24.2597 8.4444 24.6802 8.02391C25.1007 7.60342 25.671 7.36719 26.2656 7.36719V7.36719ZM29.8051 24.1195C28.4202 23.3525 27.3953 22.0685 26.9543 20.548C26.545 19.1534 25.6949 17.9289 24.5314 17.0578C23.3679 16.1867 21.9535 15.7159 20.5 15.7159C19.0465 15.7159 17.6321 16.1867 16.4686 17.0578C15.3051 17.9289 14.455 19.1534 14.0457 20.548C13.6047 22.0685 12.5798 23.3525 11.1949 24.1195C9.82511 24.8667 8.79462 26.1115 8.31631 27.5967C7.83801 29.082 7.94843 30.6942 8.62478 32.1003C9.30113 33.5065 10.4917 34.5991 11.9506 35.1526C13.4095 35.706 15.0253 35.678 16.4641 35.0742C17.7433 34.5429 19.1148 34.2694 20.5 34.2694C21.8852 34.2694 23.2567 34.5429 24.5359 35.0742C25.9748 35.678 27.5905 35.706 29.0494 35.1526C30.5083 34.5991 31.6989 33.5065 32.3752 32.1003C33.0516 30.6942 33.162 29.082 32.6837 27.5967C32.2054 26.1115 31.1749 24.8667 29.8051 24.1195V24.1195ZM26.9063 33.6328C26.3446 33.6325 25.7888 33.518 25.2727 33.2965C23.7578 32.6761 22.137 32.3552 20.5 32.3516C18.858 32.3568 17.2323 32.6776 15.7113 33.2965C15.2014 33.5198 14.6505 33.6344 14.0938 33.6328C13.1665 33.6324 12.2659 33.3224 11.5347 32.7521C10.8035 32.1818 10.2836 31.3838 10.0574 30.4845C9.83123 29.5852 9.91167 28.6362 10.286 27.7878C10.6603 26.9394 11.3071 26.2403 12.1238 25.8012C13.9527 24.7847 15.3056 23.0864 15.8875 21.0766C16.1786 20.0786 16.7855 19.2019 17.6172 18.5781C18.4489 17.9544 19.4604 17.6172 20.5 17.6172C21.5396 17.6172 22.5511 17.9544 23.3828 18.5781C24.2145 19.2019 24.8214 20.0786 25.1125 21.0766C25.6944 23.0864 27.0473 24.7847 28.8762 25.8012H28.8922C29.7101 26.2409 30.3576 26.9415 30.7317 27.7915C31.1057 28.6415 31.1849 29.5921 30.9567 30.4923C30.7284 31.3925 30.2058 32.1905 29.4719 32.7595C28.738 33.3286 27.8349 33.636 26.9063 33.6328V33.6328Z" fill="black"/>
</svg>
