<svg width="127" height="188" viewBox="0 0 127 188" fill="none" xmlns="http://www.w3.org/2000/svg">
<path d="M0 121.469L36.2547 85.1635L0 48.7971V25.8389L60.1422 86.0209L0 144.787V121.469Z" fill="white"/>
<path d="M0 153.491L68.2065 85.4338L0 17.8594V0H6.32123L91.327 85.4338L0 176.417V153.491Z" fill="white"/>
<path d="M66.3792 116.488L84.9674 135.028V188H103.801V130.214L78.6908 104.692L66.3792 116.488Z" fill="white"/>
<path d="M82.4171 100.154L108.346 127.425V188H126.521V120.427L95.0161 88.2085L82.4171 100.154Z" fill="white"/>
<path d="M0 56.5782L17.3744 74.4701V95.5064L0 113.156V56.5782Z" fill="white"/>
<path d="M22.7204 80.1896L28.0664 85.4167L22.7204 90.8815V80.1896Z" fill="white"/>
<path d="M39.6493 143.45V188H22.7204V161.27L39.6493 143.45Z" fill="white"/>
<path d="M0 183.423L17.3744 165.725V188H0V183.423Z" fill="white"/>
</svg>
