<svg width="20" height="21" viewBox="0 0 20 21" fill="none" xmlns="http://www.w3.org/2000/svg">
<path fill-rule="evenodd" clip-rule="evenodd" d="M2.5 17.375V9.25H3.75V17.375C3.75 17.5408 3.81585 17.6997 3.93306 17.8169C4.05027 17.9342 4.20924 18 4.375 18H15.625C15.7908 18 15.9497 17.9342 16.0669 17.8169C16.1842 17.6997 16.25 17.5408 16.25 17.375V9.25H17.5V17.375C17.5 17.8723 17.3025 18.3492 16.9508 18.7008C16.5992 19.0525 16.1223 19.25 15.625 19.25H4.375C3.87772 19.25 3.40081 19.0525 3.04917 18.7008C2.69754 18.3492 2.5 17.8723 2.5 17.375ZM16.25 3.625V8L13.75 5.5V3.625C13.75 3.45924 13.8158 3.30027 13.9331 3.18306C14.0503 3.06585 14.2092 3 14.375 3H15.625C15.7908 3 15.9497 3.06585 16.0669 3.18306C16.1842 3.30027 16.25 3.45924 16.25 3.625Z" fill="#2E2B2B"/>
<path fill-rule="evenodd" clip-rule="evenodd" d="M9.11631 2.37499C9.35072 2.14065 9.6686 2.009 10.0001 2.009C10.3315 2.009 10.6494 2.14065 10.8838 2.37499L19.1926 10.6825C19.3099 10.7998 19.3758 10.959 19.3758 11.125C19.3758 11.291 19.3099 11.4501 19.1926 11.5675C19.0752 11.6848 18.916 11.7508 18.7501 11.7508C18.5841 11.7508 18.4249 11.6848 18.3076 11.5675L10.0001 3.25874L1.69256 11.5675C1.5752 11.6848 1.41603 11.7508 1.25006 11.7508C1.08409 11.7508 0.924915 11.6848 0.807557 11.5675C0.690199 11.4501 0.624268 11.291 0.624268 11.125C0.624268 10.959 0.690199 10.7998 0.807557 10.6825L9.11631 2.37499Z" fill="#2E2B2B"/>
<path d="M10.8143 11.2428C11.3714 11.2428 11.7143 10.4286 11.7143 9.91427C11.7143 9.4857 11.5 8.97142 11.0714 8.97142C10.5143 8.97142 10.1714 9.7857 10.1714 10.3C10.1714 10.7286 10.3857 11.2428 10.8143 11.2428ZM9.18568 11.2428C9.61425 11.2428 9.82854 10.7286 9.82854 10.3C9.82854 9.74284 9.48568 8.92856 8.92854 8.92856C8.49997 8.92856 8.28568 9.44284 8.28568 9.87142C8.24283 10.4286 8.58568 11.2428 9.18568 11.2428ZM12.3571 10.8143C11.8 10.8143 11.4143 11.5857 11.4143 12.1428C11.4143 12.5286 11.5857 12.9143 11.9714 12.9143C12.5285 12.9143 12.9143 12.1428 12.9143 11.5857C12.9143 11.2 12.7 10.8143 12.3571 10.8143ZM8.62854 12.1428C8.62854 11.5857 8.19997 10.8143 7.68568 10.8143C7.29997 10.8143 7.12854 11.2 7.12854 11.5857C7.12854 12.1428 7.55711 12.9143 8.0714 12.9143C8.45711 12.9143 8.62854 12.5286 8.62854 12.1428ZM9.99997 12.0571C9.14283 12.0571 7.98568 13.4286 7.98568 14.3714C7.98568 14.8 8.28568 14.9286 8.62854 14.9286C9.14283 14.9286 9.52854 14.5857 9.99997 14.5857C10.4285 14.5857 10.8143 14.9286 11.2857 14.9286C11.6285 14.9286 12.0143 14.8428 12.0143 14.3714C12.0143 13.4286 10.8571 12.0571 9.99997 12.0571Z" fill="#2E2B2B"/>
</svg>
