<svg width="37" height="36" viewBox="0 0 37 36" fill="none" xmlns="http://www.w3.org/2000/svg">
<g clip-path="url(#clip0_768_17)">
<path d="M0 32.4078C0.168359 31.8382 0.373829 31.2872 0.830932 30.8695C1.39484 30.3541 2.06556 30.1097 2.83494 30.1177C3.34002 30.1231 3.8451 30.1186 4.41625 30.1186C3.27756 27.6268 3.15627 25.1235 4.13022 22.5624C3.8804 22.4211 3.62514 22.294 3.3889 22.1402C1.49803 20.9059 0.380165 18.5341 1.61932 15.9152C3.3011 12.3606 6.09893 10.274 10.0201 9.62172C10.2998 9.57551 10.4346 9.48398 10.5016 9.18095C11.0492 6.67404 11.9996 4.32799 13.5049 2.21831C13.991 1.5376 14.5467 0.914652 15.2654 0.456104C16.7399 -0.484984 18.161 0.0713157 18.5611 1.75621C18.6742 2.23342 18.715 2.72662 18.7865 3.20117C19.3938 2.96656 19.9903 2.68308 20.6185 2.50979C21.0702 2.38538 21.5744 2.32495 22.0369 2.38005C23.086 2.50446 23.6861 3.24116 23.677 4.28533C23.6698 5.15799 23.3593 5.95067 22.9565 6.71137C21.9029 8.70018 20.4284 10.3593 18.7258 11.8283C18.1846 12.2957 17.5853 12.6974 17.0278 13.1461C16.93 13.2252 16.835 13.4012 16.8549 13.5132C17.0178 14.4294 16.8739 15.2994 16.5082 16.1454C16.453 16.2724 16.415 16.4066 16.3552 16.5772C16.5317 16.5772 16.6621 16.5772 16.7915 16.5772C19.4527 16.579 22.1147 16.5426 24.7759 16.5906C29.4067 16.6741 33.2128 19.8733 34.0483 24.3397C34.1071 24.6525 34.2284 24.7796 34.5507 24.8542C35.9401 25.1768 36.9566 26.4733 36.9991 27.9192C37.0398 29.3135 36.0632 30.6482 34.7072 31.0704C34.1307 31.2499 33.5514 31.2961 32.9675 31.1503C32.7195 31.0881 32.6245 31.2143 32.5086 31.3761C31.2686 33.1187 29.623 34.3308 27.5647 34.9965C26.5735 35.3173 25.5507 35.4577 24.5089 35.4577C17.3075 35.4594 10.1061 35.4594 2.90464 35.4568C1.40118 35.4559 0.419087 34.6899 0.0515938 33.2476C0.0398268 33.2023 0.0181031 33.1605 0.000905155 33.1169C0 32.8806 0 32.6442 0 32.4078ZM18.8951 30.1186C18.8951 29.9427 18.8933 29.8147 18.8951 29.6876C18.9322 27.633 19.8319 26.0601 21.625 24.9919C22.723 24.3379 23.9404 24.2526 25.1823 24.2952C25.7245 24.3139 26.0585 24.592 26.0666 25.0328C26.0739 25.4807 25.7236 25.782 25.1669 25.7962C24.8302 25.8051 24.4926 25.7944 24.1559 25.8042C22.5012 25.8531 21.0059 26.9585 20.6058 28.5386C20.4402 29.1917 20.4628 29.8947 20.4384 30.5763C20.4112 31.3583 20.1668 31.6187 19.373 31.6196C18.3131 31.6213 17.2532 31.6098 16.1932 31.6258C15.422 31.6373 14.8997 32.2852 15.0373 33.0183C15.1441 33.5897 15.6456 33.9585 16.3435 33.9594C19.077 33.9629 21.8115 33.9692 24.5451 33.9532C25.1081 33.9496 25.6847 33.9132 26.2296 33.787C29.0727 33.1303 31.1056 31.5271 32.1339 28.7936C33.011 26.4609 32.8861 24.1842 31.5863 22.0425C29.9905 19.4138 27.5773 18.1022 24.4645 18.0791C21.4657 18.0569 18.467 18.0746 15.4682 18.0746C15.3722 18.0746 15.2754 18.0764 15.1794 18.0737C14.5169 18.056 14.1811 17.5477 14.4454 16.9514C14.5458 16.7248 14.6726 16.5088 14.7848 16.2867C15.2763 15.3127 15.6157 14.328 15.2003 13.2243C15.0437 12.8093 15.1849 12.5436 15.5777 12.2939C17.4161 11.1262 18.9956 9.68215 20.3262 7.97948C21.0829 7.01173 21.769 5.99777 22.0731 4.7892C22.2876 3.93875 22.0487 3.69882 21.1897 3.90854C20.0591 4.18491 19.0879 4.77765 18.171 5.45391C16.2557 6.86599 14.6246 8.53933 13.39 10.5673C13.1827 10.9085 12.8921 11.0205 12.4875 11.0231C11.672 11.0276 10.841 10.9991 10.0454 11.1422C6.77327 11.7296 4.40629 13.5052 3.04041 16.5053C2.08186 18.6105 2.97977 20.6091 5.17477 21.312C5.9523 21.5608 6.09893 21.9092 5.75407 22.6912C4.59909 25.3074 4.75568 27.8383 6.27091 30.2786C6.46099 30.5843 6.59948 30.8926 6.38858 31.2383C6.19035 31.5636 5.87083 31.6249 5.51511 31.6231C4.56379 31.6178 3.61247 31.6116 2.66115 31.6302C2.08819 31.6409 1.64919 32.0505 1.54781 32.6131C1.4582 33.1107 1.75328 33.6599 2.24931 33.8474C2.45659 33.9256 2.69465 33.9576 2.91822 33.9576C6.42298 33.9638 9.92773 33.9621 13.4325 33.9612C13.5239 33.9612 13.6162 33.9514 13.7412 33.9434C13.6914 33.7968 13.6199 33.6777 13.6144 33.555C13.5909 33.0787 13.4868 32.5766 13.5981 32.1279C13.9104 30.8589 14.9287 30.1408 16.3064 30.1222C17.1445 30.1097 17.9863 30.1186 18.8951 30.1186ZM11.9852 9.41111C12.0259 9.44754 12.0675 9.48398 12.1083 9.52041C12.2205 9.41644 12.359 9.32846 12.4413 9.20494C13.4895 7.63113 14.7694 6.25904 16.2294 5.05046C17.2477 4.20713 17.2749 4.22401 17.1934 2.89725C17.1717 2.53823 17.0866 2.17299 16.9689 1.83175C16.8386 1.45407 16.6512 1.39097 16.3091 1.6007C16.0068 1.78554 15.7062 1.99793 15.4682 2.25475C13.5764 4.29866 12.6685 6.80379 11.9852 9.41111ZM33.5704 29.7045C34.3859 29.8493 35.2377 29.222 35.4404 28.3031C35.6215 27.4811 35.0032 26.4591 34.3153 26.3703C34.0655 27.4864 33.8175 28.5963 33.5704 29.7045Z" fill="black"/>
<path d="M31.5211 25.6875C31.5211 25.8288 31.5356 25.9719 31.5184 26.1105C31.4713 26.4829 31.1889 26.7326 30.8187 26.7477C30.4395 26.7628 30.1308 26.5522 30.0611 26.1799C29.9724 25.7062 29.9615 25.2157 29.8457 24.7491C29.2709 22.4306 27.2262 20.8053 24.8022 20.6986C24.5831 20.6888 24.3387 20.6391 24.1577 20.5271C23.8671 20.3467 23.7839 20.0463 23.8934 19.7158C24.0011 19.3896 24.2763 19.2066 24.6754 19.2074C25.8286 19.2083 26.9229 19.4749 27.9195 20.0348C30.1426 21.2834 31.3338 23.1824 31.5211 25.6875Z" fill="black"/>
<path d="M7.39148 16.3122C6.89093 16.3113 6.47456 15.9007 6.47547 15.4111C6.47637 14.9223 6.89636 14.5136 7.39691 14.5144C7.89837 14.5153 8.31474 14.925 8.31383 15.4155C8.31293 15.9043 7.89113 16.314 7.39148 16.3122Z" fill="black"/>
</g>
<defs>
<clipPath id="clip0_768_17">
<rect width="37" height="35.4583" fill="white"/>
</clipPath>
</defs>
</svg>
