<svg width="37" height="28" viewBox="0 0 37 28" fill="none" xmlns="http://www.w3.org/2000/svg">
<path d="M0 6.85163C0.279493 6.29168 0.453541 6.20104 1.07732 6.24572C2.81 6.36932 4.42035 6.8584 5.78569 7.96896C6.34159 8.42106 6.80257 8.992 7.34123 9.54444C7.31855 9.55433 7.37299 9.5362 7.42218 9.50873C8.64088 8.82537 9.85359 8.13047 11.0821 7.4656C11.3302 7.33138 11.4146 7.2292 11.3177 6.94831C10.6817 5.10403 10.0599 3.25463 9.43308 1.40687C9.39805 1.3036 9.3574 1.20215 9.32455 1.09815C9.1142 0.433277 9.53816 -0.0962757 10.2227 0.0145055C11.6001 0.237533 12.9805 0.450672 14.3467 0.731379C16.4402 1.1615 18.4709 1.79781 20.3593 2.83384C21.2315 3.31249 22.0335 3.88544 22.7016 4.63839C22.7861 4.7336 22.9386 4.80062 23.0676 4.81747C25.003 5.06888 26.8624 5.58268 28.629 6.42663C31.5604 7.82705 33.9161 9.91066 35.7742 12.5778C36.1544 13.1235 36.4828 13.7058 36.8407 14.2676C37.0599 14.6118 37.045 14.9374 36.8428 15.2913C35.0408 18.447 32.6314 20.9869 29.437 22.725C27.4453 23.8087 25.3199 24.479 23.0685 24.7268C22.5183 24.7874 21.9642 24.8123 21.4134 24.8692C21.2938 24.8815 21.1484 24.9297 21.0698 25.0135C19.6046 26.5756 17.7329 27.3169 15.6974 27.7019C14.9072 27.8514 14.1008 27.9273 13.2984 27.9942C12.6509 28.048 12.3013 27.7105 12.3592 27.059C12.4511 26.0228 12.5825 24.9888 12.7391 23.9605C12.7886 23.6356 12.9725 23.3317 13.105 22.9925C11.0872 22.1458 9.11656 21.2188 7.32799 19.9835C6.90022 20.4541 6.52381 20.9457 6.07154 21.3513C4.58351 22.6857 2.7815 23.217 0.834305 23.3329C0.419966 23.3577 0.175137 23.0995 0 22.7552C0 22.3176 0 21.8798 0 21.4422C0.0226861 21.3129 0.0535393 21.1843 0.066788 21.054C0.214157 19.586 0.473687 18.1405 1.1726 16.8283C1.56171 16.0981 2.057 15.4254 2.51943 14.7032C2.4129 14.5812 2.24647 14.406 2.09674 14.217C0.917246 12.7293 0.377497 10.9906 0.144102 9.13207C0.100545 8.78472 0.0482761 8.43846 0 8.09183C0 7.67837 0 7.26491 0 6.85163ZM1.51326 21.7256C3.62198 21.3449 5.29912 20.5217 6.24976 18.5829C6.59876 17.8713 7.08878 17.7803 7.68987 18.2875C7.98443 18.536 8.29387 18.7711 8.61747 18.9792C10.9349 20.4691 13.4414 21.5476 16.0366 22.4322C18.6785 23.3328 21.366 23.6003 24.1132 23.0233C29.0043 21.9961 32.6542 19.2221 35.2352 14.9539C35.2875 14.8674 35.2906 14.6935 35.2388 14.6081C32.7862 10.5633 29.3693 7.80984 24.7506 6.68775C22.9816 6.25799 21.1898 6.09429 19.376 6.33837C17.7573 6.55609 16.1972 7.01039 14.6819 7.60842C12.136 8.61333 9.61674 9.67536 7.46646 11.4453C7.12454 11.7267 6.63724 11.6138 6.39223 11.2397C6.30656 11.1087 6.24794 10.9601 6.17408 10.8211C5.19839 8.9854 3.54775 8.21726 1.51598 7.83346C1.64447 8.66478 1.71471 9.43823 1.89003 10.1866C2.26008 11.7668 2.89893 13.1955 4.29585 14.1586C4.75701 14.4765 4.7238 15.0802 4.2728 15.4263C4.06245 15.5876 3.83813 15.7361 3.65138 15.9223C2.70401 16.8668 2.18186 18.0473 1.89565 19.3329C1.7256 20.0958 1.6452 20.8787 1.51326 21.7256ZM11.2298 1.71101C11.7928 3.39489 12.3327 5.01046 12.8845 6.66101C15.2828 5.69529 17.7202 4.87441 20.3219 4.63527C17.5337 2.90452 14.4284 2.24588 11.2298 1.71101ZM18.9622 24.7464C18.907 24.731 18.8663 24.7193 18.8253 24.7083C17.5035 24.3545 16.1801 24.0066 14.8612 23.6415C14.6335 23.5785 14.5333 23.6603 14.4364 23.8425C14.0151 24.6352 13.9661 25.5 13.9091 26.37C15.403 26.3964 18.0175 25.5561 18.9622 24.7464Z" fill="#4B2710"/>
<path d="M21.5848 15.0992C21.6306 12.5089 22.0411 10.3347 23.148 8.33313C23.2389 8.1687 23.3665 7.99822 23.5206 7.90154C23.8099 7.72008 24.1206 7.74608 24.3919 7.97186C24.674 8.2066 24.7306 8.55158 24.5703 8.93062C24.2643 9.65445 23.8807 10.357 23.6731 11.1089C22.7843 14.3285 22.9427 17.473 24.4979 20.4815C24.6776 20.8291 24.7553 21.1669 24.4821 21.4967C24.2678 21.7556 23.9749 21.8614 23.674 21.7239C23.4816 21.636 23.2925 21.4623 23.1845 21.2777C22.4092 19.9525 21.9805 18.5034 21.7705 16.9887C21.6691 16.2565 21.6246 15.5161 21.5848 15.0992Z" fill="#4B2710"/>
<path d="M18.4885 15.1717C18.5533 12.517 18.9452 10.3235 20.0813 8.32178C20.2052 8.10351 20.4624 7.86931 20.6896 7.83013C20.9132 7.79149 21.2301 7.93359 21.4107 8.10113C21.6635 8.33569 21.6011 8.67243 21.464 8.98335C21.1813 9.62515 20.8512 10.2536 20.6446 10.9203C19.8308 13.5468 19.8579 16.1808 20.6836 18.8052C20.7308 18.9553 20.7887 19.1038 20.817 19.2578C20.8971 19.6921 20.6856 20.0714 20.3125 20.1865C19.9141 20.3096 19.5 20.1199 19.3624 19.6821C19.1412 18.9778 18.9179 18.2676 18.7873 17.543C18.6241 16.6379 18.554 15.7157 18.4885 15.1717Z" fill="#4B2710"/>
<path d="M29.2924 12.4589C29.2864 13.3155 28.5928 14.0064 27.7467 13.9983C26.9011 13.9905 26.222 13.2892 26.2283 12.4306C26.2347 11.5738 26.9325 10.8787 27.7748 10.8902C28.6252 10.9016 29.2986 11.5976 29.2924 12.4589Z" fill="#4B2710"/>
</svg>
