<svg width="45" height="38" viewBox="0 0 45 38" fill="none" xmlns="http://www.w3.org/2000/svg">
<g clip-path="url(#clip0_165_2266)">
<path d="M44.9999 6.78068C44.2886 8.40837 43.467 9.98913 42.2463 11.2831C41.06 12.5402 39.5419 13.208 37.7743 13.2072C36.2222 13.2064 34.6704 13.2072 33.0754 13.2072C33.0637 13.3484 33.0453 13.4727 33.0449 13.5975C33.0421 14.4326 33.0565 15.2677 33.0368 16.102C33.0292 16.4209 33.1151 16.6363 33.3698 16.848C35.0167 18.2174 36.0208 19.9791 36.2671 22.0977C36.5925 24.8946 35.7079 27.2912 33.6194 29.2146C33.4256 29.3926 33.239 29.6048 33.008 29.7107C32.4315 29.9746 32.2947 30.4423 32.2521 31.0123C32.2012 31.6958 32.0961 32.3753 32.0102 33.0949C32.9165 33.2517 33.7658 33.5373 34.4466 34.1393C34.8798 34.5224 35.2943 34.9576 35.606 35.4413C36.3369 36.5761 35.5843 37.9631 34.2311 37.9819C32.1803 38.0104 30.1291 37.9996 28.0779 37.9851C27.1299 37.9783 26.4555 37.2928 26.4451 36.3358C26.4291 34.871 26.4399 33.4061 26.4391 31.9413C26.4391 31.7812 26.4391 31.6216 26.4391 31.3364C25.5316 31.397 24.6366 31.3765 23.7809 31.5506C23.4022 31.628 23.0632 32.0656 22.7812 32.4029C22.5433 32.6873 22.4133 33.0624 22.2681 33.3359C22.8738 33.8437 23.4945 34.2821 24.0108 34.8204C24.5042 35.335 24.9403 35.9327 24.7144 36.7445C24.5223 37.4344 23.945 37.9242 23.2301 37.9803C23.0989 37.9908 22.9665 37.9916 22.8349 37.9916C16.1248 37.992 9.41475 37.9928 2.70467 37.9912C1.39723 37.9908 0.481745 37.3803 0.124296 36.2849C-0.379983 34.7386 0.7052 33.1177 2.33237 33.0672C3.81071 33.0211 5.29145 33.0568 6.77099 33.0564C6.93026 33.0564 7.08913 33.0564 7.29052 33.0564C7.16094 32.6777 7.02614 32.3404 6.92906 31.993C5.98188 28.6081 7.22031 24.9576 10.181 23.0439C13.6572 20.7965 17.2353 18.706 20.7729 16.5544C21.4605 16.1365 22.171 15.7566 22.8602 15.3407C22.9914 15.2617 23.0696 15.0952 23.2493 14.8742C22.059 14.8513 21.1227 14.5301 20.3047 13.8767C19.1557 12.9589 18.3975 11.7841 18.2539 10.3253C18.1572 9.34576 18.2158 8.33657 18.3309 7.35547C18.4304 6.50673 18.9583 5.82284 19.5565 5.22118C20.7753 3.9954 21.9993 2.77484 23.2217 1.55226C24.2555 0.517009 25.4955 -0.00884155 26.967 -1.72127e-05C28.8129 0.0112138 30.6591 0.0112138 32.5049 -1.72127e-05C33.9756 -0.00924266 35.2148 0.512998 36.2499 1.54905C36.964 2.26383 37.6809 2.97659 38.4094 3.67692C39.2868 4.52045 40.3708 4.86701 41.5606 4.92757C41.9991 4.95003 42.4408 4.96608 42.8785 4.94001C43.9027 4.87904 44.6409 5.25207 44.9995 6.25283C44.9999 6.42891 44.9999 6.6046 44.9999 6.78068ZM30.16 34.5232C30.3774 32.7844 30.5861 31.0733 30.8147 29.365C30.832 29.235 30.9728 29.0994 31.0895 29.0092C31.5862 28.6241 32.1198 28.2836 32.5955 27.8749C34.5292 26.2131 35.2357 23.2072 34.2865 20.8555C33.7481 19.5214 32.8134 18.5118 31.7057 17.6442C31.4594 17.4513 31.3736 17.252 31.3772 16.9443C31.394 15.6118 31.3716 14.2786 31.3924 12.9461C31.398 12.5775 31.2961 12.3304 31.0105 12.0857C30.363 11.531 29.9382 10.8262 29.7733 9.91653C30.3012 9.91653 30.7963 9.90731 31.2905 9.92536C31.3784 9.92857 31.4991 10.0276 31.5425 10.1139C32.0724 11.1632 32.943 11.5827 34.0891 11.5611C35.2461 11.5394 36.4039 11.541 37.5605 11.5595C40.2179 11.602 41.5659 9.96346 42.4288 8.03534C42.1167 7.63825 41.7881 7.30092 41.5627 6.90462C41.4174 6.64912 41.2658 6.55526 40.9966 6.52999C39.5331 6.39121 38.2574 5.81843 37.1914 4.80844C36.4793 4.13378 35.7965 3.42784 35.0997 2.73713C34.534 2.17598 33.8785 1.72715 33.0725 1.70228C31.4486 1.65214 29.8226 1.67861 28.197 1.67621C28.1738 1.67621 28.1509 1.70669 28.0915 1.7484C28.0915 1.89641 28.0915 2.06969 28.0915 2.24337C28.0915 4.70376 28.0919 7.16454 28.0911 9.62493C28.0907 11.535 27.4019 13.1406 25.6977 14.062C24.8729 14.508 24.6474 15.0094 24.7818 15.8244C24.8248 16.0855 24.6924 16.2155 24.4809 16.3342C23.805 16.7141 23.1338 17.1032 22.469 17.5023C18.7305 19.746 14.9851 21.979 11.2626 24.2489C10.0125 25.011 9.17244 26.1461 8.65532 27.5199C7.12684 31.5831 10.1373 36.1798 14.476 36.3081C17.2421 36.3899 20.0122 36.3354 22.7808 36.3398C22.8578 36.3398 22.9344 36.3125 23.052 36.2901C22.3383 35.0751 21.0573 34.81 19.9332 34.2356C20.7865 32.7804 21.4906 31.2995 21.4388 29.5675C21.3867 27.8219 20.7484 26.3326 19.5717 25.0884C19.9709 24.6821 20.3364 24.3094 20.7179 23.9208C22.3732 25.6202 23.1105 27.6691 23.1133 29.8992C24.2274 29.819 25.3214 29.74 26.4491 29.6586C26.4491 29.1472 26.4491 28.6394 26.4491 28.0806C26.8752 28.0806 27.2691 28.1039 27.6587 28.0738C28.0177 28.0457 28.0996 28.1849 28.098 28.523C28.0851 30.9542 28.0911 33.3853 28.0911 35.8168C28.0911 35.9844 28.0911 36.1517 28.0911 36.2977C30.162 36.2977 32.1526 36.2977 34.1802 36.2977C33.2491 34.7169 31.6556 34.757 30.16 34.5232ZM26.4391 1.71632C25.5858 1.80055 24.9323 2.18481 24.369 2.74636C23.145 3.96692 21.9258 5.1923 20.7007 6.41126C20.1454 6.96359 19.8301 7.61659 19.8329 8.40677C19.8349 8.99238 19.8229 9.58 19.865 10.1632C20.0347 12.5017 22.6247 13.918 24.6743 12.7993C25.9027 12.1286 26.4343 11.0505 26.4375 9.6863C26.4435 7.16695 26.4391 4.6476 26.4391 2.12825C26.4391 1.9991 26.4391 1.86994 26.4391 1.71632ZM9.80349 36.3382C9.31806 35.816 8.8852 35.3282 8.42384 34.8698C8.31994 34.7667 8.11654 34.7225 7.95848 34.7213C6.21817 34.7069 4.47747 34.7053 2.73676 34.7025C2.59113 34.7021 2.4427 34.7057 2.30028 34.733C1.90873 34.8076 1.64355 35.1561 1.6592 35.556C1.67404 35.9343 1.94724 36.2536 2.32636 36.3117C2.49846 36.3382 2.67618 36.3374 2.8511 36.3374C4.50394 36.339 6.15679 36.3386 7.80964 36.3386C8.46556 36.3382 9.12149 36.3382 9.80349 36.3382Z" fill="#4B2710"/>
<path d="M35.5117 5.36279C35.5134 6.04106 34.9714 6.59418 34.297 6.60181C33.609 6.60943 33.0365 6.03625 33.0465 5.34915C33.0561 4.67489 33.6098 4.1354 34.289 4.13781C34.9722 4.14062 35.5101 4.6793 35.5117 5.36279Z" fill="#4B2710"/>
</g>
<defs>
<clipPath id="clip0_165_2266">
<rect width="45" height="38" fill="white"/>
</clipPath>
</defs>
</svg>
